<?xml version="1.0" encoding="UTF-8"?>
<svg width="94px" height="94px" viewBox="0 0 94 94" version="1.1" xmlns="http://www.w3.org/2000/svg" xmlns:xlink="http://www.w3.org/1999/xlink">
    <!-- Generator: Sketch 49.2 (51160) - http://www.bohemiancoding.com/sketch -->
    <title>FB</title>
    <desc>Created with Sketch.</desc>
    <defs>
        <linearGradient x1="50%" y1="38.5294118%" x2="50%" y2="100%" id="linearGradient-1">
            <stop stop-color="#000000" stop-opacity="0" offset="0%"></stop>
            <stop stop-color="#000000" stop-opacity="0.5" offset="100%"></stop>
        </linearGradient>
        <filter x="-32.1%" y="-111.1%" width="171.4%" height="377.8%" filterUnits="objectBoundingBox" id="filter-2">
            <feOffset dx="5" dy="10" in="SourceAlpha" result="shadowOffsetOuter1"></feOffset>
            <feGaussianBlur stdDeviation="15" in="shadowOffsetOuter1" result="shadowBlurOuter1"></feGaussianBlur>
            <feColorMatrix values="0 0 0 0 0.431372549   0 0 0 0 0.709803922   0 0 0 0 0.678431373  0 0 0 0.5 0" type="matrix" in="shadowBlurOuter1" result="shadowMatrixOuter1"></feColorMatrix>
            <feMerge>
                <feMergeNode in="shadowMatrixOuter1"></feMergeNode>
                <feMergeNode in="SourceGraphic"></feMergeNode>
            </feMerge>
        </filter>
    </defs>
    <g id="WEB" stroke="none" stroke-width="1" fill="none" fill-rule="evenodd">
        <g id="Detalle_recurso_INTERACTIVO_1280" transform="translate(-961.000000, -677.000000)">
            <g id="RRSS" transform="translate(902.000000, 696.000000)">
                <g id="botones-RRSS" filter="url(#filter-2)" transform="translate(83.000000, 0.000000)">
                    <g id="FB">
                        <circle id="circulo" fill="#FFFFFF" fill-rule="nonzero" cx="18" cy="18" r="18"></circle>
                        <path d="M13.01,15.3370767 L13.01,18.8039937 L15.88,18.8039937 L15.88,27.2193302 L19.44,27.2193302 L19.44,18.8039937 L23.01,18.8039937 L23.01,15.3370767 L19.44,15.3370767 L19.44,13.5592739 C19.383742,13.0758807 19.6849319,12.6231259 20.15,12.4919875 L23.01,12.4919875 L23.01,9.08453208 L20.15,9.08453208 C18.9868926,9.11487076 17.883431,9.60983172 17.0825662,10.4604385 C16.2817014,11.3110453 15.8490969,12.4475561 15.88,13.6197433 L15.88,15.3380845 L13.01,15.3380845 L13.01,15.3370767 Z" id="fb-2" fill="#4267B2"></path>
                    </g>
                </g>
            </g>
        </g>
    </g>
</svg>