<svg height="75" viewBox="0 0 105 75" width="105" xmlns="http://www.w3.org/2000/svg"><g fill="#103e57"><path d="m29.2909088 51.3490903c0-12.7636362 10.3090907-23.072727 23.072727-23.072727 12.7636362 0 23.072727 10.3090908 23.072727 23.072727 0 11.290909-8.0181818 20.6181816-18.8181816 22.5818179-14.2363635 2.6181818-27.3272724-8.3454544-27.3272724-22.5818179zm23.072727-19.9636361c-10.9636362 0-19.9636362 9-19.9636362 19.9636361 0 12.4363635 11.290909 21.7636361 23.5636361 19.6363634 9.1636363-1.6363636 16.1999998-9.6545453 16.1999998-19.6363634.1636364-10.9636361-8.8363635-19.9636361-19.7999997-19.9636361z"/><path d="m64.7999983 50.8345177c0 .2927589-.0984347.5306202-.2953096.7135896-.1968808.1829751-.2953154.2744597-.2953154.2744597l-16.1683591 9.9171151c-.5906278.3903434-1.0951146.4635317-1.5134764.2195671-.4183614-.2439647-.627539-.7318867-.627539-1.4637805v-19.2853071c0-.7318946.2091776-1.2198186.627539-1.4637834.4183618-.2439649.9228486-.1829751 1.5134764.182975l16.1683591 9.9537078s.0984346.0914847.2953154.2744597c.1968749.1829694.2953096.4086351.2953096.676997z"/><path d="m9.65454534.29454545c-.81818181 0-1.63636361.65454545-1.63636361 1.63636362v57.27272663c0 .8181818.65454544 1.6363636 1.63636361 1.6363636h18.32727256c-1.1454546-2.9454545-1.8-6.0545454-1.8-9.3272726 0-13.9090908 10.7999999-25.3636361 24.5454542-26.0181815v-22.74545432c-1.6363636-1.47272726-3.9272726-2.45454543-6.2181817-2.45454543zm13.58181806 48.92727215h-4.7454545c-.8181818 0-1.6363636-.6545454-1.6363636-1.6363636 0-.8181818.6545454-1.6363636 1.6363636-1.6363636h4.7454545c.8181818 0 1.6363636.6545454 1.6363636 1.6363636s-.8181818 1.6363636-1.6363636 1.6363636zm4.7454545-11.4545453h-9.3272727c-.8181818 0-1.6363636-.6545455-1.6363636-1.6363636 0-.8181818.6545455-1.6363636 1.6363636-1.6363636h9.3272727c.8181818 0 1.6363636.6545454 1.6363636 1.6363636-.1636364.9818181-.8181818 1.6363636-1.6363636 1.6363636zm15.5454543-11.4545453h-25.0363633c-.8181818 0-1.6363636-.6545455-1.6363636-1.6363636 0-.8181819.6545454-1.6363637 1.6363636-1.6363637h25.0363633c.8181818 0 1.6363636.6545455 1.6363636 1.6363637 0 .9818181-.8181818 1.6363636-1.6363636 1.6363636zm1.6363636-12.9272726c0 .8181818-.6545454 1.6363636-1.6363636 1.6363636h-25.0363633c-.8181818 0-1.6363636-.6545454-1.6363636-1.6363636 0-.8181818.6545454-1.6363636 1.6363636-1.6363636h25.0363633c.8181818 0 1.6363636.6545454 1.6363636 1.6363636z"/><path d="m95.0727262.29454545h-34.8545451c-2.4545454 0-4.5818181.98181817-6.2181817 2.45454543v22.41818152c13.7454544.8181818 24.5454542 12.2727272 24.5454542 26.0181816 0 3.2727272-.6545454 6.3818181-1.7999999 9.3272726h18.3272725c.8181818 0 1.6363636-.6545455 1.6363636-1.6363636v-57.27272665c-.1636364-.49090909-.8181818-1.3090909-1.6363636-1.3090909zm-8.8363636 48.92727215h-4.7454545c-.8181818 0-1.6363636-.6545454-1.6363636-1.6363636 0-.8181818.6545455-1.6363636 1.6363636-1.6363636h4.7454545c.8181818 0 1.6363637.6545454 1.6363637 1.6363636-.1636364.9818182-.8181819 1.6363636-1.6363637 1.6363636zm0-11.4545453h-9.3272726c-.8181818 0-1.6363636-.6545455-1.6363636-1.6363636 0-.8181818.6545454-1.6363636 1.6363636-1.6363636h9.3272726c.8181818 0 1.6363637.6545454 1.6363637 1.6363636-.1636364.9818181-.8181819 1.6363636-1.6363637 1.6363636zm0-11.4545453h-25.0363633c-.8181818 0-1.6363636-.6545455-1.6363636-1.6363636 0-.8181819.6545454-1.6363637 1.6363636-1.6363637h25.0363633c.8181818 0 1.6363637.6545455 1.6363637 1.6363637-.1636364.9818181-.8181819 1.6363636-1.6363637 1.6363636zm0-11.4545454h-25.0363633c-.8181818 0-1.6363636-.6545454-1.6363636-1.6363636 0-.8181818.6545454-1.6363636 1.6363636-1.6363636h25.0363633c.8181818 0 1.6363637.6545455 1.6363637 1.6363636-.1636364.9818182-.8181819 1.6363636-1.6363637 1.6363636z"/><path d="m29.4545451 63.7854538c.8181818 1.6363636 1.9636364 3.1090909 3.1090909 4.5818181h-30.92727238c-.98181817 0-1.63636362-.6545454-1.63636362-1.6363636v-59.89090838c0-.98181817.65454545-1.63636362 1.63636362-1.63636362h3.43636359v54c0 2.6181812 2.12727271 4.7454539 4.74545449 4.7454539h19.6363634z"/><path d="m104.727272 6.83999992v59.89090838c0 .9818182-.654546 1.6363636-1.636364 1.6363636h-30.9272725c1.1454546-1.4727272 2.2909091-2.9454545 3.1090909-4.5818181h19.6363634c2.6181818 0 4.7454545-2.1272727 4.7454545-4.7454539v-53.99999996h3.4363637c.981818.16363636 1.636364.81818181 1.636364 1.79999998z"/></g></svg>