<svg height="72" viewBox="0 0 642 72" width="642" xmlns="http://www.w3.org/2000/svg"><g fill="none" fill-rule="evenodd"><path d="m3 60h273v4h-273z" fill="#ff6b47"/><path d="m324 60h314v4h-314z" fill="#ff6b47"/><path d="m24.830001 52.5450039c3.0240001 0 5.6280003-.357 7.8120003-1.071 2.1840001-.7140001 4.0110002-1.5120001 5.4810003-2.3940001 1.68-1.0080001 3.1290001-2.1630001 4.3470001-3.4650002l-7.5600003-11.9700005c-.756.6720001-1.575 1.2600001-2.4570001 1.7640001-.756.462-1.6275.8610001-2.6145001 1.1970001-.987.336-2.0265001.504-3.1185001.504-2.2260001 0-4.0425002-.7035-5.4495002-2.1105001-1.4070001-1.4070001-2.1105001-3.2235001-2.1105001-5.4495002s.7035-4.0425002 2.1105001-5.4495002c1.407-1.4070001 3.2235001-2.1105001 5.4495002-2.1105001 1.092 0 2.1315001.1785 3.1185001.5355.9870001.357 1.8585001.7665 2.6145001 1.2285001.8820001.504 1.7010001 1.071 2.4570001 1.701l7.5600003-11.9700005c-1.218-1.26-2.6670001-2.415-4.3470001-3.4650001-1.4700001-.84000002-3.2970002-1.62750005-5.4810003-2.36250008-2.184-.73500003-4.7880002-1.10250005-7.8120003-1.10250005-3.3180001 0-6.3945002.58800003-9.2295003 1.76400007-2.8350002 1.17600005-5.2920003 2.80350016-7.37100033 4.88250016-2.07900009 2.0790001-3.71700015 4.5150002-4.9140002 7.3080003s-1.79550007 5.8065003-1.79550007 9.0405004.59850002 6.2475002 1.79550007 9.0405003c1.19700005 2.7930002 2.83500011 5.2290003 4.9140002 7.3080003 2.07900003 2.0790001 4.53600013 3.7065002 7.37100033 4.8825002 2.8350001 1.1760001 5.9115002 1.7640001 9.2295003 1.7640001zm31.5000013 0c1.428 0 2.6565001-.2415 3.6855001-.7245 1.0290001-.483 1.8795001-1.0185001 2.5515001-1.6065001.7560001-.714 1.4070001-1.5120001 1.9530001-2.3940001l1.2600001 3.7800002h14.4900005v-16.6950007c0-2.4360001-.462-4.7250002-1.386-6.8670003-.9240001-2.1420001-2.2155001-4.0110001-3.8745002-5.6070002-1.659-1.5960001-3.6225001-2.8560001-5.8905002-3.7800001-2.2680001-.9240001-4.7460002-1.3860001-7.4340003-1.3860001-2.1420001 0-4.0320002.2625-5.6700002.7875-1.6380001.5250001-3.0240002 1.1025001-4.1580002 1.7325001-1.3440001.756-2.4780001 1.5960001-3.4020001 2.5200001l5.3550002 8.5050003c.504-.462 1.05-.882 1.638-1.26.5040001-.336 1.1025001-.63 1.7955001-.882.693-.2520001 1.4385001-.3780001 2.2365001-.3780001 1.2600001 0 2.2575001.1785 2.9925001.5355001.7350001.357 1.3125001.7665 1.7325001 1.2285.462.504.777 1.071.945 1.7010001h-5.0400002c-2.6880001 0-4.9875002.2625-6.8985002.7875-1.9110001.525-3.4755002 1.2495001-4.6935002 2.1735001-1.2180001.924-2.1105001 2.0160001-2.6775001 3.2760001-.5670001 1.2600001-.8505001 2.6460001-.8505001 4.1580002 0 1.512.2625 2.8980001.7875001 4.1580002.525 1.26 1.281 2.352 2.268 3.2760001.9870001.924 2.1840001 1.6485 3.5910002 2.1735001 1.407.525 2.9715001.7875 4.6935002.7875zm5.6700002-10.0800004c-.462 0-.8925-.1995-1.2915-.5985-.3990001-.399-.5985001-.8295001-.5985001-1.2915001 0-.966.399-1.785 1.1970001-2.4570001.798-.672 2.0790001-1.008 3.8430001-1.008 0 1.8900001-.3255 3.2550001-.9765 4.0950001-.651.8400001-1.3755001 1.2600001-2.1735001 1.2600001zm39.0600015 9.1350004v-17.6400007c0-1.2600001.2625-2.2050001.7875-2.8350002.525-.63 1.1025-.945 1.7325-.945s1.2075.315 1.7325.945c.525.6300001.7875 1.5750001.7875 2.8350002v17.6400007h15.120001v-17.6400007c0-1.2600001.2625-2.2050001.7875-2.8350002.525-.63 1.1025-.945 1.7325-.945s1.2075.315 1.7325.945c.525.6300001.7875 1.5750001.7875 2.8350002v17.6400007h15.120001v-17.6400007c0-2.8980002-.294-5.4075003-.882-7.5285003-.588-2.1210001-1.3965-3.8535002-2.4255-5.1975002-1.029001-1.3440001-2.236501-2.3415001-3.622501-2.9925002-1.386-.651-2.856-.9765-4.41-.9765-1.596 0-3.024.315-4.284.945-1.26.6300001-2.31 1.3230001-3.15 2.0790001-1.05.8820001-1.932 1.8690001-2.646 2.9610001-.672-1.092-1.47-2.079-2.394-2.9610001-.798-.756-1.7745-1.449-2.9295-2.0790001-1.155-.63-2.530501-.945-4.126501-.945s-2.9505.252-4.0635.756-2.0265 1.0500001-2.7405 1.6380001c-.84.714-1.512 1.4910001-2.016 2.3310001l-1.26-3.7800002h-14.4900005v33.3900014zm69.930003.945c1.722 0 3.381-.3885 4.977-1.1655 1.596-.7770001 3.003-1.9110001 4.221-3.4020002 1.218-1.491 2.1945-3.3285001 2.9295-5.5125002s1.1025-4.7040002 1.1025-7.5600003c0-2.8140001-.3675-5.3235002-1.1025-7.5285003s-1.7115-4.0530002-2.9295-5.5440002c-1.218-1.4910001-2.625-2.6250001-4.221-3.4020002-1.596-.777-3.255-1.1655-4.977-1.1655-1.596 0-2.9505.252-4.0635.756s-2.0265 1.0500001-2.7405 1.6380001c-.84.714-1.512 1.4910001-2.016001 2.3310001v-17.01000069h-15.12v46.62000189h13.86l1.26-3.7800002c.504001.882 1.176001 1.6800001 2.016001 2.3940001.714.588 1.6275 1.1235001 2.7405 1.6065001s2.4675.7245 4.0635.7245zm-5.985-12.9150005c-.966 0-1.785-.3885-2.457001-1.1655001-.672-.777-1.008-1.9635-1.008-3.5595001s.336-2.7825001 1.008-3.5595001c.672001-.7770001 1.491001-1.1655001 2.457001-1.1655001s1.785.3885 2.457 1.1655001c.672.777 1.008 1.9635 1.008 3.5595001s-.336 2.7825001-1.008 3.5595001c-.672.7770001-1.491 1.1655001-2.457 1.1655001zm39.375001 11.9700005v-13.8600006c0-2.2260001.546-3.9375001 1.638-5.1345002 1.092-1.197 2.436-1.7955001 4.032-1.7955001.462 0 .945.063 1.449.189s.987.2730001 1.449001.4410001c.504.168 1.008.378 1.512.63l2.52-13.8600006c-.378-.126-.798-.273-1.26-.441-.42-.126-.8925-.2415-1.4175-.3465s-1.1025-.1575-1.732501-.1575c-1.26 0-2.3625.252-3.3075.756s-1.7325 1.0500001-2.3625 1.6380001c-.756.714-1.386 1.4910001-1.89 2.3310001l-1.26-3.7800002h-14.49v33.3900014zm30.240001-37.1700015v-11.97000049h-15.12v11.97000049zm0 37.1700015v-33.3900014h-15.12v33.3900014zm18.270001.945c1.596 0 2.94-.2415 4.032-.7245s1.995-1.0185001 2.709-1.6065001c.798-.714 1.491-1.5120001 2.079-2.3940001l1.26 3.7800002h13.860001v-46.62000189h-15.120001v17.01000069c-.588-.84-1.281-1.6170001-2.079-2.3310001-.714-.588-1.617-1.1340001-2.709-1.6380001s-2.436-.756-4.032-.756c-1.722 0-3.381.3885-4.977 1.1655-1.596.7770001-3.003 1.9110001-4.221 3.4020002-1.218 1.491-2.1945 3.3390001-2.9295 5.5440002s-1.1025 4.7145002-1.1025 7.5285003c0 2.8560001.3675 5.3760002 1.1025 7.5600003s1.7115 4.0215002 2.9295 5.5125002c1.218 1.4910001 2.625 2.6250001 4.221 3.4020002 1.596.777 3.255 1.1655 4.977 1.1655zm5.985-12.9150005c-.966 0-1.785-.3885-2.457-1.1655001-.672-.777-1.008-1.9635-1.008-3.5595001s.336-2.7825001 1.008-3.5595001c.672-.7770001 1.491-1.1655001 2.457-1.1655001s1.785.3885 2.457 1.1655001c.672.777 1.008 1.9635 1.008 3.5595001s-.336 2.7825001-1.008 3.5595001c-.672.7770001-1.491 1.1655001-2.457 1.1655001zm40.950002 29.6100012c2.688 0 5.1975-.4935001 7.5285-1.4805001s4.3575-2.3415001 6.0795-4.0635002c1.722001-1.722 3.087001-3.7275001 4.095001-6.0165002s1.512-4.7355002 1.512-7.3395003v-32.1300013h-13.860001l-1.26 3.7800002c-.588-.84-1.281-1.6170001-2.079-2.3310001-.714-.588-1.617-1.1340001-2.709-1.6380001s-2.436-.756-4.032-.756c-1.722 0-3.381.3885-4.977 1.1655-1.596.7770001-3.003001 1.8900001-4.221001 3.3390002-1.218 1.449-2.1945 3.2235001-2.9295 5.3235002s-1.1025 4.4940002-1.1025 7.1820003.3675 5.0820002 1.1025 7.1820003c.735 2.1 1.7115 3.8745001 2.9295 5.3235002 1.218 1.449 2.625001 2.5620001 4.221001 3.3390001s3.255 1.1655 4.977 1.1655c1.596 0 2.94-.2415 4.032-.7245s1.995-1.0185 2.709-1.6065c.798-.7140001 1.491-1.5120001 2.079-2.3940001v3.7800001c0 1.7640001-.5775 3.2025001-1.7325 4.3155002-1.155 1.113-2.6775 1.6695001-4.5675 1.6695001-.798 0-1.5435-.1260001-2.2365-.3780001s-1.2915-.546-1.7955-.882c-.588-.378-1.134-.798-1.638-1.2600001l-6.300001 10.0800005c1.05 1.05 2.268 1.953 3.654001 2.7090001 1.218.672 2.6985 1.281 4.4415 1.827 1.743.5460001 3.7695.8190001 6.0795.8190001zm1.26-30.8700013c-.966 0-1.785-.3675-2.457-1.1025s-1.008-1.7325001-1.008-2.9925001c0-1.2600001.336-2.2575001 1.008-2.9925001.672-.7350001 1.491-1.1025001 2.457-1.1025001s1.785.3675 2.457 1.1025001c.672.735 1.008 1.7325 1.008 2.9925001 0 1.26-.336 2.2575001-1.008 2.9925001s-1.491 1.1025-2.457 1.1025zm41.580002 14.1750006c2.142 0 4.032-.2625 5.67-.7875 1.638-.5250001 3.024-1.1025001 4.158-1.7325001 1.344-.756 2.478-1.5960001 3.402-2.5200001l-5.355-8.5050003c-.504.462-1.05.882-1.638 1.26-.504.336-1.1025.63-1.7955.882-.693.2520001-1.4385.3780001-2.2365.3780001-1.26 0-2.268-.168-3.024-.5040001-.756-.336-1.323-.735-1.701-1.197-.462-.504-.777-1.092-.945-1.7640001h20.16v-3.1500001c0-2.4360001-.462-4.7250002-1.386-6.8670003s-2.184-4.0110001-3.78-5.6070002-3.465-2.8560001-5.607-3.7800001c-2.142-.9240001-4.431-1.3860001-6.867-1.3860001s-4.725001.462-6.867001 1.3860001c-2.142.924-4.011 2.184-5.607 3.7800001s-2.856 3.4650001-3.78 5.6070002-1.386 4.4310002-1.386 6.8670003.462 4.7250002 1.386 6.8670003 2.2155 4.0110001 3.8745 5.6070002 3.6225 2.8560001 5.8905 3.7800001c2.268.9240001 4.746001 1.3860001 7.434001 1.3860001zm1.89-20.4750008h-5.67c0-1.2600001.273-2.2050001.819-2.8350001.546-.6300001 1.218-.9450001 2.016-.9450001s1.47.315 2.016.9450001c.546.63.819 1.575.819 2.8350001zm49.140002 20.4750008c2.142 0 4.032-.2625 5.67-.7875 1.638-.5250001 3.024-1.1025001 4.158-1.7325001 1.344-.756 2.478-1.5960001 3.402-2.5200001l-5.355-8.5050003c-.504.462-1.05.882-1.638 1.26-.504.336-1.1025.63-1.7955.882-.693.2520001-1.4385.3780001-2.2365.3780001-1.26 0-2.268-.168-3.024-.5040001-.756-.336-1.323-.735-1.701-1.197-.462-.504-.777-1.092-.945-1.7640001h20.16v-3.1500001c0-2.4360001-.462-4.7250002-1.386-6.8670003s-2.184-4.0110001-3.78-5.6070002-3.465-2.8560001-5.607-3.7800001c-2.142-.9240001-4.431-1.3860001-6.867-1.3860001s-4.725001.462-6.867001 1.3860001c-2.142.924-4.011 2.184-5.607 3.7800001s-2.856 3.4650001-3.78 5.6070002-1.386 4.4310002-1.386 6.8670003.462 4.7250002 1.386 6.8670003 2.2155 4.0110001 3.8745 5.6070002 3.6225 2.8560001 5.8905 3.7800001c2.268.9240001 4.746001 1.3860001 7.434001 1.3860001zm1.89-20.4750008h-5.67c0-1.2600001.273-2.2050001.819-2.8350001.546-.6300001 1.218-.9450001 2.016-.9450001s1.47.315 2.016.9450001c.546.63.819 1.575.819 2.8350001zm34.335001 19.5300008v-17.6400007c0-1.2600001.2625-2.2050001.7875-2.8350002.525-.63 1.1025-.945 1.7325-.945s1.2075.315 1.7325.945c.525.6300001.7875 1.5750001.7875 2.8350002v17.6400007h15.120001v-17.6400007c0-1.2600001.2625-2.2050001.7875-2.8350002.525-.63 1.1025-.945 1.7325-.945s1.2075.315 1.7325.945c.525.6300001.7875 1.5750001.7875 2.8350002v17.6400007h15.120001v-17.6400007c0-2.8980002-.294-5.4075003-.882-7.5285003-.588-2.1210001-1.3965-3.8535002-2.4255-5.1975002-1.029-1.3440001-2.2365-2.3415001-3.622501-2.9925002-1.386-.651-2.856-.9765-4.41-.9765-1.596 0-3.024.315-4.284.945-1.26.6300001-2.31 1.3230001-3.15 2.0790001-1.05.8820001-1.932 1.8690001-2.646 2.9610001-.672-1.092-1.47-2.079-2.394-2.9610001-.798-.756-1.7745-1.449-2.9295-2.0790001-1.155-.63-2.5305-.945-4.126501-.945-1.596 0-2.9505.252-4.0635.756s-2.0265 1.0500001-2.7405 1.6380001c-.84.714-1.512 1.4910001-2.016 2.3310001l-1.26-3.7800002h-14.49v33.3900014zm81.270003.945c3.024 0 5.628001-.357 7.812001-1.071 2.184-.7140001 4.011-1.5120001 5.481-2.3940001 1.68-1.0080001 3.129-2.1630001 4.347-3.4650002l-7.56-11.9700005c-.756.6720001-1.575 1.2600001-2.457 1.7640001-.756.462-1.6275.8610001-2.6145 1.1970001s-2.026501.504-3.118501.504c-2.226 0-4.0425-.7035-5.4495-2.1105001s-2.1105-3.2235001-2.1105-5.4495002.7035-4.0425002 2.1105-5.4495002c1.407-1.4070001 3.2235-2.1105001 5.4495-2.1105001 1.092 0 2.131501.1785 3.118501.5355s1.8585.7665 2.6145 1.2285001c.882.504 1.701 1.071 2.457 1.701l7.56-11.9700005c-1.218-1.26-2.667-2.415-4.347-3.4650001-1.47-.84000002-3.297-1.62750005-5.481-2.36250008s-4.788001-1.10250005-7.812001-1.10250005c-3.318 0-6.3945.58800003-9.2295 1.76400007-2.835 1.17600005-5.292 2.80350016-7.371 4.88250016-2.079 2.0790001-3.717 4.5150002-4.914001 7.3080003-1.197 2.7930001-1.7955 5.8065003-1.7955 9.0405004s.5985 6.2475002 1.7955 9.0405003c1.197001 2.7930002 2.835001 5.2290003 4.914001 7.3080003 2.079 2.0790001 4.536 3.7065002 7.371 4.8825002 2.835 1.1760001 5.9115 1.7640001 9.2295 1.7640001zm31.500002 0c1.428 0 2.6565-.2415 3.6855-.7245s1.8795-1.0185001 2.5515-1.6065001c.756-.714 1.407-1.5120001 1.953-2.3940001l1.26 3.7800002h14.490001v-16.6950007c0-2.4360001-.462-4.7250002-1.386-6.8670003-.924001-2.1420001-2.215501-4.0110001-3.874501-5.6070002s-3.6225-2.8560001-5.8905-3.7800001c-2.268-.9240001-4.746-1.3860001-7.434-1.3860001-2.142 0-4.032.2625-5.67.7875-1.638.5250001-3.024001 1.1025001-4.158001 1.7325001-1.344.756-2.478 1.5960001-3.402 2.5200001l5.355001 8.5050003c.504-.462 1.05-.882 1.638-1.26.504-.336 1.1025-.63 1.7955-.882.693-.2520001 1.4385-.3780001 2.2365-.3780001 1.26 0 2.2575.1785 2.9925.5355001.735.357 1.3125.7665 1.7325 1.2285.462.504.777 1.071.945 1.7010001h-5.04c-2.688 0-4.9875.2625-6.898501.7875-1.911.525-3.4755 1.2495001-4.6935 2.1735001s-2.1105 2.0160001-2.6775 3.2760001c-.567 1.2600001-.8505 2.6460001-.8505 4.1580002 0 1.512.2625 2.8980001.7875 4.1580002.525 1.26 1.281 2.352 2.268 3.2760001.987.924 2.184 1.6485 3.591 2.1735001 1.407.525 2.971501.7875 4.693501.7875zm5.67-10.0800004c-.462 0-.8925-.1995-1.2915-.5985s-.5985-.8295001-.5985-1.2915001c0-.966.399-1.785 1.197-2.4570001.798-.672 2.079-1.008 3.843-1.008 0 1.8900001-.3255 3.2550001-.9765 4.0950001-.651.8400001-1.3755 1.2600001-2.1735 1.2600001zm37.170001 10.0800004c2.436 0 4.578-.294 6.426001-.882 1.848-.5880001 3.3915-1.3860001 4.6305-2.3940001 1.239-1.0080001 2.1735-2.1735001 2.8035-3.4965002.63-1.323.945-2.7405001.945-4.2525001 0-1.6800001-.3045-3.1185002-.9135-4.3155002-.609-1.1970001-1.365-2.2050001-2.268-3.0240001-.903-.8190001-1.89-1.4910001-2.961-2.0160001s-2.058-.9765-2.961-1.3545001c-.903001-.378-1.659001-.7035-2.268001-.9765s-.9135-.5775-.9135-.9135c0-.3360001.147-.6300001.441-.8820001s.672-.378 1.134-.378c.840001 0 1.627501.126 2.362501.378s1.3755.546 1.9215.8820001c.63.378 1.197.798 1.701 1.26l4.725-7.5600003c-1.092-1.008-2.331-1.8900001-3.717-2.6460001-1.218-.672-2.6775-1.2915-4.3785-1.8585001-1.701-.567-3.622501-.8505-5.764501-.8505-2.436 0-4.578.294-6.426.882-1.848.5880001-3.3915 1.3860001-4.6305 2.3940001-1.239 1.0080001-2.1735 2.1735001-2.8035 3.4965002-.63 1.323-.945 2.7405001-.945 4.2525001 0 1.6800001.3045 3.1185002.9135 4.3155002.609 1.1970001 1.365 2.2050001 2.268 3.0240001.903.8190001 1.89 1.4910001 2.961 2.0160001s2.058.9765 2.961 1.3545001c.903.378 1.659.714 2.268 1.008s.9135.588.9135.882c0 .3360001-.147.6300001-.441.8820001s-.672.378-1.134.378c-1.218 0-2.2995-.1575-3.2445-.4725s-1.7745-.6825001-2.4885-1.1025001c-.798-.462-1.512-.987-2.142-1.575l-4.725 7.5600003c1.092 1.134 2.415 2.142 3.969 3.0240001 1.344.756 2.982 1.4385 4.914 2.0475001 1.932.609 4.221.9135 6.867.9135zm28.665001 0c1.428001 0 2.656501-.2415 3.685501-.7245s1.8795-1.0185001 2.5515-1.6065001c.756-.714 1.407-1.5120001 1.953-2.3940001l1.26 3.7800002h14.49v-16.6950007c0-2.4360001-.462-4.7250002-1.386-6.8670003s-2.2155-4.0110001-3.8745-5.6070002-3.6225-2.8560001-5.8905-3.7800001c-2.268-.9240001-4.746-1.3860001-7.434-1.3860001-2.142 0-4.032001.2625-5.670001.7875-1.638.5250001-3.024 1.1025001-4.158 1.7325001-1.344.756-2.478 1.5960001-3.402 2.5200001l5.355 8.5050003c.504-.462 1.05-.882 1.638-1.26.504-.336 1.1025-.63 1.7955-.882.693001-.2520001 1.438501-.3780001 2.236501-.3780001 1.26 0 2.2575.1785 2.9925.5355001.735.357 1.3125.7665 1.7325 1.2285.462.504.777 1.071.945 1.7010001h-5.04c-2.688001 0-4.987501.2625-6.898501.7875s-3.4755 1.2495001-4.6935 2.1735001-2.1105 2.0160001-2.6775 3.2760001c-.567 1.2600001-.8505 2.6460001-.8505 4.1580002 0 1.512.2625 2.8980001.7875 4.1580002.525 1.26 1.281 2.352 2.268 3.2760001.987.924 2.184 1.6485 3.591 2.1735001 1.407.525 2.9715.7875 4.6935.7875zm5.670001-10.0800004c-.462 0-.8925-.1995-1.2915-.5985s-.5985-.8295001-.5985-1.2915001c0-.966.399-1.785 1.197-2.4570001.798-.672 2.079-1.008 3.843-1.008 0 1.8900001-.3255 3.2550001-.9765 4.0950001-.651.8400001-1.3755 1.2600001-2.1735 1.2600001z" fill="#103e57" fill-rule="nonzero"/></g></svg>