<?xml version="1.0" encoding="UTF-8"?>
<svg width="464px" height="80px" viewBox="0 0 464 80" version="1.1" xmlns="http://www.w3.org/2000/svg" xmlns:xlink="http://www.w3.org/1999/xlink">
    <!-- Generator: Sketch 49.2 (51160) - http://www.bohemiancoding.com/sketch -->
    <title>logos/inglesencasa</title>
    <desc>Created with Sketch.</desc>
    <defs></defs>
    <g id="logos/inglesencasa" stroke="none" stroke-width="1" fill="none" fill-rule="evenodd">
        <rect id="Rectangle-9" fill="#FF6B47" x="2" y="69" width="58" height="4"></rect>
        <rect id="Rectangle-9" fill="#FF6B47" x="108" y="69" width="347" height="4"></rect>
        <path d="M18.3800007,10.9300003 L18.3800007,55.030002 L2,55.030002 L2,10.9300003 L18.3800007,10.9300003 Z M49.2500019,20.6950007 C55.5500021,20.6950007 60.5900023,25.7350009 60.5900023,37.3900013 L60.5900023,55.030002 L45.4700017,55.030002 L45.4700017,37.3900013 C45.4700017,34.8700012 44.2100017,33.6100012 42.9500016,33.6100012 C41.6900016,33.6100012 40.4300015,34.8700012 40.4300015,37.3900013 L40.4300015,55.030002 L25.3100009,55.030002 L25.3100009,21.6400007 L39.8000015,21.6400007 L41.0600016,25.4200009 C41.0600016,25.4200009 43.5800017,20.6950007 49.2500019,20.6950007 Z M87.0500034,53.770002 L87.0500034,49.9900018 C87.0500034,49.9900018 84.5300033,54.715002 78.230003,54.715002 C71.3000028,54.715002 65.0000025,48.4150018 65.0000025,37.7050013 C65.0000025,26.9950009 71.3000028,20.6950007 78.230003,20.6950007 C84.5300033,20.6950007 87.0500034,25.4200009 87.0500034,25.4200009 L88.3100034,21.6400007 L102.170004,21.6400007 L102.170004,53.770002 C102.170004,64.1650024 93.6650036,72.6700027 82.9550032,72.6700027 C73.8200029,72.6700027 68.7800027,67.3150025 68.7800027,67.3150025 L75.0800029,57.2350021 C75.0800029,57.2350021 77.600003,59.7550022 80.7500031,59.7550022 C84.5300033,59.7550022 87.0500034,57.2350021 87.0500034,53.770002 Z M80.7500031,37.7050013 C80.7500031,40.2250014 82.3250032,41.8000015 84.2150033,41.8000015 C86.1050033,41.8000015 87.6800034,40.2250014 87.6800034,37.7050013 C87.6800034,35.1850012 86.1050033,33.6100012 84.2150033,33.6100012 C82.3250032,33.6100012 80.7500031,35.1850012 80.7500031,37.7050013 Z M108.470004,55.030002 L108.470004,8.41000018 L123.590005,8.41000018 L123.590005,55.030002 L108.470004,55.030002 Z M146.270006,20.6950007 C156.035006,20.6950007 163.910006,28.570001 163.910006,38.3350014 L163.910006,41.4850015 L143.750006,41.4850015 C143.750006,41.4850015 144.380006,44.9500016 149.420006,44.9500016 C152.570006,44.9500016 155.090006,42.4300015 155.090006,42.4300015 L160.445006,50.9350019 C160.445006,50.9350019 155.720006,55.9750021 147.215006,55.9750021 C136.505005,55.9750021 128.630005,48.1000018 128.630005,38.3350014 C128.630005,28.570001 136.505005,20.6950007 146.270006,20.6950007 Z M143.435006,35.5000013 L149.105006,35.5000013 C149.105006,32.9800012 147.845006,31.7200011 146.270006,31.7200011 C144.695006,31.7200011 143.435006,32.9800012 143.435006,35.5000013 Z M140.600006,17.2300005 L146.270006,4 L159.500006,4 L150.680006,17.2300005 L140.600006,17.2300005 Z M196.355008,44.9500016 C196.355008,50.9350019 191.315008,55.9750021 181.550007,55.9750021 C171.155007,55.9750021 165.800007,49.9900018 165.800007,49.9900018 L170.525007,42.4300015 C170.525007,42.4300015 173.675007,45.5800017 178.400007,45.5800017 C179.345007,45.5800017 179.975007,44.9500016 179.975007,44.3200016 C179.975007,42.4300015 167.690007,41.8000015 167.690007,31.7200011 C167.690007,25.7350009 172.730007,20.6950007 182.495007,20.6950007 C191.000008,20.6950007 196.355008,26.0500009 196.355008,26.0500009 L191.630008,33.6100012 C191.630008,33.6100012 189.110007,31.0900011 185.645007,31.0900011 C184.700007,31.0900011 184.070007,31.7200011 184.070007,32.3500011 C184.070007,34.2400012 196.355008,34.8700012 196.355008,44.9500016 Z M229.745009,20.6950007 C239.510009,20.6950007 247.38501,28.570001 247.38501,38.3350014 L247.38501,41.4850015 L227.225009,41.4850015 C227.225009,41.4850015 227.855009,44.9500016 232.895009,44.9500016 C236.045009,44.9500016 238.565009,42.4300015 238.565009,42.4300015 L243.92001,50.9350019 C243.92001,50.9350019 239.195009,55.9750021 230.690009,55.9750021 C219.980009,55.9750021 212.105008,48.1000018 212.105008,38.3350014 C212.105008,28.570001 219.980009,20.6950007 229.745009,20.6950007 Z M226.910009,35.5000013 L232.580009,35.5000013 C232.580009,32.9800012 231.320009,31.7200011 229.745009,31.7200011 C228.170009,31.7200011 226.910009,32.9800012 226.910009,35.5000013 Z M275.735011,20.6950007 C282.035011,20.6950007 287.075011,25.7350009 287.075011,37.3900013 L287.075011,55.030002 L271.955011,55.030002 L271.955011,37.3900013 C271.955011,34.8700012 270.695011,33.6100012 269.435011,33.6100012 C268.175011,33.6100012 266.915011,34.8700012 266.915011,37.3900013 L266.915011,55.030002 L251.79501,55.030002 L251.79501,21.6400007 L266.285011,21.6400007 L267.545011,25.4200009 C267.545011,25.4200009 270.065011,20.6950007 275.735011,20.6950007 Z M338.105008,37.0750013 C338.105008,37.0750013 338.105008,37.0750013 338.105008,37.0750013 Z M338.105013,37.0750013 L345.665014,49.0450018 C345.665014,49.0450018 339.995013,55.9750021 328.025013,55.9750021 C314.795012,55.9750021 304.715012,45.8950017 304.715012,32.9800012 C304.715012,20.0650006 314.795012,9.98500024 328.025013,9.98500024 C339.995013,9.98500024 345.665014,16.9150005 345.665014,16.9150005 L338.105013,28.885001 C338.105013,28.885001 334.325013,25.4200009 329.915013,25.4200009 C325.505013,25.4200009 322.355013,28.570001 322.355013,32.9800012 C322.355013,37.3900013 325.505013,40.5400015 329.915013,40.5400015 C334.321989,40.5400015 338.099828,37.0797528 338.105008,37.0750062 L338.105013,37.0750013 Z M364.880014,20.6950007 C375.590015,20.6950007 383.465015,28.570001 383.465015,38.3350014 L383.465015,55.030002 L368.975015,55.030002 L367.715015,51.2500019 C367.715015,51.2500019 365.195014,55.9750021 359.525014,55.9750021 C352.595014,55.9750021 348.185014,51.5650019 348.185014,45.5800017 C348.185014,39.5950014 352.595014,35.1850012 363.305014,35.1850012 L368.345015,35.1850012 C368.345015,35.1850012 367.715015,31.7200011 362.675014,31.7200011 C359.525014,31.7200011 357.005014,34.2400012 357.005014,34.2400012 L351.650014,25.7350009 C351.650014,25.7350009 356.375014,20.6950007 364.880014,20.6950007 Z M365.195014,45.8950017 C366.770014,45.8950017 368.345015,44.3200016 368.345015,40.5400015 C364.880014,40.5400015 363.305014,42.1150015 363.305014,44.0050016 C363.305014,44.9500016 364.250014,45.8950017 365.195014,45.8950017 Z M417.170016,44.9500016 C417.170016,50.9350019 412.130016,55.9750021 402.365016,55.9750021 C391.970015,55.9750021 386.615015,49.9900018 386.615015,49.9900018 L391.340015,42.4300015 C391.340015,42.4300015 394.490016,45.5800017 399.215016,45.5800017 C400.160016,45.5800017 400.790016,44.9500016 400.790016,44.3200016 C400.790016,42.4300015 388.505015,41.8000015 388.505015,31.7200011 C388.505015,25.7350009 393.545016,20.6950007 403.310016,20.6950007 C411.815016,20.6950007 417.170016,26.0500009 417.170016,26.0500009 L412.445016,33.6100012 C412.445016,33.6100012 409.925016,31.0900011 406.460016,31.0900011 C405.515016,31.0900011 404.885016,31.7200011 404.885016,32.3500011 C404.885016,34.2400012 417.170016,34.8700012 417.170016,44.9500016 Z M436.385017,20.6950007 C447.095018,20.6950007 454.970018,28.570001 454.970018,38.3350014 L454.970018,55.030002 L440.480017,55.030002 L439.220017,51.2500019 C439.220017,51.2500019 436.700017,55.9750021 431.030017,55.9750021 C424.100017,55.9750021 419.690017,51.5650019 419.690017,45.5800017 C419.690017,39.5950014 424.100017,35.1850012 434.810017,35.1850012 L439.850017,35.1850012 C439.850017,35.1850012 439.220017,31.7200011 434.180017,31.7200011 C431.030017,31.7200011 428.510017,34.2400012 428.510017,34.2400012 L423.155017,25.7350009 C423.155017,25.7350009 427.880017,20.6950007 436.385017,20.6950007 Z M436.700017,45.8950017 C438.275017,45.8950017 439.850017,44.3200016 439.850017,40.5400015 C436.385017,40.5400015 434.810017,42.1150015 434.810017,44.0050016 C434.810017,44.9500016 435.755017,45.8950017 436.700017,45.8950017 Z" id="Inglés-en-Casa" fill="#103E57"></path>
    </g>
</svg>