<svg width="622" height="72" xmlns="http://www.w3.org/2000/svg"><g fill="none" fill-rule="evenodd"><path fill="#FF6B47" d="M3 60L276 60 276 64 3 64z"/><path fill="#FF6B47" d="M324 60L618 60 618 64 324 64z"/><path d="M1.52 29.55c0-12.915 10.08-22.995 23.31-22.995 11.97 0 17.64 6.93 17.64 6.93l-7.56 11.97s-3.78-3.465-8.19-3.465-7.56 3.15-7.56 7.56 3.15 7.56 7.56 7.56 8.19-3.465 8.19-3.465l7.56 11.97s-5.67 6.93-17.64 6.93c-13.23 0-23.31-10.08-23.31-22.995zm60.165-12.285c10.71 0 18.585 7.875 18.585 17.64V51.6H65.78l-1.26-3.78s-2.52 4.725-8.19 4.725c-6.93 0-11.34-4.41-11.34-10.395 0-5.985 4.41-10.395 15.12-10.395h5.04s-.63-3.465-5.67-3.465c-3.15 0-5.67 2.52-5.67 2.52l-5.355-8.505s4.725-5.04 13.23-5.04zm.315 25.2c1.575 0 3.15-1.575 3.15-5.355-3.465 0-5.04 1.575-5.04 3.465 0 .945.945 1.89 1.89 1.89zm57.96-19.215c.004-.007 3.784-5.985 10.08-5.985 6.3 0 11.34 5.04 11.34 16.695V51.6h-15.12V33.96c0-2.52-1.26-3.78-2.52-3.78s-2.52 1.26-2.52 3.78V51.6H106.1V33.96c0-2.52-1.26-3.78-2.52-3.78s-2.52 1.26-2.52 3.78V51.6H85.94V18.21h14.49l1.26 3.78s2.52-4.725 8.82-4.725c6.297 0 9.447 5.98 9.45 5.985zm64.26 11.655c0 11.34-6.3 17.64-13.23 17.64-6.3 0-8.82-4.725-8.82-4.725l-1.26 3.78h-13.86V4.98h15.12v17.01s2.52-4.725 8.82-4.725c6.93 0 13.23 6.3 13.23 17.64zm-15.75 0c0-3.15-1.575-4.725-3.465-4.725s-3.465 1.575-3.465 4.725c0 3.15 1.575 4.725 3.465 4.725s3.465-1.575 3.465-4.725zm36.54-12.915s2.52-4.725 7.56-4.725c2.52 0 4.41.945 4.41.945l-2.52 13.86s-2.52-1.26-4.41-1.26c-3.15 0-5.67 2.52-5.67 6.93V51.6h-15.12V18.21h14.49l1.26 3.78zm14.49-3.78h15.12V51.6H219.5V18.21zm0-3.78V2.46h15.12v11.97H219.5zm20.16 20.475c0-11.34 6.3-17.64 13.23-17.64 6.3 0 8.82 4.725 8.82 4.725V4.98h15.12V51.6h-13.86l-1.26-3.78s-2.52 4.725-8.82 4.725c-6.93 0-13.23-6.3-13.23-17.64zm15.75 0c0 3.15 1.575 4.725 3.465 4.725s3.465-1.575 3.465-4.725c0-3.15-1.575-4.725-3.465-4.725s-3.465 1.575-3.465 4.725zm48.51 15.435v-3.78s-2.52 4.725-8.82 4.725c-6.93 0-13.23-6.3-13.23-17.01s6.3-17.01 13.23-17.01c6.3 0 8.82 4.725 8.82 4.725l1.26-3.78h13.86v32.13c0 10.395-8.505 18.9-19.215 18.9-9.135 0-14.175-5.355-14.175-5.355l6.3-10.08s2.52 2.52 5.67 2.52c3.78 0 6.3-2.52 6.3-5.985zm-6.3-16.065c0 2.52 1.575 4.095 3.465 4.095s3.465-1.575 3.465-4.095c0-2.52-1.575-4.095-3.465-4.095s-3.465 1.575-3.465 4.095zm44.1-17.01c9.765 0 17.64 7.875 17.64 17.64v3.15H339.2s.63 3.465 5.67 3.465c3.15 0 5.67-2.52 5.67-2.52l5.355 8.505s-4.725 5.04-13.23 5.04c-10.71 0-18.585-7.875-18.585-17.64s7.875-17.64 17.64-17.64zm-2.835 14.805h5.67c0-2.52-1.26-3.78-2.835-3.78s-2.835 1.26-2.835 3.78zm53.865-14.805c9.765 0 17.64 7.875 17.64 17.64v3.15h-20.16s.63 3.465 5.67 3.465c3.15 0 5.67-2.52 5.67-2.52l5.355 8.505s-4.725 5.04-13.23 5.04c-10.71 0-18.585-7.875-18.585-17.64s7.875-17.64 17.64-17.64zm-2.835 14.805h5.67c0-2.52-1.26-3.78-2.835-3.78s-2.835 1.26-2.835 3.78zm48.825-14.805c6.3 0 11.34 5.04 11.34 16.695V51.6h-15.12V33.96c0-2.52-1.26-3.78-2.52-3.78s-2.52 1.26-2.52 3.78V51.6H414.8V18.21h14.49l1.26 3.78s2.52-4.725 8.19-4.725zm28.98 12.285c0-12.915 10.08-22.995 23.31-22.995 11.97 0 17.64 6.93 17.64 6.93l-7.56 11.97s-3.78-3.465-8.19-3.465-7.56 3.15-7.56 7.56 3.15 7.56 7.56 7.56 8.19-3.465 8.19-3.465l7.56 11.97s-5.67 6.93-17.64 6.93c-13.23 0-23.31-10.08-23.31-22.995zm60.165-12.285c10.71 0 18.585 7.875 18.585 17.64V51.6h-14.49l-1.26-3.78s-2.52 4.725-8.19 4.725c-6.93 0-11.34-4.41-11.34-10.395 0-5.985 4.41-10.395 15.12-10.395h5.04s-.63-3.465-5.67-3.465c-3.15 0-5.67 2.52-5.67 2.52l-5.355-8.505s4.725-5.04 13.23-5.04zm.315 25.2c1.575 0 3.15-1.575 3.15-5.355-3.465 0-5.04 1.575-5.04 3.465 0 .945.945 1.89 1.89 1.89zm51.975-.945c0 5.985-5.04 11.025-14.805 11.025-10.395 0-15.75-5.985-15.75-5.985l4.725-7.56s3.15 3.15 7.875 3.15c.945 0 1.575-.63 1.575-1.26 0-1.89-12.285-2.52-12.285-12.6 0-5.985 5.04-11.025 14.805-11.025 8.505 0 13.86 5.355 13.86 5.355l-4.725 7.56s-2.52-2.52-5.985-2.52c-.945 0-1.575.63-1.575 1.26 0 1.89 12.285 2.52 12.285 12.6zm19.215-24.255c10.71 0 18.585 7.875 18.585 17.64V51.6h-14.49l-1.26-3.78s-2.52 4.725-8.19 4.725c-6.93 0-11.34-4.41-11.34-10.395 0-5.985 4.41-10.395 15.12-10.395h5.04s-.63-3.465-5.67-3.465c-3.15 0-5.67 2.52-5.67 2.52l-5.355-8.505s4.725-5.04 13.23-5.04zm.315 25.2c1.575 0 3.15-1.575 3.15-5.355-3.465 0-5.04 1.575-5.04 3.465 0 .945.945 1.89 1.89 1.89z" fill="#103E57" fill-rule="nonzero"/></g></svg>