<svg xmlns="http://www.w3.org/2000/svg" width="363" height="139"><g fill="none" fill-rule="evenodd" transform="translate(-1 -1)"><path fill="#103E57" fill-rule="nonzero" d="M2.52 32.55c0-12.915 10.08-22.995 23.31-22.995 11.97 0 17.64 6.93 17.64 6.93l-7.56 11.97s-3.78-3.465-8.19-3.465-7.56 3.15-7.56 7.56 3.15 7.56 7.56 7.56 8.19-3.465 8.19-3.465l7.56 11.97s-5.67 6.93-17.64 6.93c-13.23 0-23.31-10.08-23.31-22.995zm60.165-12.285c10.71 0 18.585 7.875 18.585 17.64V54.6H66.78l-1.26-3.78s-2.52 4.725-8.19 4.725c-6.93 0-11.34-4.41-11.34-10.395 0-5.985 4.41-10.395 15.12-10.395h5.04s-.63-3.465-5.67-3.465c-3.15 0-5.67 2.52-5.67 2.52l-5.355-8.505s4.725-5.04 13.23-5.04zm.315 25.2c1.575 0 3.15-1.575 3.15-5.355-3.465 0-5.04 1.575-5.04 3.465 0 .945.945 1.89 1.89 1.89zm57.96-19.215c.006-.01 3.785-5.985 10.08-5.985 6.3 0 11.34 5.04 11.34 16.695V54.6h-15.12V36.96c0-2.52-1.26-3.78-2.52-3.78s-2.52 1.26-2.52 3.78V54.6H107.1V36.96c0-2.52-1.26-3.78-2.52-3.78s-2.52 1.26-2.52 3.78V54.6H86.94V21.21h14.49l1.26 3.78s2.52-4.725 8.82-4.725c6.292 0 9.442 5.97 9.45 5.985zm64.26 11.655c0 11.34-6.3 17.64-13.23 17.64-6.3 0-8.82-4.725-8.82-4.725l-1.26 3.78h-13.86V7.98h15.12v17.01s2.52-4.725 8.82-4.725c6.93 0 13.23 6.3 13.23 17.64zm-15.75 0c0-3.15-1.575-4.725-3.465-4.725s-3.465 1.575-3.465 4.725c0 3.15 1.575 4.725 3.465 4.725s3.465-1.575 3.465-4.725zm36.54-12.915s2.52-4.725 7.56-4.725c2.52 0 4.41.945 4.41.945l-2.52 13.86s-2.52-1.26-4.41-1.26c-3.15 0-5.67 2.52-5.67 6.93V54.6h-15.12V21.21h14.49l1.26 3.78zm14.49-3.78h15.12V54.6H220.5V21.21zm0-3.78V5.46h15.12v11.97H220.5zm20.16 20.475c0-11.34 6.3-17.64 13.23-17.64 6.3 0 8.82 4.725 8.82 4.725V7.98h15.12V54.6h-13.86l-1.26-3.78s-2.52 4.725-8.82 4.725c-6.93 0-13.23-6.3-13.23-17.64zm15.75 0c0 3.15 1.575 4.725 3.465 4.725s3.465-1.575 3.465-4.725c0-3.15-1.575-4.725-3.465-4.725s-3.465 1.575-3.465 4.725zm48.51 15.435v-3.78s-2.52 4.725-8.82 4.725c-6.93 0-13.23-6.3-13.23-17.01s6.3-17.01 13.23-17.01c6.3 0 8.82 4.725 8.82 4.725l1.26-3.78h13.86v32.13c0 10.395-8.505 18.9-19.215 18.9-9.135 0-14.175-5.355-14.175-5.355l6.3-10.08s2.52 2.52 5.67 2.52c3.78 0 6.3-2.52 6.3-5.985zm-6.3-16.065c0 2.52 1.575 4.095 3.465 4.095s3.465-1.575 3.465-4.095c0-2.52-1.575-4.095-3.465-4.095s-3.465 1.575-3.465 4.095zm44.1-17.01c9.765 0 17.64 7.875 17.64 17.64v3.15H340.2s.63 3.465 5.67 3.465c3.15 0 5.67-2.52 5.67-2.52l5.355 8.505s-4.725 5.04-13.23 5.04c-10.71 0-18.585-7.875-18.585-17.64s7.875-17.64 17.64-17.64zm-2.835 14.805h5.67c0-2.52-1.26-3.78-2.835-3.78s-2.835 1.26-2.835 3.78zM19.53 89.265c9.765 0 17.64 7.875 17.64 17.64v3.15H17.01s.63 3.465 5.67 3.465c3.15 0 5.67-2.52 5.67-2.52l5.355 8.505s-4.725 5.04-13.23 5.04c-10.71 0-18.585-7.875-18.585-17.64s7.875-17.64 17.64-17.64zm-2.835 14.805h5.67c0-2.52-1.26-3.78-2.835-3.78s-2.835 1.26-2.835 3.78zM65.52 89.265c6.3 0 11.34 5.04 11.34 16.695v17.64H61.74v-17.64c0-2.52-1.26-3.78-2.52-3.78s-2.52 1.26-2.52 3.78v17.64H41.58V90.21h14.49l1.26 3.78s2.52-4.725 8.19-4.725zM94.5 101.55c0-12.915 10.08-22.995 23.31-22.995 11.97 0 17.64 6.93 17.64 6.93l-7.56 11.97s-3.78-3.465-8.19-3.465-7.56 3.15-7.56 7.56 3.15 7.56 7.56 7.56 8.19-3.465 8.19-3.465l7.56 11.97s-5.67 6.93-17.64 6.93c-13.23 0-23.31-10.08-23.31-22.995zm60.165-12.285c10.71 0 18.585 7.875 18.585 17.64V123.6h-14.49l-1.26-3.78s-2.52 4.725-8.19 4.725c-6.93 0-11.34-4.41-11.34-10.395 0-5.985 4.41-10.395 15.12-10.395h5.04s-.63-3.465-5.67-3.465c-3.15 0-5.67 2.52-5.67 2.52l-5.355-8.505s4.725-5.04 13.23-5.04zm.315 25.2c1.575 0 3.15-1.575 3.15-5.355-3.465 0-5.04 1.575-5.04 3.465 0 .945.945 1.89 1.89 1.89zm51.975-.945c0 5.985-5.04 11.025-14.805 11.025-10.395 0-15.75-5.985-15.75-5.985l4.725-7.56s3.15 3.15 7.875 3.15c.945 0 1.575-.63 1.575-1.26 0-1.89-12.285-2.52-12.285-12.6 0-5.985 5.04-11.025 14.805-11.025 8.505 0 13.86 5.355 13.86 5.355l-4.725 7.56s-2.52-2.52-5.985-2.52c-.945 0-1.575.63-1.575 1.26 0 1.89 12.285 2.52 12.285 12.6zm19.215-24.255c10.71 0 18.585 7.875 18.585 17.64V123.6h-14.49l-1.26-3.78s-2.52 4.725-8.19 4.725c-6.93 0-11.34-4.41-11.34-10.395 0-5.985 4.41-10.395 15.12-10.395h5.04s-.63-3.465-5.67-3.465c-3.15 0-5.67 2.52-5.67 2.52l-5.355-8.505s4.725-5.04 13.23-5.04zm.315 25.2c1.575 0 3.15-1.575 3.15-5.355-3.465 0-5.04 1.575-5.04 3.465 0 .945.945 1.89 1.89 1.89z"/><path fill="#FF6B47" d="M3 63L280 63 280 67 3 67z"/><path fill="#FF6B47" d="M3 132L244 132 244 136 3 136z"/><path fill="#FF6B47" d="M322 63L359 63 359 67 322 67z"/></g></svg>