<svg height="139" viewBox="0 0 363 139" width="363" xmlns="http://www.w3.org/2000/svg"><g fill="none" fill-rule="evenodd"><g fill="#ff6b47"><path d="m2 62h277v4h-277z"/><path d="m2 131h262v4h-262z"/><path d="m321 62h37v4h-37z"/></g><path d="m24.830001 53.945c3.0240001 0 5.6280003-.357 7.8120003-1.071 2.1840001-.714 4.0110002-1.5120001 5.4810003-2.3940001 1.68-1.008 3.1290001-2.1630001 4.3470001-3.4650001l-7.5600003-11.9700005c-.756.672-1.575 1.26-2.4570001 1.7640001-.756.462-1.6275.861-2.6145001 1.197-.987.336-2.0265001.504-3.1185001.504-2.2260001 0-4.0425002-.7035-5.4495002-2.1105001-1.4070001-1.407-2.1105001-3.2235001-2.1105001-5.4495002s.7035-4.0425001 2.1105001-5.4495002c1.407-1.407 3.2235001-2.1105001 5.4495002-2.1105001 1.092 0 2.1315001.1785 3.1185001.5355.9870001.3570001 1.8585001.7665001 2.6145001 1.2285001.8820001.504 1.7010001 1.071 2.4570001 1.7010001l7.5600003-11.9700005c-1.218-1.2600001-2.6670001-2.4150001-4.3470001-3.4650002-1.4700001-.84-3.2970002-1.62750002-5.4810003-2.36250005-2.184-.73500003-4.7880002-1.10250004-7.8120003-1.10250004-3.3180001 0-6.3945002.58800002-9.2295003 1.76400007-2.8350002 1.17600002-5.2920003 2.80350012-7.37100033 4.88250022-2.07900009 2.0790001-3.71700015 4.5150002-4.9140002 7.3080003s-1.79550007 5.8065002-1.79550007 9.0405003c0 3.2340002.59850002 6.2475003 1.79550007 9.0405004s2.83500011 5.2290002 4.9140002 7.3080003c2.07900003 2.0790001 4.53600013 3.7065001 7.37100033 4.8825002 2.8350001 1.176 5.9115002 1.764 9.2295003 1.764zm31.5000013 0c1.428 0 2.6565001-.2415 3.6855001-.7245 1.0290001-.483 1.8795001-1.0185 2.5515001-1.6065001.7560001-.714 1.4070001-1.512 1.9530001-2.3940001l1.2600001 3.7800002h14.4900005v-16.6950007c0-2.4360001-.462-4.7250002-1.386-6.8670002-.9240001-2.1420001-2.2155001-4.0110002-3.8745002-5.6070003-1.659-1.596-3.6225001-2.8560001-5.8905002-3.7800001s-4.7460002-1.3860001-7.4340003-1.3860001c-2.1420001 0-4.0320002.2625-5.6700002.7875001-1.6380001.525-3.0240002 1.1025-4.1580002 1.7325-1.3440001.7560001-2.4780001 1.5960001-3.4020001 2.5200001l5.3550002 8.5050004c.504-.462 1.05-.8820001 1.638-1.2600001.5040001-.336 1.1025001-.63 1.7955001-.882s1.4385001-.378 2.2365001-.378c1.2600001 0 2.2575001.1785 2.9925001.5355.7350001.357 1.3125001.7665 1.7325001 1.2285.462.5040001.777 1.0710001.945 1.7010001h-5.0400002c-2.6880001 0-4.9875002.2625-6.8985002.7875-1.9110001.5250001-3.4755002 1.2495001-4.6935002 2.1735001-1.2180001.9240001-2.1105001 2.0160001-2.6775001 3.2760002-.5670001 1.26-.8505001 2.6460001-.8505001 4.1580001 0 1.5120001.2625 2.8980001.7875001 4.1580002.525 1.26 1.281 2.3520001 2.268 3.2760001.9870001.9240001 2.1840001 1.6485001 3.5910002 2.1735001 1.407.525 2.9715001.7875 4.6935002.7875zm5.6700002-10.0800004c-.462 0-.8925-.1995-1.2915-.5985-.3990001-.399-.5985001-.8295-.5985001-1.2915 0-.9660001.399-1.7850001 1.1970001-2.4570001.798-.6720001 2.0790001-1.0080001 3.8430001-1.0080001 0 1.8900001-.3255 3.2550002-.9765 4.0950002s-1.3755001 1.26-2.1735001 1.26zm39.0600015 9.1350004v-17.6400007c0-1.2600001.2625-2.2050001.7875-2.8350001s1.1025-.9450001 1.7325-.9450001 1.2075.3150001 1.7325.9450001.7875 1.575.7875 2.8350001v17.6400007h15.120001v-17.6400007c0-1.2600001.2625-2.2050001.7875-2.8350001s1.1025-.9450001 1.7325-.9450001 1.2075.3150001 1.7325.9450001.7875 1.575.7875 2.8350001v17.6400007h15.120001v-17.6400007c0-2.8980001-.294-5.4075002-.882-7.5285003s-1.3965-3.8535002-2.4255-5.1975002c-1.029001-1.3440001-2.236501-2.3415001-3.622501-2.9925001-1.386-.6510001-2.856-.9765001-4.41-.9765001-1.596 0-3.024.315-4.284.9450001-1.26.63-2.31 1.323-3.15 2.0790001-1.05.882-1.932 1.869-2.646 2.9610001-.672-1.0920001-1.47-2.0790001-2.394-2.9610001-.798-.7560001-1.7745-1.4490001-2.9295-2.0790001-1.155-.6300001-2.530501-.9450001-4.126501-.9450001s-2.9505.252-4.0635.7560001c-1.113.504-2.0265 1.05-2.7405 1.638-.84.7140001-1.512 1.4910001-2.016 2.3310001l-1.26-3.7800001h-14.4900005v33.3900013zm69.930003.945c1.722 0 3.381-.3885 4.977-1.1655s3.003-1.9110001 4.221-3.4020001c1.218-1.4910001 2.1945-3.3285002 2.9295-5.5125003.735-2.184 1.1025-4.7040001 1.1025-7.5600003 0-2.8140001-.3675-5.3235002-1.1025-7.5285003s-1.7115-4.0530001-2.9295-5.5440002c-1.218-1.491-2.625-2.6250001-4.221-3.4020001s-3.255-1.1655001-4.977-1.1655001c-1.596 0-2.9505.252-4.0635.7560001-1.113.504-2.0265 1.05-2.7405 1.638-.84.7140001-1.512 1.4910001-2.016001 2.3310001v-17.01000065h-15.12v46.62000185h13.86l1.26-3.7800002c.504001.8820001 1.176001 1.6800001 2.016001 2.3940001.714.5880001 1.6275 1.1235001 2.7405 1.6065001s2.4675.7245 4.0635.7245zm-5.985-12.9150005c-.966 0-1.785-.3885-2.457001-1.1655-.672-.7770001-1.008-1.9635001-1.008-3.5595002 0-1.596.336-2.7825001 1.008-3.5595001.672001-.777 1.491001-1.1655001 2.457001-1.1655001s1.785.3885001 2.457 1.1655001 1.008 1.9635001 1.008 3.5595001c0 1.5960001-.336 2.7825001-1.008 3.5595002-.672.777-1.491 1.1655-2.457 1.1655zm39.375001 11.9700005v-13.8600006c0-2.226.546-3.9375001 1.638-5.1345002 1.092-1.197 2.436-1.7955 4.032-1.7955.462 0 .945.063 1.449.189s.987.273 1.449001.441c.504.168 1.008.378 1.512.63l2.52-13.8600005c-.378-.126-.798-.273-1.26-.441-.42-.126-.8925-.2415001-1.4175-.3465001s-1.1025-.1575-1.732501-.1575c-1.26 0-2.3625.252-3.3075.7560001-.945.504-1.7325 1.05-2.3625 1.638-.756.7140001-1.386 1.4910001-1.89 2.3310001l-1.26-3.7800001h-14.49v33.3900013zm30.240001-37.1700015v-11.97000045h-15.12v11.97000045zm0 37.1700015v-33.3900013h-15.12v33.3900013zm18.270001.945c1.596 0 2.94-.2415 4.032-.7245s1.995-1.0185 2.709-1.6065001c.798-.714 1.491-1.512 2.079-2.3940001l1.26 3.7800002h13.860001v-46.62000185h-15.120001v17.01000065c-.588-.84-1.281-1.617-2.079-2.3310001-.714-.588-1.617-1.134-2.709-1.638-1.092-.5040001-2.436-.7560001-4.032-.7560001-1.722 0-3.381.3885001-4.977 1.1655001s-3.003 1.9110001-4.221 3.4020001c-1.218 1.4910001-2.1945 3.3390001-2.9295 5.5440002s-1.1025 4.7145002-1.1025 7.5285003c0 2.8560002.3675 5.3760003 1.1025 7.5600003.735 2.1840001 1.7115 4.0215002 2.9295 5.5125003 1.218 1.491 2.625 2.6250001 4.221 3.4020001s3.255 1.1655 4.977 1.1655zm5.985-12.9150005c-.966 0-1.785-.3885-2.457-1.1655-.672-.7770001-1.008-1.9635001-1.008-3.5595002 0-1.596.336-2.7825001 1.008-3.5595001s1.491-1.1655001 2.457-1.1655001 1.785.3885001 2.457 1.1655001 1.008 1.9635001 1.008 3.5595001c0 1.5960001-.336 2.7825001-1.008 3.5595002-.672.777-1.491 1.1655-2.457 1.1655zm40.950002 29.6100012c2.688 0 5.1975-.4935 7.5285-1.4805001 2.331-.987 4.3575-2.3415001 6.0795-4.0635001 1.722001-1.7220001 3.087001-3.7275002 4.095001-6.0165003 1.008-2.289 1.512-4.7355001 1.512-7.3395003v-32.1300012h-13.860001l-1.26 3.7800001c-.588-.84-1.281-1.617-2.079-2.3310001-.714-.588-1.617-1.134-2.709-1.638-1.092-.5040001-2.436-.7560001-4.032-.7560001-1.722 0-3.381.3885001-4.977 1.1655001s-3.003001 1.8900001-4.221001 3.3390001c-1.218 1.4490001-2.1945 3.2235001-2.9295 5.3235002s-1.1025 4.4940002-1.1025 7.1820003.3675 5.0820002 1.1025 7.1820003 1.7115 3.8745002 2.9295 5.3235002c1.218 1.4490001 2.625001 2.5620001 4.221001 3.3390001 1.596.7770001 3.255 1.1655001 4.977 1.1655001 1.596 0 2.94-.2415 4.032-.7245 1.092-.4830001 1.995-1.0185001 2.709-1.6065001.798-.714 1.491-1.5120001 2.079-2.3940001v3.7800001c0 1.7640001-.5775 3.2025002-1.7325 4.3155002-1.155 1.1130001-2.6775 1.6695001-4.5675 1.6695001-.798 0-1.5435-.126-2.2365-.378s-1.2915-.546-1.7955-.8820001c-.588-.378-1.134-.798-1.638-1.26l-6.300001 10.0800004c1.05 1.05 2.268 1.9530001 3.654001 2.7090001 1.218.672 2.6985 1.281 4.4415 1.8270001 1.743.546 3.7695.819 6.0795.819zm1.26-30.8700012c-.966 0-1.785-.3675-2.457-1.1025001-.672-.735-1.008-1.7325-1.008-2.9925001 0-1.26.336-2.2575001 1.008-2.9925001s1.491-1.1025001 2.457-1.1025001 1.785.3675001 2.457 1.1025001 1.008 1.7325001 1.008 2.9925001c0 1.2600001-.336 2.2575001-1.008 2.9925001-.672.7350001-1.491 1.1025001-2.457 1.1025001zm41.580002 14.1750005c2.142 0 4.032-.2625 5.67-.7875s3.024-1.1025 4.158-1.7325001c1.344-.756 2.478-1.596 3.402-2.5200001l-5.355-8.5050003c-.504.462-1.05.882-1.638 1.26-.504.3360001-1.1025.6300001-1.7955.8820001s-1.4385.378-2.2365.378c-1.26 0-2.268-.168-3.024-.504s-1.323-.735-1.701-1.1970001c-.462-.504-.777-1.092-.945-1.764h20.16v-3.1500002c0-2.4360001-.462-4.7250002-1.386-6.8670002-.924-2.1420001-2.184-4.0110002-3.78-5.6070003-1.596-1.596-3.465-2.8560001-5.607-3.7800001s-4.431-1.3860001-6.867-1.3860001-4.725001.4620001-6.867001 1.3860001-4.011 2.1840001-5.607 3.7800001c-1.596 1.5960001-2.856 3.4650002-3.78 5.6070003-.924 2.142-1.386 4.4310001-1.386 6.8670002s.462 4.7250002 1.386 6.8670003 2.2155 4.0110002 3.8745 5.6070002c1.659 1.5960001 3.6225 2.8560001 5.8905 3.7800002 2.268.924 4.746001 1.386 7.434001 1.386zm1.89-20.4750008h-5.67c0-1.26.273-2.2050001.819-2.8350001s1.218-.945 2.016-.945 1.47.315 2.016.945.819 1.5750001.819 2.8350001zm-325.0800132 89.4750008c2.1420001 0 4.0320002-.2625 5.6700002-.7875 1.6380001-.525 3.0240002-1.1025 4.1580002-1.7325 1.3440001-.756 2.4780001-1.596 3.4020001-2.52l-5.3550002-8.505001c-.504.462001-1.05.882001-1.638 1.260001-.5040001.336-1.1025001.63-1.7955001.882s-1.4385001.378-2.2365001.378c-1.26 0-2.2680001-.168-3.0240001-.504s-1.3230001-.735-1.7010001-1.197c-.462-.504-.777-1.092001-.945-1.764001h20.1600008v-3.15c0-2.436-.462-4.725-1.3860001-6.8669999-.924-2.1420001-2.1840001-4.0110002-3.7800001-5.6070003-1.5960001-1.596-3.4650002-2.8560001-5.6070003-3.7800001-2.142-.924-4.4310001-1.3860001-6.8670002-1.3860001s-4.7250002.4620001-6.8670003 1.3860001c-2.14200008.924-4.01100016 2.1840001-5.60700022 3.7800001-1.59600006 1.5960001-2.85600011 3.4650002-3.78000015 5.6070003-.92400004 2.1419999-1.38600005 4.4309999-1.38600005 6.8669999s.46200001 4.725001 1.38600005 6.867001 2.21550009 4.011 3.87450015 5.607c1.65900007 1.596 3.62250015 2.856 5.89050022 3.78 2.2680001.924 4.7460002 1.386 7.4340003 1.386zm1.8900001-20.475001h-5.6700002c0-1.26.273-2.205.819-2.8349999.546-.63 1.218-.945 2.0160001-.945.798 0 1.47.315 2.0160001.945.546.6299999.819 1.5749999.819 2.8349999zm34.3350014 19.530001v-17.640001c0-1.26.2625-2.205.7875-2.835s1.1025-.945 1.7325001-.945c.63 0 1.2075.315 1.7325.945s.7875001 1.575.7875001 2.835v17.640001h15.1200006v-17.640001c0-1.26.2625-2.205.7875-2.835s1.1025-.945 1.7325001-.945c.63 0 1.2075.315 1.7325.945s.7875001 1.575.7875001 2.835v17.640001h15.1200006v-17.640001c0-2.898-.2940001-5.4074999-.8820001-7.5285s-1.3965-3.8535002-2.4255001-5.1975002c-1.029-1.3440001-2.2365001-2.3415001-3.6225001-2.9925001-1.3860001-.6510001-2.8560001-.9765001-4.4100002-.9765001-1.5960001 0-3.0240001.315-4.2840002.9450001-1.26.63-2.3100001 1.323-3.1500001 2.0790001-1.05.882-1.9320001 1.869-2.6460001 2.9610001-.672-1.0920001-1.4700001-2.0790001-2.3940001-2.9610001-.798-.7560001-1.7745001-1.4490001-2.9295001-2.0790001-1.1550001-.6300001-2.5305001-.9450001-4.1265002-.9450001-1.596 0-2.9505001.252-4.0635001.7560001-1.1130001.504-2.0265001 1.05-2.7405001 1.638-.8400001.7140001-1.5120001 1.4910001-2.0160001 2.3310001l-1.2600001-3.7800001h-14.4900005v33.3900013zm81.2700027.945c3.024001 0 5.628001-.357 7.812001-1.071s4.011-1.512 5.481-2.394c1.68-1.008 3.129-2.163 4.347-3.465l-7.56-11.970001c-.756.672-1.575 1.26-2.457 1.764-.756.462-1.6275.861-2.6145 1.197s-2.0265.504-3.1185.504c-2.226001 0-4.042501-.7035-5.449501-2.1105s-2.1105-3.2235-2.1105-5.4494999c0-2.2260001.7035-4.0425001 2.1105-5.4495002 1.407-1.407 3.2235-2.1105001 5.449501-2.1105001 1.092 0 2.1315.1785 3.1185.5355.987.3570001 1.8585.7665001 2.6145 1.2285001.882.504 1.701 1.071 2.457 1.7010001l7.56-11.9700005c-1.218-1.2600001-2.667-2.4150001-4.347-3.4650002-1.47-.84-3.297-1.6275-5.481-2.3625-2.184-.7350001-4.788-1.1025001-7.812001-1.1025001-3.318 0-6.3945.588-9.2295 1.7640001-2.835 1.176-5.292 2.8035001-7.371 4.8825002s-3.717 4.5150002-4.914 7.3080003-1.7955 5.8065002-1.7955 9.0405003c0 3.2339999.5985 6.2474999 1.7955 9.0404999 1.197 2.793001 2.835 5.229001 4.914 7.308001s4.536 3.7065 7.371 4.8825 5.9115 1.764 9.2295 1.764zm31.500002 0c1.428 0 2.6565-.2415 3.6855-.7245s1.8795-1.0185 2.5515-1.6065c.756-.714 1.407-1.512 1.953-2.394l1.26 3.78h14.490001v-16.695001c0-2.436-.462-4.725-1.386-6.8669999-.924-2.1420001-2.2155-4.0110002-3.874501-5.6070003-1.659-1.596-3.6225-2.8560001-5.8905-3.7800001s-4.746-1.3860001-7.434-1.3860001c-2.142 0-4.032.2625-5.67.7875001-1.638.525-3.024 1.1025-4.158 1.7325-1.344.7560001-2.478001 1.5960001-3.402001 2.5200001l5.355001 8.5050002c.504-.462 1.05-.882 1.638-1.2599999.504-.336 1.1025-.63 1.7955-.882s1.4385-.378 2.2365-.378c1.26 0 2.2575.1785 2.9925.5355s1.3125.7665 1.7325 1.2284999c.462.504.777 1.071.945 1.701h-5.04c-2.688 0-4.9875.2625-6.8985.7875s-3.475501 1.2495-4.693501 2.1735-2.1105 2.016-2.6775 3.276c-.567 1.260001-.8505 2.646001-.8505 4.158001s.2625 2.898.7875 4.158 1.281 2.352 2.268 3.276 2.184 1.6485 3.591001 2.1735c1.407.525 2.9715.7875 4.6935.7875zm5.67-10.08c-.462 0-.8925-.1995-1.2915-.5985s-.5985-.8295-.5985-1.2915c0-.966.399-1.785001 1.197-2.457001s2.079-1.008 3.843-1.008c0 1.89-.3255 3.255001-.9765 4.095001s-1.3755 1.26-2.1735 1.26zm37.170001 10.08c2.436001 0 4.578001-.294 6.426001-.882s3.3915-1.386 4.6305-2.394 2.1735-2.1735 2.8035-3.4965.945-2.7405.945-4.2525c0-1.68-.3045-3.118501-.9135-4.315501s-1.365-2.205-2.268-3.024-1.89-1.491-2.961-2.016-2.058-.9765-2.961-1.3545-1.659-.7035-2.268-.9765c-.609-.2729999-.9135-.5774999-.9135-.9134999s.147-.63.441-.882.672-.3780001 1.134-.3780001c.84 0 1.6275.1260001 2.3625.3780001s1.3755.546 1.9215.882c.63.378 1.197.7979999 1.701 1.2599999l4.725-7.5600002c-1.092-1.008-2.331-1.89-3.717-2.6460001-1.218-.672-2.6775-1.2915-4.3785-1.8585-1.701-.5670001-3.6225-.8505001-5.764501-.8505001-2.436 0-4.578.294-6.426.8820001-1.848.588-3.3915 1.386-4.6305 2.3940001-1.239 1.008-2.1735 2.1735001-2.8035 3.4965001-.63 1.3230001-.945 2.7405001-.945 4.2525002 0 1.6799999.3045 3.1184999.9135 4.3154999s1.365 2.205 2.268 3.024 1.89 1.491 2.961 2.016 2.058.9765 2.961 1.3545c.903.378001 1.659.714001 2.268 1.008001s.9135.588.9135.882c0 .336-.147.63-.441.882s-.672.378-1.134.378c-1.218 0-2.2995-.1575-3.2445-.4725s-1.7745-.6825-2.4885-1.1025c-.798-.462-1.512-.987-2.142-1.575001l-4.725 7.560001c1.092 1.134 2.415 2.142 3.969 3.024 1.344.756 2.982 1.4385 4.914 2.0475s4.221.9135 6.867.9135zm28.665002 0c1.428 0 2.6565-.2415 3.6855-.7245s1.8795-1.0185 2.5515-1.6065c.756-.714 1.407-1.512 1.953-2.394l1.26 3.78h14.490001v-16.695001c0-2.436-.462-4.725-1.386001-6.8669999-.924-2.1420001-2.2155-4.0110002-3.8745-5.6070003-1.659-1.596-3.6225-2.8560001-5.8905-3.7800001s-4.746-1.3860001-7.434-1.3860001c-2.142 0-4.032.2625-5.67.7875001-1.638001.525-3.024001 1.1025-4.158001 1.7325-1.344.7560001-2.478 1.5960001-3.402 2.5200001l5.355 8.5050002c.504-.462 1.050001-.882 1.638001-1.2599999.504-.336 1.1025-.63 1.7955-.882s1.4385-.378 2.2365-.378c1.26 0 2.2575.1785 2.9925.5355s1.3125.7665 1.7325 1.2284999c.462.504.777 1.071.945 1.701h-5.04c-2.688 0-4.9875.2625-6.898501.7875-1.911.525-3.4755 1.2495-4.6935 2.1735s-2.1105 2.016-2.6775 3.276c-.567 1.260001-.8505 2.646001-.8505 4.158001s.2625 2.898.7875 4.158 1.281 2.352 2.268 3.276 2.184 1.6485 3.591 2.1735 2.971501.7875 4.693501.7875zm5.67-10.08c-.462 0-.8925-.1995-1.2915-.5985s-.5985-.8295-.5985-1.2915c0-.966.399-1.785001 1.197-2.457001s2.079-1.008 3.843-1.008c0 1.89-.3255 3.255001-.9765 4.095001s-1.3755 1.26-2.1735 1.26z" fill="#103e57" fill-rule="nonzero"/></g></svg>