<?xml version="1.0" encoding="UTF-8"?>
<svg width="272px" height="42px" viewBox="0 0 272 42" version="1.1" xmlns="http://www.w3.org/2000/svg" xmlns:xlink="http://www.w3.org/1999/xlink">
    <!-- Generator: Sketch 49.2 (51160) - http://www.bohemiancoding.com/sketch -->
    <title>logos/inglesencasa</title>
    <desc>Created with Sketch.</desc>
    <defs></defs>
    <g id="WEB" stroke="none" stroke-width="1" fill="none" fill-rule="evenodd">
        <g id="Compartido_recurso_INTERACTIVO_1280" transform="translate(-159.000000, -23.000000)">
            <g id="logos/inglesencasa" transform="translate(158.000000, 21.000000)">
                <rect id="Rectangle-9" fill="#FF6B47" x="1.20000005" y="41.4000016" width="34.8000014" height="2.4000001"></rect>
                <rect id="Rectangle-9" fill="#FF6B47" x="64.8000026" y="41.4000016" width="208.200008" height="2.4000001"></rect>
                <path d="M11.0280008,6.55800043 L11.0280008,33.0180025 L1.20000005,33.0180025 L1.20000005,6.55800043 L11.0280008,6.55800043 Z M29.5500023,12.4170009 C33.3300026,12.4170009 36.3540028,15.4410011 36.3540028,22.4340017 L36.3540028,33.0180025 L27.2820021,33.0180025 L27.2820021,22.4340017 C27.2820021,20.9220016 26.5260021,20.1660015 25.770002,20.1660015 C25.0140019,20.1660015 24.2580019,20.9220016 24.2580019,22.4340017 L24.2580019,33.0180025 L15.1860012,33.0180025 L15.1860012,12.9840009 L23.8800019,12.9840009 L24.6360019,15.2520011 C24.6360019,15.2520011 26.148002,12.4170009 29.5500023,12.4170009 Z M52.2300041,32.2620025 L52.2300041,29.9940023 C52.2300041,29.9940023 50.718004,32.8290025 46.9380037,32.8290025 C42.7800034,32.8290025 39.0000031,29.0490022 39.0000031,22.6230017 C39.0000031,16.1970012 42.7800034,12.4170009 46.9380037,12.4170009 C50.718004,12.4170009 52.2300041,15.2520011 52.2300041,15.2520011 L52.9860042,12.9840009 L61.3020048,12.9840009 L61.3020048,32.2620025 C61.3020048,38.499003 56.1990044,43.6020034 49.7730039,43.6020034 C44.2920035,43.6020034 41.2680032,40.3890031 41.2680032,40.3890031 L45.0480035,34.3410026 C45.0480035,34.3410026 46.5600037,35.8530028 48.4500038,35.8530028 C50.718004,35.8530028 52.2300041,34.3410026 52.2300041,32.2620025 Z M48.4500038,22.6230017 C48.4500038,24.1350018 49.3950039,25.0800019 50.529004,25.0800019 C51.6630041,25.0800019 52.6080041,24.1350018 52.6080041,22.6230017 C52.6080041,21.1110016 51.6630041,20.1660015 50.529004,20.1660015 C49.3950039,20.1660015 48.4500038,21.1110016 48.4500038,22.6230017 Z M65.0820051,33.0180025 L65.0820051,5.04600031 L74.1540058,5.04600031 L74.1540058,33.0180025 L65.0820051,33.0180025 Z M87.7620069,12.4170009 C93.6210074,12.4170009 98.3460078,17.1420013 98.3460078,23.0010017 L98.3460078,24.8910019 L86.2500068,24.8910019 C86.2500068,24.8910019 86.6280068,26.970002 89.6520071,26.970002 C91.5420072,26.970002 93.0540073,25.4580019 93.0540073,25.4580019 L96.2670076,30.5610023 C96.2670076,30.5610023 93.4320074,33.5850026 88.329007,33.5850026 C81.9030065,33.5850026 77.1780061,28.8600022 77.1780061,23.0010017 C77.1780061,17.1420013 81.9030065,12.4170009 87.7620069,12.4170009 Z M86.0610068,21.3000016 L89.4630071,21.3000016 C89.4630071,19.7880015 88.707007,19.0320014 87.7620069,19.0320014 C86.8170069,19.0320014 86.0610068,19.7880015 86.0610068,21.3000016 Z M84.3600067,10.3380007 L87.7620069,2.4000001 L95.7000076,2.4000001 L90.4080071,10.3380007 L84.3600067,10.3380007 Z M117.813009,26.970002 C117.813009,30.5610023 114.789009,33.5850026 108.930009,33.5850026 C102.693008,33.5850026 99.4800079,29.9940023 99.4800079,29.9940023 L102.315008,25.4580019 C102.315008,25.4580019 104.205008,27.3480021 107.040008,27.3480021 C107.607009,27.3480021 107.985009,26.970002 107.985009,26.592002 C107.985009,25.4580019 100.614008,25.0800019 100.614008,19.0320014 C100.614008,15.4410011 103.638008,12.4170009 109.497009,12.4170009 C114.600009,12.4170009 117.813009,15.6300011 117.813009,15.6300011 L114.978009,20.1660015 C114.978009,20.1660015 113.466009,18.6540014 111.387009,18.6540014 C110.820009,18.6540014 110.442009,19.0320014 110.442009,19.4100014 C110.442009,20.5440015 117.813009,20.9220016 117.813009,26.970002 Z M137.847011,12.4170009 C143.706011,12.4170009 148.431012,17.1420013 148.431012,23.0010017 L148.431012,24.8910019 L136.335011,24.8910019 C136.335011,24.8910019 136.713011,26.970002 139.737011,26.970002 C141.627011,26.970002 143.139011,25.4580019 143.139011,25.4580019 L146.352012,30.5610023 C146.352012,30.5610023 143.517011,33.5850026 138.414011,33.5850026 C131.98801,33.5850026 127.26301,28.8600022 127.26301,23.0010017 C127.26301,17.1420013 131.98801,12.4170009 137.847011,12.4170009 Z M136.146011,21.3000016 L139.548011,21.3000016 C139.548011,19.7880015 138.792011,19.0320014 137.847011,19.0320014 C136.902011,19.0320014 136.146011,19.7880015 136.146011,21.3000016 Z M165.441013,12.4170009 C169.221013,12.4170009 172.245014,15.4410011 172.245014,22.4340017 L172.245014,33.0180025 L163.173013,33.0180025 L163.173013,22.4340017 C163.173013,20.9220016 162.417013,20.1660015 161.661013,20.1660015 C160.905013,20.1660015 160.149013,20.9220016 160.149013,22.4340017 L160.149013,33.0180025 L151.077012,33.0180025 L151.077012,12.9840009 L159.771013,12.9840009 L160.527013,15.2520011 C160.527013,15.2520011 162.039013,12.4170009 165.441013,12.4170009 Z M202.863013,22.2450017 C202.863013,22.2450017 202.863013,22.2450017 202.863013,22.2450017 Z M202.863016,22.2450017 L207.399016,29.4270022 C207.399016,29.4270022 203.997016,33.5850026 196.815016,33.5850026 C188.877015,33.5850026 182.829014,27.5370021 182.829014,19.7880015 C182.829014,12.0390009 188.877015,5.99100038 196.815016,5.99100038 C203.997016,5.99100038 207.399016,10.1490007 207.399016,10.1490007 L202.863016,17.3310013 C202.863016,17.3310013 200.595016,15.2520011 197.949016,15.2520011 C195.303015,15.2520011 193.413015,17.1420013 193.413015,19.7880015 C193.413015,22.4340017 195.303015,24.3240018 197.949016,24.3240018 C200.593201,24.3240018 202.859905,22.2478525 202.863013,22.2450046 L202.863016,22.2450017 Z M218.928017,12.4170009 C225.354018,12.4170009 230.079018,17.1420013 230.079018,23.0010017 L230.079018,33.0180025 L221.385018,33.0180025 L220.629017,30.7500023 C220.629017,30.7500023 219.117017,33.5850026 215.715017,33.5850026 C211.557017,33.5850026 208.911017,30.9390024 208.911017,27.3480021 C208.911017,23.7570018 211.557017,21.1110016 217.983017,21.1110016 L221.007018,21.1110016 C221.007018,21.1110016 220.629017,19.0320014 217.605017,19.0320014 C215.715017,19.0320014 214.203017,20.5440015 214.203017,20.5440015 L210.990017,15.4410011 C210.990017,15.4410011 213.825017,12.4170009 218.928017,12.4170009 Z M219.117017,27.5370021 C220.062017,27.5370021 221.007018,26.592002 221.007018,24.3240018 C218.928017,24.3240018 217.983017,25.2690019 217.983017,26.403002 C217.983017,26.970002 218.550017,27.5370021 219.117017,27.5370021 Z M250.30202,26.970002 C250.30202,30.5610023 247.27802,33.5850026 241.419019,33.5850026 C235.182019,33.5850026 231.969018,29.9940023 231.969018,29.9940023 L234.804019,25.4580019 C234.804019,25.4580019 236.694019,27.3480021 239.529019,27.3480021 C240.096019,27.3480021 240.474019,26.970002 240.474019,26.592002 C240.474019,25.4580019 233.103018,25.0800019 233.103018,19.0320014 C233.103018,15.4410011 236.127019,12.4170009 241.986019,12.4170009 C247.08902,12.4170009 250.30202,15.6300011 250.30202,15.6300011 L247.46702,20.1660015 C247.46702,20.1660015 245.955019,18.6540014 243.876019,18.6540014 C243.309019,18.6540014 242.931019,19.0320014 242.931019,19.4100014 C242.931019,20.5440015 250.30202,20.9220016 250.30202,26.970002 Z M261.831021,12.4170009 C268.257021,12.4170009 272.982022,17.1420013 272.982022,23.0010017 L272.982022,33.0180025 L264.288021,33.0180025 L263.532021,30.7500023 C263.532021,30.7500023 262.020021,33.5850026 258.618021,33.5850026 C254.46002,33.5850026 251.81402,30.9390024 251.81402,27.3480021 C251.81402,23.7570018 254.46002,21.1110016 260.886021,21.1110016 L263.910021,21.1110016 C263.910021,21.1110016 263.532021,19.0320014 260.508021,19.0320014 C258.618021,19.0320014 257.10602,20.5440015 257.10602,20.5440015 L253.89302,15.4410011 C253.89302,15.4410011 256.72802,12.4170009 261.831021,12.4170009 Z M262.020021,27.5370021 C262.965021,27.5370021 263.910021,26.592002 263.910021,24.3240018 C261.831021,24.3240018 260.886021,25.2690019 260.886021,26.403002 C260.886021,26.970002 261.453021,27.5370021 262.020021,27.5370021 Z" id="Inglés-en-Casa" fill="#103E57"></path>
            </g>
        </g>
    </g>
</svg>