<svg width="22" height="20" viewBox="0 0 22 20" xmlns="http://www.w3.org/2000/svg" xmlns:xlink="http://www.w3.org/1999/xlink"><title>icon/play_audio@1x</title><defs><path d="M9.889 4.236v11.811c0 .754-.9 1.125-1.423.597l-3.089-3.127H1.833A.839.839 0 0 1 1 12.673V7.61c0-.466.373-.843.833-.843h3.544l3.09-3.128c.52-.527 1.422-.157 1.422.597zm6.321-2.738a1.103 1.103 0 0 0-1.527.373c-.32.53-.156 1.223.368 1.547a7.894 7.894 0 0 1 3.727 6.724 7.914 7.914 0 0 1-3.351 6.476 1.134 1.134 0 0 0-.28 1.565c.35.511 1.042.638 1.546.284A10.173 10.173 0 0 0 21 10.142a10.15 10.15 0 0 0-4.79-8.644zm1.457 8.644a6.767 6.767 0 0 0-3.193-5.762 1.103 1.103 0 0 0-1.528.372c-.32.53-.155 1.223.368 1.547a4.486 4.486 0 0 1 2.13 3.843 4.523 4.523 0 0 1-1.915 3.7 1.134 1.134 0 0 0-.28 1.566 1.106 1.106 0 0 0 1.547.284 6.782 6.782 0 0 0 2.87-5.55zm-3.334 0a3.362 3.362 0 0 0-1.596-2.881 1.103 1.103 0 0 0-1.527.373c-.32.53-.155 1.223.368 1.547a1.131 1.131 0 0 1 .054 1.887 1.134 1.134 0 0 0-.28 1.565c.35.51 1.042.638 1.546.284a3.39 3.39 0 0 0 1.435-2.775z" id="a"/></defs><g fill="none" fill-rule="evenodd"><use fill="#FF6B47" fill-rule="nonzero" xlink:href="#a"/></g></svg>