<svg xmlns="http://www.w3.org/2000/svg" width="40" height="80" viewBox="0 0 40 80"><g fill="none" fill-rule="evenodd"><path fill="#979797" fill-rule="nonzero" d="M20 38c9.941 0 18-8.059 18-18S29.941 2 20 2 2 10.059 2 20s8.059 18 18 18zm0 2C8.954 40 0 31.046 0 20S8.954 0 20 0s20 8.954 20 20-8.954 20-20 20z"/><path fill="#9B9B9B" fill-rule="nonzero" d="M23.47 18.252c0-2.353-1.9-4.26-4.24-4.26-2.342 0-4.242 1.907-4.242 4.26 0 2.353 1.9 4.26 4.241 4.26 2.341 0 4.241-1.907 4.241-4.26zm3.969 10.305l-4.22-4.262a7.167 7.167 0 0 1-3.99 1.209c-3.993 0-7.229-3.248-7.229-7.252S15.236 11 19.23 11c3.992 0 7.228 3.248 7.228 7.252a7.235 7.235 0 0 1-1.138 3.904l4.242 4.284a1.5 1.5 0 0 1 0 2.12 1.498 1.498 0 0 1-2.123-.003z"/><circle cx="20" cy="60" r="20" fill="#FF6B47"/><path fill="#FFF" fill-rule="nonzero" d="M23.47 58.252c0-2.353-1.9-4.26-4.24-4.26-2.342 0-4.242 1.907-4.242 4.26 0 2.353 1.9 4.26 4.241 4.26 2.341 0 4.241-1.907 4.241-4.26zm3.969 10.305l-4.22-4.262a7.167 7.167 0 0 1-3.99 1.209c-3.993 0-7.229-3.248-7.229-7.252S15.236 51 19.23 51c3.992 0 7.228 3.248 7.228 7.252a7.235 7.235 0 0 1-1.138 3.904l4.242 4.284a1.5 1.5 0 0 1 0 2.12 1.498 1.498 0 0 1-2.123-.003z"/></g></svg>