<svg xmlns="http://www.w3.org/2000/svg" xmlns:xlink="http://www.w3.org/1999/xlink" width="80" height="80" viewBox="0 0 80 80"><defs><circle id="a" cx="20" cy="20" r="20"/><circle id="b" cx="60" cy="20" r="20"/></defs><g fill="none"><use fill="#FF6B47" transform="matrix(-1 0 0 1 40 0)" xlink:href="#a"/><path fill="#FFF" d="M12.51 21.25h21.24v-2.5H12.535l8.197-8.188-1.813-1.812L7.656 20l1.812 1.813.004-.004 9.447 9.655 1.813-1.812-8.221-8.402z"/><circle cx="20" cy="60" r="20" fill="#50E3C2" transform="matrix(-1 0 0 1 40 0)"/><path fill="#FFF" d="M12.51 61.25h21.24v-2.5H12.535l8.197-8.188-1.813-1.812L7.656 60l1.812 1.813.004-.004 9.447 9.655 1.813-1.812-8.221-8.402z"/><use fill="#FF6B47" xlink:href="#b"/><path fill="#FFF" d="M67.489 21.25H46.25v-2.5h21.215l-8.197-8.188L61.08 8.75 72.344 20l-1.813 1.813-.003-.004-9.448 9.655-1.812-1.812 8.22-8.402z"/><circle cx="60" cy="60" r="20" fill="#50E3C2"/><path fill="#FFF" d="M67.489 61.25H46.25v-2.5h21.215l-8.197-8.188 1.812-1.812L72.344 60l-1.813 1.813-.003-.004-9.448 9.655-1.812-1.812 8.22-8.402z"/></g></svg>