<svg height="72" viewBox="0 0 252 72" width="252" xmlns="http://www.w3.org/2000/svg"><g fill="none" fill-rule="evenodd"><circle cx="18" cy="18" fill="#9b9b9b" fill-opacity=".2" fill-rule="nonzero" r="18"/><path d="m13.01 15.3370767v3.466917h2.87v8.4153365h3.56v-8.4153365h3.57v-3.466917h-3.57v-1.7778028c-.056258-.4833932.2449319-.936148.71-1.0672864h2.86v-3.40745542h-2.86c-1.1631074.03033868-2.266569.52529964-3.0674338 1.37590642-.8008648.8506068-1.2334693 1.9871176-1.2025662 3.1593048v1.7183412h-2.87z" fill="#2e2e2e"/><g transform="translate(0 36)"><circle cx="18" cy="18" fill="#9b9b9b" fill-opacity=".2" fill-rule="nonzero" r="18"/><path d="m13.01 15.3370767v3.466917h2.87v8.4153365h3.56v-8.4153365h3.57v-3.466917h-3.57v-1.7778028c-.056258-.4833932.2449319-.936148.71-1.0672864h2.86v-3.40745542h-2.86c-1.1631074.03033868-2.266569.52529964-3.0674338 1.37590642-.8008648.8506068-1.2334693 1.9871176-1.2025662 3.1593048v1.7183412h-2.87z" fill="#ff6b47"/></g><g transform="translate(36)"><circle cx="18" cy="18" fill="#9b9b9b" fill-opacity=".2" fill-rule="nonzero" r="18"/><path d="m27 11.6807584c-.6674656.3201651-1.3834992.5313548-2.12.6252809.7918472-.5185486 1.3697625-1.2976108 1.63-2.1973314-.7180562.4574297-1.5141265.7838128-2.35.9634831-.6651781-.7870047-1.6492405-1.24592696-2.69-1.25449437-2.1347552.09774678-3.7881489 1.87264707-3.7 3.97191007.0024451.3043545.0359463.6076997.1.9054776-3.0395551-.1979759-5.8303521-1.7202045-7.61-4.1508427-.33160341.6148679-.50337046 1.3008264-.5 1.9967696-.01834992 1.2958811.5903092 2.5233325 1.64 3.3073034-.5907095-.0222698-1.16572-.1932196-1.67-.4964888v.0501405c-.05803441 1.8181837 1.1701035 3.4343571 2.96 3.8952247-.3148889.0917449-.6415747.1384319-.97.1386236-.2351674-.0002682-.4697009-.023985-.7-.0707865.4146393 1.5610978 1.8109686 2.6776383 3.45 2.7587079-1.2682869 1.0910753-2.8947321 1.695077-4.58 1.7008427-.29426678.0003397-.58823669-.0183806-.88-.0560394 1.6528868 1.1572946 3.6307967 1.780864 5.66 1.7844101 6.79 0 10.5-6.0532303 10.5-11.3061797 0-.1720506 0-.343118-.01-.5141854.7325892-.5708956 1.3556876-1.2657268 1.84-2.0518259z" fill="#2e2e2e"/></g><g transform="translate(36 36)"><circle cx="18" cy="18" fill="#9b9b9b" fill-opacity=".2" fill-rule="nonzero" r="18"/><path d="m27 11.6807584c-.6674656.3201651-1.3834992.5313548-2.12.6252809.7918472-.5185486 1.3697625-1.2976108 1.63-2.1973314-.7180562.4574297-1.5141265.7838128-2.35.9634831-.6651781-.7870047-1.6492405-1.24592696-2.69-1.25449437-2.1347552.09774678-3.7881489 1.87264707-3.7 3.97191007.0024451.3043545.0359463.6076997.1.9054776-3.0395551-.1979759-5.8303521-1.7202045-7.61-4.1508427-.33160341.6148679-.50337046 1.3008264-.5 1.9967696-.01834992 1.2958811.5903092 2.5233325 1.64 3.3073034-.5907095-.0222698-1.16572-.1932196-1.67-.4964888v.0501405c-.05803441 1.8181837 1.1701035 3.4343571 2.96 3.8952247-.3148889.0917449-.6415747.1384319-.97.1386236-.2351674-.0002682-.4697009-.023985-.7-.0707865.4146393 1.5610978 1.8109686 2.6776383 3.45 2.7587079-1.2682869 1.0910753-2.8947321 1.695077-4.58 1.7008427-.29426678.0003397-.58823669-.0183806-.88-.0560394 1.6528868 1.1572946 3.6307967 1.780864 5.66 1.7844101 6.79 0 10.5-6.0532303 10.5-11.3061797 0-.1720506 0-.343118-.01-.5141854.7325892-.5708956 1.3556876-1.2657268 1.84-2.0518259z" fill="#ff6b47"/></g><g transform="translate(72)"><circle cx="18" cy="18" fill="#9b9b9b" fill-opacity=".2" fill-rule="nonzero" r="18"/><g stroke="#2e2e2e"><rect height="20" rx="5" stroke-linecap="round" stroke-linejoin="round" stroke-width="2" width="20" x="8" y="8"/><path d="m21.9568436 17.4134512c.2531224 1.7069716-.6169742 3.3838446-2.1583735 4.1596739s-3.406578.4756968-4.6267876-.7445128-1.5203421-3.0853883-.7445128-4.6267876c.7758294-1.5413993 2.4527023-2.4114959 4.1596739-2.1583735 1.7429767.2584616 3.1115384 1.6270233 3.37 3.37z" stroke-linecap="round" stroke-linejoin="round" stroke-width="2"/><circle cx="23.5" cy="12.856702" fill="#2e2e2e" r="1"/></g></g><g transform="translate(72 36)"><circle cx="18" cy="18" fill="#9b9b9b" fill-opacity=".2" fill-rule="nonzero" r="18"/><g stroke="#ff6b47"><rect height="20" rx="5" stroke-linecap="round" stroke-linejoin="round" stroke-width="2" width="20" x="8" y="8"/><path d="m21.9568436 17.4134512c.2531224 1.7069716-.6169742 3.3838446-2.1583735 4.1596739s-3.406578.4756968-4.6267876-.7445128-1.5203421-3.0853883-.7445128-4.6267876c.7758294-1.5413993 2.4527023-2.4114959 4.1596739-2.1583735 1.7429767.2584616 3.1115384 1.6270233 3.37 3.37z" stroke-linecap="round" stroke-linejoin="round" stroke-width="2"/><circle cx="23.5" cy="12.856702" fill="#ff6b47" r="1"/></g></g><g transform="translate(108)"><circle cx="18" cy="18" fill="#9b9b9b" fill-opacity=".2" fill-rule="nonzero" r="18"/><path d="m28.99 18.2416275c-.01 3.1242567-.52 6.210216-1.62 7.0285697-1.24.9261909-7.17.8858779-9.35.8858779-2.28 0-7.86.0251956-9.14-.776025-1.19-.747806-1.82-3.9567199-1.87-7.1394304.05-3.1827105.68-6.6133458 1.87-7.3571205 1.28-.8002128 6.86-.7800563 9.14-.7800563 2.18 0 8.11-.0362817 9.35.890917 1.1.8183537 1.61 4.1240188 1.62 7.2502911zm-13.08-4.3749671v8.5211581l6.27-4.2600752z" fill="#2e2e2e"/></g><circle cx="162" cy="18" fill="#9b9b9b" fill-opacity=".2" fill-rule="nonzero" r="18"/><path d="m5.14610712 14.9984137c0 1.3816016-1.151999 2.5016016-2.57307365 2.5016016s-2.57303347-1.12-2.57303347-2.5016016 1.15199899-2.5016016 2.57307365-2.5016016c1.42107465 0 2.57303347 1.1200391 2.57303347 2.5016016zm7.05776168 1.8457031c-.3356515-6.0390625-5.31099981-10.88230466-11.529231-11.20898434-.36703093-.01929688-.6746378.26742187-.6746378.62476562v1.87769531c0 .32871094.2607587.604375.59813787.62570313 4.49324608.28453125 8.09489026 3.77742188 8.3881534 8.15515628.02197766.3280078.30551759.5815234.64357979.5815234h1.93134204c.3675935 0 .6625039-.2990234.6426557-.6558594zm5.7957137.01125c-.3372586-9.13359372-7.8960869-16.52546872-17.33651611-16.85496091-.36281219-.01265625-.66306639.27230469-.66306639.62523438v1.87765625c0 .33691406.2746203.61113281.62087892.62496094 7.68129241.30621093 13.84660848 6.30140625 14.16152778 13.76816404.0141831.3366406.2962364.6036328.6428164.6036328h1.9313019c.3629729 0 .6560754-.2919531.6430575-.6446875z" fill="#2e2e2e" fill-rule="evenodd" transform="translate(154 9)"/><g transform="translate(180)"><circle cx="18" cy="18" fill="#9b9b9b" fill-opacity=".2" fill-rule="nonzero" r="18"/><path d="m13.7159194 19.56352c.2257015-.3905801.3385488-.7486065.3385488-1.0740883 0-.3254849-.0564222-.5793573-.1692741-.7616261-.1128502-.1822719-.2445072-.410105-.3949742-.6835113-.1504674-.2734064-.2382385-.5402984-.2633164-.8006851-.1504673-.9634289-.0501572-1.8942982.3009329-2.792632s.8714476-1.620895 1.5610881-2.1677076c.6896433-.5468097 1.4482364-.963423 2.2758055-1.2498489.827569-.28642298 1.6802049-.3254819 2.557931-.11717072.877726.20830812 1.6425872.65095762 2.2946129 1.32796372.5517117.5988882.8902594 1.4646593 1.0156488 2.5973405s.0564251 2.2132688-.206893 3.2417959c-.2633181 1.0285272-.7397886 1.8942983-1.429429 2.5973436-.6896434.7030423-1.4733149.9634259-2.351038.781154-.6520256-.1301933-1.0532666-.4556691-1.2037316-.9764425-.1504679-.5207734-.1253923-1.1196525.0752325-1.7966586.200622-.677006.4137802-1.3605082.6394806-2.0505339.2257033-.6900226.3134721-1.3279606.2633181-1.9138292-.0501569-.5858716-.3385477-.9829539-.8651839-1.1912651-.5517117-.2083081-1.0595318-.1692492-1.5234718.1171738-.46394.2864259-.8024877.6965279-1.0156489 1.2303209-.2131611.533793-.3197402 1.1326722-.3197402 1.7966585 0 .6639864.1253865 1.2433376.3761653 1.7380717-.1003109.5207704-.2507759 1.1717281-.4513978 1.9528882-.2006249.7811601-.3698972 1.4451343-.5078259 1.991947-.1379287.5468097-.2758544 1.2368232-.4137831 2.0700619-.1379287.8332356-.2068901 1.5623074-.2068901 2.1872352 0 .6249275.0376148 1.4190945.1128502 2.3825244.8275691-.6249275 1.4482364-1.48419 1.8620224-2.5778132.4137831-1.0936247.7836774-2.4866715 1.1096888-4.179182.1504679.0781148.3510869.2083082.6018657.390577.2507789.1822719.4513979.3189706.6018658.410108.1504679.0911345.3448188.1822689.5830584.2734033.2382396.0911345.4952837.1497213.7711411.1757606 1.3792808.1301933 2.5892718-.247361 3.630002-1.1326752s1.7742478-2.0309969 2.2005701-3.4370844c.4263252-1.4060876.5391725-2.8642295.3385506-4.3744712-.2507789-1.9008217-1.1849154-3.3524552-2.8024359-4.35494314-1.6175234-1.00248788-3.4795283-1.37353393-5.5860672-1.11314723-1.6802167.1822719-3.1723273.91785266-4.4763774 2.20676657-1.3040492 1.2889108-1.9811413 2.8446985-2.031297 4.6674023-.1003115 2.6299033.8024783 4.166163 2.7083959 4.6088186z" fill="#2e2e2e" fill-rule="evenodd"/></g><g transform="translate(216)"><circle cx="18" cy="18" fill="#9b9b9b" fill-opacity=".2" fill-rule="nonzero" r="18"/><path d="m13.5714272 25h-3.3214272v-10.6785718h3.3214272zm-1.6428556-12.1428558c-.5238123 0-.9761887-.1904761-1.357143-.5714285-.3809543-.3809552-.5714286-.8333327-.5714286-1.3571436 0-.5238137.1904743-.97618838.5714286-1.35714353s.8333307-.57142857 1.357143-.57142857c.333335 0 .6488079.08333299.9464275.24999896.2976222.16666875.5357133.39880866.7142871.69643082.1785711.29761942.267858.61904342.267858.96428332 0 .3452398-.0892869.6666666-.267858.964286-.1785738.2976222-.4166649.5357133-.7142871.7142871-.2976196.1785711-.6130925.267858-.9464275.267858zm14.0714284 12.1428558h-3.3214282v-5.214285c0-.4047654-.0119051-.7321434-.035714-.9821424-.0238116-.2500017-.0833343-.5357132-.1785724-.8571428-.0952381-.3214324-.2678553-.5654774-.517857-.7321434-.2500017-.1666687-.5773797-.2500017-.9821423-.2500017-.7857178 0-1.3154743.2499989-1.5892863.7499996-.2738119.5000035-.4107137 1.1666646-.4107137 2.0000028v5.2857129h-3.3214283v-10.6785718h3.2142851v1.4642868h.0357153c.2380966-.4761933.6309486-.8869043 1.1785697-1.2321441s1.2023771-.517857 1.9642874-.517857c.809528 0 1.4821403.1249995 2.0178563.3750013.535716.2500017.9404758.6190434 1.214285 1.1071418.273812.4880983.4642854 1.0178569.5714286 1.5892862.1071432.5714313.1607148 1.2499948.1607148 2.0357153z" fill="#2e2e2e" fill-rule="evenodd"/></g><g transform="translate(108 36)"><circle cx="18" cy="18" fill="#9b9b9b" fill-opacity=".2" fill-rule="nonzero" r="18"/><path d="m28.99 18.2416275c-.01 3.1242567-.52 6.210216-1.62 7.0285697-1.24.9261909-7.17.8858779-9.35.8858779-2.28 0-7.86.0251956-9.14-.776025-1.19-.747806-1.82-3.9567199-1.87-7.1394304.05-3.1827105.68-6.6133458 1.87-7.3571205 1.28-.8002128 6.86-.7800563 9.14-.7800563 2.18 0 8.11-.0362817 9.35.890917 1.1.8183537 1.61 4.1240188 1.62 7.2502911zm-13.08-4.3749671v8.5211581l6.27-4.2600752z" fill="#ff6b47"/></g><g transform="translate(144 36)"><circle cx="18" cy="18" fill="#9b9b9b" fill-opacity=".2" fill-rule="nonzero" r="18"/><path d="m15.1461071 23.9984137c0 1.3816016-1.151999 2.5016016-2.5730736 2.5016016-1.4210747 0-2.5730335-1.12-2.5730335-2.5016016s1.151999-2.5016016 2.5730736-2.5016016c1.4210747 0 2.5730335 1.1200391 2.5730335 2.5016016zm7.0577617 1.8457031c-.3356515-6.0390625-5.3109998-10.8823047-11.529231-11.2089843-.3670309-.0192969-.6746378.2674218-.6746378.6247656v1.8776953c0 .3287109.2607587.604375.5981379.6257031 4.4932461.2845313 8.0948902 3.7774219 8.3881534 8.1551563.0219776.3280078.3055176.5815234.6435798.5815234h1.931342c.3675935 0 .6625039-.2990234.6426557-.6558594zm5.7957137.01125c-.3372586-9.1335937-7.8960869-16.52546872-17.3365161-16.85496091-.3628122-.01265625-.6630664.27230469-.6630664.62523438v1.87765623c0 .3369141.2746203.6111328.6208789.624961 7.6812924.3062109 13.8466085 6.3014062 14.1615278 13.768164.0141831.3366406.2962364.6036328.6428164.6036328h1.9313019c.3629729 0 .6560754-.2919531.6430575-.6446875z" fill="#ff6b47" fill-rule="evenodd"/></g><g transform="translate(180 36)"><circle cx="18" cy="18" fill="#9b9b9b" fill-opacity=".2" fill-rule="nonzero" r="18"/><path d="m13.7159194 19.56352c.2257015-.3905801.3385488-.7486065.3385488-1.0740883 0-.3254849-.0564222-.5793573-.1692741-.7616261-.1128502-.1822719-.2445072-.410105-.3949742-.6835113-.1504674-.2734064-.2382385-.5402984-.2633164-.8006851-.1504673-.9634289-.0501572-1.8942982.3009329-2.792632s.8714476-1.620895 1.5610881-2.1677076c.6896433-.5468097 1.4482364-.963423 2.2758055-1.2498489.827569-.28642298 1.6802049-.3254819 2.557931-.11717072.877726.20830812 1.6425872.65095762 2.2946129 1.32796372.5517117.5988882.8902594 1.4646593 1.0156488 2.5973405s.0564251 2.2132688-.206893 3.2417959c-.2633181 1.0285272-.7397886 1.8942983-1.429429 2.5973436-.6896434.7030423-1.4733149.9634259-2.351038.781154-.6520256-.1301933-1.0532666-.4556691-1.2037316-.9764425-.1504679-.5207734-.1253923-1.1196525.0752325-1.7966586.200622-.677006.4137802-1.3605082.6394806-2.0505339.2257033-.6900226.3134721-1.3279606.2633181-1.9138292-.0501569-.5858716-.3385477-.9829539-.8651839-1.1912651-.5517117-.2083081-1.0595318-.1692492-1.5234718.1171738-.46394.2864259-.8024877.6965279-1.0156489 1.2303209-.2131611.533793-.3197402 1.1326722-.3197402 1.7966585 0 .6639864.1253865 1.2433376.3761653 1.7380717-.1003109.5207704-.2507759 1.1717281-.4513978 1.9528882-.2006249.7811601-.3698972 1.4451343-.5078259 1.991947-.1379287.5468097-.2758544 1.2368232-.4137831 2.0700619-.1379287.8332356-.2068901 1.5623074-.2068901 2.1872352 0 .6249275.0376148 1.4190945.1128502 2.3825244.8275691-.6249275 1.4482364-1.48419 1.8620224-2.5778132.4137831-1.0936247.7836774-2.4866715 1.1096888-4.179182.1504679.0781148.3510869.2083082.6018657.390577.2507789.1822719.4513979.3189706.6018658.410108.1504679.0911345.3448188.1822689.5830584.2734033.2382396.0911345.4952837.1497213.7711411.1757606 1.3792808.1301933 2.5892718-.247361 3.630002-1.1326752s1.7742478-2.0309969 2.2005701-3.4370844c.4263252-1.4060876.5391725-2.8642295.3385506-4.3744712-.2507789-1.9008217-1.1849154-3.3524552-2.8024359-4.35494314-1.6175234-1.00248788-3.4795283-1.37353393-5.5860672-1.11314723-1.6802167.1822719-3.1723273.91785266-4.4763774 2.20676657-1.3040492 1.2889108-1.9811413 2.8446985-2.031297 4.6674023-.1003115 2.6299033.8024783 4.166163 2.7083959 4.6088186z" fill="#ff6b47" fill-rule="evenodd"/></g><g transform="translate(216 36)"><circle cx="18" cy="18" fill="#9b9b9b" fill-opacity=".2" fill-rule="nonzero" r="18"/><path d="m13.5714272 25h-3.3214272v-10.6785718h3.3214272zm-1.6428556-12.1428558c-.5238123 0-.9761887-.1904761-1.357143-.5714285-.3809543-.3809552-.5714286-.8333327-.5714286-1.3571436 0-.5238137.1904743-.97618838.5714286-1.35714353s.8333307-.57142857 1.357143-.57142857c.333335 0 .6488079.08333299.9464275.24999896.2976222.16666875.5357133.39880866.7142871.69643082.1785711.29761942.267858.61904342.267858.96428332 0 .3452398-.0892869.6666666-.267858.964286-.1785738.2976222-.4166649.5357133-.7142871.7142871-.2976196.1785711-.6130925.267858-.9464275.267858zm14.0714284 12.1428558h-3.3214282v-5.214285c0-.4047654-.0119051-.7321434-.035714-.9821424-.0238116-.2500017-.0833343-.5357132-.1785724-.8571428-.0952381-.3214324-.2678553-.5654774-.517857-.7321434-.2500017-.1666687-.5773797-.2500017-.9821423-.2500017-.7857178 0-1.3154743.2499989-1.5892863.7499996-.2738119.5000035-.4107137 1.1666646-.4107137 2.0000028v5.2857129h-3.3214283v-10.6785718h3.2142851v1.4642868h.0357153c.2380966-.4761933.6309486-.8869043 1.1785697-1.2321441s1.2023771-.517857 1.9642874-.517857c.809528 0 1.4821403.1249995 2.0178563.3750013.535716.2500017.9404758.6190434 1.214285 1.1071418.273812.4880983.4642854 1.0178569.5714286 1.5892862.1071432.5714313.1607148 1.2499948.1607148 2.0357153z" fill="#ff6b47" fill-rule="evenodd"/></g></g></svg>