<svg xmlns="http://www.w3.org/2000/svg" width="100" height="60" viewBox="0 0 100 60"><g fill="none" fill-rule="evenodd"><path fill="#9B9B9B" d="M15.949 2.042l1.162.085v12.317c0 1.965-1.56 3.556-3.487 3.556s-3.487-1.591-3.487-3.556c0-1.964 1.56-3.555 3.487-3.555.636 0 1.23.187 1.744.489V5.556H8.974v8.888C8.974 16.41 7.414 18 5.487 18 3.561 18 2 16.409 2 14.444c0-1.964 1.56-3.555 3.487-3.555.637 0 1.23.187 1.744.489V2h8.718v.042z"/><path fill="#FFF" d="M15.949 22.042l1.162.085v12.317c0 1.965-1.56 3.556-3.487 3.556s-3.487-1.591-3.487-3.556c0-1.964 1.56-3.555 3.487-3.555.636 0 1.23.187 1.744.489v-5.822H8.974v8.888C8.974 36.41 7.414 38 5.487 38 3.561 38 2 36.409 2 34.444c0-1.964 1.56-3.555 3.487-3.555.637 0 1.23.187 1.744.489V22h8.718v.042z"/><path fill="#FF6B47" d="M15.949 42.042l1.162.085v12.317c0 1.965-1.56 3.556-3.487 3.556s-3.487-1.591-3.487-3.556c0-1.964 1.56-3.555 3.487-3.555.636 0 1.23.187 1.744.489v-5.822H8.974v8.888C8.974 56.41 7.414 58 5.487 58 3.561 58 2 56.409 2 54.444c0-1.964 1.56-3.555 3.487-3.555.637 0 1.23.187 1.744.489V42h8.718v.042z"/><path fill="#9B9B9B" d="M30.84 7.902v-2.13c.26-.426.41-.928.41-1.465 0-1.54-1.231-2.787-2.75-2.787s-2.75 1.248-2.75 2.787c0 .415.09.808.25 1.162v2.32a4.319 4.319 0 0 1-1.75-3.482C24.25 1.928 26.153 0 28.5 0s4.25 1.928 4.25 4.307c0 1.502-.76 2.825-1.91 3.595zm-.82.428a4.198 4.198 0 0 1-.01.003h.938c.31.04.625.007.631.667l1.314-.013c.272.013.366.093.581.68h1.263c.095 0 .556.126.853.426.271.274.41.447.41.974v3.986L34.308 19H27.79v-2l-3.6-5.293-.012-.054c-.019-.06-.196-.4-.177-.966.02-.447.19-1.194 1.421-1.194.48 0 1.175.914 1.737 1.507V9h.001V5h-.001v-.667C27.153 3.807 27.355 3 28.352 3c.89 0 1.276.702 1.328 1.213V8.33h.34z"/><path fill="#FFF" d="M30.84 27.902v-2.13c.26-.426.41-.928.41-1.465 0-1.54-1.231-2.787-2.75-2.787s-2.75 1.248-2.75 2.787c0 .415.09.808.25 1.162v2.32a4.319 4.319 0 0 1-1.75-3.482c0-2.379 1.903-4.307 4.25-4.307s4.25 1.928 4.25 4.307c0 1.502-.76 2.825-1.91 3.595zm-.82.428a4.17 4.17 0 0 1-.01.003h.938c.31.04.625.007.631.667l1.314-.013c.272.013.366.093.581.68h1.263c.095 0 .556.126.853.426.271.274.41.447.41.974v3.986L34.308 39H27.79v-2l-3.6-5.293-.012-.054c-.019-.06-.196-.4-.177-.966.02-.447.19-1.194 1.421-1.194.48 0 1.175.914 1.737 1.507v-2h.001v-4h-.001v-.667c-.006-.526.196-1.333 1.193-1.333.89 0 1.276.702 1.328 1.213v4.117h.34z"/><path fill="#FF6B47" d="M30.84 47.902v-2.13c.26-.426.41-.928.41-1.465 0-1.54-1.231-2.787-2.75-2.787s-2.75 1.248-2.75 2.787c0 .415.09.808.25 1.162v2.32a4.319 4.319 0 0 1-1.75-3.482c0-2.379 1.903-4.307 4.25-4.307s4.25 1.928 4.25 4.307c0 1.502-.76 2.825-1.91 3.595zm-.82.428a4.17 4.17 0 0 1-.01.003h.938c.31.04.625.007.631.667l1.314-.013c.272.013.366.093.581.68h1.263c.095 0 .556.126.853.426.271.274.41.447.41.974v3.986L34.308 59H27.79v-2l-3.6-5.293-.012-.054c-.019-.06-.196-.4-.177-.966.02-.447.19-1.194 1.421-1.194.48 0 1.175.914 1.737 1.507v-2h.001v-4h-.001v-.667c-.006-.526.196-1.333 1.193-1.333.89 0 1.276.702 1.328 1.213v4.117h.34z"/><path fill="#FFF" d="M55.25 22v1.778H53.5V22h-7v1.778h-1.75V22H43v16h1.75v-1.778h1.75V38h7v-1.778h1.75V38H57V22h-1.75zM46.5 34.444h-1.75v-1.777h1.75v1.777zm0-3.555h-1.75V29.11h1.75v1.778zm0-3.556h-1.75v-1.777h1.75v1.777zm8.75 7.111H53.5v-1.777h1.75v1.777zm0-3.555H53.5V29.11h1.75v1.778zm0-3.556H53.5v-1.777h1.75v1.777z"/><path fill="#FF6B47" d="M55.25 42v1.778H53.5V42h-7v1.778h-1.75V42H43v16h1.75v-1.778h1.75V58h7v-1.778h1.75V58H57V42h-1.75zM46.5 54.444h-1.75v-1.777h1.75v1.777zm0-3.555h-1.75V49.11h1.75v1.778zm0-3.556h-1.75v-1.777h1.75v1.777zm8.75 7.111H53.5v-1.777h1.75v1.777zm0-3.555H53.5V49.11h1.75v1.778zm0-3.556H53.5v-1.777h1.75v1.777z"/><path fill="#9B9B9B" d="M55.25 2v1.778H53.5V2h-7v1.778h-1.75V2H43v16h1.75v-1.778h1.75V18h7v-1.778h1.75V18H57V2h-1.75zM46.5 14.444h-1.75v-1.777h1.75v1.777zm0-3.555h-1.75V9.11h1.75v1.778zm0-3.556h-1.75V5.556h1.75v1.777zm8.75 7.111H53.5v-1.777h1.75v1.777zm0-3.555H53.5V9.11h1.75v1.778zm0-3.556H53.5V5.556h1.75v1.777zM64 19a2 2 0 0 1-2-2V4a2 2 0 0 1 2-2h12a2 2 0 0 1 2 2v13a2 2 0 0 1-2 2H64zm0-15v9.584l2.28-2.265c.4-.392.683-.336 1.44 0l3.31 1.3 4.55-4.472a.967.967 0 0 1 .42-.126V4H64zm7.73 10.684c-.01.007-.01.017-.02.024-.39.369-.71.292-1.44-.017L67 13.445l-2.28 2.266c-.192.19-.45.295-.72.294V17h12v-6.61l-4.27 4.294zM66 8a2 2 0 1 1 4 0 2 2 0 0 1-4 0z"/><path fill="#FFF" d="M64 39a2 2 0 0 1-2-2V24a2 2 0 0 1 2-2h12a2 2 0 0 1 2 2v13a2 2 0 0 1-2 2H64zm0-15v9.584l2.28-2.265c.4-.392.683-.336 1.44 0l3.31 1.3 4.55-4.472a.967.967 0 0 1 .42-.126V24H64zm7.73 10.684c-.01.007-.01.017-.02.024-.39.369-.71.292-1.44-.017L67 33.445l-2.28 2.266c-.192.19-.45.295-.72.294V37h12v-6.61l-4.27 4.294zM66 28a2 2 0 1 1 4 0 2 2 0 0 1-4 0z"/><path fill="#FF6B47" d="M64 59a2 2 0 0 1-2-2V44a2 2 0 0 1 2-2h12a2 2 0 0 1 2 2v13a2 2 0 0 1-2 2H64zm0-15v9.584l2.28-2.265c.4-.392.683-.336 1.44 0l3.31 1.3 4.55-4.472a.967.967 0 0 1 .42-.126V44H64zm7.73 10.684c-.01.007-.01.017-.02.024-.39.369-.71.292-1.44-.017L67 53.445l-2.28 2.266c-.192.19-.45.295-.72.294V57h12v-6.61l-4.27 4.294zM66 48a2 2 0 1 1 4 0 2 2 0 0 1-4 0z"/><path fill="#9B9B9B" d="M94.5 3c-1.595 0-3.314.33-4.5 1.235C88.814 3.33 87.095 3 85.5 3c-1.595 0-3.314.33-4.5 1.235V17.3c0 .206.205.412.41.412.08 0 .122-.041.204-.041 1.104-.536 2.7-.906 3.886-.906 1.595 0 3.314.33 4.5 1.235 1.105-.7 3.11-1.235 4.5-1.235 1.35 0 2.74.247 3.886.864a.367.367 0 0 0 .205.042c.204 0 .409-.206.409-.412V4.235c-.49-.37-1.023-.617-1.636-.823C96.455 3.124 95.457 3 94.5 3zm0 12.118c-1.39 0-3.395.535-4.5 1.235V5.883c1.105-.7 3.11-1.236 4.5-1.236.982 0 1.964.124 2.864.412v10.47c-.9-.288-1.882-.411-2.864-.411zM83 6.286A6.39 6.39 0 0 1 84.944 6c1.084 0 2.25.229 3.056.857V8c-.75-.486-2.111-.857-3.056-.857A6.29 6.29 0 0 0 83 7.429V6.286zm0 3.487V8.619c.61-.2 1.275-.286 1.94-.286.943 0 2.301.372 3.05.857l.01 1.135a2.927 2.927 0 0 0-.01.008c-.749-.485-2.107-.857-3.05-.857-.656 0-1.327.088-1.94.297zm0 2.333v-1.154c.61-.2 1.275-.285 1.94-.285.943 0 2.301.371 3.05.857l.01 1.135a2.904 2.904 0 0 0-.01.008c-.749-.486-2.107-.857-3.05-.857-.656 0-1.327.088-1.94.296zm0 2.333v-1.153c.61-.2 1.275-.286 1.94-.286.943 0 2.301.371 3.05.857l.01 1.135a2.916 2.916 0 0 0-.01.008c-.749-.486-2.107-.857-3.05-.857-.656 0-1.327.088-1.94.296z"/><path fill="#FFF" d="M94.5 23c-1.595 0-3.314.33-4.5 1.235C88.814 23.33 87.095 23 85.5 23c-1.595 0-3.314.33-4.5 1.235V37.3c0 .206.205.412.41.412.08 0 .122-.041.204-.041 1.104-.536 2.7-.906 3.886-.906 1.595 0 3.314.33 4.5 1.235 1.105-.7 3.11-1.235 4.5-1.235 1.35 0 2.74.247 3.886.864.082.042.123.042.205.042.204 0 .409-.206.409-.412V24.235c-.49-.37-1.023-.617-1.636-.823-.909-.288-1.907-.412-2.864-.412zm0 12.118c-1.39 0-3.395.535-4.5 1.235v-10.47c1.105-.7 3.11-1.236 4.5-1.236.982 0 1.964.124 2.864.412v10.47c-.9-.288-1.882-.411-2.864-.411zM83 26.286A6.39 6.39 0 0 1 84.944 26c1.084 0 2.25.229 3.056.857V28c-.75-.486-2.111-.857-3.056-.857a6.29 6.29 0 0 0-1.944.286v-1.143zm0 3.487v-1.154c.61-.2 1.275-.286 1.94-.286.943 0 2.301.372 3.05.857l.01 1.135a2.927 2.927 0 0 0-.01.008c-.749-.485-2.107-.857-3.05-.857-.656 0-1.327.088-1.94.297zm0 2.333v-1.154c.61-.2 1.275-.285 1.94-.285.943 0 2.301.371 3.05.857l.01 1.135a2.904 2.904 0 0 0-.01.008c-.749-.486-2.107-.857-3.05-.857-.656 0-1.327.088-1.94.296zm0 2.333v-1.153c.61-.2 1.275-.286 1.94-.286.943 0 2.301.371 3.05.857l.01 1.135a2.916 2.916 0 0 0-.01.008c-.749-.486-2.107-.857-3.05-.857-.656 0-1.327.088-1.94.296z"/><path fill="#FF6B47" d="M94.5 43c-1.595 0-3.314.33-4.5 1.235C88.814 43.33 87.095 43 85.5 43c-1.595 0-3.314.33-4.5 1.235V57.3c0 .206.205.412.41.412.08 0 .122-.041.204-.041 1.104-.536 2.7-.906 3.886-.906 1.595 0 3.314.33 4.5 1.235 1.105-.7 3.11-1.235 4.5-1.235 1.35 0 2.74.247 3.886.864.082.042.123.042.205.042.204 0 .409-.206.409-.412V44.235c-.49-.37-1.023-.617-1.636-.823-.909-.288-1.907-.412-2.864-.412zm0 12.118c-1.39 0-3.395.535-4.5 1.235v-10.47c1.105-.7 3.11-1.236 4.5-1.236.982 0 1.964.124 2.864.412v10.47c-.9-.288-1.882-.411-2.864-.411zM83 46.286A6.39 6.39 0 0 1 84.944 46c1.084 0 2.25.229 3.056.857V48c-.75-.486-2.111-.857-3.056-.857a6.29 6.29 0 0 0-1.944.286v-1.143zm0 3.487v-1.154c.61-.2 1.275-.286 1.94-.286.943 0 2.301.372 3.05.857l.01 1.135a2.927 2.927 0 0 0-.01.008c-.749-.485-2.107-.857-3.05-.857-.656 0-1.327.088-1.94.297zm0 2.333v-1.154c.61-.2 1.275-.285 1.94-.285.943 0 2.301.371 3.05.857l.01 1.135a2.904 2.904 0 0 0-.01.008c-.749-.486-2.107-.857-3.05-.857-.656 0-1.327.088-1.94.296zm0 2.333v-1.153c.61-.2 1.275-.286 1.94-.286.943 0 2.301.371 3.05.857l.01 1.135a2.916 2.916 0 0 0-.01.008c-.749-.486-2.107-.857-3.05-.857-.656 0-1.327.088-1.94.296z"/></g></svg>