<svg xmlns="http://www.w3.org/2000/svg" xmlns:xlink="http://www.w3.org/1999/xlink" width="80" height="80" viewBox="0 0 80 80"><defs><circle id="a" cx="20" cy="20" r="20"/><circle id="c" cx="20" cy="20" r="20"/><circle id="e" cx="20" cy="20" r="20"/><circle id="g" cx="20" cy="20" r="20"/></defs><g fill="none" fill-rule="evenodd"><g transform="matrix(-1 0 0 1 40 0)"><mask id="b" fill="#fff"><use xlink:href="#a"/></mask><g fill="#FF6B47" mask="url(#b)"><path d="M0 0H40V40H0z"/></g><path fill="#FFF" fill-rule="nonzero" d="M27.489 21.25H6.25v-2.5h21.215l-8.197-8.188L21.08 8.75 32.344 20l-1.813 1.813-.003-.004-9.448 9.655-1.812-1.812 8.22-8.402z"/></g><g transform="matrix(-1 0 0 1 40 40)"><mask id="d" fill="#fff"><use xlink:href="#c"/></mask><g fill="#50E3C2" mask="url(#d)"><path d="M0 0H40V40H0z"/></g><path fill="#FFF" fill-rule="nonzero" d="M27.489 21.25H6.25v-2.5h21.215l-8.197-8.188L21.08 8.75 32.344 20l-1.813 1.813-.003-.004-9.448 9.655-1.812-1.812 8.22-8.402z"/></g><g transform="translate(40)"><mask id="f" fill="#fff"><use xlink:href="#e"/></mask><g fill="#FF6B47" mask="url(#f)"><path d="M0 0H40V40H0z"/></g><path fill="#FFF" fill-rule="nonzero" d="M27.489 21.25H6.25v-2.5h21.215l-8.197-8.188L21.08 8.75 32.344 20l-1.813 1.813-.003-.004-9.448 9.655-1.812-1.812 8.22-8.402z"/></g><g transform="translate(40 40)"><mask id="h" fill="#fff"><use xlink:href="#g"/></mask><g fill="#50E3C2" mask="url(#h)"><path d="M0 0H40V40H0z"/></g><path fill="#FFF" fill-rule="nonzero" d="M27.489 21.25H6.25v-2.5h21.215l-8.197-8.188L21.08 8.75 32.344 20l-1.813 1.813-.003-.004-9.448 9.655-1.812-1.812 8.22-8.402z"/></g></g></svg>