<svg xmlns="http://www.w3.org/2000/svg" xmlns:xlink="http://www.w3.org/1999/xlink" width="40" height="80" viewBox="0 0 40 80"><defs><circle id="a" cx="20" cy="20" r="20"/><path id="c" d="M15.47 10.252c0-2.353-1.9-4.26-4.24-4.26-2.342 0-4.242 1.907-4.242 4.26 0 2.353 1.9 4.26 4.241 4.26 2.341 0 4.241-1.907 4.241-4.26zm3.969 10.305l-4.22-4.262a7.167 7.167 0 0 1-3.99 1.209C7.236 17.504 4 14.256 4 10.252S7.236 3 11.23 3c3.992 0 7.228 3.248 7.228 7.252a7.235 7.235 0 0 1-1.138 3.904l4.242 4.284a1.5 1.5 0 0 1 0 2.12 1.498 1.498 0 0 1-2.123-.003z"/><circle id="e" cx="20" cy="20" r="20"/><path id="g" d="M15.47 10.252c0-2.353-1.9-4.26-4.24-4.26-2.342 0-4.242 1.907-4.242 4.26 0 2.353 1.9 4.26 4.241 4.26 2.341 0 4.241-1.907 4.241-4.26zm3.969 10.305l-4.22-4.262a7.167 7.167 0 0 1-3.99 1.209C7.236 17.504 4 14.256 4 10.252S7.236 3 11.23 3c3.992 0 7.228 3.248 7.228 7.252a7.235 7.235 0 0 1-1.138 3.904l4.242 4.284a1.5 1.5 0 0 1 0 2.12 1.498 1.498 0 0 1-2.123-.003z"/></defs><g fill="none" fill-rule="evenodd"><mask id="b" fill="#fff"><use xlink:href="#a"/></mask><circle cx="20" cy="20" r="19" stroke="#9B9B9B" stroke-width="2"/><g mask="url(#b)"><g transform="translate(8 8)"><mask id="d" fill="#fff"><use xlink:href="#c"/></mask><use fill="#FFF" fill-rule="nonzero" xlink:href="#c"/><g mask="url(#d)"><path fill="#9B9B9B" d="M0 0H24V24H0z"/></g></g></g><g transform="translate(0 40)"><mask id="f" fill="#fff"><use xlink:href="#e"/></mask><use fill="#FF6B47" xlink:href="#e"/><g fill="#FF6B47" mask="url(#f)"><path d="M0 0H40V40H0z"/></g><g mask="url(#f)"><g transform="translate(8 8)"><mask id="h" fill="#fff"><use xlink:href="#g"/></mask><use fill="#FFF" fill-rule="nonzero" xlink:href="#g"/><g mask="url(#h)"><path fill="#FFF" d="M0 0H24V24H0z"/></g></g></g></g></g></svg>