<svg height="60" viewBox="0 0 160 60" width="160" xmlns="http://www.w3.org/2000/svg"><g fill="none" fill-rule="evenodd"><path d="m15.9487179 2-.0007179.042 1.1631111.08498413v12.31746027c0 1.9644445-1.5605128 3.5555556-3.4871795 3.5555556-1.9266666 0-3.4871795-1.5911111-3.4871795-3.5555556 0-1.9644444 1.5605129-3.5555555 3.4871795-3.5555555.6364103 0 1.2292308.1866667 1.7435898.4888889l-.0005214-5.8227778-6.39264103.00055556v8.88888884c0 1.9644445-1.56051282 3.5555556-3.48717948 3.5555556-1.92666667 0-3.48717949-1.5911111-3.48717949-3.5555556 0-1.9644444 1.56051282-3.5555555 3.48717949-3.5555555.63641025 0 1.22923077.1866667 1.74358974.4888889v-9.3777778z" fill="#9b9b9b"/><path d="m15.9487179 22-.0007179.042 1.1631111.0849841v12.3174603c0 1.9644445-1.5605128 3.5555556-3.4871795 3.5555556-1.9266666 0-3.4871795-1.5911111-3.4871795-3.5555556 0-1.9644444 1.5605129-3.5555555 3.4871795-3.5555555.6364103 0 1.2292308.1866667 1.7435898.4888889l-.0005214-5.8227778-6.39264103.0005556v8.8888888c0 1.9644445-1.56051282 3.5555556-3.48717948 3.5555556-1.92666667 0-3.48717949-1.5911111-3.48717949-3.5555556 0-1.9644444 1.56051282-3.5555555 3.48717949-3.5555555.63641025 0 1.22923077.1866667 1.74358974.4888889v-9.3777778z" fill="#fff"/><path d="m15.9487179 42-.0007179.042 1.1631111.0849841v12.3174603c0 1.9644445-1.5605128 3.5555556-3.4871795 3.5555556-1.9266666 0-3.4871795-1.5911111-3.4871795-3.5555556 0-1.9644444 1.5605129-3.5555555 3.4871795-3.5555555.6364103 0 1.2292308.1866667 1.7435898.4888889l-.0005214-5.8227778-6.39264103.0005556v8.8888888c0 1.9644445-1.56051282 3.5555556-3.48717948 3.5555556-1.92666667 0-3.48717949-1.5911111-3.48717949-3.5555556 0-1.9644444 1.56051282-3.5555555 3.48717949-3.5555555.63641025 0 1.22923077.1866667 1.74358974.4888889v-9.3777778z" fill="#ff6b47"/><path d="m28.3524827 3c.8972907 0 1.2825155.71531016 1.328875 1.22676603l-.0013574 4.10323389.3395251-.00009471c-.0036373.00141147-.0072769.00281802-.0109189.00421964l.939359-.00079152.1233632.01390618c.2647734.02953086.5026681.08076049.5081411.65276049l1.313529-.01333333c.2715468.01333333.3662725.09333333.5809839.68h1.2630087c.0947256 0 .5557238.12666666.8525308.42666663.2715469.2733334.4104778.4466667.4104778.9733334v3.9866666l-1.6924316 3.9466667h-6.5171245v-2l-3.5995746-5.2933333-.0126301-.0533334c-.0189451-.06-.1957663-.4-.1768212-.9666666.0189451-.4466667.1894513-1.19333337 1.4208847-1.19333337.4799433 0 1.174598.91333337 1.7366369 1.50666667l-.0009396-2h.002v-4h-.002l.0009396-.66666667c-.0063151-.52666666.1957663-1.33333333 1.1935431-1.33333333zm.1475173-3c2.3472102 0 4.25 1.92816034 4.25 4.30666667 0 1.50186934-.7586588 2.82418183-1.90882 3.59488568l.0003317-2.13275708c.2590207-.4250363.4084883-.92589471.4084883-1.4621286 0-1.53903351-1.2312169-2.78666667-2.75-2.78666667s-2.75 1.24763316-2.75 2.78666667c0 .41512627.0895775.80905165.2502139 1.16301062l-.0006511 2.31979787c-1.0604195-.78309508-1.7495628-2.05139971-1.7495628-3.48280849 0-2.37850633 1.9027898-4.30666667 4.25-4.30666667z" fill="#9b9b9b"/><path d="m28.3524827 23c.8972907 0 1.2825155.7153102 1.328875 1.226766l-.0013574 4.1032339.3395251-.0000947c-.0036373.0014115-.0072769.002818-.0109189.0042196l.939359-.0007915.1233632.0139062c.2647734.0295309.5026681.0807605.5081411.6527605l1.313529-.0133333c.2715468.0133333.3662725.0933333.5809839.68h1.2630087c.0947256 0 .5557238.1266666.8525308.4266666.2715469.2733334.4104778.4466667.4104778.9733334v3.9866666l-1.6924316 3.9466667h-6.5171245v-2l-3.5995746-5.2933333-.0126301-.0533334c-.0189451-.06-.1957663-.4-.1768212-.9666666.0189451-.4466667.1894513-1.1933334 1.4208847-1.1933334.4799433 0 1.174598.9133334 1.7366369 1.5066667l-.0009396-2h.002v-4h-.002l.0009396-.6666667c-.0063151-.5266666.1957663-1.3333333 1.1935431-1.3333333zm.1475173-3c2.3472102 0 4.25 1.9281603 4.25 4.3066667 0 1.5018693-.7586588 2.8241818-1.90882 3.5948856l.0003317-2.132757c.2590207-.4250363.4084883-.9258947.4084883-1.4621286 0-1.5390335-1.2312169-2.7866667-2.75-2.7866667s-2.75 1.2476332-2.75 2.7866667c0 .4151262.0895775.8090516.2502139 1.1630106l-.0006511 2.3197979c-1.0604195-.7830951-1.7495628-2.0513998-1.7495628-3.4828085 0-2.3785064 1.9027898-4.3066667 4.25-4.3066667z" fill="#fff"/><path d="m28.3524827 43c.8972907 0 1.2825155.7153102 1.328875 1.226766l-.0013574 4.1032339.3395251-.0000947c-.0036373.0014115-.0072769.002818-.0109189.0042196l.939359-.0007915.1233632.0139062c.2647734.0295309.5026681.0807605.5081411.6527605l1.313529-.0133333c.2715468.0133333.3662725.0933333.5809839.68h1.2630087c.0947256 0 .5557238.1266666.8525308.4266666.2715469.2733334.4104778.4466667.4104778.9733334v3.9866666l-1.6924316 3.9466667h-6.5171245v-2l-3.5995746-5.2933333-.0126301-.0533334c-.0189451-.06-.1957663-.4-.1768212-.9666666.0189451-.4466667.1894513-1.1933334 1.4208847-1.1933334.4799433 0 1.174598.9133334 1.7366369 1.5066667l-.0009396-2h.002v-4h-.002l.0009396-.6666667c-.0063151-.5266666.1957663-1.3333333 1.1935431-1.3333333zm.1475173-3c2.3472102 0 4.25 1.9281603 4.25 4.3066667 0 1.5018693-.7586588 2.8241818-1.90882 3.5948856l.0003317-2.132757c.2590207-.4250363.4084883-.9258947.4084883-1.4621286 0-1.5390335-1.2312169-2.7866667-2.75-2.7866667s-2.75 1.2476332-2.75 2.7866667c0 .4151262.0895775.8090516.2502139 1.1630106l-.0006511 2.3197979c-1.0604195-.7830951-1.7495628-2.0513998-1.7495628-3.4828085 0-2.3785064 1.9027898-4.3066667 4.25-4.3066667z" fill="#ff6b47"/><path d="m55.25 22v1.7777778h-1.75v-1.7777778h-7v1.7777778h-1.75v-1.7777778h-1.75v16h1.75v-1.7777778h1.75v1.7777778h7v-1.7777778h1.75v1.7777778h1.75v-16zm-8.75 12.4444444h-1.75v-1.7777777h1.75zm0-3.5555555h-1.75v-1.7777778h1.75zm0-3.5555556h-1.75v-1.7777777h1.75zm8.75 7.1111111h-1.75v-1.7777777h1.75zm0-3.5555555h-1.75v-1.7777778h1.75zm0-3.5555556h-1.75v-1.7777777h1.75z" fill="#fff"/><path d="m55.25 42v1.7777778h-1.75v-1.7777778h-7v1.7777778h-1.75v-1.7777778h-1.75v16h1.75v-1.7777778h1.75v1.7777778h7v-1.7777778h1.75v1.7777778h1.75v-16zm-8.75 12.4444444h-1.75v-1.7777777h1.75zm0-3.5555555h-1.75v-1.7777778h1.75zm0-3.5555556h-1.75v-1.7777777h1.75zm8.75 7.1111111h-1.75v-1.7777777h1.75zm0-3.5555555h-1.75v-1.7777778h1.75zm0-3.5555556h-1.75v-1.7777777h1.75z" fill="#ff6b47"/><path d="m55.25 2v1.77777778h-1.75v-1.77777778h-7v1.77777778h-1.75v-1.77777778h-1.75v16h1.75v-1.7777778h1.75v1.7777778h7v-1.7777778h1.75v1.7777778h1.75v-16zm-8.75 12.4444444h-1.75v-1.7777777h1.75zm0-3.5555555h-1.75v-1.77777779h1.75zm0-3.55555557h-1.75v-1.77777777h1.75zm8.75 7.11111107h-1.75v-1.7777777h1.75zm0-3.5555555h-1.75v-1.77777779h1.75zm0-3.55555557h-1.75v-1.77777777h1.75z" fill="#9b9b9b"/><path d="m64 19c-1.1045695 0-2-.8954305-2-2v-13c0-1.1045695.8954305-2 2-2h12c1.1045695 0 2 .8954305 2 2v13c0 1.1045695-.8954305 2-2 2zm0-15v9.584l2.28-2.265c.4000466-.3918041.682622-.3355605 1.44 0l3.31 1.3 4.55-4.472c.1285048-.07360665.2721988-.11671485.42-.126v-4.021zm7.73 10.684c-.01.007-.01.017-.02.024-.3897084.3688122-.71.292-1.44-.017l-3.27-1.246-2.28 2.266c-.191571.1895192-.4505276.2952598-.72.294v.995h12v-6.61zm-5.73-6.684c0-1.1045695.8954305-2 2-2s2 .8954305 2 2-.8954305 2-2 2-2-.8954305-2-2z" fill="#9b9b9b"/><path d="m145.889938 8.07581259c1.665937-1.66596877 4.367937-1.66596877 6.033875 0 .30125.30175001.548812.63765626.741187.99509377l-.702125.70309376c-.214844.2148125-.496562.34078128-.798312.35640628-.121657-.28512503-.297813-.54684379-.523438-.77240629-.463312-.46287501-1.078531-.71775001-1.73475-.71775001-.65525 0-1.270469.254875-1.734312.71775001l-2.639532 2.63953129c-.463843.4637813-.718718 1.08-.718718 1.7352813 0 .6552812.254875 1.2714062.718718 1.7343125.463875.463875 1.079063.7187188 1.734313.7187188s1.271406-.2548438 1.734281-.7187188l1.358344-1.3584063c.567312.192375 1.159062.2900313 1.762562.2900313.181688.0000937.360875-.0087813.538094-.0253125l-2.376812 2.3768438c-1.665907 1.6660312-4.366969 1.6660312-6.032907 0-1.666906-1.6669376-1.666906-4.3679063 0-6.0339376zm4.826843-4.82609382c1.665938-1.66596878 4.367469-1.66596878 6.033875 0 1.665469 1.66596877 1.665469 4.36703131.000032 6.03290634l-2.64 2.64053129c-1.666407 1.6660313-4.368407 1.6660313-6.034344 0-.300781-.3018125-.547844-.63775-.740219-.9941563l.703094-.7040312c.214844-.2148125.496062-.33981253.796844-.35640628.121093.28515628.296843.54687498.522437.77149998.463813.463875 1.079.7186875 1.73525.7186875.65525 0 1.271469-.2548125 1.734781-.7186875l2.639532-2.63956251c.463375-.46287501.718156-1.07906252.718156-1.73431253 0-.65621876-.254781-1.27143752-.718156-1.73431252-.463344-.46384376-1.079532-.71871876-1.734844-.71871876-.65525 0-1.271438.254875-1.734781.71871876l-1.349063 1.34859377c-.554656-.18453125-1.140531-.28025001-1.743031-.28025001-.191406 0-.381844.0088125-.570313.0293125z" fill="#9b9b9b" fill-rule="nonzero"/><path d="m145.889938 28.0758126c1.665937-1.6659688 4.367937-1.6659688 6.033875 0 .30125.30175.548812.6376563.741187.9950938l-.702125.7030937c-.214844.2148125-.496562.3407813-.798312.3564063-.121657-.285125-.297813-.5468438-.523438-.7724063-.463312-.462875-1.078531-.71775-1.73475-.71775-.65525 0-1.270469.254875-1.734312.71775l-2.639532 2.6395313c-.463843.4637813-.718718 1.08-.718718 1.7352813 0 .6552812.254875 1.2714062.718718 1.7343125.463875.463875 1.079063.7187188 1.734313.7187188s1.271406-.2548438 1.734281-.7187188l1.358344-1.3584063c.567312.192375 1.159062.2900313 1.762562.2900313.181688.0000937.360875-.0087813.538094-.0253125l-2.376812 2.3768438c-1.665907 1.6660312-4.366969 1.6660312-6.032907 0-1.666906-1.6669376-1.666906-4.3679063 0-6.0339376zm4.826843-4.8260938c1.665938-1.6659688 4.367469-1.6659688 6.033875 0 1.665469 1.6659687 1.665469 4.3670313.000032 6.0329063l-2.64 2.6405313c-1.666407 1.6660313-4.368407 1.6660313-6.034344 0-.300781-.3018125-.547844-.63775-.740219-.9941563l.703094-.7040312c.214844-.2148125.496062-.3398125.796844-.3564063.121093.2851563.296843.546875.522437.7715.463813.463875 1.079.7186875 1.73525.7186875.65525 0 1.271469-.2548125 1.734781-.7186875l2.639532-2.6395625c.463375-.462875.718156-1.0790625.718156-1.7343125 0-.6562188-.254781-1.2714376-.718156-1.7343126-.463344-.4638437-1.079532-.7187187-1.734844-.7187187-.65525 0-1.271438.254875-1.734781.7187187l-1.349063 1.3485938c-.554656-.1845312-1.140531-.28025-1.743031-.28025-.191406 0-.381844.0088125-.570313.0293125z" fill="#fff" fill-rule="nonzero"/><path d="m145.889938 48.0758126c1.665937-1.6659688 4.367937-1.6659688 6.033875 0 .30125.30175.548812.6376563.741187.9950938l-.702125.7030937c-.214844.2148125-.496562.3407813-.798312.3564063-.121657-.285125-.297813-.5468438-.523438-.7724063-.463312-.462875-1.078531-.71775-1.73475-.71775-.65525 0-1.270469.254875-1.734312.71775l-2.639532 2.6395313c-.463843.4637813-.718718 1.08-.718718 1.7352813 0 .6552812.254875 1.2714062.718718 1.7343125.463875.463875 1.079063.7187188 1.734313.7187188s1.271406-.2548438 1.734281-.7187188l1.358344-1.3584063c.567312.192375 1.159062.2900313 1.762562.2900313.181688.0000937.360875-.0087813.538094-.0253125l-2.376812 2.3768438c-1.665907 1.6660312-4.366969 1.6660312-6.032907 0-1.666906-1.6669376-1.666906-4.3679063 0-6.0339376zm4.826843-4.8260938c1.665938-1.6659688 4.367469-1.6659688 6.033875 0 1.665469 1.6659687 1.665469 4.3670313.000032 6.0329063l-2.64 2.6405313c-1.666407 1.6660313-4.368407 1.6660313-6.034344 0-.300781-.3018125-.547844-.63775-.740219-.9941563l.703094-.7040312c.214844-.2148125.496062-.3398125.796844-.3564063.121093.2851563.296843.546875.522437.7715.463813.463875 1.079.7186875 1.73525.7186875.65525 0 1.271469-.2548125 1.734781-.7186875l2.639532-2.6395625c.463375-.462875.718156-1.0790625.718156-1.7343125 0-.6562188-.254781-1.2714376-.718156-1.7343126-.463344-.4638437-1.079532-.7187187-1.734844-.7187187-.65525 0-1.271438.254875-1.734781.7187187l-1.349063 1.3485938c-.554656-.1845312-1.140531-.28025-1.743031-.28025-.191406 0-.381844.0088125-.570313.0293125z" fill="#ff6b47" fill-rule="nonzero"/><path d="m64 39c-1.1045695 0-2-.8954305-2-2v-13c0-1.1045695.8954305-2 2-2h12c1.1045695 0 2 .8954305 2 2v13c0 1.1045695-.8954305 2-2 2zm0-15v9.584l2.28-2.265c.4000466-.3918041.682622-.3355605 1.44 0l3.31 1.3 4.55-4.472c.1285048-.0736067.2721988-.1167148.42-.126v-4.021zm7.73 10.684c-.01.007-.01.017-.02.024-.3897084.3688122-.71.292-1.44-.017l-3.27-1.246-2.28 2.266c-.191571.1895192-.4505276.2952598-.72.294v.995h12v-6.61zm-5.73-6.684c0-1.1045695.8954305-2 2-2s2 .8954305 2 2-.8954305 2-2 2-2-.8954305-2-2z" fill="#fff"/><path d="m64 59c-1.1045695 0-2-.8954305-2-2v-13c0-1.1045695.8954305-2 2-2h12c1.1045695 0 2 .8954305 2 2v13c0 1.1045695-.8954305 2-2 2zm0-15v9.584l2.28-2.265c.4000466-.3918041.682622-.3355605 1.44 0l3.31 1.3 4.55-4.472c.1285048-.0736067.2721988-.1167148.42-.126v-4.021zm7.73 10.684c-.01.007-.01.017-.02.024-.3897084.3688122-.71.292-1.44-.017l-3.27-1.246-2.28 2.266c-.191571.1895192-.4505276.2952598-.72.294v.995h12v-6.61zm-5.73-6.684c0-1.1045695.8954305-2 2-2s2 .8954305 2 2-.8954305 2-2 2-2-.8954305-2-2z" fill="#ff6b47"/><path d="m94.5 3c-1.5954545 0-3.3136364.32941176-4.5 1.23529412-1.1863636-.90588236-2.9045455-1.23529412-4.5-1.23529412s-3.3136364.32941176-4.5 1.23529412v13.06470588c0 .2058824.2045455.4117647.4090909.4117647.0818182 0 .1227273-.0411765.2045455-.0411765 1.1045454-.5352941 2.7-.9058823 3.8863636-.9058823 1.5954545 0 3.3136364.3294117 4.5 1.2352941 1.1045455-.7 3.1090909-1.2352941 4.5-1.2352941 1.35 0 2.7409091.2470588 3.8863636.8647059.0818182.0411764.1227273.0411764.2045455.0411764.2045454 0 .4090909-.2058823.4090909-.4117647v-13.02352938c-.4909091-.37058824-1.0227273-.61764706-1.6363636-.82352941-.9081819-.2882353-1.9063637-.41176471-2.8636364-.41176471zm0 1.64705882c.9818182 0 1.9636364.12352942 2.8636364.41176471v10.47058827c-.9-.2882353-1.8818182-.4117647-2.8636364-.4117647-1.3909091 0-3.3954545.5352941-4.5 1.2352941v-10.47058826c1.1045455-.7 3.1090909-1.23529412 4.5-1.23529412zm-9.5596215 8.35294118c.9424695 0 2.3007344.3714286 3.0491661.8571429l.0104554 1.13472c-.0034918.0027049-.006977.0054172-.0104554.0081371-.7484317-.4857143-2.1066966-.8571429-3.0491661-.8571429-.656419 0-1.3271121.0882757-1.9403785.2965v-1.1536428c.6098332-.2 1.2751059-.2857143 1.9403785-.2857143zm0-2.3333333c.9424695 0 2.3007344.3714285 3.0491661.8571428l.0104554 1.1347201c-.0034918.0027048-.006977.0054172-.0104554.0081371-.7484317-.4857143-2.1066966-.8571429-3.0491661-.8571429-.656419 0-1.3271121.0882756-1.9403785.2964999v-1.1536427c.6098332-.2 1.2751059-.2857143 1.9403785-.2857143zm0-2.33333337c.9424695 0 2.3007344.37142857 3.0491661.85714286l.0104554 1.13472001c-.0034918.0027049-.006977.0054173-.0104554.0081371-.7484317-.48571425-2.1066966-.85714282-3.0491661-.85714282-.656419 0-1.3271121.08827563-1.9403785.29649991v-1.15364277c.6098332-.2 1.2751059-.28571429 1.9403785-.28571429zm.0040659-2.33333333c1.0833334 0 2.25.22857143 3.0555556.85714286v1.14285714c-.75-.48571429-2.1111111-.85714286-3.0555556-.85714286-.6666666 0-1.3333333.08571429-1.9444444.28571429v-1.14285714c.6166667-.2 1.2944444-.28571429 1.9444444-.28571429z" fill="#9b9b9b"/><path d="m94.5 23c-1.5954545 0-3.3136364.3294118-4.5 1.2352941-1.1863636-.9058823-2.9045455-1.2352941-4.5-1.2352941s-3.3136364.3294118-4.5 1.2352941v13.0647059c0 .2058824.2045455.4117647.4090909.4117647.0818182 0 .1227273-.0411765.2045455-.0411765 1.1045454-.5352941 2.7-.9058823 3.8863636-.9058823 1.5954545 0 3.3136364.3294117 4.5 1.2352941 1.1045455-.7 3.1090909-1.2352941 4.5-1.2352941 1.35 0 2.7409091.2470588 3.8863636.8647059.0818182.0411764.1227273.0411764.2045455.0411764.2045454 0 .4090909-.2058823.4090909-.4117647v-13.0235294c-.4909091-.3705882-1.0227273-.617647-1.6363636-.8235294-.9081819-.2882353-1.9063637-.4117647-2.8636364-.4117647zm0 1.6470588c.9818182 0 1.9636364.1235294 2.8636364.4117647v10.4705883c-.9-.2882353-1.8818182-.4117647-2.8636364-.4117647-1.3909091 0-3.3954545.5352941-4.5 1.2352941v-10.4705883c1.1045455-.7 3.1090909-1.2352941 4.5-1.2352941zm-9.5596215 8.3529412c.9424695 0 2.3007344.3714286 3.0491661.8571429l.0104554 1.13472c-.0034918.0027049-.006977.0054172-.0104554.0081371-.7484317-.4857143-2.1066966-.8571429-3.0491661-.8571429-.656419 0-1.3271121.0882757-1.9403785.2965v-1.1536428c.6098332-.2 1.2751059-.2857143 1.9403785-.2857143zm0-2.3333333c.9424695 0 2.3007344.3714285 3.0491661.8571428l.0104554 1.1347201c-.0034918.0027048-.006977.0054172-.0104554.0081371-.7484317-.4857143-2.1066966-.8571429-3.0491661-.8571429-.656419 0-1.3271121.0882756-1.9403785.2964999v-1.1536427c.6098332-.2 1.2751059-.2857143 1.9403785-.2857143zm0-2.3333334c.9424695 0 2.3007344.3714286 3.0491661.8571429l.0104554 1.13472c-.0034918.0027049-.006977.0054173-.0104554.0081371-.7484317-.4857143-2.1066966-.8571428-3.0491661-.8571428-.656419 0-1.3271121.0882756-1.9403785.2964999v-1.1536428c.6098332-.2 1.2751059-.2857143 1.9403785-.2857143zm.0040659-2.3333333c1.0833334 0 2.25.2285714 3.0555556.8571429v1.1428571c-.75-.4857143-2.1111111-.8571429-3.0555556-.8571429-.6666666 0-1.3333333.0857143-1.9444444.2857143v-1.1428571c.6166667-.2 1.2944444-.2857143 1.9444444-.2857143z" fill="#fff"/><path d="m94.5 43c-1.5954545 0-3.3136364.3294118-4.5 1.2352941-1.1863636-.9058823-2.9045455-1.2352941-4.5-1.2352941s-3.3136364.3294118-4.5 1.2352941v13.0647059c0 .2058824.2045455.4117647.4090909.4117647.0818182 0 .1227273-.0411765.2045455-.0411765 1.1045454-.5352941 2.7-.9058823 3.8863636-.9058823 1.5954545 0 3.3136364.3294117 4.5 1.2352941 1.1045455-.7 3.1090909-1.2352941 4.5-1.2352941 1.35 0 2.7409091.2470588 3.8863636.8647059.0818182.0411764.1227273.0411764.2045455.0411764.2045454 0 .4090909-.2058823.4090909-.4117647v-13.0235294c-.4909091-.3705882-1.0227273-.617647-1.6363636-.8235294-.9081819-.2882353-1.9063637-.4117647-2.8636364-.4117647zm0 1.6470588c.9818182 0 1.9636364.1235294 2.8636364.4117647v10.4705883c-.9-.2882353-1.8818182-.4117647-2.8636364-.4117647-1.3909091 0-3.3954545.5352941-4.5 1.2352941v-10.4705883c1.1045455-.7 3.1090909-1.2352941 4.5-1.2352941zm-9.5596215 8.3529412c.9424695 0 2.3007344.3714286 3.0491661.8571429l.0104554 1.13472c-.0034918.0027049-.006977.0054172-.0104554.0081371-.7484317-.4857143-2.1066966-.8571429-3.0491661-.8571429-.656419 0-1.3271121.0882757-1.9403785.2965v-1.1536428c.6098332-.2 1.2751059-.2857143 1.9403785-.2857143zm0-2.3333333c.9424695 0 2.3007344.3714285 3.0491661.8571428l.0104554 1.1347201c-.0034918.0027048-.006977.0054172-.0104554.0081371-.7484317-.4857143-2.1066966-.8571429-3.0491661-.8571429-.656419 0-1.3271121.0882756-1.9403785.2964999v-1.1536427c.6098332-.2 1.2751059-.2857143 1.9403785-.2857143zm0-2.3333334c.9424695 0 2.3007344.3714286 3.0491661.8571429l.0104554 1.13472c-.0034918.0027049-.006977.0054173-.0104554.0081371-.7484317-.4857143-2.1066966-.8571428-3.0491661-.8571428-.656419 0-1.3271121.0882756-1.9403785.2964999v-1.1536428c.6098332-.2 1.2751059-.2857143 1.9403785-.2857143zm.0040659-2.3333333c1.0833334 0 2.25.2285714 3.0555556.8571429v1.1428571c-.75-.4857143-2.1111111-.8571429-3.0555556-.8571429-.6666666 0-1.3333333.0857143-1.9444444.2857143v-1.1428571c.6166667-.2 1.2944444-.2857143 1.9444444-.2857143z" fill="#ff6b47"/><g fill-rule="nonzero"><path d="m130.776721 2v5.05201973c0 .68636842.557052 1.16508552 1.243421 1.16508552h4.979858v9.61656585c0 .6876118-.557053 1.1663289-1.243421 1.1663289h-11.513158c-.686368 0-1.243421-.4787171-1.243421-1.1650855v-14.51315792c0-.68761184.557053-1.32175658 1.243421-1.32175658zm-1.559616 8.7039473h-2.486842v1.2434211h.364323l1.865131 1.8651316-1.865131 1.8651315h-.364323v1.2434211h2.486842v-1.2434211h-.364322l.986033-.9860328.986033.9860328h-.364323v1.2434211h2.486842v-1.2434211h-.364322l-1.865132-1.8651315 1.865132-1.8651316h.364322v-1.2434211h-2.486842v1.2434211h.364323l-.986033.9860329-.986033-.9860329h.364322zm2.782895-8.62561177 4.973684 4.89534867h-4.973684z" fill="#9b9b9b"/><path d="m130.776721 22v5.0520197c0 .6863684.557052 1.1650855 1.243421 1.1650855h4.979858v9.6165659c0 .6876118-.557053 1.1663289-1.243421 1.1663289h-11.513158c-.686368 0-1.243421-.4787171-1.243421-1.1650855v-14.5131579c0-.6876119.557053-1.3217566 1.243421-1.3217566zm-1.559616 8.7039473h-2.486842v1.2434211h.364323l1.865131 1.8651316-1.865131 1.8651315h-.364323v1.2434211h2.486842v-1.2434211h-.364322l.986033-.9860328.986033.9860328h-.364323v1.2434211h2.486842v-1.2434211h-.364322l-1.865132-1.8651315 1.865132-1.8651316h.364322v-1.2434211h-2.486842v1.2434211h.364323l-.986033.9860329-.986033-.9860329h.364322zm2.782895-8.6256118 4.973684 4.8953487h-4.973684z" fill="#fff"/><path d="m130.776721 42v5.0520197c0 .6863684.557052 1.1650855 1.243421 1.1650855h4.979858v9.6165659c0 .6876118-.557053 1.1663289-1.243421 1.1663289h-11.513158c-.686368 0-1.243421-.4787171-1.243421-1.1650855v-14.5131579c0-.6876119.557053-1.3217566 1.243421-1.3217566zm-1.559616 8.7039473h-2.486842v1.2434211h.364323l1.865131 1.8651316-1.865131 1.8651315h-.364323v1.2434211h2.486842v-1.2434211h-.364322l.986033-.9860328.986033.9860328h-.364323v1.2434211h2.486842v-1.2434211h-.364322l-1.865132-1.8651315 1.865132-1.8651316h.364322v-1.2434211h-2.486842v1.2434211h.364323l-.986033.9860329-.986033-.9860329h.364322zm2.782895-8.6256118 4.973684 4.8953487h-4.973684z" fill="#ff6b47"/><path d="m110.791247 2v5.05201973c0 .68636842.557053 1.16508552 1.243421 1.16508552h4.965332v9.61656585c0 .6876118-.557053 1.1663289-1.243421 1.1663289h-11.513158c-.686368 0-1.243421-.4787171-1.243421-1.1650855v-14.51315792c0-.68761184.557053-1.32175658 1.243421-1.32175658zm-2.817563 8.7039473h-2.486842v1.2434211h.603059l1.243421 4.9736842h1.304349l1.201145-3.2030526 1.201145 3.2030526h1.304348l1.243421-4.9736842h.603059v-1.2434211h-2.486842v1.2434211h.601816l-.721184 2.8859803-1.081776-2.8859803h-1.327974l-1.08302 2.8859803-.721184-2.8859803h.603059zm4.026316-8.62561177 4.973684 4.89534867h-4.973684z" fill="#9b9b9b"/><path d="m110.791247 22v5.0520197c0 .6863684.557053 1.1650855 1.243421 1.1650855h4.965332v9.6165659c0 .6876118-.557053 1.1663289-1.243421 1.1663289h-11.513158c-.686368 0-1.243421-.4787171-1.243421-1.1650855v-14.5131579c0-.6876119.557053-1.3217566 1.243421-1.3217566zm-2.817563 8.7039473h-2.486842v1.2434211h.603059l1.243421 4.9736842h1.304349l1.201145-3.2030526 1.201145 3.2030526h1.304348l1.243421-4.9736842h.603059v-1.2434211h-2.486842v1.2434211h.601816l-.721184 2.8859803-1.081776-2.8859803h-1.327974l-1.08302 2.8859803-.721184-2.8859803h.603059zm4.026316-8.6256118 4.973684 4.8953487h-4.973684z" fill="#fff"/><path d="m110.791247 42v5.0520197c0 .6863684.557053 1.1650855 1.243421 1.1650855h4.965332v9.6165659c0 .6876118-.557053 1.1663289-1.243421 1.1663289h-11.513158c-.686368 0-1.243421-.4787171-1.243421-1.1650855v-14.5131579c0-.6876119.557053-1.3217566 1.243421-1.3217566zm-2.817563 8.7039473h-2.486842v1.2434211h.603059l1.243421 4.9736842h1.304349l1.201145-3.2030526 1.201145 3.2030526h1.304348l1.243421-4.9736842h.603059v-1.2434211h-2.486842v1.2434211h.601816l-.721184 2.8859803-1.081776-2.8859803h-1.327974l-1.08302 2.8859803-.721184-2.8859803h.603059zm4.026316-8.6256118 4.973684 4.8953487h-4.973684z" fill="#ff6b47"/></g></g></svg>