<svg xmlns="http://www.w3.org/2000/svg" xmlns:xlink="http://www.w3.org/1999/xlink" width="40" height="80" viewBox="0 0 40 80"><defs><path id="a" d="M27.489 21.25l-8.221 8.402 1.812 1.812 9.448-9.655.003.003L32.344 20 21.08 8.75l-1.812 1.813 8.197 8.187H6.25v2.5h21.239zM20 40C8.954 40 0 31.046 0 20S8.954 0 20 0s20 8.954 20 20-8.954 20-20 20z"/><path id="c" d="M27.489 21.25l-8.221 8.402 1.812 1.812 9.448-9.655.003.003L32.344 20 21.08 8.75l-1.812 1.813 8.197 8.187H6.25v2.5h21.239zM20 40C8.954 40 0 31.046 0 20S8.954 0 20 0s20 8.954 20 20-8.954 20-20 20z"/></defs><g fill="none" fill-rule="evenodd"><mask id="b" fill="#fff"><use xlink:href="#a"/></mask><g fill="#FF6B47" mask="url(#b)"><path d="M0 0H40V40H0z"/></g><g transform="translate(0 40)"><mask id="d" fill="#fff"><use xlink:href="#c"/></mask><g fill="#50E3C2" mask="url(#d)"><path d="M0 0H40V40H0z"/></g></g></g></svg>