<svg xmlns="http://www.w3.org/2000/svg" xmlns:xlink="http://www.w3.org/1999/xlink" width="100" height="60" viewBox="0 0 100 60"><defs><path id="a" d="M15.949 2.042l1.162.085v12.317c0 1.965-1.56 3.556-3.487 3.556s-3.487-1.591-3.487-3.556c0-1.964 1.56-3.555 3.487-3.555.636 0 1.23.187 1.744.489V5.556H8.974v8.888C8.974 16.41 7.414 18 5.487 18 3.561 18 2 16.409 2 14.444c0-1.964 1.56-3.555 3.487-3.555.637 0 1.23.187 1.744.489V2h8.718v.042z"/><path id="c" d="M15.949 2.042l1.162.085v12.317c0 1.965-1.56 3.556-3.487 3.556s-3.487-1.591-3.487-3.556c0-1.964 1.56-3.555 3.487-3.555.636 0 1.23.187 1.744.489V5.556H8.974v8.888C8.974 16.41 7.414 18 5.487 18 3.561 18 2 16.409 2 14.444c0-1.964 1.56-3.555 3.487-3.555.637 0 1.23.187 1.744.489V2h8.718v.042z"/><path id="e" d="M15.949 2.042l1.162.085v12.317c0 1.965-1.56 3.556-3.487 3.556s-3.487-1.591-3.487-3.556c0-1.964 1.56-3.555 3.487-3.555.636 0 1.23.187 1.744.489V5.556H8.974v8.888C8.974 16.41 7.414 18 5.487 18 3.561 18 2 16.409 2 14.444c0-1.964 1.56-3.555 3.487-3.555.637 0 1.23.187 1.744.489V2h8.718v.042z"/><path id="g" d="M10.84 7.902v-2.13c.26-.426.41-.928.41-1.465 0-1.54-1.231-2.787-2.75-2.787S5.75 2.768 5.75 4.307c0 .415.09.808.25 1.162v2.32a4.319 4.319 0 0 1-1.75-3.482C4.25 1.928 6.153 0 8.5 0s4.25 1.928 4.25 4.307c0 1.502-.76 2.825-1.91 3.595zm-.82.428a4.198 4.198 0 0 1-.01.003h.938c.31.04.625.007.631.667l1.314-.013c.272.013.366.093.581.68h1.263c.095 0 .556.126.853.426.271.274.41.447.41.974v3.986L14.308 19H7.79v-2l-3.6-5.293-.012-.054c-.019-.06-.196-.4-.177-.966.02-.447.19-1.194 1.421-1.194.48 0 1.175.914 1.737 1.507V9h.001V5h-.001v-.667C7.153 3.807 7.355 3 8.352 3c.89 0 1.276.702 1.328 1.213V8.33h.34z"/><path id="i" d="M10.84 7.902v-2.13c.26-.426.41-.928.41-1.465 0-1.54-1.231-2.787-2.75-2.787S5.75 2.768 5.75 4.307c0 .415.09.808.25 1.162v2.32a4.319 4.319 0 0 1-1.75-3.482C4.25 1.928 6.153 0 8.5 0s4.25 1.928 4.25 4.307c0 1.502-.76 2.825-1.91 3.595zm-.82.428a4.198 4.198 0 0 1-.01.003h.938c.31.04.625.007.631.667l1.314-.013c.272.013.366.093.581.68h1.263c.095 0 .556.126.853.426.271.274.41.447.41.974v3.986L14.308 19H7.79v-2l-3.6-5.293-.012-.054c-.019-.06-.196-.4-.177-.966.02-.447.19-1.194 1.421-1.194.48 0 1.175.914 1.737 1.507V9h.001V5h-.001v-.667C7.153 3.807 7.355 3 8.352 3c.89 0 1.276.702 1.328 1.213V8.33h.34z"/><path id="k" d="M10.84 7.902v-2.13c.26-.426.41-.928.41-1.465 0-1.54-1.231-2.787-2.75-2.787S5.75 2.768 5.75 4.307c0 .415.09.808.25 1.162v2.32a4.319 4.319 0 0 1-1.75-3.482C4.25 1.928 6.153 0 8.5 0s4.25 1.928 4.25 4.307c0 1.502-.76 2.825-1.91 3.595zm-.82.428a4.198 4.198 0 0 1-.01.003h.938c.31.04.625.007.631.667l1.314-.013c.272.013.366.093.581.68h1.263c.095 0 .556.126.853.426.271.274.41.447.41.974v3.986L14.308 19H7.79v-2l-3.6-5.293-.012-.054c-.019-.06-.196-.4-.177-.966.02-.447.19-1.194 1.421-1.194.48 0 1.175.914 1.737 1.507V9h.001V5h-.001v-.667C7.153 3.807 7.355 3 8.352 3c.89 0 1.276.702 1.328 1.213V8.33h.34z"/><path id="m" d="M15.25 2v1.778H13.5V2h-7v1.778H4.75V2H3v16h1.75v-1.778H6.5V18h7v-1.778h1.75V18H17V2h-1.75zM6.5 14.444H4.75v-1.777H6.5v1.777zm0-3.555H4.75V9.11H6.5v1.778zm0-3.556H4.75V5.556H6.5v1.777zm8.75 7.111H13.5v-1.777h1.75v1.777zm0-3.555H13.5V9.11h1.75v1.778zm0-3.556H13.5V5.556h1.75v1.777z"/><path id="o" d="M15.25 2v1.778H13.5V2h-7v1.778H4.75V2H3v16h1.75v-1.778H6.5V18h7v-1.778h1.75V18H17V2h-1.75zM6.5 14.444H4.75v-1.777H6.5v1.777zm0-3.555H4.75V9.11H6.5v1.778zm0-3.556H4.75V5.556H6.5v1.777zm8.75 7.111H13.5v-1.777h1.75v1.777zm0-3.555H13.5V9.11h1.75v1.778zm0-3.556H13.5V5.556h1.75v1.777z"/><path id="q" d="M15.25 2v1.778H13.5V2h-7v1.778H4.75V2H3v16h1.75v-1.778H6.5V18h7v-1.778h1.75V18H17V2h-1.75zM6.5 14.444H4.75v-1.777H6.5v1.777zm0-3.555H4.75V9.11H6.5v1.778zm0-3.556H4.75V5.556H6.5v1.777zm8.75 7.111H13.5v-1.777h1.75v1.777zm0-3.555H13.5V9.11h1.75v1.778zm0-3.556H13.5V5.556h1.75v1.777z"/><path id="s" d="M4 19a2 2 0 0 1-2-2V4a2 2 0 0 1 2-2h12a2 2 0 0 1 2 2v13a2 2 0 0 1-2 2H4zM4 4v9.584l2.28-2.265c.4-.392.683-.336 1.44 0l3.31 1.3 4.55-4.472a.967.967 0 0 1 .42-.126V4H4zm7.73 10.684c-.01.007-.01.017-.02.024-.39.369-.71.292-1.44-.017L7 13.445l-2.28 2.266c-.192.19-.45.295-.72.294V17h12v-6.61l-4.27 4.294zM6 8a2 2 0 1 1 4 0 2 2 0 0 1-4 0z"/><path id="u" d="M4 19a2 2 0 0 1-2-2V4a2 2 0 0 1 2-2h12a2 2 0 0 1 2 2v13a2 2 0 0 1-2 2H4zM4 4v9.584l2.28-2.265c.4-.392.683-.336 1.44 0l3.31 1.3 4.55-4.472a.967.967 0 0 1 .42-.126V4H4zm7.73 10.684c-.01.007-.01.017-.02.024-.39.369-.71.292-1.44-.017L7 13.445l-2.28 2.266c-.192.19-.45.295-.72.294V17h12v-6.61l-4.27 4.294zM6 8a2 2 0 1 1 4 0 2 2 0 0 1-4 0z"/><path id="w" d="M4 19a2 2 0 0 1-2-2V4a2 2 0 0 1 2-2h12a2 2 0 0 1 2 2v13a2 2 0 0 1-2 2H4zM4 4v9.584l2.28-2.265c.4-.392.683-.336 1.44 0l3.31 1.3 4.55-4.472a.967.967 0 0 1 .42-.126V4H4zm7.73 10.684c-.01.007-.01.017-.02.024-.39.369-.71.292-1.44-.017L7 13.445l-2.28 2.266c-.192.19-.45.295-.72.294V17h12v-6.61l-4.27 4.294zM6 8a2 2 0 1 1 4 0 2 2 0 0 1-4 0z"/><path id="y" d="M14.5 3c-1.595 0-3.314.33-4.5 1.235C8.814 3.33 7.095 3 5.5 3 3.905 3 2.186 3.33 1 4.235V17.3c0 .206.205.412.41.412.08 0 .122-.041.204-.041 1.104-.536 2.7-.906 3.886-.906 1.595 0 3.314.33 4.5 1.235 1.105-.7 3.11-1.235 4.5-1.235 1.35 0 2.74.247 3.886.864.082.042.123.042.205.042.204 0 .409-.206.409-.412V4.235c-.49-.37-1.023-.617-1.636-.823C16.455 3.124 15.457 3 14.5 3zm0 12.118c-1.39 0-3.395.535-4.5 1.235V5.883c1.105-.7 3.11-1.236 4.5-1.236.982 0 1.964.124 2.864.412v10.47c-.9-.288-1.882-.411-2.864-.411zM3 6.286A6.39 6.39 0 0 1 4.944 6c1.084 0 2.25.229 3.056.857V8c-.75-.486-2.111-.857-3.056-.857A6.29 6.29 0 0 0 3 7.429V6.286zm0 3.487V8.619c.61-.2 1.275-.286 1.94-.286.943 0 2.301.372 3.05.857L8 10.325a2.923 2.923 0 0 0-.01.008c-.749-.485-2.107-.857-3.05-.857-.656 0-1.327.088-1.94.297zm0 2.333v-1.154c.61-.2 1.275-.285 1.94-.285.943 0 2.301.371 3.05.857L8 12.659a2.9 2.9 0 0 0-.01.008c-.749-.486-2.107-.857-3.05-.857-.656 0-1.327.088-1.94.296zm0 2.333v-1.153c.61-.2 1.275-.286 1.94-.286.943 0 2.301.371 3.05.857L8 14.992a2.911 2.911 0 0 0-.01.008c-.749-.486-2.107-.857-3.05-.857-.656 0-1.327.088-1.94.296z"/><path id="A" d="M14.5 3c-1.595 0-3.314.33-4.5 1.235C8.814 3.33 7.095 3 5.5 3 3.905 3 2.186 3.33 1 4.235V17.3c0 .206.205.412.41.412.08 0 .122-.041.204-.041 1.104-.536 2.7-.906 3.886-.906 1.595 0 3.314.33 4.5 1.235 1.105-.7 3.11-1.235 4.5-1.235 1.35 0 2.74.247 3.886.864.082.042.123.042.205.042.204 0 .409-.206.409-.412V4.235c-.49-.37-1.023-.617-1.636-.823C16.455 3.124 15.457 3 14.5 3zm0 12.118c-1.39 0-3.395.535-4.5 1.235V5.883c1.105-.7 3.11-1.236 4.5-1.236.982 0 1.964.124 2.864.412v10.47c-.9-.288-1.882-.411-2.864-.411zM3 6.286A6.39 6.39 0 0 1 4.944 6c1.084 0 2.25.229 3.056.857V8c-.75-.486-2.111-.857-3.056-.857A6.29 6.29 0 0 0 3 7.429V6.286zm0 3.487V8.619c.61-.2 1.275-.286 1.94-.286.943 0 2.301.372 3.05.857L8 10.325a2.923 2.923 0 0 0-.01.008c-.749-.485-2.107-.857-3.05-.857-.656 0-1.327.088-1.94.297zm0 2.333v-1.154c.61-.2 1.275-.285 1.94-.285.943 0 2.301.371 3.05.857L8 12.659a2.9 2.9 0 0 0-.01.008c-.749-.486-2.107-.857-3.05-.857-.656 0-1.327.088-1.94.296zm0 2.333v-1.153c.61-.2 1.275-.286 1.94-.286.943 0 2.301.371 3.05.857L8 14.992a2.911 2.911 0 0 0-.01.008c-.749-.486-2.107-.857-3.05-.857-.656 0-1.327.088-1.94.296z"/><path id="C" d="M14.5 3c-1.595 0-3.314.33-4.5 1.235C8.814 3.33 7.095 3 5.5 3 3.905 3 2.186 3.33 1 4.235V17.3c0 .206.205.412.41.412.08 0 .122-.041.204-.041 1.104-.536 2.7-.906 3.886-.906 1.595 0 3.314.33 4.5 1.235 1.105-.7 3.11-1.235 4.5-1.235 1.35 0 2.74.247 3.886.864.082.042.123.042.205.042.204 0 .409-.206.409-.412V4.235c-.49-.37-1.023-.617-1.636-.823C16.455 3.124 15.457 3 14.5 3zm0 12.118c-1.39 0-3.395.535-4.5 1.235V5.883c1.105-.7 3.11-1.236 4.5-1.236.982 0 1.964.124 2.864.412v10.47c-.9-.288-1.882-.411-2.864-.411zM3 6.286A6.39 6.39 0 0 1 4.944 6c1.084 0 2.25.229 3.056.857V8c-.75-.486-2.111-.857-3.056-.857A6.29 6.29 0 0 0 3 7.429V6.286zm0 3.487V8.619c.61-.2 1.275-.286 1.94-.286.943 0 2.301.372 3.05.857L8 10.325a2.923 2.923 0 0 0-.01.008c-.749-.485-2.107-.857-3.05-.857-.656 0-1.327.088-1.94.297zm0 2.333v-1.154c.61-.2 1.275-.285 1.94-.285.943 0 2.301.371 3.05.857L8 12.659a2.9 2.9 0 0 0-.01.008c-.749-.486-2.107-.857-3.05-.857-.656 0-1.327.088-1.94.296zm0 2.333v-1.153c.61-.2 1.275-.286 1.94-.286.943 0 2.301.371 3.05.857L8 14.992a2.911 2.911 0 0 0-.01.008c-.749-.486-2.107-.857-3.05-.857-.656 0-1.327.088-1.94.296z"/></defs><g fill="none" fill-rule="evenodd"><mask id="b" fill="#fff"><use xlink:href="#a"/></mask><g fill="#9B9B9B" mask="url(#b)"><path d="M0 0H20V20H0z"/></g><g transform="translate(0 20)"><mask id="d" fill="#fff"><use xlink:href="#c"/></mask><g fill="#FFF" mask="url(#d)"><path d="M0 0H20V20H0z"/></g></g><g transform="translate(0 40)"><mask id="f" fill="#fff"><use xlink:href="#e"/></mask><g fill="#FF6B47" mask="url(#f)"><path d="M0 0H20V20H0z"/></g></g><g transform="translate(20)"><mask id="h" fill="#fff"><use xlink:href="#g"/></mask><use fill="#000" xlink:href="#g"/><g fill="#9B9B9B" mask="url(#h)"><path d="M0 0H20V20H0z"/></g></g><g transform="translate(20 20)"><mask id="j" fill="#fff"><use xlink:href="#i"/></mask><use fill="#000" xlink:href="#i"/><g fill="#FFF" mask="url(#j)"><path d="M0 0H20V20H0z"/></g></g><g transform="translate(20 40)"><mask id="l" fill="#fff"><use xlink:href="#k"/></mask><use fill="#000" xlink:href="#k"/><g fill="#FF6B47" mask="url(#l)"><path d="M0 0H20V20H0z"/></g></g><g transform="translate(40)"><mask id="n" fill="#fff"><use xlink:href="#m"/></mask><use fill="#000" xlink:href="#m"/><g fill="#9B9B9B" mask="url(#n)"><path d="M0 0H20V20H0z"/></g></g><g transform="translate(40 20)"><mask id="p" fill="#fff"><use xlink:href="#o"/></mask><use fill="#000" xlink:href="#o"/><g fill="#FFF" mask="url(#p)"><path d="M0 0H20V20H0z"/></g></g><g transform="translate(40 40)"><mask id="r" fill="#fff"><use xlink:href="#q"/></mask><use fill="#000" xlink:href="#q"/><g fill="#FF6B47" mask="url(#r)"><path d="M0 0H20V20H0z"/></g></g><g transform="translate(60)"><mask id="t" fill="#fff"><use xlink:href="#s"/></mask><use fill="#101010" xlink:href="#s"/><g fill="#9B9B9B" mask="url(#t)"><path d="M0 0H20V20H0z"/></g></g><g transform="translate(60 20)"><mask id="v" fill="#fff"><use xlink:href="#u"/></mask><use fill="#101010" xlink:href="#u"/><g fill="#FFF" mask="url(#v)"><path d="M0 0H20V20H0z"/></g></g><g transform="translate(60 40)"><mask id="x" fill="#fff"><use xlink:href="#w"/></mask><use fill="#101010" xlink:href="#w"/><g fill="#FF6B47" mask="url(#x)"><path d="M0 0H20V20H0z"/></g></g><g transform="translate(80)"><mask id="z" fill="#fff"><use xlink:href="#y"/></mask><use fill="#000" xlink:href="#y"/><g fill="#9B9B9B" mask="url(#z)"><path d="M0 0H20V20H0z"/></g></g><g transform="translate(80 20)"><mask id="B" fill="#fff"><use xlink:href="#A"/></mask><use fill="#000" xlink:href="#A"/><g fill="#FFF" mask="url(#B)"><path d="M0 0H20V20H0z"/></g></g><g transform="translate(80 40)"><mask id="D" fill="#fff"><use xlink:href="#C"/></mask><use fill="#000" xlink:href="#C"/><g fill="#FF6B47" mask="url(#D)"><path d="M0 0H20V20H0z"/></g></g></g></svg>