<svg xmlns="http://www.w3.org/2000/svg" width="144" height="72" viewBox="0 0 144 72"><g fill="none" fill-rule="evenodd"><circle cx="18" cy="18" r="18" fill="#9B9B9B" fill-opacity=".2" fill-rule="nonzero"/><path fill="#2E2E2E" d="M13.01 15.337v3.467h2.87v8.415h3.56v-8.415h3.57v-3.467h-3.57V13.56a.989.989 0 0 1 .71-1.067h2.86V9.085h-2.86a4.37 4.37 0 0 0-3.067 1.375 4.439 4.439 0 0 0-1.203 3.16v1.718h-2.87z"/><g transform="translate(0 36)"><circle cx="18" cy="18" r="18" fill="#9B9B9B" fill-opacity=".2" fill-rule="nonzero"/><path fill="#FF6B47" d="M13.01 15.337v3.467h2.87v8.415h3.56v-8.415h3.57v-3.467h-3.57V13.56a.989.989 0 0 1 .71-1.067h2.86V9.085h-2.86a4.37 4.37 0 0 0-3.067 1.375 4.439 4.439 0 0 0-1.203 3.16v1.718h-2.87z"/></g><g transform="translate(36)"><circle cx="18" cy="18" r="18" fill="#9B9B9B" fill-opacity=".2" fill-rule="nonzero"/><path fill="#2E2E2E" d="M27 11.68a6.93 6.93 0 0 1-2.12.626 3.937 3.937 0 0 0 1.63-2.197 7.184 7.184 0 0 1-2.35.963 3.56 3.56 0 0 0-2.69-1.254c-2.135.097-3.788 1.872-3.7 3.972.002.304.036.607.1.905a10.252 10.252 0 0 1-7.61-4.15 4.163 4.163 0 0 0-.5 1.996 4.058 4.058 0 0 0 1.64 3.307 3.497 3.497 0 0 1-1.67-.496v.05c-.058 1.818 1.17 3.434 2.96 3.895a3.475 3.475 0 0 1-1.67.068c.415 1.561 1.811 2.678 3.45 2.759a7.062 7.062 0 0 1-4.58 1.7c-.294 0-.588-.018-.88-.055a9.902 9.902 0 0 0 5.66 1.784c6.79 0 10.5-6.053 10.5-11.306 0-.172 0-.343-.01-.514A7.769 7.769 0 0 0 27 11.68z"/></g><g transform="translate(36 36)"><circle cx="18" cy="18" r="18" fill="#9B9B9B" fill-opacity=".2" fill-rule="nonzero"/><path fill="#FF6B47" d="M27 11.68a6.93 6.93 0 0 1-2.12.626 3.937 3.937 0 0 0 1.63-2.197 7.184 7.184 0 0 1-2.35.963 3.56 3.56 0 0 0-2.69-1.254c-2.135.097-3.788 1.872-3.7 3.972.002.304.036.607.1.905a10.252 10.252 0 0 1-7.61-4.15 4.163 4.163 0 0 0-.5 1.996 4.058 4.058 0 0 0 1.64 3.307 3.497 3.497 0 0 1-1.67-.496v.05c-.058 1.818 1.17 3.434 2.96 3.895a3.475 3.475 0 0 1-1.67.068c.415 1.561 1.811 2.678 3.45 2.759a7.062 7.062 0 0 1-4.58 1.7c-.294 0-.588-.018-.88-.055a9.902 9.902 0 0 0 5.66 1.784c6.79 0 10.5-6.053 10.5-11.306 0-.172 0-.343-.01-.514A7.769 7.769 0 0 0 27 11.68z"/></g><g transform="translate(72)"><circle cx="18" cy="18" r="18" fill="#9B9B9B" fill-opacity=".2" fill-rule="nonzero"/><rect width="20" height="20" x="8" y="8" stroke="#2E2E2E" stroke-linecap="round" stroke-linejoin="round" stroke-width="2" rx="5"/><path stroke="#2E2E2E" stroke-linecap="round" stroke-linejoin="round" stroke-width="2" d="M21.957 17.413a4 4 0 1 1-7.914 1.174 4 4 0 0 1 7.914-1.174z"/><circle cx="23.5" cy="12.857" r="1" fill="#2E2E2E" stroke="#2E2E2E"/></g><g transform="translate(72 36)"><circle cx="18" cy="18" r="18" fill="#9B9B9B" fill-opacity=".2" fill-rule="nonzero"/><rect width="20" height="20" x="8" y="8" stroke="#FF6B47" stroke-linecap="round" stroke-linejoin="round" stroke-width="2" rx="5"/><path stroke="#FF6B47" stroke-linecap="round" stroke-linejoin="round" stroke-width="2" d="M21.957 17.413a4 4 0 1 1-7.914 1.174 4 4 0 0 1 7.914-1.174z"/><circle cx="23.5" cy="12.857" r="1" fill="#FF6B47" stroke="#FF6B47"/></g><g transform="translate(108)"><circle cx="18" cy="18" r="18" fill="#9B9B9B" fill-opacity=".2" fill-rule="nonzero"/><path fill="#2E2E2E" d="M28.99 18.242c-.01 3.124-.52 6.21-1.62 7.028-1.24.926-7.17.886-9.35.886-2.28 0-7.86.025-9.14-.776-1.19-.748-1.82-3.957-1.87-7.14.05-3.182.68-6.613 1.87-7.357 1.28-.8 6.86-.78 9.14-.78 2.18 0 8.11-.036 9.35.891 1.1.819 1.61 4.124 1.62 7.25v-.002zm-13.08-4.375v8.52l6.27-4.26-6.27-4.26z"/></g><g transform="translate(108 36)"><circle cx="18" cy="18" r="18" fill="#9B9B9B" fill-opacity=".2" fill-rule="nonzero"/><path fill="#FF6B47" d="M28.99 18.242c-.01 3.124-.52 6.21-1.62 7.028-1.24.926-7.17.886-9.35.886-2.28 0-7.86.025-9.14-.776-1.19-.748-1.82-3.957-1.87-7.14.05-3.182.68-6.613 1.87-7.357 1.28-.8 6.86-.78 9.14-.78 2.18 0 8.11-.036 9.35.891 1.1.819 1.61 4.124 1.62 7.25v-.002zm-13.08-4.375v8.52l6.27-4.26-6.27-4.26z"/></g></g></svg>