<svg height="72" viewBox="0 0 252 72" width="252" xmlns="http://www.w3.org/2000/svg">
<style type="text/css">
	.st0{fill:#9B9B9B;fill-opacity:0.2;}
	.st1{fill-rule:evenodd;clip-rule:evenodd;fill:#2E2E2E;}
	.st2{fill-rule:evenodd;clip-rule:evenodd;fill:#FF6B47;}
	.st3{display:none;}
	.st4{display:inline;fill:#9B9B9B;fill-opacity:0.2;}
	.st5{display:inline;fill-rule:evenodd;clip-rule:evenodd;fill:#2E2E2E;}
	.st6{display:inline;fill-rule:evenodd;clip-rule:evenodd;fill:#FF6B47;}
	.st7{fill:none;stroke:#2E2E2E;stroke-width:2;stroke-linecap:round;stroke-linejoin:round;}
	.st8{fill-rule:evenodd;clip-rule:evenodd;fill:#2E2E2E;stroke:#2E2E2E;}
	.st9{fill:none;stroke:#FF6B47;stroke-width:2;stroke-linecap:round;stroke-linejoin:round;}
	.st10{fill-rule:evenodd;clip-rule:evenodd;fill:#FF6B47;stroke:#FF6B47;}
	.st11{fill:#2E2E2E;}
	.st12{fill:#FF6B47;}
</style>
<g>
	<circle class="st0" cx="18" cy="18" r="18"/>
	<path class="st1" d="M13,15.3v3.5h2.9v8.4h3.6v-8.4H23v-3.5h-3.6v-1.8c-0.1-0.5,0.2-0.9,0.7-1.1H23V9.1h-2.9
		c-1.2,0-2.3,0.5-3.1,1.4c-0.8,0.9-1.2,2-1.2,3.2v1.7L13,15.3L13,15.3z"/>
	<g transform="translate(0 36)">
		<circle class="st0" cx="18" cy="18" r="18"/>
		<path class="st2" d="M13,15.3v3.5h2.9v8.4h3.6v-8.4H23v-3.5h-3.6v-1.8c-0.1-0.5,0.2-0.9,0.7-1.1H23V9.1h-2.9
			c-1.2,0-2.3,0.5-3.1,1.4c-0.8,0.9-1.2,2-1.2,3.2v1.7L13,15.3L13,15.3z"/>
	</g>
	<g transform="translate(36)" class="st3">
		<circle class="st4" cx="18" cy="18" r="18"/>
		<path class="st5" d="M27,11.7c-0.7,0.3-1.4,0.5-2.1,0.6c0.8-0.5,1.4-1.3,1.6-2.2c-0.7,0.5-1.5,0.8-2.4,1c-0.7-0.8-1.6-1.2-2.7-1.3
			c-2.1,0.1-3.8,1.9-3.7,4c0,0.3,0,0.6,0.1,0.9c-3-0.2-5.8-1.7-7.6-4.2c-0.3,0.6-0.5,1.3-0.5,2c0,1.3,0.6,2.5,1.6,3.3
			c-0.6,0-1.2-0.2-1.7-0.5v0.1c-0.1,1.8,1.2,3.4,3,3.9c-0.3,0.1-0.6,0.1-1,0.1c-0.2,0-0.5,0-0.7-0.1c0.4,1.6,1.8,2.7,3.4,2.8
			c-1.3,1.1-2.9,1.7-4.6,1.7c-0.3,0-0.6,0-0.9-0.1c1.7,1.2,3.6,1.8,5.7,1.8c6.8,0,10.5-6.1,10.5-11.3c0-0.2,0-0.3,0-0.5
			C25.9,13.2,26.5,12.5,27,11.7z"/>
	</g>
	<g transform="translate(36 36)" class="st3">
		<circle class="st4" cx="18" cy="18" r="18"/>
		<path class="st6" d="M27,11.7c-0.7,0.3-1.4,0.5-2.1,0.6c0.8-0.5,1.4-1.3,1.6-2.2c-0.7,0.5-1.5,0.8-2.4,1c-0.7-0.8-1.6-1.2-2.7-1.3
			c-2.1,0.1-3.8,1.9-3.7,4c0,0.3,0,0.6,0.1,0.9c-3-0.2-5.8-1.7-7.6-4.2c-0.3,0.6-0.5,1.3-0.5,2c0,1.3,0.6,2.5,1.6,3.3
			c-0.6,0-1.2-0.2-1.7-0.5v0.1c-0.1,1.8,1.2,3.4,3,3.9c-0.3,0.1-0.6,0.1-1,0.1c-0.2,0-0.5,0-0.7-0.1c0.4,1.6,1.8,2.7,3.4,2.8
			c-1.3,1.1-2.9,1.7-4.6,1.7c-0.3,0-0.6,0-0.9-0.1c1.7,1.2,3.6,1.8,5.7,1.8c6.8,0,10.5-6.1,10.5-11.3c0-0.2,0-0.3,0-0.5
			C25.9,13.2,26.5,12.5,27,11.7z"/>
	</g>
	<g transform="translate(72)">
		<circle class="st0" cx="18" cy="18" r="18"/>
		<g>
			<path class="st7" d="M13,8h10c2.8,0,5,2.2,5,5v10c0,2.8-2.2,5-5,5H13c-2.8,0-5-2.2-5-5V13C8,10.2,10.2,8,13,8z"/>
			<path class="st7" d="M22,17.4c0.3,1.7-0.6,3.4-2.2,4.2s-3.4,0.5-4.6-0.7s-1.5-3.1-0.7-4.6s2.5-2.4,4.2-2.2
				C20.3,14.3,21.7,15.7,22,17.4z"/>
			<circle class="st8" cx="23.5" cy="12.9" r="1"/>
		</g>
	</g>
	<g transform="translate(72 36)">
		<circle class="st0" cx="18" cy="18" r="18"/>
		<g>
			<path class="st9" d="M13,8h10c2.8,0,5,2.2,5,5v10c0,2.8-2.2,5-5,5H13c-2.8,0-5-2.2-5-5V13C8,10.2,10.2,8,13,8z"/>
			<path class="st9" d="M22,17.4c0.3,1.7-0.6,3.4-2.2,4.2s-3.4,0.5-4.6-0.7s-1.5-3.1-0.7-4.6s2.5-2.4,4.2-2.2
				C20.3,14.3,21.7,15.7,22,17.4z"/>
			<circle class="st10" cx="23.5" cy="12.9" r="1"/>
		</g>
	</g>
	<g transform="translate(108)">
		<circle class="st0" cx="18" cy="18" r="18"/>
		<path class="st1" d="M29,18.2c0,3.1-0.5,6.2-1.6,7c-1.2,0.9-7.2,0.9-9.4,0.9c-2.3,0-7.9,0-9.1-0.8c-1.2-0.7-1.8-4-1.9-7.1
			c0.1-3.2,0.7-6.6,1.9-7.4c1.3-0.8,6.9-0.8,9.1-0.8c2.2,0,8.1,0,9.4,0.9C28.5,11.8,29,15.1,29,18.2L29,18.2z M15.9,13.9v8.5
			l6.3-4.3L15.9,13.9z"/>
	</g>
	<circle class="st0" cx="162" cy="18" r="18"/>
	<path class="st1" d="M159.1,24c0,1.4-1.2,2.5-2.6,2.5c-1.4,0-2.6-1.1-2.6-2.5s1.2-2.5,2.6-2.5C158,21.5,159.1,22.6,159.1,24z
		 M166.2,25.8c-0.3-6-5.3-10.9-11.5-11.2c-0.4,0-0.7,0.3-0.7,0.6v1.9c0,0.3,0.3,0.6,0.6,0.6c4.5,0.3,8.1,3.8,8.4,8.2
		c0,0.3,0.3,0.6,0.6,0.6h1.9C165.9,26.5,166.2,26.2,166.2,25.8z M172,25.9c-0.3-9.1-7.9-16.5-17.3-16.9c-0.4,0-0.7,0.3-0.7,0.6v1.9
		c0,0.3,0.3,0.6,0.6,0.6c7.7,0.3,13.8,6.3,14.2,13.8c0,0.3,0.3,0.6,0.6,0.6h1.9C171.7,26.5,172,26.2,172,25.9z"/>
	<g transform="translate(180)">
		<circle class="st0" cx="18" cy="18" r="18"/>
		<path class="st1" d="M13.7,19.6c0.2-0.4,0.3-0.7,0.3-1.1c0-0.3-0.1-0.6-0.2-0.8c-0.1-0.2-0.2-0.4-0.4-0.7
			c-0.2-0.3-0.2-0.5-0.3-0.8c-0.2-1-0.1-1.9,0.3-2.8s0.9-1.6,1.6-2.2c0.7-0.5,1.4-1,2.3-1.2c0.8-0.3,1.7-0.3,2.6-0.1
			c0.9,0.2,1.6,0.7,2.3,1.3c0.6,0.6,0.9,1.5,1,2.6s0.1,2.2-0.2,3.2c-0.3,1-0.7,1.9-1.4,2.6c-0.7,0.7-1.5,1-2.4,0.8
			c-0.7-0.1-1.1-0.5-1.2-1c-0.2-0.5-0.1-1.1,0.1-1.8c0.2-0.7,0.4-1.4,0.6-2.1c0.2-0.7,0.3-1.3,0.3-1.9c-0.1-0.6-0.3-1-0.9-1.2
			c-0.6-0.2-1.1-0.2-1.5,0.1c-0.5,0.3-0.8,0.7-1,1.2s-0.3,1.1-0.3,1.8s0.1,1.2,0.4,1.7c-0.1,0.5-0.3,1.2-0.5,2
			c-0.2,0.8-0.4,1.4-0.5,2c-0.1,0.5-0.3,1.2-0.4,2.1c-0.1,0.8-0.2,1.6-0.2,2.2s0,1.4,0.1,2.4c0.8-0.6,1.4-1.5,1.9-2.6
			c0.4-1.1,0.8-2.5,1.1-4.2c0.2,0.1,0.4,0.2,0.6,0.4c0.3,0.2,0.5,0.3,0.6,0.4c0.2,0.1,0.3,0.2,0.6,0.3c0.2,0.1,0.5,0.1,0.8,0.2
			c1.4,0.1,2.6-0.2,3.6-1.1s1.8-2,2.2-3.4c0.4-1.4,0.5-2.9,0.3-4.4c-0.3-1.9-1.2-3.4-2.8-4.4c-1.6-1-3.5-1.4-5.6-1.1
			C15.8,8.3,14.3,9,13,10.3c-1.3,1.3-2,2.8-2,4.7C10.9,17.6,11.8,19.1,13.7,19.6z"/>
	</g>
	<g transform="translate(216)">
		<circle class="st0" cx="18" cy="18" r="18"/>
		<path class="st1" d="M13.6,25h-3.3V14.3h3.3V25z M11.9,12.9c-0.5,0-1-0.2-1.4-0.6c-0.4-0.4-0.6-0.8-0.6-1.4c0-0.5,0.2-1,0.6-1.4
			S11.4,9,11.9,9c0.3,0,0.6,0.1,0.9,0.2c0.3,0.2,0.5,0.4,0.7,0.7c0.2,0.3,0.3,0.6,0.3,1s-0.1,0.7-0.3,1c-0.2,0.3-0.4,0.5-0.7,0.7
			C12.6,12.8,12.3,12.9,11.9,12.9z M26,25h-3.3v-5.2c0-0.4,0-0.7,0-1c0-0.3-0.1-0.5-0.2-0.9c-0.1-0.3-0.3-0.6-0.5-0.7
			C21.7,17,21.4,17,21,17c-0.8,0-1.3,0.2-1.6,0.8c-0.3,0.5-0.4,1.2-0.4,2V25h-3.3V14.3h3.2v1.5h0c0.2-0.5,0.6-0.9,1.2-1.2
			s1.2-0.5,2-0.5c0.8,0,1.5,0.1,2,0.4c0.5,0.3,0.9,0.6,1.2,1.1c0.3,0.5,0.5,1,0.6,1.6c0.1,0.6,0.2,1.2,0.2,2L26,25z"/>
	</g>
	<g transform="translate(108 36)">
		<circle class="st0" cx="18" cy="18" r="18"/>
		<path class="st2" d="M29,18.2c0,3.1-0.5,6.2-1.6,7c-1.2,0.9-7.2,0.9-9.4,0.9c-2.3,0-7.9,0-9.1-0.8c-1.2-0.7-1.8-4-1.9-7.1
			c0.1-3.2,0.7-6.6,1.9-7.4c1.3-0.8,6.9-0.8,9.1-0.8c2.2,0,8.1,0,9.4,0.9C28.5,11.8,29,15.1,29,18.2L29,18.2z M15.9,13.9v8.5
			l6.3-4.3L15.9,13.9z"/>
	</g>
	<g transform="translate(144 36)">
		<circle class="st0" cx="18" cy="18" r="18"/>
		<path class="st2" d="M15.1,24c0,1.4-1.2,2.5-2.6,2.5S10,25.4,10,24s1.2-2.5,2.6-2.5S15.1,22.6,15.1,24z M22.2,25.8
			c-0.3-6-5.3-10.9-11.5-11.2c-0.4,0-0.7,0.3-0.7,0.6v1.9c0,0.3,0.3,0.6,0.6,0.6c4.5,0.3,8.1,3.8,8.4,8.2c0,0.3,0.3,0.6,0.6,0.6h1.9
			C21.9,26.5,22.2,26.2,22.2,25.8z M28,25.9C27.7,16.7,20.1,9.3,10.7,9C10.3,9,10,9.3,10,9.6v1.9c0,0.3,0.3,0.6,0.6,0.6
			c7.7,0.3,13.8,6.3,14.2,13.8c0,0.3,0.3,0.6,0.6,0.6h1.9C27.7,26.5,28,26.2,28,25.9z"/>
	</g>
	<g transform="translate(180 36)">
		<circle class="st0" cx="18" cy="18" r="18"/>
		<path class="st2" d="M13.7,19.6c0.2-0.4,0.3-0.7,0.3-1.1c0-0.3-0.1-0.6-0.2-0.8c-0.1-0.2-0.2-0.4-0.4-0.7
			c-0.2-0.3-0.2-0.5-0.3-0.8c-0.2-1-0.1-1.9,0.3-2.8s0.9-1.6,1.6-2.2c0.7-0.5,1.4-1,2.3-1.2c0.8-0.3,1.7-0.3,2.6-0.1
			c0.9,0.2,1.6,0.7,2.3,1.3c0.6,0.6,0.9,1.5,1,2.6s0.1,2.2-0.2,3.2c-0.3,1-0.7,1.9-1.4,2.6c-0.7,0.7-1.5,1-2.4,0.8
			c-0.7-0.1-1.1-0.5-1.2-1c-0.2-0.5-0.1-1.1,0.1-1.8c0.2-0.7,0.4-1.4,0.6-2.1c0.2-0.7,0.3-1.3,0.3-1.9c-0.1-0.6-0.3-1-0.9-1.2
			c-0.6-0.2-1.1-0.2-1.5,0.1c-0.5,0.3-0.8,0.7-1,1.2s-0.3,1.1-0.3,1.8s0.1,1.2,0.4,1.7c-0.1,0.5-0.3,1.2-0.5,2
			c-0.2,0.8-0.4,1.4-0.5,2c-0.1,0.5-0.3,1.2-0.4,2.1c-0.1,0.8-0.2,1.6-0.2,2.2s0,1.4,0.1,2.4c0.8-0.6,1.4-1.5,1.9-2.6
			c0.4-1.1,0.8-2.5,1.1-4.2c0.2,0.1,0.4,0.2,0.6,0.4c0.3,0.2,0.5,0.3,0.6,0.4c0.2,0.1,0.3,0.2,0.6,0.3c0.2,0.1,0.5,0.1,0.8,0.2
			c1.4,0.1,2.6-0.2,3.6-1.1s1.8-2,2.2-3.4c0.4-1.4,0.5-2.9,0.3-4.4c-0.3-1.9-1.2-3.4-2.8-4.4c-1.6-1-3.5-1.4-5.6-1.1
			C15.8,8.3,14.3,9,13,10.3c-1.3,1.3-2,2.8-2,4.7C10.9,17.6,11.8,19.1,13.7,19.6z"/>
	</g>
	<g transform="translate(216 36)">
		<circle class="st0" cx="18" cy="18" r="18"/>
		<path class="st2" d="M13.6,25h-3.3V14.3h3.3V25z M11.9,12.9c-0.5,0-1-0.2-1.4-0.6c-0.4-0.4-0.6-0.8-0.6-1.4c0-0.5,0.2-1,0.6-1.4
			S11.4,9,11.9,9c0.3,0,0.6,0.1,0.9,0.2c0.3,0.2,0.5,0.4,0.7,0.7c0.2,0.3,0.3,0.6,0.3,1s-0.1,0.7-0.3,1c-0.2,0.3-0.4,0.5-0.7,0.7
			C12.6,12.8,12.3,12.9,11.9,12.9z M26,25h-3.3v-5.2c0-0.4,0-0.7,0-1c0-0.3-0.1-0.5-0.2-0.9c-0.1-0.3-0.3-0.6-0.5-0.7
			C21.7,17,21.4,17,21,17c-0.8,0-1.3,0.2-1.6,0.8c-0.3,0.5-0.4,1.2-0.4,2V25h-3.3V14.3h3.2v1.5h0c0.2-0.5,0.6-0.9,1.2-1.2
			s1.2-0.5,2-0.5c0.8,0,1.5,0.1,2,0.4c0.5,0.3,0.9,0.6,1.2,1.1c0.3,0.5,0.5,1,0.6,1.6c0.1,0.6,0.2,1.2,0.2,2L26,25z"/>
	</g>
	<g id="X" transform="translate(36)">
		<circle class="st0" cx="18" cy="18" r="18"/>
		<path id="X_00000093146582163709231170000017978179135309579175_" class="st11" d="M19.7,16.4l6.6-7.6h-1.6L19,15.4l-4.5-6.6H9.2
			l6.9,10l-6.9,8h1.6l6-7l4.8,7h5.2L19.7,16.4L19.7,16.4z M17.5,18.8l-0.7-1l-5.5-7.9h2.4l4.5,6.4l0.7,1l5.8,8.3h-2.4L17.5,18.8
			L17.5,18.8z"/>
	</g>
	<g id="X_00000077282151493314297710000012881778126477463191_" transform="translate(36 36)">
		<circle class="st0" cx="18" cy="18" r="18"/>
		<path id="X_00000176722436766175776920000008350910770157868470_" class="st12" d="M19.7,16.4l6.6-7.6h-1.6L19,15.4l-4.5-6.6H9.2
			l6.9,10l-6.9,8h1.6l6-7l4.8,7h5.2L19.7,16.4L19.7,16.4z M17.5,18.8l-0.7-1l-5.5-7.9h2.4l4.5,6.4l0.7,1l5.8,8.3h-2.4L17.5,18.8
			L17.5,18.8z"/>
	</g>
</g>
</svg>
