<svg xmlns="http://www.w3.org/2000/svg" width="40" height="40" viewBox="0 0 40 40"><path fill="#1DA1F2" fill-rule="evenodd" d="M29 13.68a6.93 6.93 0 0 1-2.12.626 3.937 3.937 0 0 0 1.63-2.197 7.184 7.184 0 0 1-2.35.963 3.56 3.56 0 0 0-2.69-1.254c-2.135.097-3.788 1.872-3.7 3.972.002.304.036.607.1.905a10.252 10.252 0 0 1-7.61-4.15 4.163 4.163 0 0 0-.5 1.996 4.058 4.058 0 0 0 1.64 3.307 3.497 3.497 0 0 1-1.67-.496v.05c-.058 1.818 1.17 3.434 2.96 3.895a3.475 3.475 0 0 1-1.67.068c.415 1.561 1.811 2.678 3.45 2.759a7.062 7.062 0 0 1-4.58 1.7c-.294 0-.588-.018-.88-.055a9.902 9.902 0 0 0 5.66 1.784c6.79 0 10.5-6.053 10.5-11.306 0-.172 0-.343-.01-.514A7.769 7.769 0 0 0 29 13.68z"/></svg>