<?xml version="1.0" encoding="UTF-8"?>
<svg width="36px" height="36px" viewBox="0 0 36 36" version="1.1" xmlns="http://www.w3.org/2000/svg" xmlns:xlink="http://www.w3.org/1999/xlink">
    <!-- Generator: Sketch 49.2 (51160) - http://www.bohemiancoding.com/sketch -->
    <title>icon/yt</title>
    <desc>Created with Sketch.</desc>
    <defs></defs>
    <g id="Symbols" stroke="none" stroke-width="1" fill="none" fill-rule="evenodd">
        <g id="FOOTER" transform="translate(-1268.000000, -128.000000)">
            <g id="RRSS" transform="translate(1100.000000, 72.000000)">
                <g id="icon/yt_off" transform="translate(168.000000, 56.000000)">
                    <g id="YT">
                        <circle id="circulo-2" fill-opacity="0.200000018" fill="#9B9B9B" fill-rule="nonzero" cx="18" cy="18" r="18"></circle>
                        <path d="M28.99,18.2416275 C28.98,21.3658842 28.47,24.4518435 27.37,25.2701972 C26.13,26.1963881 20.2,26.1560751 18.02,26.1560751 C15.74,26.1560751 10.16,26.1812707 8.88,25.3800501 C7.69,24.6322441 7.06,21.4233302 7.01,18.2406197 C7.06,15.0579092 7.69,11.6272739 8.88,10.8834992 C10.16,10.0832864 15.74,10.1034429 18.02,10.1034429 C20.2,10.1034429 26.13,10.0671612 27.37,10.9943599 C28.47,11.8127136 28.98,15.1183787 28.99,18.244651 L28.99,18.2416275 Z M15.91,13.8666604 L15.91,22.3878185 L22.18,18.1277433 L15.91,13.8666604 Z" id="YouTube_icon" fill="#2E2E2E"></path>
                    </g>
                </g>
            </g>
        </g>
    </g>
</svg>