<svg height="80" viewBox="0 0 80 80" width="80" xmlns="http://www.w3.org/2000/svg"><path d="m58.254983 30.3500522c1.1943276 0 1.7328897.8245924 1.7332082 1.9753671l.0003185 11.0382865h.0060512c0 3.4717545.0156059 6.9441358-.0060512 10.4158903-.0121025 1.9041687-.6564025 2.4673338-2.5300635 2.1269903-4.4282481-.80385-8.8577702-1.2209745-13.3299696-.3651015-.2789949.05359-.6895251.2541608-.7860267-.1933627-.0707042-.328748.2853646-.5221108.5321923-.7057584 2.4001207-1.7838262 5.1795598-2.5318925 8.1150577-2.6848277 4.3511742-.2265823 5.4270244-1.2827127 5.4286169-5.6222491l-.0002905-2.2511418c-.0021783-4.2484023-.0106361-9.0779.0203552-13.0677635.0050958-.6860147.124847-.6663295.8166015-.6663295zm-36.5100242 0c.6917572 0 .811509-.0196852.8166048.6663295.0309914 3.9898635.0225335 8.8193612.0203553 13.0677635l-.0002905 2.2511418c.0015924 4.3395364 1.0774469 5.3956668 5.428638 5.6222491 2.9355093.1529352 5.7149593.9010015 8.1150893 2.6848277.2468286.1836476.6028989.3770104.5321944.7057584-.096502.4475235-.5067153.2469527-.7860298.1933627-4.4722168-.855873-8.9017561-.4387485-13.3300215.3651015-1.8736684.3403435-2.5179708-.2228216-2.5297549-2.1269903-.0219757-3.4717545-.0063698-6.9441358-.0063698-10.4158903.0060513-3.6795333.0050959-7.3587532.0066883-11.0382865.0003185-1.1507747.5385642-1.9753671 1.7328964-1.9753671zm32.0363273-5.3329491c1.2744917.0517556 1.5326477.1649319 1.5298817 1.2564757-.0082978 3.3472762-.0267375 17.4279104.0098346 20.7231192.0153664 1.3705874-.4883452 2.0608696-1.9020568 2.2323489-1.9057447.2313412-3.8299291.3435822-5.6932624.9503072-1.9186525.6248083-3.6378487 1.5570322-5.2067612 2.8131961-.2704492.2169993-.5055556.5970598-.8992435.4636177-.4179669-.1415484-.3598818-.5842768-.3601891-.9319121-.00461-6.8488838-.0319622-13.6980794.020591-20.5466515.0147518-1.9140209 1.5292671-2.9983937 2.7979196-4.0419233 2.8059102-2.3071762 6.1471868-3.0632441 9.7032861-2.9185779zm-27.5313476 0c3.555792-.1446662 6.8970686.6114017 9.7029788 2.9185779 1.2686524 1.0435296 2.7834751 2.1279024 2.7979196 4.0419233.0525532 6.8485721.0255083 13.6977677.020591 20.5466515-.0003073.3476353.0577778.7903637-.3601891.9319121-.393688.1334421-.6287944-.2466184-.8992435-.4636177-1.5686052-1.2561639-3.2881088-2.1883878-5.2067613-2.8131961-1.863026-.606725-3.7875177-.718966-5.6932624-.9503072-1.4137116-.1714793-1.9174231-.8617615-1.9020567-2.2323489.0368794-3.2952088.0184397-17.375843.0098345-20.7231192-.0027659-1.0915438.2556974-1.2047201 1.5301891-1.2564757z" fill="#103e57" fill-rule="evenodd"/></svg>