<svg height="80" viewBox="0 0 80 80" width="80" xmlns="http://www.w3.org/2000/svg"><path d="m52.4421973 21c.8601491 0 1.5554234.7093333 1.5554234 1.5833333v9.5c0 .874-.6952743 1.5833334-1.5554234 1.5833334s-1.5554234-.7093334-1.5554234-1.5833334v-7.9166666h-21.7759272v31.6666666h21.7759272v-9.5c0-.8755833.6952743-1.5833333 1.5554234-1.5833333s1.5554234.70775 1.5554234 1.5833333v11.0833334c0 .8755833-.6952743 1.5833333-1.5554234 1.5833333h-24.8867739c-.8585937 0-1.5554234-.70775-1.5554234-1.5833333v-34.8333334c0-.874.6968297-1.5833333 1.5554234-1.5833333zm-12.443387 30.0833333c.8585937 0 1.5554234.70775 1.5554234 1.5833334 0 .8755833-.6968297 1.5833333-1.5554234 1.5833333s-1.5554233-.70775-1.5554233-1.5833333c0-.8755834.6968296-1.5833334 1.5554233-1.5833334zm2.0369825-22.1666666c.3001967-.11875.6423898-.0221667.8399286.2375l10.8879636 11.0833333c.2317581.2185.3017521.5620833.1710966.855-.1197676.2960833-.3997438.48925-.7154948.4908333h-5.8950545l-4.4485109 4.4491667c-.1399881.1535833-.3375269.2406667-.5443982.2375-.0964362.02375-.1990942.02375-.2955304 0-.2908642-.1219167-.4806258-.4085-.4821813-.7283333l-.0002603-15.9462822c.0203464-.2977796.2059219-.5633104.4824416-.6787178z" fill="#103e57" fill-rule="evenodd"/></svg>