<svg height="80" viewBox="0 0 80 80" width="80" xmlns="http://www.w3.org/2000/svg"><path d="m58.308 43.343.0004147 1.5799647h.0060996c0 3.48665.0157308 6.9739294-.0060996 10.4605794-.0121994 1.9123384-.6616536 2.4779197-2.5503039 2.136116-4.4636737-.8072989-8.9286316-1.2262131-13.4366082-.3666679-.2812269.0538199-.6950413.2552512-.7923149-.1941924-.0712699-.3301585.2876475-.5243508.5364498-.7087864 2.4193215-1.7914796 5.2209959-2.5427555 8.1799775-2.6963468 4.3859832-.2275544 5.4704402-1.2882162 5.4720454-5.6463712l-.0002928-2.2608003c-.0002432-.4725615-.000564-.9522822-.0008999-1.4372232zm-38.5490816-11.4895235c.6972912 0 .8180009-.0197697.8231375.6691883.0312393 4.0069819.0227138 8.8572004.0205181 13.1238303l-.0002928 2.2608003c.0016052 4.358155 1.0860664 5.4188168 5.4720667 5.6463712 2.9589932.1535913 5.7606785.9048672 8.1800094 2.6963468.2488032.1844356.607722.3786279.5364519.7087864-.097274.4494436-.510769.2480123-.792318.1941924-4.5079942-.8595452-8.9729695-.440631-13.4366606.3666679-1.8886576.3418037-2.5381144-.2237776-2.5499927-2.136116-.0221516-3.48665-.0064208-6.9739294-.0064208-10.4605794.0060997-3.6953202.0051366-7.3903257.0067418-11.0856459.000321-1.1557121.5428727-1.9838423 1.7467595-1.9838423zm32.2926153-5.35583c.219527.0088819.4091397.019565.5726376.0366442l-3.5681153 3.5742478-.1450779.1487763c-.3297963.3596864-.5970151.8050919-.7692063 1.2926873l-.0337436.1031453-3.2487666 9.5132256-.0260514.1080983-.0410568.1902856c-.2424709 1.2710098.137945 2.5839496 1.0244945 3.5272351l.0483521.048008.0707672.0797563c.6398394.6790847 1.4999655 1.1118687 2.4323162 1.2183182l.1584762.0180937.1594768-.0030377c.394678-.0075176.7860696-.0699134 1.1652572-.190052l3.7350213-1.2442065c.0034252 1.604323.0089236 2.9049655.0172528 3.6526722.0154893 1.3764678-.4922519 2.0697117-1.9172731 2.2419267-1.9209905.2323337-3.8605682.3450563-5.7388081.9543844-1.9340015.627489-3.6669512 1.5637126-5.2484149 2.8252661-.2726127.2179303-.5095999.5996214-.9064374.4656068-.4213106-.1421557-.3627608-.5867836-.3630706-.9359105-.0046468-6.8782687-.0322178-13.7568505.0207558-20.6348061.0148698-1.922233 1.5415011-3.0112583 2.8203027-4.0592651 2.8283573-2.3170751 6.1963638-3.0763869 9.7809116-2.9311zm-27.7515961 0c3.584238-.1452869 6.9522445.6140249 9.7806018 2.9311 1.2788016 1.0480068 2.8057427 2.1370321 2.8203027 4.0592651.0529736 6.8779556.0257124 13.7565374.0207558 20.6348061-.0003098.3491269.05824.7937548-.3630706.9359105-.3968375.1340146-.6338247-.2476765-.9064374-.4656068-1.5811539-1.2615535-3.3144134-2.1977771-5.2484149-2.8252661-1.8779301-.6093281-3.8178176-.7220507-5.7388081-.9543844-1.4250212-.172215-1.9327624-.8654589-1.9172731-2.2419267.0371745-3.3093469.0185873-17.4503935.0099132-20.8120311-.002788-1.096227.257743-1.209889 1.5424306-1.2618666zm35.7852238-4.0413585c.6130879-.608384 1.6009278-.608384 2.2124477 0l6.2719995 6.2719994.00784.009408c.6021119.6240639.5832959 1.6166078-.0392 2.2171518l-9.4079992 9.4079991c-.1677759.167776-.3716159.296352-.5974079.3763199l-9.4064311 3.1359998c-.158368.0501759-.32144.0752639-.48608.0783999-.3982719-.045472-.7620479-.2414719-1.0191999-.5487999-.4186559-.404544-.5911359-1.0019519-.4547199-1.5679999l3.2128317-9.4079991c.068992-.238336.1991359-.4547199.3778879-.6271999l6.9289914-6.9619194v-.09408h.095648l.6428799-.6271999v-.09408h.092512zm-6.9305594 11.4620789-1.9913598 5.9897594 5.9897594-2.0070398zm5.6918395-5.8172795-4.6083516 4.6255996 4.0454396 4.0454396 4.6083516-4.6255996z" fill="#103e57" fill-rule="evenodd"/></svg>