<svg xmlns="http://www.w3.org/2000/svg" viewBox="0 0 46.8 18.3"><title>eyes</title><g id="Layer_2" data-name="Layer 2"><g id="DIBUJO"><g id="_Group_" data-name="&lt;Group&gt;"><g id="_Group_2" data-name="&lt;Group&gt;" style="opacity:0.3"><path id="_Path_" data-name="&lt;Path&gt;" d="M0,9.7c-.1,4.2,3.6,7.3,7.4,7.4s7.8-2.7,8-6.9A7.7,7.7,0,0,0,8,2.4,7.6,7.6,0,0,0,0,9.7Z" style="fill:#1e120d"/></g><g id="_Group_3" data-name="&lt;Group&gt;" style="opacity:0.3"><path id="_Path_2" data-name="&lt;Path&gt;" d="M46.7,11.4c-.2,4.2-4.2,7-8,6.9s-7.5-3.3-7.4-7.5a7.7,7.7,0,0,1,15.4.6Z" style="fill:#1e120d"/></g><g id="_Group_4" data-name="&lt;Group&gt;"><path id="_Path_3" data-name="&lt;Path&gt;" d="M.2,7.1A7.7,7.7,0,0,0,7.5,15a7.6,7.6,0,0,0,7.8-7.3A7.4,7.4,0,0,0,8,0,7.5,7.5,0,0,0,.2,7.1Z" style="fill:#40200a"/></g><g id="_Group_5" data-name="&lt;Group&gt;"><path id="_Path_4" data-name="&lt;Path&gt;" d="M31.5,8.3a7.7,7.7,0,0,0,7.3,7.8,7.6,7.6,0,0,0,7.9-7.3,7.5,7.5,0,0,0-7.3-7.7A7.6,7.6,0,0,0,31.5,8.3Z" style="fill:#40200a"/></g><g id="_Group_6" data-name="&lt;Group&gt;"><path id="_Path_5" data-name="&lt;Path&gt;" d="M.2,7.9a7.5,7.5,0,0,0,7.3,7.8,7.5,7.5,0,0,0,7.8-7.3A7.3,7.3,0,0,0,8,.8,7.3,7.3,0,0,0,.2,7.9Z" style="fill:#fff"/></g><g id="_Group_7" data-name="&lt;Group&gt;"><circle id="_Path_6" data-name="&lt;Path&gt;" cx="7.7" cy="8.2" r="3.3" style="fill:#40200a"/></g><g id="_Group_8" data-name="&lt;Group&gt;"><circle id="_Path_7" data-name="&lt;Path&gt;" cx="7.1" cy="6.6" r="1.3" style="fill:#fff"/></g><g id="_Group_9" data-name="&lt;Group&gt;"><path id="_Path_8" data-name="&lt;Path&gt;" d="M46.8,9.6A7.6,7.6,0,1,1,31.7,9a7.6,7.6,0,0,1,15.1.6Z" style="fill:#fff"/></g><g id="_Group_10" data-name="&lt;Group&gt;"><circle id="_Path_9" data-name="&lt;Path&gt;" cx="39.2" cy="9.3" r="3.3" style="fill:#40200a"/></g><g id="_Group_11" data-name="&lt;Group&gt;"><circle id="_Path_10" data-name="&lt;Path&gt;" cx="40" cy="7.8" r="1.3" style="fill:#fff"/></g></g></g></g></svg>