<svg xmlns="http://www.w3.org/2000/svg" viewBox="0 0 87.3 125.2"><title>flores_amapola</title><g id="Layer_2" data-name="Layer 2"><g id="TEXTO"><g id="_Group_" data-name="&lt;Group&gt;"><path id="_Path_" data-name="&lt;Path&gt;" d="M46.8,60.3c7.5,1.2,18.6-6.8,26.1-19.1s3.6-26.5-2-32.1C57.6-4,48.7,13.2,40.6,25.6c.4.8,7.9,3.9,8.3,4.8C54.1,41.7,53,54.2,46.8,60.3Z" style="fill:#9f1318"/><path id="_Path_2" data-name="&lt;Path&gt;" d="M36.8,31.5c.4-.9,7.9-3.9,8.3-4.8C36.7,13.7,27.5-4.2,14.4,9.2c-5.6,5.7-10,19.1-1.6,33.1S31.9,63.6,39.3,62.5C33,56.1,31.7,43.2,36.8,31.5Z" style="fill:#c21612"/><path id="_Path_3" data-name="&lt;Path&gt;" d="M87,69c-4.6,8.7-18,24.1-44.3,18.8a1.3,1.3,0,0,1-.9-2.2C45.5,77.4,59,64.7,85.9,66.8A1.3,1.3,0,0,1,87,69Z" style="fill:#4ca92b"/><path id="_Path_4" data-name="&lt;Path&gt;" d="M1.5,74.1c9.7-1.4,30,.6,41,25.2a1.3,1.3,0,0,1-1.4,2C32.4,103,14.2,99.4.3,76.2A1.3,1.3,0,0,1,1.5,74.1Z" style="fill:#459126"/><path id="_Path_5" data-name="&lt;Path&gt;" d="M42.1,125.2h0a3.7,3.7,0,0,1-3.6-3.7V50h7.3v71.5A3.7,3.7,0,0,1,42.1,125.2Z" style="fill:#4ca92b"/><g id="_Group_2" data-name="&lt;Group&gt;"><path id="_Path_6" data-name="&lt;Path&gt;" d="M38.9.1C28.6,0,26.3,12.9,30,16.5s10,7.7,13.5,14.9A35.2,35.2,0,0,1,55.7,20C59.5,12.3,57.2-1.2,38.9.1Z" style="fill:#d62929"/></g><ellipse id="_Path_7" data-name="&lt;Path&gt;" cx="42.8" cy="22.6" rx="18.4" ry="11.9" style="fill:#1e120d"/><path id="_Path_8" data-name="&lt;Path&gt;" d="M41.9,33.8c7.5-12.5,19.6-19.1,27-14.7s9.2,14.7,1.7,27.2-15,15.6-29.9,16.3C32.1,63,34.4,46.4,41.9,33.8Z" style="fill:#c21612"/><path id="_Path_9" data-name="&lt;Path&gt;" d="M41.9,33.8l1.6-2.4C37.7,19.6,27.8,12.6,20.9,15.7s-8.7,16.2-3.1,29S32.2,63.8,39.3,62.5C34.5,56.7,35.3,44.8,41.9,33.8Z" style="fill:#9f1318"/><path id="_Path_10" data-name="&lt;Path&gt;" d="M27,49.1l1.3.8.6.4.7.5,1.8,1,1.1.6,1.1.5.6.3.6.2,1.3.5,1.3.3,1.4.3h5.7a26.1,26.1,0,0,0,2.7-.6l2.6-.8,1.2-.4,1.1-.5,1.9-.8,1.5-.7,1.4-.5-1,1-1.3,1.2a12.6,12.6,0,0,1-1.7,1.3c-.7.4-1.4,1-2.2,1.4A16.9,16.9,0,0,1,48,56.3a26.4,26.4,0,0,1-3,1l-1.7.2H39.9a9,9,0,0,1-1.6-.3l-1.6-.4-1.5-.5-1.4-.7-.7-.4-.6-.4-1.1-.7-.9-.9a8,8,0,0,1-1.6-1.6l-.6-.7-.5-.6Z" style="fill:#1e120d"/></g></g></g></svg>