<svg xmlns="http://www.w3.org/2000/svg" viewBox="0 0 87.7 127.3"><title>flores_clavel</title><g id="Layer_2" data-name="Layer 2"><g id="TEXTO"><g id="_Group_" data-name="&lt;Group&gt;"><path id="_Path_" data-name="&lt;Path&gt;" d="M84.9,81.4c-2.8,9.4-13.2,27-40.1,26.6a1.3,1.3,0,0,1-1.3-2.1c2.2-8.7,13.2-23.6,40-26.4A1.2,1.2,0,0,1,84.9,81.4Z" style="fill:#4ca92b"/><path id="_Path_2" data-name="&lt;Path&gt;" d="M8,87.3c9.8.4,29.5,6,35.9,32a1.3,1.3,0,0,1-1.7,1.8c-8.9.2-26.2-6.7-35.7-32A1.2,1.2,0,0,1,8,87.3Z" style="fill:#459126"/><path id="_Path_3" data-name="&lt;Path&gt;" d="M44,127.3h0a3.8,3.8,0,0,1-3.7-3.7V74.9h7.4v48.7A3.8,3.8,0,0,1,44,127.3Z" style="fill:#4ca92b"/><g id="_Group_2" data-name="&lt;Group&gt;"><path id="_Path_4" data-name="&lt;Path&gt;" d="M5.7,43.3a3.1,3.1,0,0,1-1.3,2.8l-2.6,2A3.5,3.5,0,0,0,.8,51,28.5,28.5,0,0,0,6,61.9c2.4-.5,9.4-2,16.5-2.8s14.1-6.9,20.6-13C40.9,28.8,36.2,18,32.4,11.8a33.6,33.6,0,0,0-7.9-9.5,24.3,24.3,0,0,0-9,8.4l1.3,4.5a3.6,3.6,0,0,1-.5,3.1,3.3,3.3,0,0,1-3,1.3H10.7A5.4,5.4,0,0,0,7.1,21c0,.1-8.1,8.5-7,18.5l3.5,1.4A3,3,0,0,1,5.7,43.3Z" style="fill:#9f1318"/><path id="_Path_5" data-name="&lt;Path&gt;" d="M63.8,55.4c8.5-2.7,19.4-1.4,23.1-.9,1.9-6.8,0-15.4,0-15.5a4.7,4.7,0,0,0-2.3-2.7l-3.2-1.4a3.2,3.2,0,0,1-2.1-2.4,3.5,3.5,0,0,1,1.2-2.9L84.4,26C81.3,15.1,69.7,9.8,69.6,9.7a4.7,4.7,0,0,0-3.5.2l-3.8,2.2a3.4,3.4,0,0,1-3.2.3,3.7,3.7,0,0,1-1.7-2.7l-.5-5.3A25.5,25.5,0,0,0,43.1,0,25,25,0,0,0,30.3,3.8,56.3,56.3,0,0,1,34.8,10c4,6.5.7,24.3,2.9,42.5C38.4,58.9,51.4,56.4,63.8,55.4Z" style="fill:#9f1318"/><path id="_Path_6" data-name="&lt;Path&gt;" d="M78.2,44.5l3.1-1.2c.9-8.6-6-15.8-6.1-15.9a5.1,5.1,0,0,0-3-1.2H69.9a3.3,3.3,0,0,1-2.5-1.1,3.2,3.2,0,0,1-.4-2.7l1.1-3.9a20.4,20.4,0,0,0-7.7-7.1,30.6,30.6,0,0,0-6.8,8.1c-3.2,5.3-7.2,14.5-9.1,29.3H60.9a1.2,1.2,0,0,1,1.2,1.3V60a132.7,132.7,0,0,1,14.1,2.4,23.6,23.6,0,0,0,4.5-9.3,2.9,2.9,0,0,0-.9-2.5l-2.2-1.7a2.5,2.5,0,0,1-1.1-2.4A2.5,2.5,0,0,1,78.2,44.5Z" style="fill:#c21612"/><path id="_Path_7" data-name="&lt;Path&gt;" d="M42,48.9c1.9-15.5,6.2-25.3,9.6-30.8a33.2,33.2,0,0,1,3.9-5.3,21.7,21.7,0,0,0-11-3.3,21.1,21.1,0,0,0-11.7,3.8l-.5,4.5a3.1,3.1,0,0,1-1.5,2.3,2.9,2.9,0,0,1-2.7-.2L24.9,18a3.9,3.9,0,0,0-3-.2c-.1.1-10.1,4.6-12.7,13.9l3.4,3.1a2.7,2.7,0,0,1-.8,4.6L9,40.5a4.3,4.3,0,0,0-1.9,2.3c0,.1-1.6,7.5,0,13.3,3.2-.5,12.5-1.5,19.8.8V50.2a1.2,1.2,0,0,1,1.2-1.3Z" style="fill:#c21612"/><path id="_Path_8" data-name="&lt;Path&gt;" d="M23.7,45.3V63.7c0,11.5,8.5,20.9,19.2,21.8h3.6c10.6-1,18.9-10.4,18.9-21.8V45.3Z" style="fill:#4ca92b"/><path id="_Path_9" data-name="&lt;Path&gt;" d="M29.4,67.9l1.2.8.7.4.7.5,1.8,1,1,.6,1.2.5.6.3.6.2,1.2.5,1.4.3,1.3.3h5.7l2.8-.6,2.6-.8,1.1-.4,1.2-.5,1.9-.8,1.5-.7,1.4-.5-1.1,1L57,71.2l-1.7,1.3c-.7.4-1.4,1-2.2,1.4a22.1,22.1,0,0,1-2.7,1.2l-3.1,1-1.6.2H42.3L40.6,76,39,75.6l-1.5-.5-1.3-.7-.7-.4-.6-.4-1.1-.7-1-.9a11,11,0,0,1-1.5-1.6,1.3,1.3,0,0,1-.6-.7l-.5-.6Z" style="fill:#9f1318"/></g></g></g></g></svg>