<svg xmlns="http://www.w3.org/2000/svg" viewBox="0 0 154.3 107.7"><title>flores_nenufar</title><g id="Layer_2" data-name="Layer 2"><g id="TEXTO"><g id="_Group_" data-name="&lt;Group&gt;"><g id="_Group_2" data-name="&lt;Group&gt;"><path id="_Path_" data-name="&lt;Path&gt;" d="M154.3,87.5c0,11.1-34.5,20.2-77.1,20.2a247.2,247.2,0,0,1-46.1-4C25.8,100.9,40,93.5,40,93.5s-23,6.7-25.7,5.7C5.3,95.9,0,91.8,0,87.5,0,76.3,34.5,67.3,77.2,67.3S154.3,76.3,154.3,87.5Z" style="fill:#459126"/></g><path id="_Path_2" data-name="&lt;Path&gt;" d="M77.3,79.2C62.9,53.4,5.7,73.3,5.7,73.3s36,35.4,71.6,12c35.6,23.4,71.6-12,71.6-12S91.7,53.4,77.3,79.2Z" style="fill:#4ca92b"/><path id="_Path_3" data-name="&lt;Path&gt;" d="M77.3,0s-54.8,53.6,0,78.1C132.1,53.6,77.3,0,77.3,0Z" style="fill:#c21612"/><path id="_Path_4" data-name="&lt;Path&gt;" d="M82,5.1c2.5,8.3,3.6,17,1.4,26.2-2,7-10,11-14,6a20.4,20.4,0,0,0-13.3-5.8c-6.2,16.1-5.3,34.8,21.2,46.6C121.9,58.2,93.9,19,82,5.1Z" style="fill:#9f1318"/><path id="_Path_5" data-name="&lt;Path&gt;" d="M130.3,30.9s-39.6-.4-53,20.5c-13.4-20.9-53-20.5-53-20.5s-.8,74,53,54C131.1,104.9,130.3,30.9,130.3,30.9Z" style="fill:#d62929"/><path id="_Path_6" data-name="&lt;Path&gt;" d="M77.3,84.9V51.4c13.4-20.9,53-20.5,53-20.5S131.1,104.9,77.3,84.9Z" style="fill:#c21612"/><path id="_Path_7" data-name="&lt;Path&gt;" d="M129.8,30.9c-2.4,13.9-5.9,27.4-12.4,40.4-2,5-8,9-13,11-8,4-24,6-27-3-22.6,8.9-38.5-4.1-49.6-22.2,5.2,19,18,39.5,49.5,27.8A48.2,48.2,0,0,0,95,88.3c20-.4,28.7-18.2,32.5-33.9a111.3,111.3,0,0,0,2.8-23.5Z" style="fill:#9f1318"/><path id="_Path_8" data-name="&lt;Path&gt;" d="M59.1,67.7l1.4.9.7.5.9.5,2,1.2,1.2.6,1.3.6.7.3.7.3,1.4.5,1.5.4,1.6.3H79l3.1-.7a26.3,26.3,0,0,0,3-.9l1.3-.5,1.3-.5,2.2-.9,1.7-.8,1.6-.6L92,70.1l-1.4,1.3c-.6.4-1.2,1-2,1.5l-2.5,1.6A18,18,0,0,1,83,75.9,24.2,24.2,0,0,1,79.5,77l-1.8.2H73.8a6.3,6.3,0,0,1-1.9-.3l-1.8-.4-1.7-.7-1.6-.7-.7-.4-.7-.5-1.3-.9-1.1-1a10.2,10.2,0,0,1-1.8-1.8l-.6-.7L60,69Z" style="fill:#9f1318"/></g></g></g></svg>