<svg xmlns="http://www.w3.org/2000/svg" viewBox="0 0 78.9 144.9"><title>flores_tulip</title><g id="Layer_2" data-name="Layer 2"><g id="TEXTO"><g id="_Group_" data-name="&lt;Group&gt;"><path id="_Path_" data-name="&lt;Path&gt;" d="M78.7,98c-2.9,9.4-13.3,27-40.2,26.6a1.3,1.3,0,0,1-1.3-2.1c2.2-8.7,13.2-23.6,40-26.4A1.3,1.3,0,0,1,78.7,98Z" style="fill:#4ca92b"/><path id="_Path_2" data-name="&lt;Path&gt;" d="M1.7,99.9c9.8.4,29.5,6,35.9,32a1.3,1.3,0,0,1-1.7,1.8c-8.9.2-26.2-6.7-35.7-32A1.2,1.2,0,0,1,1.7,99.9Z" style="fill:#459126"/><path id="_Path_3" data-name="&lt;Path&gt;" d="M37.7,144.9h0a3.8,3.8,0,0,1-3.7-3.7V68.9h7.4v72.3A3.7,3.7,0,0,1,37.7,144.9Z" style="fill:#4ca92b"/><path id="_Path_4" data-name="&lt;Path&gt;" d="M50.2,17.7C45.3,9.5,41.4,3.8,39.3.9a1.9,1.9,0,0,0-3.2,0C34,3.8,30.2,9.5,25.2,17.7l6.3,16.6H46Z" style="fill:#b876c1"/><path id="_Path_5" data-name="&lt;Path&gt;" d="M30.6,41.6c7.3-12,18.2-24.8,22.6-29.9a2,2,0,0,1,3.4.6c3.6,8,13.4,31.1,13.4,47,0,20.3-14.4,36.8-32.3,36.8C24.2,96.1,11.9,72.2,30.6,41.6Z" style="fill:#9f57a7"/><path id="_Path_6" data-name="&lt;Path&gt;" d="M44.9,41.6c-7.3-12-18.2-24.8-22.7-29.9a1.9,1.9,0,0,0-3.3.6c-3.6,8-13.4,31.1-13.4,47,0,20.3,14.4,36.8,32.2,36.8C51.3,96.1,63.6,72.2,44.9,41.6Z" style="fill:#872d91"/><path id="_Path_7" data-name="&lt;Path&gt;" d="M22.5,75.3l1.4.9.7.4.9.6a18,18,0,0,0,2,1.1l1.2.7,1.3.6.6.3.7.2,1.5.5,1.5.4a8,8,0,0,0,1.5.3l1.6.2h3.2l1.7-.2a17.3,17.3,0,0,0,3.1-.7l2.9-.8,1.3-.5,1.3-.5,2.2-.9,1.7-.8,1.5-.7-1.1,1.2-1.4,1.3-2,1.6L49.3,82a20.9,20.9,0,0,1-3,1.4,20.4,20.4,0,0,1-3.5,1.1l-1.9.2H39a2.7,2.7,0,0,1-.9,0h-1l-1.8-.2L33.4,84l-1.7-.6-1.5-.8-.7-.4-.7-.5-1.3-.9-1.1-.9a15.3,15.3,0,0,1-1.8-1.8l-.6-.8-.5-.7Z" style="fill:#5c1766"/></g></g></g></svg>