<svg xmlns="http://www.w3.org/2000/svg" viewBox="0 0 83.6 127.7"><title>flores_geranio</title><g id="Layer_2" data-name="Layer 2"><g id="TEXTO"><g id="_Group_" data-name="&lt;Group&gt;"><path id="_Path_" data-name="&lt;Path&gt;" d="M78,89.5c-4,6.2-15,16.7-34.2,10.9a1,1,0,0,1-.5-1.8c3.3-5.8,14.3-14.2,34.1-10.7A.9.9,0,0,1,78,89.5Z" style="fill:#4ca92b"/><path id="_Path_2" data-name="&lt;Path&gt;" d="M10.2,97.7c6.3-1.9,20-2.9,29.9,12.2a.9.9,0,0,1-.6,1.5c-5.7,2.1-18.1,1.7-29.9-12.2A.9.9,0,0,1,10.2,97.7Z" style="fill:#459126"/><path id="_Path_3" data-name="&lt;Path&gt;" d="M40.4,127.7h0a3.7,3.7,0,0,1-3.6-3.7V58.1h7.3V124A3.7,3.7,0,0,1,40.4,127.7Z" style="fill:#4ca92b"/><g id="_Group_2" data-name="&lt;Group&gt;"><g id="_Group_3" data-name="&lt;Group&gt;"><path id="_Path_4" data-name="&lt;Path&gt;" d="M80.6,39.5a7.5,7.5,0,0,0,3-5.3,3.2,3.2,0,0,0-2.2-3.3,5.9,5.9,0,0,0-1.9-.5,5.2,5.2,0,0,1-.8,1.9A32.4,32.4,0,0,1,72.8,38a18.4,18.4,0,0,1,7,1.1Z" style="fill:#97033f"/><ellipse id="_Path_5" data-name="&lt;Path&gt;" cx="42.5" cy="39.5" rx="36.5" ry="38.6" transform="translate(-3.4 75) rotate(-80.6)" style="fill:#bc085a"/><path id="_Path_6" data-name="&lt;Path&gt;" d="M62.4,23.1a9.3,9.3,0,0,1,.9,4.5,9.7,9.7,0,0,1,5.1-.4,13.5,13.5,0,0,1,5.8,2.5,15.6,15.6,0,0,0,4.4-3.3c2.4-2.8,1.2-7.8-2.7-11.1a12.1,12.1,0,0,0-5.4-2.5l-1.7-.2a10.9,10.9,0,0,1-.5,2.6A24.5,24.5,0,0,1,62.4,23.1Z" style="fill:#97033f"/><path id="_Path_7" data-name="&lt;Path&gt;" d="M22.9,29.2a13.8,13.8,0,0,1,10-1.6A16.1,16.1,0,0,1,38.6,30a.4.4,0,0,1-.1-.3,17.2,17.2,0,0,1-.7-2.1,7.6,7.6,0,0,1-4.1-8.1,6.5,6.5,0,0,1,.6-2.1l-.6-1.7a20.4,20.4,0,0,0-8.5.2,5.7,5.7,0,0,0-3.6,3.9,10.6,10.6,0,0,0,.2,7A8.8,8.8,0,0,0,22.9,29.2Z" style="fill:#97033f"/><path id="_Path_8" data-name="&lt;Path&gt;" d="M52.9,16.8a21.8,21.8,0,0,1,7.5,3.7h0c2.4-2.1,4.3-4.6,4.9-6.4a5.8,5.8,0,0,0-.8-5.2A10.9,10.9,0,0,0,59,4.6,8.6,8.6,0,0,0,56.7,4c-.3-.1-1.2,1.2-1.5,1.2.8,1.7,1.7,2.2,1.4,4.1A20.8,20.8,0,0,1,52.9,16.8Z" style="fill:#97033f"/><path id="_Path_9" data-name="&lt;Path&gt;" d="M55.4,51.1a3.9,3.9,0,0,0,2.4,1.2,4.3,4.3,0,0,0,4-1.3,4.6,4.6,0,0,0-.2-6.4,3.8,3.8,0,0,0-2.3-1.1,4.2,4.2,0,0,0-4,1.3A4.4,4.4,0,0,0,55.4,51.1Z" style="fill:#97033f"/><path id="_Path_10" data-name="&lt;Path&gt;" d="M55.8,35.8a24.2,24.2,0,0,0-6.9-4l-.9-.2a9.6,9.6,0,0,0-5,.7,30,30,0,0,1-1.6-3.6.4.4,0,0,0-.1-.3A7.7,7.7,0,0,0,48.7,22a1.7,1.7,0,0,0,.1-.7,15.7,15.7,0,0,0,1.9-1.8,18.7,18.7,0,0,1,7.6,3.4,5.7,5.7,0,0,1,1.9,5C59.9,30.1,59.5,31.8,55.8,35.8Z" style="fill:#97033f"/><path id="_Path_11" data-name="&lt;Path&gt;" d="M66,49.2c3.8-.8,7.8-2.7,9.5-4.3A5.9,5.9,0,0,0,77,39.8a11.3,11.3,0,0,0-9.1-9.5,5.6,5.6,0,0,0-5.3,1.4c-.1,0-.1,0-.1.1a15.8,15.8,0,0,1-2.8,4.6l-.2.2A26.9,26.9,0,0,0,58.3,40c0,.1-.1.2-.1.3a4.3,4.3,0,0,1,1.6.1,7,7,0,0,1,4,2A7.4,7.4,0,0,1,66,49.2Z" style="fill:#97033f"/><path id="_Path_12" data-name="&lt;Path&gt;" d="M28.9,43.7a7.6,7.6,0,0,1,5.8,4.4l.9-1.1a15,15,0,0,1,.4-5.9,16,16,0,0,1,3.2-5.9,4.4,4.4,0,0,0-.8-1.1,11.1,11.1,0,0,0-6.2-3.4h-.3c-4.8-.8-9.3,1.4-10,4.9s0,6.2,1.2,9.6A7.5,7.5,0,0,1,28.9,43.7Z" style="fill:#97033f"/><path id="_Path_13" data-name="&lt;Path&gt;" d="M71.5,59.3a21.4,21.4,0,0,0-4.4-7.1l-2.6.5c-.2.1-.3.3-.5.5a7.5,7.5,0,0,1-6.7,2.2,7.1,7.1,0,0,1-2.2-.7l-1,.3a22,22,0,0,0-.5,9c.6,2.2,2.8,4,5.8,4.4a11.2,11.2,0,0,0,4.8-.2C69.2,66.9,72.4,63,71.5,59.3Z" style="fill:#97033f"/><path id="_Path_14" data-name="&lt;Path&gt;" d="M20.5,31.3A15.1,15.1,0,0,1,19,28.5a4.2,4.2,0,0,0-2.2-1.1,4.2,4.2,0,0,0-3.3.8,4.2,4.2,0,0,0-1.8,3,4.4,4.4,0,0,0,.7,3.3,4.5,4.5,0,0,0,3,1.8,4.4,4.4,0,0,0,3.3-.8c0-.2.1-.4.1-.6A8.5,8.5,0,0,1,20.5,31.3Z" style="fill:#97033f"/><path id="_Path_15" data-name="&lt;Path&gt;" d="M17.3,24.3l.7.2a14.5,14.5,0,0,1,.2-4.2,17.1,17.1,0,0,0-2-5.7,6,6,0,0,0-3.9-2.3,10.9,10.9,0,0,0-7.6,1.9A10.9,10.9,0,0,0,.4,19.7,5.7,5.7,0,0,0,.9,25c1.1,1.7,4.2,4.2,7.6,5.8a.1.1,0,0,1,.1-.1,7.5,7.5,0,0,1,3-5A7.8,7.8,0,0,1,17.3,24.3Z" style="fill:#97033f"/><path id="_Path_16" data-name="&lt;Path&gt;" d="M32.5,3.7a9.1,9.1,0,0,0-5-2.5,12.1,12.1,0,0,0-3.8,0C18.6,2,15,5.7,15.6,9.4c.1.2.1.5.2.8a9.7,9.7,0,0,1,3,2.7,11.2,11.2,0,0,1,1.4,2.9,7.7,7.7,0,0,1,4-2.9,20.7,20.7,0,0,1,8.5-.5,22.1,22.1,0,0,1-.4-7.9A1.9,1.9,0,0,1,32.5,3.7Z" style="fill:#97033f"/><path id="_Path_17" data-name="&lt;Path&gt;" d="M47,78.7l1.8.2a11.5,11.5,0,0,0,6.7-2,5.8,5.8,0,0,0,2.6-4.6v-.9c-3.9-.9-6.7-3.4-7.6-6.7a21.1,21.1,0,0,1,.1-8.3l-.9-.2a13.6,13.6,0,0,1-3.5,10.6,14.8,14.8,0,0,1-6.5,4.4V72C39.6,75.2,42.7,78,47,78.7Z" style="fill:#97033f"/><path id="_Path_18" data-name="&lt;Path&gt;" d="M74.6,60A11.5,11.5,0,0,0,81,54.1a11.3,11.3,0,0,0,.9-7.6,6.6,6.6,0,0,0-1.1-2.4,6.6,6.6,0,0,1-2.1,2.3,25.1,25.1,0,0,1-8.8,3.9,22.6,22.6,0,0,1,4.5,8.2A7.7,7.7,0,0,1,74.6,60Z" style="fill:#97033f"/><path id="_Path_19" data-name="&lt;Path&gt;" d="M45.6,21.5a4.5,4.5,0,1,0-5.1,3.7A4.5,4.5,0,0,0,45.6,21.5Z" style="fill:#97033f"/><path id="_Path_20" data-name="&lt;Path&gt;" d="M10.7,43.4a22.4,22.4,0,0,1,8.5-.6,27.1,27.1,0,0,1-.5-3.7,8.5,8.5,0,0,1-3.9.3,7.3,7.3,0,0,1-4.9-3.1,6.9,6.9,0,0,1-1-1.9l-1.7-.7a19,19,0,0,0-5.8,6.1,5.9,5.9,0,0,0,.2,5.3,10.6,10.6,0,0,0,3.6,4A9.2,9.2,0,0,1,10.7,43.4Z" style="fill:#97033f"/><path id="_Path_21" data-name="&lt;Path&gt;" d="M15.1,64a4.2,4.2,0,0,0,2.5-.2c1.7-.5,4.5-2.4,6.9-5a2.4,2.4,0,0,0-.2-.8,7.6,7.6,0,0,1-4.1-8.1,8.3,8.3,0,0,1,.6-2.1l-.6-1.7a20.4,20.4,0,0,0-8.5.2c-3.6,1.2-5.1,6.2-3.4,11S12.2,63.5,15.1,64Z" style="fill:#97033f"/><path id="_Path_22" data-name="&lt;Path&gt;" d="M43.9,64.7c2.3-2.7,3.2-6,2.6-8.6a16.2,16.2,0,0,1-3.2-.2l-1-.2a8.8,8.8,0,0,1-5.7-5.1l-1.3,1.2a1.3,1.3,0,0,1-.1.6,7.6,7.6,0,0,1-7.4,6.4c.1.1.1.2.1.4,1.3,3.6,3.4,6.8,4.8,8a4.2,4.2,0,0,0,2.6,1.2C38.1,68.9,41.5,67.5,43.9,64.7Z" style="fill:#97033f"/><path id="_Path_23" data-name="&lt;Path&gt;" d="M51.9,3.6A11.1,11.1,0,0,0,45.7.2h-.3c-4.9-.8-9.3,1.4-10,4.9s0,6.1,1.2,9.5a7.5,7.5,0,0,1,5.8-1.4,7.8,7.8,0,0,1,5.8,4.4c2.6-2.7,4.8-6.5,5.3-8.9A6.1,6.1,0,0,0,51.9,3.6Z" style="fill:#97033f"/><path id="_Path_24" data-name="&lt;Path&gt;" d="M43.1,52.7h.7a23.7,23.7,0,0,0,7.8-.4l.3-.7A7.7,7.7,0,0,1,53,42.6a8.6,8.6,0,0,1,1.8-1.4,13.6,13.6,0,0,1,.4-1.7c-2.6-2.5-5.5-4.2-7.2-4.6l-.5-.2c-3.4-.5-7.2,2.6-8.4,7.2S39.5,51.7,43.1,52.7Z" style="fill:#97033f"/><path id="_Path_25" data-name="&lt;Path&gt;" d="M27,55.6a4.5,4.5,0,1,0-3.7-5.1A4.4,4.4,0,0,0,27,55.6Z" style="fill:#97033f"/><path id="_Path_26" data-name="&lt;Path&gt;" d="M18.7,66.8c-1,.3-1.6-1.1-2.6-1.1a12.7,12.7,0,0,0-.6,1.8,5.9,5.9,0,0,0,.5,5.3,10.7,10.7,0,0,0,5.4,4.6l2.7.8c3.8.6,7.3-.8,8.4-3.5a16.7,16.7,0,0,0,.8-3.5,9.2,9.2,0,0,1-2.7-1.6,22.1,22.1,0,0,1-4.9-7.5A22,22,0,0,1,18.7,66.8Z" style="fill:#97033f"/></g></g><path id="_Path_27" data-name="&lt;Path&gt;" d="M25.4,52.2l1.3.9.7.5.8.5,2,1.1,1.1.6,1.2.6.6.3.7.2,1.4.5,1.4.4,1.5.2a7.7,7.7,0,0,0,1.5.2h3.1l1.6-.2c1-.2,2-.3,3-.6l2.7-.8,1.3-.5,1.2-.5,2.1-.9,1.7-.7,1.4-.6-1.1,1.1-1.3,1.3-1.9,1.4A14,14,0,0,1,51,58.7a19.5,19.5,0,0,1-2.9,1.4l-3.3,1-1.8.2H39.4a5.2,5.2,0,0,1-1.8-.3l-1.8-.4L34.2,60l-1.5-.7-.7-.4-.6-.5-1.3-.8-1-.9c-.7-.6-1.2-1.2-1.7-1.7s-.5-.5-.6-.8l-.5-.7Z" style="fill:#1e120d"/></g></g></g></svg>