<svg xmlns="http://www.w3.org/2000/svg" viewBox="0 0 71.9 100.9"><title>flores_margarita</title><g id="Layer_2" data-name="Layer 2"><g id="TEXTO"><g id="_Group_" data-name="&lt;Group&gt;"><path id="_Path_" data-name="&lt;Path&gt;" d="M66.6,69.5c-2.8,6.4-11.4,18-30.2,15.6-.8.2-1.3-.9-.7-1.5,2.1-5.9,10.9-15.6,30-15.5A.9.9,0,0,1,66.6,69.5Z" style="fill:#4ca92b"/><path id="_Path_2" data-name="&lt;Path&gt;" d="M5.7,74.2c6.6-2,21.1-2.8,31.3,13.1a.9.9,0,0,1-.6,1.6c-6,2.1-19.1,1.6-31.3-13.1A.9.9,0,0,1,5.7,74.2Z" style="fill:#459126"/><path id="_Path_3" data-name="&lt;Path&gt;" d="M36.6,100.9h0a3.2,3.2,0,0,1-3.2-3.2v-33h6.3v33A3.1,3.1,0,0,1,36.6,100.9Z" style="fill:#4ca92b"/><g id="_Group_2" data-name="&lt;Group&gt;"><path id="_Path_4" data-name="&lt;Path&gt;" d="M36.9.3a1.1,1.1,0,0,0-1.5,0,13.6,13.6,0,0,0,0,20.9l.8.2.7-.2A13.6,13.6,0,0,0,36.9.3Z" style="fill:#edeef0"/><path id="_Path_5" data-name="&lt;Path&gt;" d="M11.4,10a1.3,1.3,0,0,0-1.1,1.1A14.2,14.2,0,0,0,14.2,22a13.8,13.8,0,0,0,9.6,3.9h1.3a1.3,1.3,0,0,0,1.1-1.1,13.8,13.8,0,0,0-3.9-10.9A13.8,13.8,0,0,0,11.4,10Z" style="fill:#edeef0"/><path id="_Path_6" data-name="&lt;Path&gt;" d="M21.2,36.5a1.4,1.4,0,0,0,0-1.5A13.4,13.4,0,0,0,.3,35a1.1,1.1,0,0,0,0,1.5,13.6,13.6,0,0,0,20.9,0Z" style="fill:#edeef0"/><path id="_Path_7" data-name="&lt;Path&gt;" d="M24.8,45.7a13.5,13.5,0,0,0-10.9,3.9A13.7,13.7,0,0,0,10,60.5a1.2,1.2,0,0,0,1.1,1h1.3a13.5,13.5,0,0,0,9.6-4,13.8,13.8,0,0,0,3.9-10.8A1.2,1.2,0,0,0,24.8,45.7Z" style="fill:#edeef0"/><path id="_Path_8" data-name="&lt;Path&gt;" d="M36.5,50.7a1.1,1.1,0,0,0-1.5,0,13.4,13.4,0,0,0,0,20.9.9.9,0,0,0,.7.3,1.3,1.3,0,0,0,.8-.3,13.6,13.6,0,0,0,0-20.9Z" style="fill:#edeef0"/><path id="_Path_9" data-name="&lt;Path&gt;" d="M46.8,46a1.2,1.2,0,0,0-1.1,1.1,13.2,13.2,0,0,0,3.9,10.8,13.5,13.5,0,0,0,9.6,4h1.3a1.1,1.1,0,0,0,1-1,13.4,13.4,0,0,0-3.9-10.9A13.2,13.2,0,0,0,46.8,46Z" style="fill:#edeef0"/><path id="_Path_10" data-name="&lt;Path&gt;" d="M71.6,35.4a13.6,13.6,0,0,0-20.9,0,1.1,1.1,0,0,0,0,1.5,13.6,13.6,0,0,0,20.9,0A1.1,1.1,0,0,0,71.6,35.4Z" style="fill:#edeef0"/><path id="_Path_11" data-name="&lt;Path&gt;" d="M47.1,26.2h1.3A13.4,13.4,0,0,0,61.8,11.4a1.2,1.2,0,0,0-1-1.1,14.1,14.1,0,0,0-10.9,3.9A13.5,13.5,0,0,0,46,25.1,1.3,1.3,0,0,0,47.1,26.2Z" style="fill:#edeef0"/></g><g id="_Group_3" data-name="&lt;Group&gt;"><path id="_Path_12" data-name="&lt;Path&gt;" d="M23.2,2.6a1.2,1.2,0,0,0-1.4.6,13.6,13.6,0,0,0-.6,11.5,13.6,13.6,0,0,0,8.6,7.8h.3a1.1,1.1,0,0,0,1.1-.6,13.3,13.3,0,0,0,.5-11.5A13.2,13.2,0,0,0,23.2,2.6Z" style="fill:#fff"/><path id="_Path_13" data-name="&lt;Path&gt;" d="M10.5,31.3a13.9,13.9,0,0,0,5.2,1.1,14.4,14.4,0,0,0,6.4-1.6,1.3,1.3,0,0,0,.6-1.4,13.9,13.9,0,0,0-7.8-8.6,13.6,13.6,0,0,0-11.5.6,1.2,1.2,0,0,0-.6,1.4A13.3,13.3,0,0,0,10.5,31.3Z" style="fill:#fff"/><path id="_Path_14" data-name="&lt;Path&gt;" d="M21.9,40.7a13.5,13.5,0,0,0-19.3,8,1.2,1.2,0,0,0,.6,1.4,14,14,0,0,0,6.3,1.6,13.1,13.1,0,0,0,5.2-1.1,13.2,13.2,0,0,0,7.8-8.5A1.2,1.2,0,0,0,21.9,40.7Z" style="fill:#fff"/><path id="_Path_15" data-name="&lt;Path&gt;" d="M29.4,49.2a13.5,13.5,0,0,0-8,19.3,1.1,1.1,0,0,0,1,.6h.4a13.6,13.6,0,0,0,8-19.3A1.2,1.2,0,0,0,29.4,49.2Z" style="fill:#fff"/><path id="_Path_16" data-name="&lt;Path&gt;" d="M42.1,49.4a1.2,1.2,0,0,0-1.4.6,13.6,13.6,0,0,0-.6,11.5,13.9,13.9,0,0,0,8.6,7.8H49a1.1,1.1,0,0,0,1.1-.6,13.5,13.5,0,0,0,.5-11.6A13.3,13.3,0,0,0,42.1,49.4Z" style="fill:#fff"/><path id="_Path_17" data-name="&lt;Path&gt;" d="M61.3,40.5a13.6,13.6,0,0,0-11.5.6,1.2,1.2,0,0,0-.6,1.4,13.9,13.9,0,0,0,13,9.6,14.4,14.4,0,0,0,6.3-1.6,1.3,1.3,0,0,0,.6-1.4A13.6,13.6,0,0,0,61.3,40.5Z" style="fill:#fff"/><path id="_Path_18" data-name="&lt;Path&gt;" d="M68.7,21.8a13.4,13.4,0,0,0-19.3,8,1.2,1.2,0,0,0,.6,1.4,13.7,13.7,0,0,0,6.3,1.6,13.9,13.9,0,0,0,13-9.6A1.3,1.3,0,0,0,68.7,21.8Z" style="fill:#fff"/><path id="_Path_19" data-name="&lt;Path&gt;" d="M42.1,22.7h.4A13.5,13.5,0,0,0,51,14.9a13.2,13.2,0,0,0-.5-11.5,1.2,1.2,0,0,0-1.4-.6,13.7,13.7,0,0,0-8.6,7.7,13.8,13.8,0,0,0,.6,11.6A1.1,1.1,0,0,0,42.1,22.7Z" style="fill:#fff"/></g><circle id="_Path_20" data-name="&lt;Path&gt;" cx="35.7" cy="35.7" r="17.8" style="fill:#f19800"/><path id="_Path_21" data-name="&lt;Path&gt;" d="M38.3,51.4A17.8,17.8,0,0,1,25.9,20.8a17.8,17.8,0,0,0,9.8,32.6A17.5,17.5,0,0,0,48,48.5,17.8,17.8,0,0,1,38.3,51.4Z" style="fill:#dd8300"/><path id="_Path_22" data-name="&lt;Path&gt;" d="M24.5,40.8l.9.6.4.3.6.4,1.3.7.8.5.8.3.5.2.4.2,1,.3,1,.3,1,.2h1.6c.1.1.3,0,.5,0h2.1l2.1-.4,1.9-.6.9-.4.8-.3,1.4-.6,1.2-.5,1-.4-.8.8-.9.8-1.3,1-1.6,1.1-2,.9-2.3.7h-5l-1.2-.3-1.1-.5-1-.5-.5-.2-.4-.3-.9-.6-.7-.6c-.5-.4-.8-.9-1.2-1.2l-.4-.5-.3-.5A5.7,5.7,0,0,1,24.5,40.8Z" style="fill:#9b5800"/></g></g></g></svg>