<svg xmlns="http://www.w3.org/2000/svg" viewBox="0 0 107.3 160.1"><title>flores_girasol</title><g id="Layer_2" data-name="Layer 2"><g id="TEXTO"><g id="_Group_" data-name="&lt;Group&gt;"><path id="_Path_" data-name="&lt;Path&gt;" d="M85.2,109.4c-3.2,5.8-12.6,16.1-30.4,12a.9.9,0,0,1-.6-1.6c2.7-5.4,12.1-13.8,30.4-11.9A.9.9,0,0,1,85.2,109.4Z" style="fill:#4ca92b"/><path id="_Path_2" data-name="&lt;Path&gt;" d="M75.6,133.9c-2.3,4.1-8.8,11.2-21.1,8.3-.6,0-.9-.7-.4-1,1.8-3.8,8.4-9.7,21-8.3C75.7,132.9,76,133.5,75.6,133.9Z" style="fill:#4ca92b"/><path id="_Path_3" data-name="&lt;Path&gt;" d="M25.1,117.7c6.3-2.3,20.1-3.9,30.9,10.9a.9.9,0,0,1-.6,1.5c-5.6,2.4-18.2,2.6-30.8-10.8A.9.9,0,0,1,25.1,117.7Z" style="fill:#459126"/><path id="_Path_4" data-name="&lt;Path&gt;" d="M54.4,160.1h0a3.7,3.7,0,0,1-3.7-3.7V63.8h7.4v92.6A3.6,3.6,0,0,1,54.4,160.1Z" style="fill:#4ca92b"/><g id="_Group_2" data-name="&lt;Group&gt;"><g id="_Group_3" data-name="&lt;Group&gt;"><path id="_Path_5" data-name="&lt;Path&gt;" d="M55.1.4a1.8,1.8,0,0,0-2.2,0,20.1,20.1,0,0,0,0,31.2,1.7,1.7,0,0,0,2.2,0A20.1,20.1,0,0,0,55.1.4Z" style="fill:#fab41e"/><path id="_Path_6" data-name="&lt;Path&gt;" d="M17,15a1.8,1.8,0,0,0-1.6,1.6,20.4,20.4,0,0,0,5.9,16.2,20.1,20.1,0,0,0,14.3,5.9h1.9A1.8,1.8,0,0,0,39.1,37a20.3,20.3,0,0,0-5.8-16.2A20.1,20.1,0,0,0,17,15Z" style="fill:#fab41e"/><path id="_Path_7" data-name="&lt;Path&gt;" d="M31.6,54.5a2,2,0,0,0,0-2.3A20,20,0,0,0,16,44.9,20.2,20.2,0,0,0,.4,52.2a2,2,0,0,0,0,2.3,20.3,20.3,0,0,0,31.2,0Z" style="fill:#fab41e"/><path id="_Path_8" data-name="&lt;Path&gt;" d="M37,68.2a20.4,20.4,0,0,0-16.2,5.9A20,20,0,0,0,15,90.3a1.8,1.8,0,0,0,1.6,1.6h1.9A20.2,20.2,0,0,0,38.6,69.8,1.8,1.8,0,0,0,37,68.2Z" style="fill:#fab41e"/><path id="_Path_9" data-name="&lt;Path&gt;" d="M54.5,75.7a2,2,0,0,0-2.3,0,20.2,20.2,0,0,0-7.3,15.6,19.9,19.9,0,0,0,7.3,15.6,1.5,1.5,0,0,0,1.1.4,1.9,1.9,0,0,0,1.2-.4,20.2,20.2,0,0,0,7.3-15.6A20.5,20.5,0,0,0,54.5,75.7Z" style="fill:#fab41e"/><path id="_Path_10" data-name="&lt;Path&gt;" d="M69.8,68.7a1.9,1.9,0,0,0-1.6,1.6,20.4,20.4,0,0,0,5.9,16.2,20.1,20.1,0,0,0,14.3,5.9h1.9a1.9,1.9,0,0,0,1.6-1.6A20.2,20.2,0,0,0,69.8,68.7Z" style="fill:#fab41e"/><path id="_Path_11" data-name="&lt;Path&gt;" d="M106.9,52.9a20,20,0,0,0-15.6-7.4,20.3,20.3,0,0,0-15.6,7.4,1.8,1.8,0,0,0,0,2.2,20.3,20.3,0,0,0,15.6,7.4,20,20,0,0,0,15.6-7.4A1.6,1.6,0,0,0,106.9,52.9Z" style="fill:#fab41e"/><path id="_Path_12" data-name="&lt;Path&gt;" d="M70.3,39.1h1.9a20.1,20.1,0,0,0,14.3-5.9A20.5,20.5,0,0,0,92.4,17a1.9,1.9,0,0,0-1.6-1.6A20.3,20.3,0,0,0,68.7,37.5,1.9,1.9,0,0,0,70.3,39.1Z" style="fill:#fab41e"/></g><g id="_Group_4" data-name="&lt;Group&gt;"><path id="_Path_13" data-name="&lt;Path&gt;" d="M34.6,3.9a1.6,1.6,0,0,0-2,.9A20,20,0,0,0,31.7,22,20.5,20.5,0,0,0,44.5,33.6H45a1.9,1.9,0,0,0,1.6-1,20.2,20.2,0,0,0-12-28.8Z" style="fill:#fcd110"/><path id="_Path_14" data-name="&lt;Path&gt;" d="M15.8,46.8a20.3,20.3,0,0,0,7.7,1.5A21.1,21.1,0,0,0,33,46a1.8,1.8,0,0,0,.8-2.1A20,20,0,0,0,22.2,31.1,20.3,20.3,0,0,0,5,31.9,1.8,1.8,0,0,0,4.2,34,20,20,0,0,0,15.8,46.8Z" style="fill:#fcd110"/><path id="_Path_15" data-name="&lt;Path&gt;" d="M32.7,60.8A19.6,19.6,0,0,0,15.5,60,20.1,20.1,0,0,0,3.9,72.7a1.8,1.8,0,0,0,.9,2.1,19.5,19.5,0,0,0,9.4,2.3A20.8,20.8,0,0,0,22,75.6,20.2,20.2,0,0,0,33.6,62.8,1.7,1.7,0,0,0,32.7,60.8Z" style="fill:#fcd110"/><path id="_Path_16" data-name="&lt;Path&gt;" d="M43.9,73.5a20.2,20.2,0,0,0-12,28.8,2,2,0,0,0,1.6,1H34A20.2,20.2,0,0,0,46,74.4,1.7,1.7,0,0,0,43.9,73.5Z" style="fill:#fcd110"/><path id="_Path_17" data-name="&lt;Path&gt;" d="M62.8,73.7a1.8,1.8,0,0,0-2,.9,20.3,20.3,0,0,0,11.9,28.8h.5a1.7,1.7,0,0,0,1.6-.9,20.4,20.4,0,0,0-12-28.9Z" style="fill:#fcd110"/><path id="_Path_18" data-name="&lt;Path&gt;" d="M91.6,60.6a19.6,19.6,0,0,0-17.2.8,1.7,1.7,0,0,0-.9,2.1A20.3,20.3,0,0,0,85.1,76.2a20.8,20.8,0,0,0,7.7,1.6,19.7,19.7,0,0,0,9.5-2.4,1.8,1.8,0,0,0,.9-2.1A20.1,20.1,0,0,0,91.6,60.6Z" style="fill:#fcd110"/><path id="_Path_19" data-name="&lt;Path&gt;" d="M102.6,32.6a20.2,20.2,0,0,0-17.3-.9A20.7,20.7,0,0,0,73.7,44.5a2,2,0,0,0,.9,2.1,21.1,21.1,0,0,0,9.5,2.3,20.7,20.7,0,0,0,7.7-1.5,20,20,0,0,0,11.6-12.8A1.6,1.6,0,0,0,102.6,32.6Z" style="fill:#fcd110"/><path id="_Path_20" data-name="&lt;Path&gt;" d="M62.9,33.9h.6A20,20,0,0,0,76.2,22.2,20.3,20.3,0,0,0,75.4,5a1.8,1.8,0,0,0-2.1-.8A19.8,19.8,0,0,0,60.6,15.8,19.6,19.6,0,0,0,61.4,33,1.6,1.6,0,0,0,62.9,33.9Z" style="fill:#fcd110"/></g><circle id="_Path_21" data-name="&lt;Path&gt;" cx="53.3" cy="53.3" r="30.8" style="fill:#a6664c"/><path id="_Path_22" data-name="&lt;Path&gt;" d="M58.1,80.9A30.8,30.8,0,0,1,36.7,28,30.8,30.8,0,1,0,75,75.9,30.5,30.5,0,0,1,58.1,80.9Z" style="fill:#954d30"/><g id="_Group_5" data-name="&lt;Group&gt;"><circle id="_Path_23" data-name="&lt;Path&gt;" cx="27.3" cy="45.1" r="2.4" style="fill:#e28703"/><circle id="_Path_24" data-name="&lt;Path&gt;" cx="45.1" cy="70.9" r="2.4" style="fill:#e28703"/><circle id="_Path_25" data-name="&lt;Path&gt;" cx="53.7" cy="77.4" r="2.4" style="fill:#e28703"/><circle id="_Path_26" data-name="&lt;Path&gt;" cx="62.2" cy="70.9" r="2.4" style="fill:#e28703"/><circle id="_Path_27" data-name="&lt;Path&gt;" cx="80.1" cy="45.1" r="2.4" style="fill:#e28703"/><circle id="_Path_28" data-name="&lt;Path&gt;" cx="53.7" cy="27.7" r="2.4" style="fill:#e28703"/><circle id="_Path_29" data-name="&lt;Path&gt;" cx="45.1" cy="33.2" r="2.4" style="fill:#e28703"/><circle id="_Path_30" data-name="&lt;Path&gt;" cx="35.7" cy="43.1" r="2.4" style="fill:#e28703"/><circle id="_Path_31" data-name="&lt;Path&gt;" cx="32.1" cy="53.7" r="2.4" style="fill:#e28703"/><circle id="_Path_32" data-name="&lt;Path&gt;" cx="36.7" cy="64.2" r="2.4" style="fill:#e28703"/><circle id="_Path_33" data-name="&lt;Path&gt;" cx="26.8" cy="62.2" r="2.4" style="fill:#e28703"/><circle id="_Path_34" data-name="&lt;Path&gt;" cx="35.7" cy="72.9" r="2.4" style="fill:#e28703"/><circle id="_Path_35" data-name="&lt;Path&gt;" cx="34.7" cy="33.2" r="2.4" style="fill:#e28703"/><circle id="_Path_36" data-name="&lt;Path&gt;" cx="62.2" cy="33.2" r="2.4" style="fill:#e28703"/><circle id="_Path_37" data-name="&lt;Path&gt;" cx="70.7" cy="64.2" r="2.4" style="fill:#e28703"/><circle id="_Path_38" data-name="&lt;Path&gt;" cx="79.6" cy="62.2" r="2.4" style="fill:#e28703"/><circle id="_Path_39" data-name="&lt;Path&gt;" cx="71.7" cy="72.9" r="2.4" style="fill:#e28703"/><circle id="_Path_40" data-name="&lt;Path&gt;" cx="75.2" cy="53.7" r="2.4" style="fill:#e28703"/><circle id="_Path_41" data-name="&lt;Path&gt;" cx="71.7" cy="43.1" r="2.4" style="fill:#e28703"/><circle id="_Path_42" data-name="&lt;Path&gt;" cx="72.7" cy="33.2" r="2.4" style="fill:#e28703"/></g></g><path id="_Path_43" data-name="&lt;Path&gt;" d="M38.2,56.5l1.2.8.7.4.7.5,1.8,1.1,1,.5,1.2.5.6.3.6.2,1.2.5,1.4.3,1.3.3h5.7a23,23,0,0,0,2.8-.6l2.6-.8,1.2-.4,1.1-.5,1.9-.8,1.5-.7,1.4-.5-1.1,1a13.5,13.5,0,0,1-1.2,1.2l-1.7,1.3a16.4,16.4,0,0,1-2.2,1.4,22.1,22.1,0,0,1-2.7,1.2l-3.1,1-1.6.2H51.1l-1.7-.2-1.6-.5-1.5-.5L45,63l-.7-.4-.6-.4-1.1-.7-1-.9A11,11,0,0,1,40.1,59c-.2-.2-.5-.4-.6-.7l-.5-.6Z" style="fill:#954d30"/></g></g></g></svg>