<svg xmlns="http://www.w3.org/2000/svg" viewBox="0 0 82.2 122.8"><title>flores_rosa</title><g id="Layer_2" data-name="Layer 2"><g id="TEXTO"><g id="_Group_" data-name="&lt;Group&gt;"><path id="_Path_" data-name="&lt;Path&gt;" d="M78.6,84.7c-4,6.1-15.1,16.6-34.2,10.8a.9.9,0,0,1-.5-1.7C47.2,88,58.1,79.5,78,83A1,1,0,0,1,78.6,84.7Z" style="fill:#4ca92b"/><path id="_Path_2" data-name="&lt;Path&gt;" d="M10.7,92.8C17,90.9,30.8,90,40.7,105a.9.9,0,0,1-.7,1.5c-5.6,2.1-18.1,1.7-29.8-12.1A.9.9,0,0,1,10.7,92.8Z" style="fill:#459126"/><path id="_Path_3" data-name="&lt;Path&gt;" d="M41,122.8h0a3.8,3.8,0,0,1-3.7-3.7V53.2h7.4v65.9A3.8,3.8,0,0,1,41,122.8Z" style="fill:#4ca92b"/><g id="_Group_2" data-name="&lt;Group&gt;"><path id="_Path_4" data-name="&lt;Path&gt;" d="M41.1,68.8C6,76.5.7,55,0,46.8c-.1-.9,1.4-1.4,2.1-.7,19.9,19.6,39,19.6,39,19.6v3.1Z" style="fill:#4ca92b"/><path id="_Path_5" data-name="&lt;Path&gt;" d="M41.1,68.8c35.1,7.7,40.3-13.8,41-22,.1-.9-1.3-1.4-2.1-.7C60.2,65.7,41.1,65.7,41.1,65.7v3.1Z" style="fill:#4ca92b"/><path id="_Path_6" data-name="&lt;Path&gt;" d="M46.7,6C41.8-1,36.4-.8,32.5,2.6l8.5,11Z" style="fill:#ef41a0"/><path id="_Path_7" data-name="&lt;Path&gt;" d="M27.6,0c5.5,0,13.5,9.4,19.1,20.3L41.1,25,22.4,7.8C20.5,3.1,24.5,0,27.6,0Z" style="fill:#bc085a"/><path id="_Path_8" data-name="&lt;Path&gt;" d="M54.6,0C49,0,41.1,9.4,35.5,20.3L41.1,25,59.8,7.8C61.7,3.1,57.7,0,54.6,0Z" style="fill:#dd2c85"/><path id="_Path_9" data-name="&lt;Path&gt;" d="M34.5,30.2C39,24,49.1,13.7,57.3,8.4c5.7-3.8,11-2.2,12.1,1s-1.9,4.9-4.6,7.1A2.8,2.8,0,0,0,64,20c3.5,6.9,7,15.5,7,22.2,0,13.9-13.4,25.1-29.9,25.1C28.5,67.3,18.6,51.6,34.5,30.2Z" style="fill:#bc085a"/><path id="_Path_10" data-name="&lt;Path&gt;" d="M47.7,30.2C43.1,24,33,13.7,24.8,8.4c-5.6-3.8-10.9-2.2-12,1s1.9,4.9,4.6,7.1h0a4.7,4.7,0,0,1,.9,1.2,3.1,3.1,0,0,1-.1,2.3c-3.5,6.9-7.1,15.5-7.1,22.2h0c0,.6.1,1.2.1,1.8v.4l.3,1.6h0l.3,1.7c.1.1.1.2.2.4a8.8,8.8,0,0,0,.5,1.5h0l.6,1.5.2.3a14.6,14.6,0,0,0,1.7,3c0,.1.1.2.2.3a26.9,26.9,0,0,0,2.2,2.8h.1a34.5,34.5,0,0,0,2.8,2.6h.1l3.2,2.3h0l3.7,1.9h0a34.4,34.4,0,0,0,13.8,2.8C53.7,67.3,63.5,51.6,47.7,30.2Z" style="fill:#97033f"/></g><path id="_Path_11" data-name="&lt;Path&gt;" d="M25.9,49.4l1.4.8.7.5.8.5c.6.3,1.2.8,1.9,1.1l1.1.6,1.3.6.6.3.7.2,1.3.5,1.5.4,1.5.3h6.1l3-.7,2.8-.8,1.3-.5,1.2-.5,2.1-.8,1.6-.8,1.5-.6-1.1,1.1a15.9,15.9,0,0,1-1.3,1.3L54,54.3a14,14,0,0,1-2.4,1.5l-2.9,1.4-3.3,1-1.8.2H41.8a3.4,3.4,0,0,1-1,0h-.9l-1.8-.2-1.7-.5-1.6-.6-1.5-.7-.7-.4-.7-.4-1.2-.9-1-.9A13.6,13.6,0,0,1,28,52.1l-.7-.8-.5-.6Z" style="fill:#540026"/></g></g></g></svg>