<?xml version="1.0" encoding="utf-8"?>
<!-- Generator: Adobe Illustrator 22.0.1, SVG Export Plug-In . SVG Version: 6.00 Build 0)  -->
<svg version="1.1" id="Layer_1" xmlns="http://www.w3.org/2000/svg" xmlns:xlink="http://www.w3.org/1999/xlink" x="0px" y="0px"
	 viewBox="0 0 36.1 58.8" style="enable-background:new 0 0 36.1 58.8;" xml:space="preserve">
<style type="text/css">
	.st0{fill:#FFFFFF;}
</style>
<title>forward_on</title>
<g id="Layer_2_1_">
	<g id="TEXTO">
		<path class="st0" d="M6.7,58.8c-2.2,0-4.2-1-5.4-2.8c-1.8-2.8-1.5-6.4,0.8-8.8l17.8-17.8L2,11.5C-0.6,9-0.7,4.8,1.8,2.2
			C1.9,2.1,1.9,2.1,2,2c2.5-2.6,6.7-2.7,9.3-0.2c0.1,0.1,0.1,0.1,0.2,0.2l22.6,22.6c2.7,2.6,2.7,6.8,0.1,9.5c0,0,0,0,0,0L11.5,56.8
			C10.2,58.1,8.5,58.8,6.7,58.8z"/>
	</g>
</g>
</svg>
