<svg xmlns="http://www.w3.org/2000/svg" viewBox="0 0 157 81.6"><title>cuca</title><g style="isolation:isolate"><g id="Layer_2" data-name="Layer 2"><g id="TEXTO"><g id="_Group_" data-name="&lt;Group&gt;"><g id="_Group_2" data-name="&lt;Group&gt;"><g id="_Group_3" data-name="&lt;Group&gt;"><path id="_Path_" data-name="&lt;Path&gt;" d="M101.1,35.2,99,34.9,93.7,71.7l.4.3a54.8,54.8,0,0,1,3.8,4.3.7.7,0,0,1,0-.5l2,.5c.2-.6.3-1-3.9-5.4Z" style="fill:#014955"/></g><g id="_Group_4" data-name="&lt;Group&gt;"><path id="_Path_2" data-name="&lt;Path&gt;" d="M52.8,76.7a1.1,1.1,0,0,1,0-.6l2.1.5c.1-.6.2-1-4-5.3L57,28.4l-2.1-.3L48.6,72l.4.4A40.7,40.7,0,0,1,52.8,76.7Z" style="fill:#014955"/></g><g id="_Group_5" data-name="&lt;Group&gt;"><path id="_Path_3" data-name="&lt;Path&gt;" d="M120.5,71.3l-5.1-34.4h-.7a4.1,4.1,0,0,1-1.1,0h-.4l5.3,35.8.5.2,4.9,3s-.2-.1-.2-.5h2.1C125.8,74.7,125.8,74.3,120.5,71.3Z" style="fill:#014955"/></g><g id="_Group_6" data-name="&lt;Group&gt;"><path id="_Path_4" data-name="&lt;Path&gt;" d="M109.7,36.4l-5.3,40.2c-5.3,3.3-5.3,3.9-5.3,4.4h2.1a.8.8,0,0,1-.2.5,44.3,44.3,0,0,1,4.9-3.4l.5-.3,5.4-41.2Z" style="fill:#014955"/></g><g id="_Group_7" data-name="&lt;Group&gt;"><path id="_Path_5" data-name="&lt;Path&gt;" d="M95.8,34.5l-18,40.2c-6,1.7-6.2,2.2-6.4,2.7l2.1.7a.7.7,0,0,1-.3.4,39.3,39.3,0,0,1,5.7-1.8l.4-.2L98,34.8Z" style="fill:#014955"/></g><g id="_Group_8" data-name="&lt;Group&gt;"><path id="_Path_6" data-name="&lt;Path&gt;" d="M28.1,78.8A39.3,39.3,0,0,1,33.8,77l.5-.2L54.5,31.6l-1.9-.8L32.7,75c-6,1.7-6.2,2.2-6.3,2.7l2,.7A.7.7,0,0,1,28.1,78.8Z" style="fill:#014955"/></g><g id="_Group_9" data-name="&lt;Group&gt;"><ellipse id="_Path_7" data-name="&lt;Path&gt;" cx="64.4" cy="45.7" rx="20.6" ry="59.7" transform="translate(15.8 108) rotate(-87.5)" style="fill:#016171"/></g><g id="_Group_10" data-name="&lt;Group&gt;" style="mix-blend-mode:multiply"><path id="_Path_8" data-name="&lt;Path&gt;" d="M41.2,57.6c16,1.8,33.8,2.6,48-1.1s22.4-9.9,31.4-15.5c3.7,3.8,4.6,7.9,1.8,11.8-7.8,10.8-40,16.4-72.1,12.5-24.5-3-41.7-10.7-45-19C13.8,51.7,26.7,55.9,41.2,57.6Z" style="fill:#d8dade"/></g><g id="_Group_11" data-name="&lt;Group&gt;"><path id="_Path_9" data-name="&lt;Path&gt;" d="M11.9,30c14.4-6.1,39.9-8.6,65.3-5.6,29,3.4,48.3,12.7,47.9,22.1C98.4,32.1,52.1,25.5,11.9,30Z" style="fill:#013e44"/><path id="_Path_10" data-name="&lt;Path&gt;" d="M125,47a2.8,2.8,0,0,1-.1.9C87.4,56.6,13.5,56.5,2,46.9c-2.5-3.2-2.8-6.7-.2-10C18.7,24.1,96.5,30.7,125,47Z" style="fill:#013e44"/></g><g id="_Group_12" data-name="&lt;Group&gt;"><g id="_Group_13" data-name="&lt;Group&gt;"><circle id="_Path_11" data-name="&lt;Path&gt;" cx="123.7" cy="37.8" r="17.5" style="fill:#016171"/></g><g id="_Group_14" data-name="&lt;Group&gt;" style="mix-blend-mode:multiply"><path id="_Path_12" data-name="&lt;Path&gt;" d="M107.6,30.8a24.8,24.8,0,0,0,.3,9,22.3,22.3,0,0,0,7.7,10.9c5.4,4.5,14.3,4.3,19.1-1.3A27.4,27.4,0,0,0,141,35a24.5,24.5,0,0,1,.2,2.7,17.6,17.6,0,1,1-35.1.3A17.2,17.2,0,0,1,107.6,30.8Z" style="fill:#d8dade"/></g><g id="_Group_15" data-name="&lt;Group&gt;"><g id="_Group_16" data-name="&lt;Group&gt;"><g id="_Group_17" data-name="&lt;Group&gt;"><path id="_Path_13" data-name="&lt;Path&gt;" d="M138,44.3v-.6a11.5,11.5,0,0,0-.2-1.4,3.6,3.6,0,0,0-.4-.9,1.5,1.5,0,0,0-.6-.9,1.8,1.8,0,0,0-.8-.7,2.1,2.1,0,0,0-1.1-.4h-1l-1,.2-.9.6a4.6,4.6,0,0,0-.7.7,5.3,5.3,0,0,0-.6,1.4c0,.1-.1.3-.1.4h.1c0-.1.1-.2.2-.3l.3-.5.5-.6.6-.4a2,2,0,0,1,.8-.4h1.7l.8.3a1.8,1.8,0,0,1,.7.5,3.8,3.8,0,0,1,1,1.3c.1.3.3.5.3.7a1.4,1.4,0,0,1,.2.6c.1.1.1.3.2.4Z" style="fill:#013e44"/></g></g><g id="_Group_18" data-name="&lt;Group&gt;"><g id="_Group_19" data-name="&lt;Group&gt;"><path id="_Path_14" data-name="&lt;Path&gt;" d="M115.9,43.5h0a1.1,1.1,0,0,1,.1-.5,7.1,7.1,0,0,1,.5-1.6,3.1,3.1,0,0,1,.5-1,3.9,3.9,0,0,1,.8-1l1.1-.7,1.3-.3h1.2l1.1.5.9.7a2.4,2.4,0,0,1,.6.9,7.1,7.1,0,0,1,.5,1.6v.5l-.2-.4-.3-.6-.5-.6a1.3,1.3,0,0,0-.6-.7l-.8-.5-.9-.2h-1l-1,.2-.9.5a9.3,9.3,0,0,0-1.4,1.4c-.1.3-.3.5-.4.8s-.3.4-.3.6-.2.3-.2.4Z" style="fill:#013e44"/></g></g></g><g id="_Group_20" data-name="&lt;Group&gt;"><path id="_Path_15" data-name="&lt;Path&gt;" d="M110.7,41.2v.4l.2.5a1.4,1.4,0,0,0,.2.6,7.1,7.1,0,0,0,.7,1.6,10,10,0,0,0,1.2,1.9,7.5,7.5,0,0,0,1.7,1.9,17.3,17.3,0,0,0,2.1,1.7c.8.6,1.7,1,2.5,1.5l2.8,1.1,1.4.4.7.2h3.5l2.7-.4a9.2,9.2,0,0,0,2.3-.9,7.8,7.8,0,0,0,1.8-1.1l.7-.6.5-.5.4-.5.3-.3.3-.4-.3.3-.4.3-.4.3-.6.4-.8.5-1.8.9-2.1.6h-5.9l-.7-.2-1.3-.4-2.7-1-2.4-1.2a18.5,18.5,0,0,1-3.9-3.2,9.1,9.1,0,0,1-1.3-1.6l-.9-1.5c-.1-.2-.1-.4-.2-.6a.8.8,0,0,1-.2-.4Z" style="fill:#013e44"/></g><g id="_Group_21" data-name="&lt;Group&gt;"><path id="_Path_16" data-name="&lt;Path&gt;" d="M132.6,30.8a1.2,1.2,0,0,0,1-.4l16-20.3c6.6-.1,6.9-.6,7.2-1.1a1,1,0,0,0-.3-1.5.9.9,0,0,0-1.2,0,61.5,61.5,0,0,1-6.3.4h-.5L131.9,29a1.1,1.1,0,0,0,.1,1.5A.9.9,0,0,0,132.6,30.8Z" style="fill:#013e44"/></g><g id="_Group_22" data-name="&lt;Group&gt;"><path id="_Path_17" data-name="&lt;Path&gt;" d="M124.9,29.1h.6a1.1,1.1,0,0,0,.6-1.5L116,2.7l-.5-.2A36.6,36.6,0,0,1,109.7.4a1.4,1.4,0,0,0-1.2-.4,1.2,1.2,0,0,0-.8,1.5c.2.5.3,1,6.6,3L124,28.4A1.1,1.1,0,0,0,124.9,29.1Z" style="fill:#013e44"/></g></g></g></g></g></g></g></svg>