<svg xmlns="http://www.w3.org/2000/svg" viewBox="0 0 80.4 121.5"><title>pensamiento</title><g id="Layer_2" data-name="Layer 2"><g id="TEXTO"><g id="_Group_" data-name="&lt;Group&gt;"><path id="_Path_" data-name="&lt;Path&gt;" d="M80.2,75.7c-2.9,9.3-13.3,27-40.2,26.5a1.3,1.3,0,0,1-1.3-2c2.2-8.7,13.2-23.7,40-26.5A1.4,1.4,0,0,1,80.2,75.7Z" style="fill:#4ca92b"/><path id="_Path_2" data-name="&lt;Path&gt;" d="M3.2,81.5c9.8.4,29.5,6,35.9,32.1a1.3,1.3,0,0,1-1.7,1.7c-8.9.2-26.2-6.6-35.7-31.9A1.3,1.3,0,0,1,3.2,81.5Z" style="fill:#459126"/><path id="_Path_3" data-name="&lt;Path&gt;" d="M39.2,121.5h0a3.7,3.7,0,0,1-3.7-3.7V49.1h7.4v68.7A3.6,3.6,0,0,1,39.2,121.5Z" style="fill:#4ca92b"/><g id="_Group_2" data-name="&lt;Group&gt;"><path id="_Path_4" data-name="&lt;Path&gt;" d="M28.2,23.1C28.8,19.4,33.6,6.8,42.4,2c4.5-2.5,9.4-2.6,14.4-.5C65,5,70.2,9.5,72.3,15a13.6,13.6,0,0,1,0,10.3,1,1,0,0,1-.4.5,128.7,128.7,0,0,1-14.5,9.1c-6.5,3.5-11.8,5.3-15.6,5.3a7.4,7.4,0,0,1-5.7-2.1c-7.5-7.8-7.9-14.4-7.9-14.7Z" style="fill:#872d91"/><path id="_Path_5" data-name="&lt;Path&gt;" d="M32.4,25.4c.4-2.5,3.5-10.8,9.4-14a10.4,10.4,0,0,1,9.4-.3c5.4,2.3,8.8,5.3,10.2,8.9a9,9,0,0,1,0,6.8c0,.1-.1.3-.2.3a73.6,73.6,0,0,1-9.6,6c-4.3,2.3-7.7,3.5-10.3,3.5a5,5,0,0,1-3.7-1.4c-4.9-5.1-5.2-9.5-5.2-9.6Z" style="fill:#9f57a7"/><path id="_Path_6" data-name="&lt;Path&gt;" d="M48.7,23.1C48.1,19.4,43.4,6.8,34.5,2,30-.5,25.1-.6,20.1,1.5,11.9,5,6.7,9.5,4.6,15a14.1,14.1,0,0,0,0,10.3,1,1,0,0,0,.4.5,128.7,128.7,0,0,0,14.5,9.1c6.5,3.5,11.8,5.3,15.6,5.3a7.4,7.4,0,0,0,5.7-2.1c7.5-7.8,7.9-14.4,7.9-14.7Z" style="fill:#872d91"/><path id="_Path_7" data-name="&lt;Path&gt;" d="M46.1,29c-.4-2.5-3.5-10.7-9.3-14a10.6,10.6,0,0,0-9.5-.3C22,17,18.5,20,17.1,23.6a9,9,0,0,0,0,6.8l.3.3a68.9,68.9,0,0,0,9.5,6c4.3,2.3,7.8,3.5,10.3,3.5A5.2,5.2,0,0,0,41,38.8c4.9-5.1,5.1-9.5,5.2-9.6S46.2,29,46.1,29Z" style="fill:#9f57a7"/><path id="_Path_8" data-name="&lt;Path&gt;" d="M56.5,49.1a28.4,28.4,0,0,0,5.8-.5l4.9-1.1A12.8,12.8,0,0,0,76,40a11.6,11.6,0,0,0-.7-10.4l-4.2-7.2A13.1,13.1,0,0,0,62,16.3a13.8,13.8,0,0,0-11.3,2.8c-6.2,5-10.2,10.1-12.2,15.1-2-5-6.1-10.1-12.2-15.1a14.1,14.1,0,0,0-11.4-2.8,13.2,13.2,0,0,0-9,6.1L1.6,29.6A11.9,11.9,0,0,0,.9,40a12.8,12.8,0,0,0,8.8,7.5l5,1.1a27.8,27.8,0,0,0,5.8.5Z" style="fill:#b876c1"/><g id="_Group_3" data-name="&lt;Group&gt;"><path id="_Path_9" data-name="&lt;Path&gt;" d="M38,41.2c-.7-3.9-3.4-7.8-8.1-11.6a8.3,8.3,0,0,0-6.8-1.7,7.5,7.5,0,0,0-5.5,3.7L15,35.9a7.4,7.4,0,0,0-.5,6.3,8.1,8.1,0,0,0,5.4,4.6l5,.9h.4l12.2-5.6A1,1,0,0,0,38,41.2Z" style="fill:#fff"/><path id="_Path_10" data-name="&lt;Path&gt;" d="M38.9,41.2c.7-3.9,3.4-7.8,8.1-11.6a8.5,8.5,0,0,1,6.9-1.7,7.9,7.9,0,0,1,5.5,3.7l2.5,4.3a7,7,0,0,1,.5,6.3A7.9,7.9,0,0,1,57,46.8l-4.9.9h-.5L39.4,42.1A1.2,1.2,0,0,1,38.9,41.2Z" style="fill:#fff"/></g><path id="_Path_11" data-name="&lt;Path&gt;" d="M70.5,58.5a12.6,12.6,0,0,0-6.3-9.3c-8.1-4.7-15-7.3-21.3-7.9h-9c-8.2.8-16.1,4.9-21.3,8a12.4,12.4,0,0,0-6.2,9.2,11.7,11.7,0,0,0,3.9,10l6.2,5.8a13.7,13.7,0,0,0,11,3.5A13,13,0,0,0,37,72.3l.6-.9a1,1,0,0,1,1.7,0l.6.9a13.2,13.2,0,0,0,9.5,5.5H51a13.9,13.9,0,0,0,9.4-3.6l6.2-5.8A11.6,11.6,0,0,0,70.5,58.5Z" style="fill:#b876c1"/><path id="_Path_12" data-name="&lt;Path&gt;" d="M34.7,41.3h7.5c4.7.7,10.1,3.5,16.5,8.7a8.7,8.7,0,0,1,3.1,6.3A9.2,9.2,0,0,1,60,62.8l-5.5,7a6.3,6.3,0,0,1-5,2.6h-.8a6.9,6.9,0,0,1-4.9-3.9l-.5-1c-1.1-2.2-2.9-3.5-4.8-3.5a5.5,5.5,0,0,0-4.8,3.4,5.4,5.4,0,0,0-.5,1.1,7.3,7.3,0,0,1-4.9,3.9h-.9a6.1,6.1,0,0,1-4.9-2.6l-5.5-7a9.4,9.4,0,0,1-1.9-6.6,8.7,8.7,0,0,1,3-6.1c4.2-3.4,10.4-8,16.6-8.8" style="fill:#fff"/><circle id="_Path_13" data-name="&lt;Path&gt;" cx="38.5" cy="42.6" r="3.9" style="fill:#872d91"/><path id="_Path_14" data-name="&lt;Path&gt;" d="M23.8,50.2l1.2.7.7.5.7.4,1.8,1.1,1,.5,1.2.6.6.2.6.3,1.2.4,1.4.4,1.3.2,1.5.2h4.2a23,23,0,0,0,2.8-.6l2.6-.8,1.2-.4,1.1-.4,1.9-.8,1.5-.7,1.4-.6-1.1,1.1-1.2,1.1-1.7,1.4-2.2,1.3-2.7,1.3a28,28,0,0,1-3.1.9l-1.6.2H36.7L35,58.3l-1.6-.4-1.5-.6-1.3-.7-.7-.3-.6-.4-1.1-.8-1-.8-1.5-1.6-.6-.7-.5-.6Z" style="fill:#5c1766"/></g></g></g></g></svg>