<?xml version="1.0" encoding="UTF-8"?>
<svg width="266px" height="60px" viewBox="0 0 266 60" version="1.1" xmlns="http://www.w3.org/2000/svg" xmlns:xlink="http://www.w3.org/1999/xlink">
    <!-- Generator: Sketch 48.1 (47250) - http://www.bohemiancoding.com/sketch -->
    <desc>Created with Sketch.</desc>
    <defs></defs>
    <g id="WEB" stroke="none" stroke-width="1" fill="none" fill-rule="evenodd">
        <g id="logos/inglesencasa" transform="translate(0.000000, 1.000000)">
            <path d="M2.79474478,47.0400014 L5.44074484,47.0400014 L5.44074484,26.3760009 L2.79474478,26.3760009 L2.79474478,47.0400014 Z M10.764245,47.0400014 L13.347245,47.0400014 L13.347245,35.9520012 C14.8907451,34.4085011 15.9617451,33.5895011 17.5367451,33.5895011 C19.5527452,33.5895011 20.4347452,34.8180011 20.4347452,37.6845012 L20.4347452,47.0400014 L23.0177452,47.0400014 L23.0177452,37.3380012 C23.0177452,33.4320011 21.5687452,31.353001 18.3557451,31.353001 C16.2452451,31.353001 14.670245,32.4870011 13.221245,33.9360011 L13.126745,33.9360011 L12.906245,31.7310011 L10.764245,31.7310011 L10.764245,47.0400014 Z M29.0972454,49.6230015 C29.0972454,51.2610015 30.7667454,52.3005015 33.5387455,52.3005015 C36.4682455,52.3005015 38.3897456,50.7885015 38.3897456,49.1820015 C38.3897456,47.7645014 37.2872456,47.2920014 35.3027455,47.2920014 L32.6567455,47.2920014 C32.0582454,47.2920014 31.3337454,47.2290014 30.6722454,47.0400014 C29.5697454,47.8275014 29.0972454,48.7410014 29.0972454,49.6230015 Z M26.8292453,49.9695015 C26.8292453,48.6780014 27.6797453,47.4495014 29.0657454,46.5045014 L29.0657454,46.3785014 C28.3097454,45.9060014 27.7112453,45.0870014 27.7112453,43.8900013 C27.7112453,42.5985013 28.5932454,41.5905013 29.3807454,41.0550013 L29.3807454,40.9290013 C28.3727454,40.1100012 27.3962453,38.6295012 27.3962453,36.8025012 C27.3962453,33.4635011 30.0422454,31.353001 33.1607455,31.353001 C34.0112455,31.353001 34.7672455,31.510501 35.3342455,31.7310011 L40.6577456,31.7310011 L40.6577456,33.7155011 L37.5077456,33.7155011 C38.2322456,34.4085011 38.7677456,35.5740011 38.7677456,36.8655012 C38.7677456,40.1415012 36.2792455,42.1890013 33.1607455,42.1890013 C32.4047455,42.1890013 31.5542454,42.0000013 30.8612454,41.6535013 C30.3257454,42.1260013 29.8847454,42.6300013 29.8847454,43.4805013 C29.8847454,44.4570013 30.5147454,45.1500014 32.5937455,45.1500014 L35.5547455,45.1500014 C39.1142456,45.1500014 40.9097456,46.2525014 40.9097456,48.8040014 C40.9097456,51.6390015 37.9172456,54.0960016 33.1607455,54.0960016 C29.4122454,54.0960016 26.8292453,52.6155015 26.8292453,49.9695015 Z M33.1607455,40.4565013 C34.9247455,40.4565013 36.4052455,39.0390012 36.4052455,36.8025012 C36.4052455,34.5660011 34.9562455,33.2430011 33.1607455,33.2430011 C31.3652454,33.2430011 29.9162454,34.5660011 29.9162454,36.8025012 C29.9162454,39.0390012 31.3967454,40.4565013 33.1607455,40.4565013 Z M43.8707457,43.9530013 C43.8707457,46.1895014 44.6582457,47.4180014 46.6112458,47.4180014 C47.3042458,47.4180014 47.7452458,47.3235014 48.0917458,47.1660014 L47.7452458,45.2130014 C47.4617458,45.2760014 47.3357458,45.2760014 47.1782458,45.2760014 C46.8002458,45.2760014 46.4537458,44.9610014 46.4537458,44.1420013 L46.4537458,24.6120009 L43.8707457,24.6120009 L43.8707457,43.9530013 Z M50.7692459,39.4170012 C50.7692459,34.4085011 54.1397459,31.353001 57.636246,31.353001 C61.5422461,31.353001 63.7472462,34.1565011 63.7472462,38.5350012 C63.7472462,39.0705012 63.7157462,39.5745012 63.6527462,39.9525012 L53.3207459,39.9525012 C53.5097459,43.2600013 55.494246,45.3390014 58.423746,45.3390014 C59.8727461,45.3390014 61.1012461,44.8665014 62.2352461,44.1420013 L63.1487461,45.8430014 C61.8257461,46.6935014 60.1877461,47.4180014 58.108746,47.4180014 C54.0137459,47.4180014 50.7692459,44.4255013 50.7692459,39.4170012 Z M53.2892459,38.2515012 L61.4792461,38.2515012 C61.4792461,35.1330011 60.0932461,33.4005011 57.699246,33.4005011 C55.557246,33.4005011 53.6042459,35.1645011 53.2892459,38.2515012 Z M61.1327461,24.5490009 L58.455246,24.5490009 L55.588746,28.990501 L57.573246,28.990501 L61.1327461,24.5490009 Z M65.8262462,45.3075014 C67.2752462,46.5045014 69.3542463,47.4180014 71.5277463,47.4180014 C75.1502464,47.4180014 77.1347465,45.3390014 77.1347465,42.8505013 C77.1347465,39.9525012 74.6777464,39.0390012 72.4727464,38.2200012 C70.7402463,37.5585012 69.0707463,36.9915012 69.0707463,35.5740011 C69.0707463,34.4085011 69.9527463,33.3690011 71.8742463,33.3690011 C73.2287464,33.3690011 74.3312464,33.9360011 75.3707464,34.7235011 L76.5992465,33.0855011 C75.4337464,32.1405011 73.7642464,31.353001 71.8427463,31.353001 C68.5352463,31.353001 66.5822462,33.2430011 66.5822462,35.7000011 C66.5822462,38.2830012 68.9762463,39.3225012 71.1497463,40.1100012 C72.8192464,40.7400013 74.6462464,41.4330013 74.6462464,43.0080013 C74.6462464,44.3310013 73.6382464,45.4020014 71.6222463,45.4020014 C69.7952463,45.4020014 68.4407463,44.6460013 67.1177462,43.5750013 L65.8262462,45.3075014 Z M168.673749,39.4170012 C168.673749,34.4085011 172.044249,31.353001 175.540749,31.353001 C179.446749,31.353001 181.651749,34.1565011 181.651749,38.5350012 C181.651749,39.0705012 181.620249,39.5745012 181.557249,39.9525012 L171.225249,39.9525012 C171.414249,43.2600013 173.398749,45.3390014 176.328249,45.3390014 C177.777249,45.3390014 179.005749,44.8665014 180.139749,44.1420013 L181.053249,45.8430014 C179.730249,46.6935014 178.092249,47.4180014 176.013249,47.4180014 C171.918249,47.4180014 168.673749,44.4255013 168.673749,39.4170012 Z M171.193749,38.2515012 L179.383749,38.2515012 C179.383749,35.1330011 177.997749,33.4005011 175.603749,33.4005011 C173.461749,33.4005011 171.508749,35.1645011 171.193749,38.2515012 Z M185.431749,47.0400014 L188.014749,47.0400014 L188.014749,35.9520012 C189.558249,34.4085011 190.629249,33.5895011 192.204249,33.5895011 C194.220249,33.5895011 195.102249,34.8180011 195.102249,37.6845012 L195.102249,47.0400014 L197.685249,47.0400014 L197.685249,37.3380012 C197.685249,33.4320011 196.236249,31.353001 193.023249,31.353001 C190.912749,31.353001 189.337749,32.4870011 187.888749,33.9360011 L187.794249,33.9360011 L187.573749,31.7310011 L185.431749,31.7310011 L185.431749,47.0400014 Z M207.891249,39.4170012 C207.891249,44.4885013 211.00975,47.4180014 215.07325,47.4180014 C216.90025,47.4180014 218.66425,46.6620014 220.05025,45.4335014 L218.88475,43.7325013 C217.97125,44.5515013 216.74275,45.2760014 215.29375,45.2760014 C212.49025,45.2760014 210.568749,42.9135013 210.568749,39.4170012 C210.568749,35.8890011 212.58475,33.4950011 215.35675,33.4950011 C216.58525,33.4950011 217.53025,34.0620011 218.44375,34.8495011 L219.73525,33.1800011 C218.69575,32.2035011 217.27825,31.353001 215.26225,31.353001 C211.32475,31.353001 207.891249,34.2825011 207.891249,39.4170012 Z M222.31825,43.0710013 C222.31825,39.7320012 225.21625,38.0625012 231.73675,37.3380012 C231.73675,35.3850011 231.07525,33.4950011 228.58675,33.4950011 C226.79125,33.4950011 225.21625,34.3140011 224.01925,35.1330011 L222.97975,33.3375011 C224.39725,32.4240011 226.53925,31.353001 228.99625,31.353001 C232.74475,31.353001 234.31975,33.8415011 234.31975,37.6530012 L234.31975,47.0400014 L232.17775,47.0400014 L231.95725,45.2130014 L231.89425,45.2130014 C230.41375,46.4100014 228.71275,47.4180014 226.82275,47.4180014 C224.23975,47.4180014 222.31825,45.8115014 222.31825,43.0710013 Z M224.86975,42.8820013 C224.86975,44.6145013 226.03525,45.3390014 227.54725,45.3390014 C229.02775,45.3390014 230.25625,44.6145013 231.73675,43.2915013 L231.73675,39.0390012 C226.60225,39.6690012 224.86975,40.9290013 224.86975,42.8820013 Z M237.50125,45.3075014 C238.95025,46.5045014 241.02925,47.4180014 243.20275,47.4180014 C246.82525,47.4180014 248.80975,45.3390014 248.80975,42.8505013 C248.80975,39.9525012 246.35275,39.0390012 244.14775,38.2200012 C242.41525,37.5585012 240.74575,36.9915012 240.74575,35.5740011 C240.74575,34.4085011 241.62775,33.3690011 243.54925,33.3690011 C244.90375,33.3690011 246.00625,33.9360011 247.04575,34.7235011 L248.27425,33.0855011 C247.10875,32.1405011 245.43925,31.353001 243.51775,31.353001 C240.21025,31.353001 238.25725,33.2430011 238.25725,35.7000011 C238.25725,38.2830012 240.65125,39.3225012 242.82475,40.1100012 C244.49425,40.7400013 246.32125,41.4330013 246.32125,43.0080013 C246.32125,44.3310013 245.31325,45.4020014 243.29725,45.4020014 C241.47025,45.4020014 240.11575,44.6460013 238.79275,43.5750013 L237.50125,45.3075014 Z M251.64475,43.0710013 C251.64475,39.7320012 254.54275,38.0625012 261.063251,37.3380012 C261.063251,35.3850011 260.401751,33.4950011 257.913251,33.4950011 C256.117751,33.4950011 254.54275,34.3140011 253.34575,35.1330011 L252.30625,33.3375011 C253.72375,32.4240011 255.865751,31.353001 258.322751,31.353001 C262.071251,31.353001 263.646251,33.8415011 263.646251,37.6530012 L263.646251,47.0400014 L261.504251,47.0400014 L261.283751,45.2130014 L261.220751,45.2130014 C259.740251,46.4100014 258.039251,47.4180014 256.149251,47.4180014 C253.56625,47.4180014 251.64475,45.8115014 251.64475,43.0710013 Z M254.19625,42.8820013 C254.19625,44.6145013 255.361751,45.3390014 256.873751,45.3390014 C258.354251,45.3390014 259.582751,44.6145013 261.063251,43.2915013 L261.063251,39.0390012 C255.928751,39.6690012 254.19625,40.9290013 254.19625,42.8820013 Z" id="Inglés-en-casa" fill="#4A4A4A" fill-rule="evenodd"></path>
            <path d="M125.160003,-0.181907853 L150.880274,22.5122276 C151.435043,23.0531784 151.721868,23.7224352 151.732003,24.4440006 L151.732003,56.1960013 C151.732003,57.6650787 150.541081,58.8560013 149.072003,58.8560013 L133.322003,58.8560013 C131.852926,58.8560013 130.662003,57.6650787 130.662003,56.1960013 L130.662003,46.6200011 C130.662003,42.6612239 127.45278,39.4520008 123.494003,39.4520008 C119.535226,39.4520008 116.326003,42.6612239 116.326003,46.6200011 L116.326003,56.1960013 C116.326003,56.9014771 116.045753,57.5780585 115.546907,58.0769053 C115.04806,58.5757521 114.371478,58.8560013 113.666003,58.8560013 L97.7900022,58.8560013 C96.3209248,58.8560013 95.1300022,57.6650787 95.1300022,56.1960013 L95.1301442,24.2980614 C95.140138,23.5964352 95.4269623,22.9271784 95.9281442,22.4360614 L121.702003,-0.181907853 C122.697439,-1.0333412 124.164567,-1.0333412 125.160003,-0.181907853 Z M97.9300022,24.4017825 L97.9300022,56.0560013 L113.526003,56.0560013 L113.526003,46.6200011 C113.526003,41.1148266 117.988828,36.6520009 123.494003,36.6520009 C128.999177,36.6520009 133.462003,41.1148266 133.462003,46.6200011 L133.462003,56.0560013 L148.932145,56.0560013 L148.932145,24.5274312 L123.430708,2.02616314 L97.9300022,24.4017825 Z" id="Shape" fill="#50E3C2" fill-rule="nonzero"></path>
        </g>
    </g>
</svg>