<?xml version="1.0" encoding="UTF-8"?>
<svg width="380px" height="87px" viewBox="0 0 380 87" version="1.1" xmlns="http://www.w3.org/2000/svg" xmlns:xlink="http://www.w3.org/1999/xlink">
    <!-- Generator: Sketch 48.1 (47250) - http://www.bohemiancoding.com/sketch -->
    <desc>Created with Sketch.</desc>
    <defs></defs>
    <g id="WEB" stroke="none" stroke-width="1" fill="none" fill-rule="evenodd">
        <g id="logos/inglesencasa" transform="translate(0.000000, 2.000000)">
            <path d="M3.99249261,67.2000031 L7.77249276,67.2000031 L7.77249276,37.680002 L3.99249261,37.680002 L3.99249261,67.2000031 Z M15.3774931,67.2000031 L19.0674932,67.2000031 L19.0674932,51.3600025 C21.2724933,49.1550024 22.8024934,47.9850024 25.0524934,47.9850024 C27.9324936,47.9850024 29.1924936,49.7400025 29.1924936,53.8350026 L29.1924936,67.2000031 L32.8824938,67.2000031 L32.8824938,53.3400026 C32.8824938,47.7600024 30.8124937,44.7900023 26.2224935,44.7900023 C23.2074934,44.7900023 20.9574933,46.4100023 18.8874932,48.4800024 L18.7524932,48.4800024 L18.4374932,45.3300023 L15.3774931,45.3300023 L15.3774931,67.2000031 Z M41.5674941,70.8900033 C41.5674941,73.2300034 43.9524942,74.7150034 47.9124944,74.7150034 C52.0974945,74.7150034 54.8424946,72.5550034 54.8424946,70.2600033 C54.8424946,68.2350032 53.2674946,67.5600032 50.4324945,67.5600032 L46.6524943,67.5600032 C45.7974943,67.5600032 44.7624942,67.4700032 43.8174942,67.2000031 C42.2424941,68.3250032 41.5674941,69.6300032 41.5674941,70.8900033 Z M38.327494,71.3850033 C38.327494,69.5400032 39.542494,67.7850032 41.5224941,66.4350031 L41.5224941,66.2550031 C40.4424941,65.5800031 39.587494,64.410003 39.587494,62.700003 C39.587494,60.8550029 40.8474941,59.4150028 41.9724941,58.6500028 L41.9724941,58.4700028 C40.5324941,57.3000028 39.137494,55.1850027 39.137494,52.5750026 C39.137494,47.8050024 42.9174942,44.7900023 47.3724943,44.7900023 C48.5874944,44.7900023 49.6674944,45.0150023 50.4774945,45.3300023 L58.0824948,45.3300023 L58.0824948,48.1650024 L53.5824946,48.1650024 C54.6174946,49.1550024 55.3824947,50.8200025 55.3824947,52.6650026 C55.3824947,57.3450028 51.8274945,60.2700029 47.3724943,60.2700029 C46.2924943,60.2700029 45.0774942,60.0000029 44.0874942,59.5050028 C43.3224942,60.1800029 42.6924941,60.9000029 42.6924941,62.1150029 C42.6924941,63.510003 43.5924942,64.500003 46.5624943,64.500003 L50.7924945,64.500003 C55.8774947,64.500003 58.4424948,66.0750031 58.4424948,69.7200032 C58.4424948,73.7700034 54.1674946,77.2800035 47.3724943,77.2800035 C42.0174941,77.2800035 38.327494,75.1650035 38.327494,71.3850033 Z M47.3724943,57.7950028 C49.8924944,57.7950028 52.0074945,55.7700027 52.0074945,52.5750026 C52.0074945,49.3800024 49.9374944,47.4900024 47.3724943,47.4900024 C44.8074942,47.4900024 42.7374941,49.3800024 42.7374941,52.5750026 C42.7374941,55.7700027 44.8524942,57.7950028 47.3724943,57.7950028 Z M62.6724949,62.790003 C62.6724949,65.9850031 63.797495,67.7400032 66.5874951,67.7400032 C67.5774951,67.7400032 68.2074952,67.6050032 68.7024952,67.3800032 L68.2074952,64.590003 C67.8024951,64.680003 67.6224951,64.680003 67.3974951,64.680003 C66.8574951,64.680003 66.3624951,64.230003 66.3624951,63.060003 L66.3624951,35.1600019 L62.6724949,35.1600019 L62.6724949,62.790003 Z M72.5274953,56.3100027 C72.5274953,49.1550024 77.3424955,44.7900023 82.3374957,44.7900023 C87.9174959,44.7900023 91.0674961,48.7950024 91.0674961,55.0500027 C91.0674961,55.8150027 91.0224961,56.5350027 90.9324961,57.0750027 L76.1724955,57.0750027 C76.4424955,61.8000029 79.2774956,64.7700031 83.4624958,64.7700031 C85.5324958,64.7700031 87.2874959,64.095003 88.907496,63.060003 L90.212496,65.4900031 C88.322496,66.7050031 85.9824959,67.7400032 83.0124957,67.7400032 C77.1624955,67.7400032 72.5274953,63.465003 72.5274953,56.3100027 Z M76.1274955,54.6450026 L87.8274959,54.6450026 C87.8274959,50.1900025 85.8474959,47.7150024 82.4274957,47.7150024 C79.3674956,47.7150024 76.5774955,50.2350025 76.1274955,54.6450026 Z M87.3324959,35.0700019 L83.5074958,35.0700019 L79.4124956,41.4150021 L82.2474957,41.4150021 L87.3324959,35.0700019 Z M94.0374962,64.725003 C96.1074963,66.4350031 99.0774964,67.7400032 102.182497,67.7400032 C107.357497,67.7400032 110.192497,64.7700031 110.192497,61.2150029 C110.192497,57.0750027 106.682497,55.7700027 103.532497,54.6000026 C101.057496,53.6550026 98.6724964,52.8450026 98.6724964,50.8200025 C98.6724964,49.1550024 99.9324964,47.6700024 102.677497,47.6700024 C104.612497,47.6700024 106.187497,48.4800024 107.672497,49.6050024 L109.427497,47.2650024 C107.762497,45.9150023 105.377497,44.7900023 102.632497,44.7900023 C97.9074963,44.7900023 95.1174962,47.4900024 95.1174962,51.0000025 C95.1174962,54.6900027 98.5374964,56.1750027 101.642496,57.3000028 C104.027497,58.2000028 106.637497,59.1900028 106.637497,61.4400029 C106.637497,63.330003 105.197497,64.8600031 102.317497,64.8600031 C99.7074964,64.8600031 97.7724963,63.780003 95.8824963,62.250003 L94.0374962,64.725003 Z M240.962502,56.3100027 C240.962502,49.1550024 245.777502,44.7900023 250.772502,44.7900023 C256.352503,44.7900023 259.502503,48.7950024 259.502503,55.0500027 C259.502503,55.8150027 259.457503,56.5350027 259.367503,57.0750027 L244.607502,57.0750027 C244.877502,61.8000029 247.712502,64.7700031 251.897502,64.7700031 C253.967503,64.7700031 255.722503,64.095003 257.342503,63.060003 L258.647503,65.4900031 C256.757503,66.7050031 254.417503,67.7400032 251.447502,67.7400032 C245.597502,67.7400032 240.962502,63.465003 240.962502,56.3100027 Z M244.562502,54.6450026 L256.262503,54.6450026 C256.262503,50.1900025 254.282503,47.7150024 250.862502,47.7150024 C247.802502,47.7150024 245.012502,50.2350025 244.562502,54.6450026 Z M264.902503,67.2000031 L268.592503,67.2000031 L268.592503,51.3600025 C270.797503,49.1550024 272.327503,47.9850024 274.577503,47.9850024 C277.457503,47.9850024 278.717504,49.7400025 278.717504,53.8350026 L278.717504,67.2000031 L282.407504,67.2000031 L282.407504,53.3400026 C282.407504,47.7600024 280.337504,44.7900023 275.747503,44.7900023 C272.732503,44.7900023 270.482503,46.4100023 268.412503,48.4800024 L268.277503,48.4800024 L267.962503,45.3300023 L264.902503,45.3300023 L264.902503,67.2000031 Z M296.987504,56.3100027 C296.987504,63.555003 301.442504,67.7400032 307.247505,67.7400032 C309.857505,67.7400032 312.377505,66.6600031 314.357505,64.9050031 L312.692505,62.475003 C311.387505,63.645003 309.632505,64.680003 307.562505,64.680003 C303.557505,64.680003 300.812504,61.3050029 300.812504,56.3100027 C300.812504,51.2700025 303.692505,47.8500024 307.652505,47.8500024 C309.407505,47.8500024 310.757505,48.6600024 312.062505,49.7850025 L313.907505,47.4000024 C312.422505,46.0050023 310.397505,44.7900023 307.517505,44.7900023 C301.892504,44.7900023 296.987504,48.9750024 296.987504,56.3100027 Z M317.597505,61.5300029 C317.597505,56.7600027 321.737505,54.3750026 331.052506,53.3400026 C331.052506,50.5500025 330.107506,47.8500024 326.552505,47.8500024 C323.987505,47.8500024 321.737505,49.0200024 320.027505,50.1900025 L318.542505,47.6250024 C320.567505,46.3200023 323.627505,44.7900023 327.137505,44.7900023 C332.492506,44.7900023 334.742506,48.3450024 334.742506,53.7900026 L334.742506,67.2000031 L331.682506,67.2000031 L331.367506,64.590003 L331.277506,64.590003 C329.162506,66.3000031 326.732505,67.7400032 324.032505,67.7400032 C320.342505,67.7400032 317.597505,65.4450031 317.597505,61.5300029 Z M321.242505,61.2600029 C321.242505,63.735003 322.907505,64.7700031 325.067505,64.7700031 C327.182505,64.7700031 328.937506,63.735003 331.052506,61.8450029 L331.052506,55.7700027 C323.717505,56.6700027 321.242505,58.4700028 321.242505,61.2600029 Z M339.287506,64.725003 C341.357506,66.4350031 344.327506,67.7400032 347.432506,67.7400032 C352.607506,67.7400032 355.442507,64.7700031 355.442507,61.2150029 C355.442507,57.0750027 351.932506,55.7700027 348.782506,54.6000026 C346.307506,53.6550026 343.922506,52.8450026 343.922506,50.8200025 C343.922506,49.1550024 345.182506,47.6700024 347.927506,47.6700024 C349.862506,47.6700024 351.437506,48.4800024 352.922506,49.6050024 L354.677507,47.2650024 C353.012506,45.9150023 350.627506,44.7900023 347.882506,44.7900023 C343.157506,44.7900023 340.367506,47.4900024 340.367506,51.0000025 C340.367506,54.6900027 343.787506,56.1750027 346.892506,57.3000028 C349.277506,58.2000028 351.887506,59.1900028 351.887506,61.4400029 C351.887506,63.330003 350.447506,64.8600031 347.567506,64.8600031 C344.957506,64.8600031 343.022506,63.780003 341.132506,62.250003 L339.287506,64.725003 Z M359.492507,61.5300029 C359.492507,56.7600027 363.632507,54.3750026 372.947507,53.3400026 C372.947507,50.5500025 372.002507,47.8500024 368.447507,47.8500024 C365.882507,47.8500024 363.632507,49.0200024 361.922507,50.1900025 L360.437507,47.6250024 C362.462507,46.3200023 365.522507,44.7900023 369.032507,44.7900023 C374.387507,44.7900023 376.637507,48.3450024 376.637507,53.7900026 L376.637507,67.2000031 L373.577507,67.2000031 L373.262507,64.590003 L373.172507,64.590003 C371.057507,66.3000031 368.627507,67.7400032 365.927507,67.7400032 C362.237507,67.7400032 359.492507,65.4450031 359.492507,61.5300029 Z M363.137507,61.2600029 C363.137507,63.735003 364.802507,64.7700031 366.962507,64.7700031 C369.077507,64.7700031 370.832507,63.735003 372.947507,61.8450029 L372.947507,55.7700027 C365.612507,56.6700027 363.137507,58.4700028 363.137507,61.2600029 Z" id="Inglés-en-casa" fill="#4A4A4A" fill-rule="evenodd"></path>
            <path d="M178.800007,-0.259868365 L215.543252,32.1603256 C216.33578,32.9331126 216.745529,33.8891937 216.760009,34.9200014 L216.760009,80.2800032 C216.760009,82.3786853 215.058691,84.0800033 212.960009,84.0800033 L190.460008,84.0800033 C188.361326,84.0800033 186.660008,82.3786853 186.660008,80.2800032 L186.660008,66.6000026 C186.660008,60.9446065 182.075403,56.3600022 176.420007,56.3600022 C170.764611,56.3600022 166.180007,60.9446065 166.180007,66.6000026 L166.180007,80.2800032 C166.180007,81.2878259 165.779651,82.2543708 165.067012,82.967009 C164.354374,83.6796473 163.387829,84.0800033 162.380006,84.0800033 L139.700006,84.0800033 C137.601324,84.0800033 135.900006,82.3786853 135.900006,80.2800032 L135.900208,34.7115169 C135.914485,33.7091937 136.324234,32.7531126 137.040208,32.0515168 L173.860007,-0.259868365 C175.282058,-1.47620174 177.377956,-1.47620174 178.800007,-0.259868365 Z M139.900006,34.8596899 L139.900006,80.0800033 L162.180007,80.0800033 L162.180007,66.6000026 C162.180007,58.7354675 168.555472,52.3600022 176.420007,52.3600022 C184.284542,52.3600022 190.660008,58.7354675 190.660008,66.6000026 L190.660008,80.0800033 L212.760211,80.0800033 L212.760211,35.039188 L176.329586,2.89451882 L139.900006,34.8596899 Z" id="Shape" fill="#50E3C2" fill-rule="nonzero"></path>
        </g>
    </g>
</svg>