<?xml version="1.0" encoding="UTF-8"?>
<svg width="164px" height="48px" viewBox="0 0 164 48" version="1.1" xmlns="http://www.w3.org/2000/svg" xmlns:xlink="http://www.w3.org/1999/xlink">
    <!-- Generator: Sketch 48.1 (47250) - http://www.bohemiancoding.com/sketch -->
    <desc>Created with Sketch.</desc>
    <defs></defs>
    <g id="WEB" stroke="none" stroke-width="1" fill="none" fill-rule="evenodd">
        <g id="logos/cambridge_header">
            <g id="cambridge_logo_@1x-01">
                <polygon id="Shape" fill="#2E2E2E" fill-rule="nonzero" points="0 0 164 0 164 48 0 48"></polygon>
                <path d="M137.82,28 L138.16,28 C140.02,28 140.61,27.63 141.3,26.06 L141.42,25.78 L142.14,26 L141.14,28.95 L131,28.95 L131,28.38 C131.293741,28.4327579 131.591559,28.4595281 131.89,28.46 C133.18,28.46 133.46,27.97 133.46,25.76 L133.46,21.23 C133.46,18.98 133.19,18.53 131.84,18.53 C131.607943,18.5234618 131.376016,18.5469907 131.15,18.6 L131.15,18 L141,18 L141.42,20.36 L140.76,20.48 C140.47,19.07 139.76,18.69 137.57,18.69 C136.961951,18.6847778 136.355111,18.7451265 135.76,18.87 L135.76,22.7 L137.76,22.7 C138.85,22.7 139.16,22.46 139.16,21.63 C139.169574,21.493501 139.169574,21.356499 139.16,21.22 L139.82,21.22 L139.82,25 L139.16,25 C139.169019,24.826784 139.169019,24.653216 139.16,24.48 C139.16,23.76 138.79,23.48 137.75,23.48 L135.75,23.48 L135.75,28 L137.81,28 L137.82,28 Z M130,23.9 C129,23.9 128.79,24.18 128.79,25.54 C128.79,26.33 128.79,27.47 128.85,28.41 C128.19,28.53 127.49,28.67 126.92,28.79 C125.842317,29.0732569 124.734178,29.2243667 123.62,29.24 C120.1,29.24 117.7,26.95 117.7,23.58 C117.7,20.02 120.14,17.79 124.03,17.79 C124.746566,17.7934163 125.461881,17.8502404 126.17,17.96 L127.17,18.11 L128,18.22 L128.39,18.28 L128.95,21.07 L128.12,21.22 C127.41,19.22 126.28,18.38 124.46,18.38 C121.86,18.38 120.14,20.28 120.14,23.16 C120.14,26.22 122.06,28.4 124.76,28.4 C125.37187,28.4116492 125.980064,28.3029218 126.55,28.08 L126.55,25.08 C126.629229,24.7712299 126.546573,24.4433467 126.33044,24.2090339 C126.114307,23.9747211 125.794151,23.8659116 125.48,23.92 L125.08,23.92 L124.95,23.92 L124.95,23.28 L130.49,23.28 L130.49,23.93 L130.31,23.93 L130,23.9 Z M108.82,29 L107.59,29 L102.65,29 L102.65,28.38 C102.947383,28.4306504 103.248345,28.4574026 103.55,28.46 C104.88,28.46 105.15,28 105.15,25.76 L105.15,21.23 C105.15,18.96 104.89,18.53 103.51,18.53 C103.258116,18.5237251 103.006372,18.5472212 102.76,18.6 L102.76,18 L106.63,18 L107.43,18 L108.38,18 L109.73,18 C113.61,18 115.67,19.69 115.67,22.9 C115.67,26.58 113,29 108.82,29 Z M109.17,18.59 C108.588572,18.5897934 108.010998,18.6843669 107.46,18.87 L107.46,28 C108.020748,28.2047597 108.613037,28.3096796 109.21,28.31 C111.64,28.31 113.21,26.25 113.21,23.02 C113.18,20.22 111.71,18.59 109.17,18.59 Z M94.17,28.38 C94.4572297,28.4311187 94.7482646,28.4578806 95.04,28.46 C96.37,28.46 96.63,28.02 96.63,25.76 L96.63,21.23 C96.63,18.95 96.38,18.53 95.03,18.53 C94.7913205,18.5230724 94.5527313,18.5465953 94.32,18.6 L94.32,18 L101.41,18 L101.41,18.6 C101.136523,18.5478457 100.858349,18.5243852 100.58,18.53 C99.2,18.53 98.95,18.95 98.95,21.23 L98.95,25.76 C98.95,28.01 99.22,28.46 100.56,28.46 C100.868298,28.4576596 101.175926,28.4309093 101.48,28.38 L101.48,29 L94.2,29 L94.2,28.38 L94.17,28.38 Z M92.1,29 L91.56,29 L91.08,29 C89.99,29 89.52,28.65 88.81,27.34 L88.36,26.5 C87.18,24.32 86.67,23.87 85.36,23.86 L85.36,25.76 C85.36,28.02 85.62,28.46 86.94,28.46 C87.1954041,28.4594235 87.4500737,28.4326161 87.7,28.38 L87.7,29 L80.7,29 L80.7,28.38 C80.9873862,28.4299484 81.2783242,28.4567013 81.57,28.46 C82.78,28.46 83.16,27.94 83.16,26.29 L83.16,20.7 C83.16,19.04 82.79,18.54 81.58,18.54 C81.3414244,18.5358417 81.1031701,18.5593316 80.87,18.61 L80.87,18 L84.53,18 L85.36,18 L86.21,18 L87.37,18 C89.88,18 91.12,18.87 91.12,20.64 C91.12,22.41 90.12,23.21 88.23,23.42 C89.2825189,23.9325303 90.1086974,24.8156867 90.55,25.9 C91.63,27.9 92.23,28.47 93.11,28.47 L93.61,28.47 L93.61,29 L92.1,29 Z M88.8,20.79 C88.8434616,20.1888959 88.6278072,19.5978959 88.2074239,19.1660475 C87.7870406,18.7341992 87.2020558,18.5027244 86.6,18.53 C86.1824763,18.5367299 85.7681466,18.6041005 85.37,18.73 L85.37,23.26 C85.6131492,23.2733861 85.8568508,23.2733861 86.1,23.26 C87.85,23.27 88.79,22.39 88.79,20.76 L88.8,20.79 Z M79.07,25.7 C79.07,27.84 77.36,29 74.23,29 L73.17,29 L72.09,29 L68.23,29 L68.23,28.38 C68.5203975,28.432585 68.8148805,28.4593562 69.11,28.46 C70.42,28.46 70.69,28.01 70.69,25.76 L70.69,21.23 C70.69,18.95 70.44,18.53 69.08,18.53 C68.8545805,18.5242929 68.6293718,18.5478222 68.41,18.6 L68.41,18 L72.41,18 L74.3,18 L75.39,18 C77.39,18 78.63,18.87 78.63,20.33 C78.63,21.79 77.63,22.65 75.79,23.05 C78,23.15 79.07,24 79.07,25.7 Z M76.39,20.42 C76.3659601,19.8647697 76.111978,19.344578 75.6889514,18.9841517 C75.2659249,18.6237255 74.7120028,18.4555685 74.16,18.52 C73.728292,18.5260196 73.3013031,18.6107396 72.9,18.77 L72.9,22.77 C73.18778,22.8155738 73.4786355,22.838976 73.77,22.84 C74.4435142,22.8868793 75.1065224,22.6537488 75.6024752,22.1956549 C76.098428,21.7375611 76.3833625,21.0951111 76.39,20.42 Z M73.82,23.42 C73.5106749,23.4209757 73.2023109,23.4544936 72.9,23.52 L72.9,28.11 C73.335713,28.2142589 73.7819916,28.2679465 74.23,28.27 C74.9149013,28.2776974 75.5715001,27.9971669 76.0393921,27.4969409 C76.5072841,26.9967149 76.7433791,26.3228614 76.69,25.64 C76.69,24.23 75.65,23.43 73.82,23.43 L73.82,23.42 Z M60.82,28.37 C60.9855408,28.4198674 61.1571411,28.4467851 61.33,28.45 C62.39,28.45 62.66,27.9 62.66,25.75 L62.66,20.18 L62.34,20.8 L61.55,22.47 L60.67,24.35 L59.67,26.5 L58.83,28.38 L58.63,28.87 L57.93,28.87 L57.68,28.33 C56.77,26.33 56.62,26.03 55.95,24.68 L55.06,22.87 L54.17,21.07 L53.75,20.28 L53.75,26.28 C53.75,27.91 54.13,28.45 55.29,28.45 C55.4503302,28.4534862 55.6098519,28.4263336 55.76,28.37 L55.76,29 L50.9,29 L50.9,28.38 C51.0732416,28.4258133 51.2509544,28.4526379 51.43,28.46 C52.54,28.46 52.79,27.95 52.79,25.75 L52.79,20.7 C52.79,18.95 52.54,18.54 51.47,18.54 C51.3005329,18.5341205 51.131337,18.5578079 50.97,18.61 L50.97,18 L54.97,18 C55.42,19 55.59,19.3 56.15,20.41 L57.1,22.3 L57.88,23.9 L58.64,25.42 L58.94,26 C59.39,25.16 59.54,24.85 59.99,23.86 L60.83,22 L61.71,20.09 L62.44,18.47 L62.64,18.01 L67,18.01 L67,18.6 C66.8066087,18.554456 66.6086794,18.5309728 66.41,18.53 C65.2,18.53 64.98,18.94 64.98,21.23 L64.98,25.76 C64.98,27.95 65.24,28.46 66.37,28.46 C66.6051861,28.4533211 66.8393714,28.426557 67.07,28.38 L67.07,29 L60.77,29 L60.77,28.38 L60.82,28.37 Z M44.33,28.37 C44.5279903,28.4279681 44.7337576,28.454954 44.94,28.45 C45.57,28.45 45.87,28.23 45.87,27.77 C45.8567517,27.5808342 45.812846,27.3950791 45.74,27.22 L45.08,25.47 L41.28,25.47 L40.76,26.8 L40.66,27.06 L40.54,27.37 C40.5022265,27.4932141 40.4820274,27.6211418 40.48,27.75 C40.5112891,27.9802696 40.6365734,28.1872884 40.8260567,28.3218216 C41.01554,28.4563547 41.2522897,28.50638 41.48,28.46 C41.6997222,28.4592827 41.9183493,28.4290112 42.13,28.37 L42.13,29 L37.31,29 L37.31,28.38 C37.4795073,28.4260673 37.6543448,28.4496031 37.83,28.45 C38.72,28.45 39.14,27.99 39.88,26.24 L40.16,25.57 L40.33,25.18 L43.63,17.36 L44.13,17.36 L46.13,22.36 L46.24,22.65 C48.24,27.76 48.75,28.49 49.93,28.49 C50.1002338,28.4852136 50.2687821,28.4548749 50.43,28.4 L50.43,29 L44.32,29 L44.32,28.38 L44.33,28.37 Z M43.22,20.77 L41.59,24.67 L44.77,24.67 L43.22,20.77 Z M30.74,29.77 C33.3194816,29.8567187 35.566299,28.0242384 36,25.48 L37,25.6 L36.6,29.07 C34.6735053,30.1941239 32.490183,30.8036635 30.26,30.84 C25.26,30.84 21.89,27.65 21.89,22.96 C21.89,18.44 25.17,15.44 30.08,15.44 C31.958672,15.4225198 33.8185545,15.814972 35.53,16.59 L35.94,16.75 L36.66,20.34 L35.66,20.53 C35.0759588,18.1410528 32.8871152,16.4962812 30.43,16.6 C27.25,16.6 24.88,19.37 24.88,23.09 C24.88,26.81 27.35,29.73 30.74,29.73 L30.74,29.77 Z" id="Shape" fill="#FFFFFF" fill-rule="nonzero"></path>
            </g>
        </g>
    </g>
</svg>