<svg xmlns="http://www.w3.org/2000/svg" viewBox="0 0 323.4 275.1"><title>ceras</title><g style="isolation:isolate"><g id="Layer_2" data-name="Layer 2"><g id="Layer_5" data-name="Layer 5"><g id="_Group_" data-name="&lt;Group&gt;"><g id="_Group_2" data-name="&lt;Group&gt;"><path id="_Path_" data-name="&lt;Path&gt;" d="M244.2,119.8l-3.2-3.3L124.1,233.4l26,26L266.9,142.5l-3.2-3.2,11.7-24.7c4-9.1,1.5-10.9-6.5-6.5Z" style="fill:#872d91"/><rect id="_Path_2" data-name="&lt;Path&gt;" x="148.7" y="211.8" width="9.2" height="36.72" transform="translate(-117.8 175.8) rotate(-45)" style="fill:#fff"/><rect id="_Path_3" data-name="&lt;Path&gt;" x="233.1" y="127.4" width="9.2" height="36.72" transform="translate(-33.4 210.8) rotate(-45)" style="fill:#fff"/></g><path id="_Path_4" data-name="&lt;Path&gt;" d="M207.4,186.4V150.1l-83.3,83.3,26,26L258.4,151.1C240.6,161.7,223.3,173,207.4,186.4Z" style="fill:#d8dade;mix-blend-mode:multiply"/><rect id="_Rectangle_" data-name="&lt;Rectangle&gt;" y="43.8" width="196.4" height="219.78" rx="23.4" ry="23.4" transform="translate(196.4 307.5) rotate(180)" style="fill:#d8dade"/><path id="_Path_5" data-name="&lt;Path&gt;" d="M90.1,70.6c.1,2.1.3,4.2.5,6.3A42.3,42.3,0,0,0,90.1,70.6Z" style="fill:#d8dade;mix-blend-mode:multiply"/><path id="_Path_6" data-name="&lt;Path&gt;" d="M157.3,43.8h-7.4c-5.3,11.8-10,23.2-17.9,33.1a85.3,85.3,0,0,1-11.9-33.1H91.3c-.9,9-1.7,17.9-1.2,26.8a42.3,42.3,0,0,1,.5,6.3c-.2-2.1-.4-4.2-.5-6.3C88.5,60.8,83.6,52.7,80,43.8H63.8a19.9,19.9,0,0,1-11.2,9.3c-4.2,27.7,1.5,72.5,1.5,72.5s82.8,14.6,102.2-9.8C169.3,99.6,168.2,70.2,157.3,43.8Z" style="fill:#d8dade;mix-blend-mode:multiply"/><g id="_Group_3" data-name="&lt;Group&gt;"><path id="_Path_7" data-name="&lt;Path&gt;" d="M137.2,241.2h36.7V75.9h-4.6l-9.2-25.7c-3.1-7-6.1-7-9.2,0l-9.2,25.7h-4.5Z" style="fill:#f1c40f"/><rect id="_Path_8" data-name="&lt;Path&gt;" x="137.2" y="213.6" width="36.7" height="9.18" style="fill:#fff"/><rect id="_Path_9" data-name="&lt;Path&gt;" x="137.2" y="94.3" width="36.7" height="9.18" style="fill:#fff"/></g><g id="_Group_4" data-name="&lt;Group&gt;"><path id="_Path_10" data-name="&lt;Path&gt;" d="M98.2,196.2h36.7V31h-4.6L121.1,5.3c-3-7.1-6.1-7.1-9.1,0L102.8,31H98.2Z" style="fill:#aa7135"/><rect id="_Path_11" data-name="&lt;Path&gt;" x="98.2" y="168.7" width="36.7" height="9.18" style="fill:#fff"/><rect id="_Path_12" data-name="&lt;Path&gt;" x="98.2" y="49.3" width="36.7" height="9.18" style="fill:#fff"/></g><g id="_Group_5" data-name="&lt;Group&gt;"><path id="_Path_13" data-name="&lt;Path&gt;" d="M59.2,228.8H95.9V63.5H91.4L82.2,37.8c-3.1-7-6.2-7-9.2,0L63.8,63.5H59.2Z" style="fill:#606268"/><rect id="_Path_14" data-name="&lt;Path&gt;" x="59.2" y="201.2" width="36.7" height="9.18" style="fill:#fff"/><rect id="_Path_15" data-name="&lt;Path&gt;" x="59.2" y="81.9" width="36.7" height="9.18" style="fill:#fff"/></g><path id="_Path_16" data-name="&lt;Path&gt;" d="M28.2,254.2h140A19.8,19.8,0,0,0,188,234.4V130.7c0-10.8-8.9-17-19.8-17H28.2c-10.9,0-19.8,6.2-19.8,17V234.4A19.8,19.8,0,0,0,28.2,254.2Z" style="fill:#c3c5ca"/><path id="_Path_17" data-name="&lt;Path&gt;" d="M112.5,220.5c-2.4,2.4,4.9,7.3,2.4,7.3-12.1,2.4-21.9,0-34-2.4-1.8,12.1-2.2,25.4-2.4,38.2h96.3a21.6,21.6,0,0,0,21.6-21.5V199.3C169.3,207.9,142.1,216.3,112.5,220.5Z" style="fill:#d8dade;mix-blend-mode:multiply"/><g id="_Group_6" data-name="&lt;Group&gt;"><path id="_Path_18" data-name="&lt;Path&gt;" d="M127.6,230.7l7.6,35.9,161.7-34.2-1-4.4,23.3-14.3c6.2-4.5,5.6-7.5-1.9-9L290.2,201l-.9-4.5Z" style="fill:#d5b99b"/><rect id="_Path_19" data-name="&lt;Path&gt;" x="149.3" y="225.5" width="9.2" height="36.72" transform="translate(-47.1 37.1) rotate(-11.9)" style="fill:#fff"/><rect id="_Path_20" data-name="&lt;Path&gt;" x="266" y="200.9" width="9.2" height="36.72" transform="translate(-39.5 60.7) rotate(-11.9)" style="fill:#fff"/></g><g id="_Group_7" data-name="&lt;Group&gt;"><path id="_Path_21" data-name="&lt;Path&gt;" d="M89.9,238.4v36.7H255.1v-4.6l25.7-9.2c7-3,7-6.1,0-9.2L255.1,243v-4.6Z" style="fill:#c21612"/><rect id="_Path_22" data-name="&lt;Path&gt;" x="108.2" y="238.4" width="9.2" height="36.72" style="fill:#fff"/><rect id="_Path_23" data-name="&lt;Path&gt;" x="227.6" y="238.4" width="9.2" height="36.72" style="fill:#fff"/></g></g></g></g></g></svg>