<svg xmlns="http://www.w3.org/2000/svg" viewBox="0 0 244.2 263.7"><title>cuerda</title><g id="Layer_2" data-name="Layer 2"><g id="Layer_5" data-name="Layer 5"><g id="_Group_" data-name="&lt;Group&gt;"><path id="_Path_" data-name="&lt;Path&gt;" d="M20,194.2c-1.8-32.4-5.3-65.8,1.7-97.8C35.3,33.6,108.4-5.4,169.5,6.5c30,5.9,54.9,37.2,36,66.9-11.4,17.9-34.4,24.4-55.6,25.9-19.2,1.3-39.7-.7-55.2-12-5.6-4.1-10.6-9.8-10.8-16.7s3.6-11.9,8.6-15.5,11.1-5.4,17.1-6.8c36-8.3,75.6-4.8,106.8,14.8,13.5,8.4,30.8,27.7,20,44.2-4.7,7.3-12.9,11.7-21,14.7-25.3,9.3-55.5,9.5-74.4,31.2-11.9,13.7-11.1,32.5,1.9,45.1,16.3,15.9,35.5,28.6,51.2,45.1" style="fill:none;stroke:#fff;stroke-miterlimit:10;stroke-width:8.8px"/><g id="_Group_2" data-name="&lt;Group&gt;"><g id="_Group_3" data-name="&lt;Group&gt;"><path id="_Path_2" data-name="&lt;Path&gt;" d="M25.2,259.8H16.8a8.3,8.3,0,0,1-8.3-8.2V184.2H33.6v67.4a8.3,8.3,0,0,1-8.3,8.2" style="fill:#c21612"/></g><g id="_Group_4" data-name="&lt;Group&gt;"><path id="_Path_3" data-name="&lt;Path&gt;" d="M33.6,184.2H8.4a8.4,8.4,0,1,1,0-16.8H33.6a8.4,8.4,0,1,1,0,16.8" style="fill:#c21612"/></g><g id="_Group_5" data-name="&lt;Group&gt;"><polygon id="_Path_4" data-name="&lt;Path&gt;" points="8.4 238.8 33.6 238.8 33.6 205.2 8.4 205.2 8.4 238.8" style="fill:#9f1318"/></g></g><g id="_Group_6" data-name="&lt;Group&gt;"><g id="_Group_7" data-name="&lt;Group&gt;"><path id="_Path_5" data-name="&lt;Path&gt;" d="M208.5,255.5l-5.9,5.8a8.2,8.2,0,0,1-11.7-.1l-47.3-47.9,18-17.7,47,48.2a8.2,8.2,0,0,1-.1,11.7" style="fill:#c21612"/></g><g id="_Group_8" data-name="&lt;Group&gt;"><path id="_Path_6" data-name="&lt;Path&gt;" d="M161.6,195.6l-18,17.7a8.4,8.4,0,0,1-11.9-.1,8.5,8.5,0,0,1,.1-11.9l18-17.6a8.4,8.4,0,1,1,11.8,11.9" style="fill:#c21612"/></g><g id="_Group_9" data-name="&lt;Group&gt;"><polygon id="_Path_7" data-name="&lt;Path&gt;" points="181.8 252.2 199.8 234.6 176.3 210.6 158.3 228.3 181.8 252.2" style="fill:#9f1318"/></g></g></g></g></g></svg>