<svg xmlns="http://www.w3.org/2000/svg" viewBox="0 0 270 349.6"><title>girl</title><g id="Layer_2" data-name="Layer 2"><g id="TEXTO"><g id="_Group_" data-name="&lt;Group&gt;"><path id="_Path_" data-name="&lt;Path&gt;" d="M202.2,322.7a20.9,20.9,0,0,1-17.9,23.6l-2.8.2a21.1,21.1,0,0,1-20.8-18.1l-6-44.4c4.2-21.9,29.9-27.8,41.2-7.3Z" style="fill:#f7f8f8"/><path id="_Path_2" data-name="&lt;Path&gt;" d="M180,328.4l-5.5-39.7s16.5-2.1,22-7.8l-.6-4.2c-12.2-11.3-31.1-8.9-41.2,7.3l6,44.4a21.1,21.1,0,0,0,20.8,18.1l2.8-.2a21.7,21.7,0,0,0,6.8-2.2A20.7,20.7,0,0,1,180,328.4Z" style="fill:#d8dade"/><path id="_Path_3" data-name="&lt;Path&gt;" d="M115.2,284l-6.1,44.4a20.9,20.9,0,0,1-20.7,18.1l-2.9-.2a21,21,0,0,1-17.9-23.6l6.3-46c7.7-8.2,10.2-11.9,19.3-10.5C97.9,266.9,115.7,272.7,115.2,284Z" style="fill:#f7f8f8"/><path id="_Path_4" data-name="&lt;Path&gt;" d="M83.2,322.7,89,280.3c4.2-14.1-7.4-13.4-15.1-3.6l-6.3,46a21,21,0,0,0,17.9,23.6l2.9.2a22,22,0,0,0,7.7-1.5A20.9,20.9,0,0,1,83.2,322.7Z" style="fill:#d8dade"/><path id="_Path_5" data-name="&lt;Path&gt;" d="M251,142.4a21.2,21.2,0,0,1-4.6,42.2l-32.7-3.5h-.1l-37.1-12.7-.9-34.2Z" style="fill:#f7f8f8"/><path id="_Path_6" data-name="&lt;Path&gt;" d="M264.8,154.9a21.3,21.3,0,0,1-23.5,18.8l-32.7-3.5h0l-28.9-35.5-4.1-.5,10.3,43.2,27.8,3.7h0l32.7,3.5a21.1,21.1,0,0,0,23.4-18.8,20.6,20.6,0,0,0-5.2-16.3A19.4,19.4,0,0,1,264.8,154.9Z" style="fill:#d8dade"/><path id="_Path_7" data-name="&lt;Path&gt;" d="M94.4,134.2l-.9,34.2L56.3,181.1h0l-32.8,3.5A21.2,21.2,0,1,1,19,142.4Z" style="fill:#f7f8f8"/><path id="_Path_8" data-name="&lt;Path&gt;" d="M5.3,149.5a21.2,21.2,0,0,0,18.2,35.1l32.8-3.5h0l27.8-3.7,10.3-43.2-4.2.5L61.4,170.2h0l-32.8,3.5A21.2,21.2,0,0,1,5.2,154.9,19.5,19.5,0,0,1,5.3,149.5Z" style="fill:#d8dade"/><path id="_Path_9" data-name="&lt;Path&gt;" d="M91.3,131.1c5.4,4.1,80.8,4.7,85.8,1.1l1.9.8,14.7,58.5,19.9,79.6c-5.8,2.1-11.7,4-17.7,5.6a231,231,0,0,1-41.2,7.3,236.8,236.8,0,0,1-39.5,0,233.7,233.7,0,0,1-41.3-7.3c-5.9-1.6-11.8-3.5-17.7-5.6L76,192.2l14.7-58.5Z" style="fill:#872d91"/><path id="_Path_10" data-name="&lt;Path&gt;" d="M200.3,40.7a74.2,74.2,0,0,0-15.9-21.3,72.7,72.7,0,0,0-83-11.2A71.2,71.2,0,0,0,85.5,19.4a71.9,71.9,0,0,0-16,21.4,72.7,72.7,0,0,0-7.4,32c0,2.3.1,4.5.3,6.7a72.7,72.7,0,0,0,28.9,51.6,70.2,70.2,0,0,0,17.8,9.8v3.8a25.8,25.8,0,0,0,51.6,0v-3.8a69.6,69.6,0,0,0,16.4-8.7,72.6,72.6,0,0,0,30.6-58V72.8A72.1,72.1,0,0,0,200.3,40.7Z" style="fill:#f7f8f8"/><path id="_Path_11" data-name="&lt;Path&gt;" d="M267.8,51.2,236.4,15.6a30.7,30.7,0,0,0-41.7-4.1l-10.2,7.8h-.1A71.4,71.4,0,0,0,159.3,4.3h.1l-1.9-.6-3.1-.9-3.2-.8-3.1-.7-4-.6L141.6.3c-2.2-.2-4.4-.3-6.7-.3a72.5,72.5,0,0,0-33.5,8.2A71.2,71.2,0,0,0,85.5,19.4h-.2L75.2,11.5a30.7,30.7,0,0,0-41.7,4.1L2.1,51.2,69.5,40.7h0a72.7,72.7,0,0,0-7.4,32c0,2.3.1,4.5.3,6.7h1.2l3.1-.4.9-.2,2.8-.6,1.1-.2,2.7-.7,1.1-.4,2.5-.8,1.2-.4,2.3-.9,1.4-.6,2.1-.9,1.4-.7,2-1,1.3-.8,1.9-1,1.4-.9,1.8-1.1,1.4-1,1.7-1.2L99,64.4l1.6-1.2a6.9,6.9,0,0,1,1.3-1.1l1.5-1.4,1.2-1.1,1.5-1.5,1.1-1.2,1.4-1.5a18.3,18.3,0,0,0,1.3-1.6,6.9,6.9,0,0,0,1.1-1.3,23.7,23.7,0,0,0,2.3-3h0l1,1.5h0a72.7,72.7,0,0,0,59.8,31.4,72.6,72.6,0,0,0,33.6-8.2V72.8a72.1,72.1,0,0,0-7.4-32.1Z" style="fill:#c21612"/><path id="_Path_12" data-name="&lt;Path&gt;" d="M267.8,51.2l-19-21.6c.2,2.1.4,4.3.4,6.5C227.6,30,203,42.3,184.6,23.8c9.2,12.3,21.5,36.9,6.1,43.1-27.7,9.2-76.9-6.2-73.8-46.1-6.2,21.5-21.5,36.9-43.1,43-3.1-15.4,3.1-27.7,9.2-40C59.2,34.7,32.4,33.3,9.9,42.3L2.1,51.2,69.5,40.7h0a72.7,72.7,0,0,0-7.4,32c0,2.3.1,4.5.3,6.7h1.2l3.1-.4.9-.2,2.8-.6,1.1-.2,2.7-.7,1.1-.4,2.5-.8,1.2-.4,2.3-.9,1.4-.6,2.1-.9,1.4-.7,2-1,1.3-.8,1.9-1,1.4-.9,1.8-1.1,1.4-1,1.7-1.2L99,64.4l1.6-1.2a6.9,6.9,0,0,1,1.3-1.1l1.5-1.4,1.2-1.1,1.5-1.5,1.1-1.2,1.4-1.5a18.3,18.3,0,0,0,1.3-1.6,6.9,6.9,0,0,0,1.1-1.3,23.7,23.7,0,0,0,2.3-3h0l1,1.5h0a72.7,72.7,0,0,0,59.8,31.4,72.6,72.6,0,0,0,33.6-8.2V72.8a72.1,72.1,0,0,0-7.4-32.1Z" style="fill:#9f1318"/><path id="_Path_13" data-name="&lt;Path&gt;" d="M108.7,140.8c2.2-14.3-6.3-22.9-17.4-9.7l-.6,2.6L76,192.2,56.2,271.1c5.9,2.1,11.8,4,17.7,5.6s11.6,2.9,17.5,4C73.3,250.7,81.8,202.2,108.7,140.8Z" style="fill:#65226d"/><path id="_Path_14" data-name="&lt;Path&gt;" d="M159.4,141.4a73.7,73.7,0,0,1-24.5,4.2,71.2,71.2,0,0,1-25.8-4.7,70.2,70.2,0,0,1-17.8-9.8A72.7,72.7,0,0,1,62.4,79.5h0a72.6,72.6,0,0,0,50.4-29.9l1.4,2.1A70.7,70.7,0,0,0,111,72.8c0,2.3.1,4.5.3,6.7a72.7,72.7,0,0,0,28.9,51.6,70.2,70.2,0,0,0,17.8,9.8Z" style="fill:#d8dade"/><circle id="_Path_15" data-name="&lt;Path&gt;" cx="83.2" cy="96.4" r="11.2" style="fill:#c21612;opacity:0.4"/><g id="_Group_2" data-name="&lt;Group&gt;"><g id="_Group_3" data-name="&lt;Group&gt;"><g id="_Group_4" data-name="&lt;Group&gt;"><path id="_Path_16" data-name="&lt;Path&gt;" d="M101.1,93.5a9.3,9.3,0,0,0,9.1,9.3c3.6,0,9.1-3.8,9.1-9.3s-4.1-9.7-9.1-9.7S101.1,88,101.1,93.5Z" style="fill:#9f1318"/></g></g><g id="_Group_5" data-name="&lt;Group&gt;"><g id="_Group_6" data-name="&lt;Group&gt;"><path id="_Path_17" data-name="&lt;Path&gt;" d="M168,93.5a9.3,9.3,0,0,1-9.1,9.3c-3.6,0-9.1-3.8-9.1-9.3s4-9.7,9.1-9.7S168,88,168,93.5Z" style="fill:#9f1318"/></g></g><g id="_Group_7" data-name="&lt;Group&gt;"><g id="_Group_8" data-name="&lt;Group&gt;"><path id="_Path_18" data-name="&lt;Path&gt;" d="M101.2,89.7a9,9,0,0,0,18,0,9,9,0,0,0-18,0Z" style="fill:#40200a"/></g></g><g id="_Group_9" data-name="&lt;Group&gt;"><g id="_Group_10" data-name="&lt;Group&gt;"><path id="_Path_19" data-name="&lt;Path&gt;" d="M149.9,89.7a9,9,0,1,0,18,0,9,9,0,0,0-18,0Z" style="fill:#40200a"/></g></g><g id="_Group_11" data-name="&lt;Group&gt;"><g id="_Group_12" data-name="&lt;Group&gt;"><path id="_Path_20" data-name="&lt;Path&gt;" d="M101.2,90.6a9,9,0,0,0,18,0,9,9,0,0,0-18,0Z" style="fill:#fff"/></g></g><g id="_Group_13" data-name="&lt;Group&gt;"><g id="_Group_14" data-name="&lt;Group&gt;"><path id="_Path_21" data-name="&lt;Path&gt;" d="M168.1,90.6a9,9,0,0,1-18,0,9,9,0,0,1,18,0Z" style="fill:#fff"/></g></g><g id="_Group_15" data-name="&lt;Group&gt;"><g id="_Group_16" data-name="&lt;Group&gt;"><path id="_Path_22" data-name="&lt;Path&gt;" d="M163.1,91.1a3.8,3.8,0,0,1-7.6,0,3.8,3.8,0,0,1,7.6,0Z" style="fill:#40200a"/></g></g><g id="_Group_17" data-name="&lt;Group&gt;"><g id="_Group_18" data-name="&lt;Group&gt;"><circle id="_Path_23" data-name="&lt;Path&gt;" cx="160.7" cy="89.4" r="1.5" style="fill:#f7f8f8"/></g></g><g id="_Group_19" data-name="&lt;Group&gt;"><g id="_Group_20" data-name="&lt;Group&gt;"><path id="_Path_24" data-name="&lt;Path&gt;" d="M114.3,91.1a3.9,3.9,0,0,1-7.7,0,3.9,3.9,0,0,1,7.7,0Z" style="fill:#40200a"/></g></g><g id="_Group_21" data-name="&lt;Group&gt;"><g id="_Group_22" data-name="&lt;Group&gt;"><circle id="_Path_25" data-name="&lt;Path&gt;" cx="111.9" cy="89.4" r="1.5" style="fill:#f7f8f8"/></g></g></g><g id="_Group_23" data-name="&lt;Group&gt;"><path d="M92,106.8a32.3,32.3,0,0,0,8.2,9.7,38.3,38.3,0,0,0,10.7,6.2c7.6,3,16,4.1,24.3,4.1a66.9,66.9,0,0,0,24.4-4.1,39.8,39.8,0,0,0,10.7-6.2,32.3,32.3,0,0,0,8.2-9.7c-.7,4.4-3.1,8.5-6,12a36.9,36.9,0,0,1-10.7,8.5c-8.2,4.3-17.5,6-26.6,6s-18.3-1.7-26.5-6A36.9,36.9,0,0,1,98,118.8C95.1,115.3,92.7,111.2,92,106.8Z" style="fill:#8e0926"/></g><path id="_Path_26" data-name="&lt;Path&gt;" d="M157,346.1c.4-9.7-.7-9.8,5.4-15.9s22-6.7,32.7-4.6c23.3,4.7,40.6,8,40.6,17.1,0,1.1-.3,3.4-.8,3.4Z" style="fill:#c21612"/><rect id="_Rectangle_" data-name="&lt;Rectangle&gt;" x="155.1" y="345.2" width="81.3" height="4.43" rx="0.5" ry="0.5" transform="translate(391.4 694.9) rotate(180)" style="fill:#9f1318"/><path id="_Path_27" data-name="&lt;Path&gt;" d="M111.4,346.1c-.4-9.7.6-9.8-5.5-15.9s-21.9-6.7-32.7-4.6c-23.2,4.7-40.6,8-40.6,17.1,0,1.1.3,3.4.8,3.4Z" style="fill:#c21612"/><rect id="_Rectangle_2" data-name="&lt;Rectangle&gt;" x="32" y="345.2" width="81.3" height="4.43" rx="0.5" ry="0.5" style="fill:#9f1318"/><circle id="_Path_28" data-name="&lt;Path&gt;" cx="186.7" cy="96.4" r="11.2" style="fill:#c21612;opacity:0.4"/></g></g></g></svg>