<svg xmlns="http://www.w3.org/2000/svg" viewBox="0 0 445.5 266.1"><title>juego</title><g style="isolation:isolate"><g id="Layer_2" data-name="Layer 2"><g id="Layer_5" data-name="Layer 5"><g id="_Group_" data-name="&lt;Group&gt;"><g id="_Group_2" data-name="&lt;Group&gt;"><path id="_Path_" data-name="&lt;Path&gt;" d="M49.6,59A123.6,123.6,0,0,0,22,72.4c-2.1,1.3-4.3,3.2-4.1,5.6s3.1,3.8,5.4,4.7l62.5,22.7a49.4,49.4,0,0,0,8.3,2.5,54.8,54.8,0,0,0,9.9.5c63.9-1.7,128.2-5,190.1-21,2.6-.7,5.3-1.5,7.4-3.3s3-4.9,1.6-7.3a8.4,8.4,0,0,0-3.4-2.7A200.9,200.9,0,0,0,166.5,52.8Z" style="fill:#d8dade;mix-blend-mode:multiply"/><polygon id="_Path_2" data-name="&lt;Path&gt;" points="264.1 82.5 96.7 93.5 96.4 39.1 263.8 28.1 264.1 82.5" style="fill:#89878c"/><polygon id="_Path_3" data-name="&lt;Path&gt;" points="38.3 72.8 96.7 93.5 96.4 39.1 38.1 18.4 38.3 72.8" style="fill:#b0afb5"/><polygon id="_Path_4" data-name="&lt;Path&gt;" points="270.3 77.7 96.1 89.1 95.9 32.5 270 21.1 270.3 77.7" style="fill:#b0afb5"/><polygon id="_Path_5" data-name="&lt;Path&gt;" points="35.4 67.6 96.1 89.1 95.9 32.5 35.2 11 35.4 67.6" style="fill:#d8dade"/><polygon id="_Path_6" data-name="&lt;Path&gt;" points="209.3 0 35.2 11.4 95.9 32.5 270 21.1 209.3 0" style="fill:#fff"/></g><g id="_Group_3" data-name="&lt;Group&gt;"><polygon id="_Path_7" data-name="&lt;Path&gt;" points="74.2 97 290 107.1 445.5 245.1 26.7 266.1 74.2 97" style="fill:#d8dade;mix-blend-mode:multiply"/><polygon id="_Path_8" data-name="&lt;Path&gt;" points="76.3 97.1 287.8 107 440.4 238.9 30 258.5 76.3 97.1" style="fill:#fff"/><path id="_Path_9" data-name="&lt;Path&gt;" d="M343.4,171.6c-26.2-8-54.2-3.7-79.3,1.5-8.5,1.8-16.8,3.7-25.1,5.2s-20.4,4-29.9,2.7c-2.2-.3-4.7-1-5.4-3.3-1.9-6.3,9.2-5.9,12.1-6l11.9-.7c7.9-.4,15.8-.9,23.7-1.8,11-1.3,23.3-4.3,32.3-12.3,7.4-6.4,9.3-15.5,7.2-24.6a.4.4,0,0,1-.1-.3c-1-4.1-3-12.1-26.7-10.8-40.7,2.3-108-8.3-106,32.1-.3,12.1,2.8,35.1-2.3,34.7-21,.9,5.2-54.6-14.4-72.7-14-11.8-32.5-8.1-49.6-4.4a16,16,0,0,0-4.6,6.2c-3.8,8.5-4.6,17.9-5.3,27.1q-3,37.5-6,75.8l17.4-.3a360.4,360.4,0,0,1,6.8-66.4c1.3-6.1,2.8-12.4,6.3-17.4s9.8-8.2,14.5-5.8,6.4,11.9,6.2,19.4l-.9,45.6c-.1,3.4.1,7.3,2.6,9a7.3,7.3,0,0,0,4.1.9,224.7,224.7,0,0,0,37.3-2.1c3.8-.5,8.6-1.6,10.4-5.3s.8-11.9.2-16.9c-1.1-10.5-1.3-21.5,2.1-31.6a14.3,14.3,0,0,1,2.1-4.3c2.4-3.1,6.7-3.6,10.3-4.2,17.2-2.6,35-2.8,52.4-3.9,2.3-.1,4.7-.2,6.6,1,5.5,3.4,2.4,12.3-1.6,15.5s-11,4.2-16.7,4.4l-28.9,1.1c-4.3.2-8.9.4-12.6,3.1-7.7,5.6-7.2,17.7-5.7,27.3.4,2.5.8,5.1,2.2,7.1,3,4.1,8.7,3.8,13.6,3.2l53.4-6.6c16.3-2,33.1-4.5,50-4.4,4,0,8.8-1.2,12,2s2.1,8-.6,11-6.8,4.3-10.7,4.7c-9.9,1-19.7.7-29.4,1.4l-185.5,14-2.5,2.2c-2.2,3.1-8.9,13.7-10.5,17.2,82.6-1.8,164.1-2.1,278.8-14.4C382.3,225.9,365.9,177.9,343.4,171.6Z" style="fill:#d8dade"/><path id="_Path_10" data-name="&lt;Path&gt;" d="M343.5,169.5c-26.2-8-54.2-3.8-79.3,1.5-8.5,1.7-16.8,3.6-25.1,5.1s-20.4,4-29.9,2.8c-2.2-.3-4.7-1.1-5.4-3.3-1.9-6.4,9.2-5.9,12.1-6.1l11.9-.7c7.9-.4,15.8-.8,23.7-1.8,11-1.3,23.3-4.3,32.3-12.2,7.4-6.5,9.3-15.6,7.2-24.6a.4.4,0,0,1-.1-.3c-1-4.2-3-12.1-26.7-10.8-40.7,2.3-108-8.3-106,32-.3,12.2,2.8,35.2-2.3,34.7-21,1,5.2-54.5-14.4-72.6-14-11.8-32.5-8.1-49.6-4.4a15.3,15.3,0,0,0-4.6,6.2c-3.8,8.4-4.6,17.9-5.3,27q-3,37.5-6,75.9l17.4-.3a359.5,359.5,0,0,1,6.8-66.4c1.3-6.1,2.8-12.4,6.3-17.4s9.8-8.3,14.5-5.9,6.4,11.9,6.2,19.5l-.9,45.5c-.1,3.4.1,7.4,2.6,9s2.7.9,4.1,1a236,236,0,0,0,37.3-2.1c3.8-.5,8.6-1.6,10.4-5.4s.8-11.8.2-16.9c-1.1-10.4-1.3-21.4,2.1-31.5a14.3,14.3,0,0,1,2.1-4.3c2.4-3.1,6.7-3.7,10.3-4.2,17.2-2.7,35-2.8,52.4-3.9,2.3-.2,4.7-.2,6.6.9,5.5,3.5,2.4,12.4-1.6,15.6s-11,4.2-16.7,4.4l-28.9,1.1c-4.3.1-8.9.4-12.6,3.1-7.7,5.5-7.2,17.6-5.7,27.3.4,2.5.8,5.1,2.2,7.1,3,4,8.7,3.8,13.6,3.2l53.4-6.6c16.3-2.1,33.1-4.6,50-4.5,4,0,8.8-1.1,12,2.1s2.1,7.9-.6,10.9-6.8,4.3-10.7,4.7c-9.9,1.1-19.7.7-29.4,1.4l-185.5,14-2.5,2.3c-2.2,3.1-8.9,13.7-10.5,17.2,82.6-1.9,164.1-2.1,278.8-14.4C382.4,223.8,366,175.7,343.5,169.5Z" style="fill:#c21612"/><g id="_Group_4" data-name="&lt;Group&gt;"><path d="M59.6,199.1c16.1,1.7,32.2-.2,48.3-1.6,1.6-.2,6.9-2.8,2.8-2.5-15.2,1.4-30.6,3.3-45.8,1.7a7.7,7.7,0,0,0-4.5.8c-.3.2-2.3,1.4-.8,1.6Z" style="fill:#fff"/></g><g id="_Group_5" data-name="&lt;Group&gt;"><path d="M69.8,184.4c10.1-.2,20.3-.2,30.4-1.9,2.6-.4,5.6-3.2,1.1-2.5-9.5,1.6-19.2,1.5-28.8,1.7-1.8.1-6.9,2.8-2.7,2.7Z" style="fill:#fff"/></g><g id="_Group_6" data-name="&lt;Group&gt;"><path d="M71.7,169.2c8.2-.1,16.4-.1,24.6-.5,4.6-.2,12.4-.1,16-3.4.7-.7,1-1.3.1-1.8h-.2c-1.4-.8-4.7.1-5.5,1.4v.2c-1.4,2.3,4.9,1.5,5.9-.1v-.2l-5.5,1.5h.2v-1.8c-.8.8-5.8.9-7.5,1l-8,.2-17.5.3c-2.2,0-6.9,3.3-2.6,3.2Z" style="fill:#fff"/></g><g id="_Group_7" data-name="&lt;Group&gt;"><path d="M73.2,153.2a272.6,272.6,0,0,0,35,1.7c2.1,0,6.9-3.1,2.6-3.1a252,252,0,0,1-33.6-1.6c-1.7-.2-7.4,2.6-4,3Z" style="fill:#fff"/></g><g id="_Group_8" data-name="&lt;Group&gt;"><path d="M74.8,136.2a163,163,0,0,0,19.8,3c4.5.4,9.8,1.4,14.1-.6.4-.2,1.8-1,1.1-1.6l-.2-.2c-1.2-1-5,.2-5.9,1.3h0c-1.4,1.7,4.7,1,5.8-.3h0l-5.8,1.3h.1l1.1-1.7-.4.3,3.9-.9A150.8,150.8,0,0,1,80,133.6a6.2,6.2,0,0,0-4.4.8c-.5.3-2.3,1.5-.8,1.8Z" style="fill:#fff"/></g><g id="_Group_9" data-name="&lt;Group&gt;"><path d="M82.4,104a99.4,99.4,0,0,0,15.2,20.7c5.9,6.1,13.1,11.3,16.2,19.5.6,1.6,6.9-.3,6.4-1.7-2.8-7.3-8.7-12.3-14.2-17.6a99.8,99.8,0,0,1-17.3-22.6c-.8-1.7-6.9.6-6.3,1.7Z" style="fill:#fff"/></g><g id="_Group_10" data-name="&lt;Group&gt;"><path d="M117.9,102c-1.9,13-3.4,26-4.4,39.2-.3,3.3,6.2,2.5,6.5-.5,1-13.1,2.4-26.2,4.4-39.2.5-3.3-6.1-2.5-6.5.5Z" style="fill:#fff"/></g><g id="_Group_11" data-name="&lt;Group&gt;"><path d="M121,140.9c14.2-6.4,28.8-12.1,43.5-17.3,4.2-1.5.3-2.9-2.3-1.9-14.8,5.2-29.3,10.9-43.6,17.3-4.1,1.8-.2,3,2.4,1.9Z" style="fill:#fff"/></g><g id="_Group_12" data-name="&lt;Group&gt;"><path d="M120.1,149.7l32.9-7.2c3.8-.8,3-3.6-.8-2.8l-32.9,7.1c-3.8.9-3,3.7.8,2.9Z" style="fill:#fff"/></g><g id="_Group_13" data-name="&lt;Group&gt;"><path d="M116.5,160.2c12.3-1,24.5-2.4,36.7-4.1,3.4-.5,5.1-4.8.8-4.2-12.3,1.7-24.5,3.1-36.8,4.2-3.3.3-5.1,4.5-.7,4.1Z" style="fill:#fff"/></g><g id="_Group_14" data-name="&lt;Group&gt;"><path d="M117.2,171.5q34.7.3,69.2-2.9c3.2-.3,5.2-4.2.8-3.7a662.5,662.5,0,0,1-67.5,2.8c-2.5,0-6.8,3.8-2.5,3.8Z" style="fill:#fff"/></g><g id="_Group_15" data-name="&lt;Group&gt;"><path d="M115.6,188c4.6,2.6,12.2-2.6,16.4-4.3l22.6-9.5c4.1-1.8.3-3.5-2.4-2.3l-16.5,7c-5.4,2.2-11.3,5.5-17,6.8h3l-1-.5c-1.6-.9-7.5,1.6-5.1,2.9Z" style="fill:#fff"/></g><g id="_Group_16" data-name="&lt;Group&gt;"><path d="M149.8,179.9c-10.5,8.5-20.7,17.5-30.4,27-1.5,1.5,4.6.9,5.9-.3,9.4-9.2,19.2-17.9,29.5-26.2,2.6-2.1-3.7-1.5-5-.5Z" style="fill:#fff"/></g><g id="_Group_17" data-name="&lt;Group&gt;"><path d="M151,178.6a145,145,0,0,0,8.2,25.7c.7,1.8,7-.1,6.3-1.8a149.5,149.5,0,0,1-8.1-25.6c-.4-1.8-6.8-.2-6.4,1.7Z" style="fill:#fff"/></g><g id="_Group_18" data-name="&lt;Group&gt;"><path d="M153.1,175.9c9.3,1,18.7,1.6,28.1,2,1.3,0,7.2-2.5,4.1-2.6-9.4-.4-18.7-1-28.1-2-1.3-.1-7.2,2.3-4.1,2.6Z" style="fill:#fff"/></g><g id="_Group_19" data-name="&lt;Group&gt;"><path d="M152.8,157.9c12.9-.5,25.8-1.5,38.6-3.1,1.7-.2,6.9-3.1,2.7-2.6-12.8,1.6-25.6,2.6-38.5,3-1.8.1-7,2.8-2.8,2.7Z" style="fill:#fff"/></g><g id="_Group_20" data-name="&lt;Group&gt;"><path d="M154.6,134.7a139.3,139.3,0,0,0,18.7,8.9c5.8,2.2,11.7,3.8,16.8,7.4,1.7,1.3,7.6-1.3,5.1-3.1-5.1-3.6-11.1-5.2-16.8-7.4a128.6,128.6,0,0,1-18.7-9c-1.9-1-7.8,1.7-5.1,3.2Z" style="fill:#fff"/></g><g id="_Group_21" data-name="&lt;Group&gt;"><path d="M177.1,116.7a102.8,102.8,0,0,1,12.3,11.5c3.7,4.4,5.8,9.6,9.2,14,1.4,1.8,7.5-.4,5.9-2.5-3.4-4.4-5.5-9.7-9.2-14s-8-7.9-12.3-11.6c-1.7-1.4-7.7,1.1-5.9,2.6Z" style="fill:#fff"/></g><g id="_Group_22" data-name="&lt;Group&gt;"><path d="M206.8,112.4l5.9,31.1c.2,1.2,6.6-.3,6.3-1.7l-5.9-31.1c-.2-1.1-6.6.3-6.3,1.7Z" style="fill:#fff"/></g><g id="_Group_23" data-name="&lt;Group&gt;"><path d="M235.4,111.7,234,129.6c-.4,4.5-2.1,10.9-.9,15.3.5,1.5,2.5,1.8,3.8,1.4h.4c1-.3,2.6-1.3,2.6-2.6v-.3c-.1-3.5-6.6-2.6-6.5.4v.3l2.6-2.5h-.3l3.8,1.4c-.6-2.2.3-5.7.5-8l.6-7.9,1.3-15.9c.3-3.5-6.3-2.7-6.5.4Z" style="fill:#fff"/></g><g id="_Group_24" data-name="&lt;Group&gt;"><path d="M252.2,138.2a371.2,371.2,0,0,1,34.7-20.9c3.7-2-2.2-1.6-3.7-.8a397,397,0,0,0-35.9,21.6c-2.6,1.7,3.8.9,4.9.1Z" style="fill:#fff"/></g><g id="_Group_25" data-name="&lt;Group&gt;"><path d="M250.7,145.7c18.9-2.1,39.1-2.6,57.4-8,3.7-1.1,3.1-3.6-.7-2.5-8.8,2.6-18,3.4-27.2,4.5l-28.4,3.1c-2.8.3-5.6,3.4-1.1,2.9Z" style="fill:#fff"/></g><g id="_Group_26" data-name="&lt;Group&gt;"><path d="M244.4,149a168.4,168.4,0,0,0,39,14.1c2.3.5,7.6-3,3.9-3.8a163.3,163.3,0,0,1-37.9-13.6c-2.1-1.1-7.9,1.9-5,3.3Z" style="fill:#fff"/></g><g id="_Group_27" data-name="&lt;Group&gt;"><path d="M233.3,152.1a77.7,77.7,0,0,1,.8,9.6c.1,2.6.9,6.6-.1,9.1l5.7-1.9h-.2l.6,1v-.2c.6-1.9-5.7-1.1-6.4.9v.2c-.2.5.2.8.6,1h.2c1.5.8,5-.2,5.7-1.9s.2-6.1.2-8.5a99.9,99.9,0,0,0-.8-11c-.3-1.9-6.7-.5-6.4,1.7Z" style="fill:#fff"/></g><g id="_Group_28" data-name="&lt;Group&gt;"><path d="M211,152.1c-.6,3,1.1,6.3,1.8,9.1a90,90,0,0,1,1.8,11.4c.2,2.6,6.4,1.3,6.4-1.2v-.9c0-3.2-6.5-2.1-6.4.5v1l6.4-1.1a83.1,83.1,0,0,0-1.5-10c-.7-2.8-2.7-6.5-2.1-9.3s-5.8-2.1-6.4.5Z" style="fill:#fff"/></g><g id="_Group_29" data-name="&lt;Group&gt;"><path d="M187.1,160.7l20,14.9c2.2,1.7,7.8-1.5,4.9-3.7L192,157c-2.3-1.7-7.9,1.5-4.9,3.7Z" style="fill:#fff"/></g><g id="_Group_30" data-name="&lt;Group&gt;"><path d="M208.9,176c-4.3,2.2-7.6,6.2-11.1,9.4l-5.5,5.3c-1.8,1.9-3.4,4.3-5.8,5.6s-.5,1,.4,1.3,3.5-.6,4.5-1.2c3.7-2.1,6.2-5.9,9.3-8.8l5.3-5c1.9-1.8,4.2-4.7,6.5-5.9s-2.2-1.4-3.6-.7Z" style="fill:#fff"/></g><g id="_Group_31" data-name="&lt;Group&gt;"><path d="M216.9,176c-.9,4.7-1.6,9.4-2.1,14.2-.3,2.2-.5,4.4-.7,6.6,0,.4-.3,5.4.1,5.2-2.7,1.9,3.7,1.5,5,.5s.6-.7.9-1.3c1.2-2.2.5-7.5.8-10.1.5-5.4,1.3-10.8,2.3-16.1.4-1.9-5.9-.8-6.3,1Z" style="fill:#fff"/></g><g id="_Group_32" data-name="&lt;Group&gt;"><path d="M233.4,173.6l1.2,25.8c.1,1.1,6.5.1,6.4-1.7l-1.3-25.8c0-1.1-6.4-.1-6.3,1.7Z" style="fill:#fff"/></g><g id="_Group_33" data-name="&lt;Group&gt;"><path d="M254.7,169.6c2.4,9.6,4.5,19.2,6.3,28.9.2,1.2,6.6-.2,6.4-1.7-1.8-9.7-3.9-19.3-6.4-28.9-.3-1.3-6.7.3-6.3,1.7Z" style="fill:#fff"/></g><g id="_Group_34" data-name="&lt;Group&gt;"><path d="M283.4,164.4c1.7,10,3,19.9,4,29.9.1,1.4,6.6.2,6.4-1.7-1-10-2.4-19.9-4-29.9-.2-1.4-6.6,0-6.4,1.7Z" style="fill:#fff"/></g><g id="_Group_35" data-name="&lt;Group&gt;"><path d="M308.9,191.4a160.1,160.1,0,0,1,9.7-30.1c1.4-3.2-5-2.9-6-.5A162.4,162.4,0,0,0,302.5,192c-.6,2.9,5.9,2.1,6.4-.6Z" style="fill:#fff"/></g><g id="_Group_36" data-name="&lt;Group&gt;"><path d="M318,194.7c9.6-11.4,18.8-23.5,30-33.5,2.7-2.4-3.6-2.4-5.1-1-11.5,10.3-21,22.7-30.9,34.5-1.7,2,4.6,1.6,6,0Z" style="fill:#fff"/></g><g id="_Group_37" data-name="&lt;Group&gt;"><path d="M314.4,200.1a292.6,292.6,0,0,1,57.2-15.2c2.7-.4,5.7-3.3,1.2-2.6a309.5,309.5,0,0,0-60.6,16.1c-4.3,1.6-.3,2.6,2.2,1.7Z" style="fill:#fff"/></g><g id="_Group_38" data-name="&lt;Group&gt;"><path d="M308.4,203c24.4,3.2,49,5.7,73.6,7.5,2.5.2,6.7-3.5,2.4-3.8q-36.1-2.7-72.2-7.3c-1.3-.2-3.6-.1-4.5,1.2s-.9,2.1.7,2.4Z" style="fill:#fff"/></g><g id="_Group_39" data-name="&lt;Group&gt;"><path d="M304,198.9c4.6,7.1,9.4,14,14.6,20.7s11.4,13.6,14.6,21.9c.6,1.6,6.8-.4,6.4-1.7-2.9-7.4-7.9-13.4-12.8-19.6s-11.3-15.1-16.4-23c-1-1.6-6.9.8-6.4,1.7Z" style="fill:#fff"/></g><g id="_Group_40" data-name="&lt;Group&gt;"><path d="M285.6,199.7a230.6,230.6,0,0,1,4.7,46.2c0,1.3,6.4.3,6.4-1.7A238.2,238.2,0,0,0,292,198c-.4-1.6-6.8-.1-6.4,1.7Z" style="fill:#fff"/></g><g id="_Group_41" data-name="&lt;Group&gt;"><path d="M257.7,203a147.3,147.3,0,0,1,1.9,41.4c-.1.9,6.2.3,6.4-1.7a147.3,147.3,0,0,0-1.9-41.4c-.3-1.4-6.7.1-6.4,1.7Z" style="fill:#fff"/></g><g id="_Group_42" data-name="&lt;Group&gt;"><path d="M227.7,205.6c.5,13.9.6,27.8.3,41.6,0,1.1,6.4.2,6.4-1.7.3-13.9.1-27.7-.3-41.6-.1-1.2-6.5-.2-6.4,1.7Z" style="fill:#fff"/></g><g id="_Group_43" data-name="&lt;Group&gt;"><path d="M197.1,206.8l.7,35.7c0,3.1,6.4,2,6.4-.6l-.7-35.6c0-3.2-6.4-2.1-6.4.5Z" style="fill:#fff"/></g><g id="_Group_44" data-name="&lt;Group&gt;"><path d="M168.1,208.6c0,13.8-.1,27.7-.4,41.6-.1,1.3,6.3.3,6.3-1.8.4-13.8.5-27.7.5-41.6,0-1.3-6.4-.3-6.4,1.8Z" style="fill:#fff"/></g><g id="_Group_45" data-name="&lt;Group&gt;"><path d="M144.7,210.9l.2,33.1c.1,3.1,6.5,2,6.5-.6l-.2-33.1c0-3.2-6.5-2-6.5.6Z" style="fill:#fff"/></g><g id="_Group_46" data-name="&lt;Group&gt;"><path d="M121.4,214.6l-3.1,37.2c-.1,1,6.2.3,6.4-1.7l3.1-37.2c0-1-6.3-.3-6.4,1.7Z" style="fill:#fff"/></g><ellipse id="_Path_11" data-name="&lt;Path&gt;" cx="80.9" cy="226.6" rx="28.4" ry="22.4" transform="matrix(1, -0.09, 0.09, 1, -20.12, 8.22)" style="fill:#d8dade"/><ellipse id="_Path_12" data-name="&lt;Path&gt;" cx="82.6" cy="225.1" rx="27.1" ry="21.5" transform="translate(-20 8.4) rotate(-5.2)" style="fill:#e00109"/></g><g id="_Group_47" data-name="&lt;Group&gt;"><ellipse id="_Path_13" data-name="&lt;Path&gt;" cx="17.9" cy="157.6" rx="17.9" ry="4" style="fill:#d8dade;mix-blend-mode:multiply"/><g id="_Group_48" data-name="&lt;Group&gt;"><rect id="_Rectangle_" data-name="&lt;Rectangle&gt;" x="12.4" y="135.2" width="11" height="19.28" rx="5.5" ry="5.5" style="fill:#c21612"/><circle id="_Path_14" data-name="&lt;Path&gt;" cx="17.9" cy="135.2" r="8.8" style="fill:#c21612"/><polygon id="_Path_15" data-name="&lt;Path&gt;" points="26.8 147.7 9 147.7 3.7 157.3 32.1 157.3 26.8 147.7" style="fill:#c21612"/></g></g><g id="_Group_49" data-name="&lt;Group&gt;"><ellipse id="_Path_16" data-name="&lt;Path&gt;" cx="44.6" cy="200.7" rx="17.9" ry="4" style="fill:#d8dade;mix-blend-mode:multiply"/><g id="_Group_50" data-name="&lt;Group&gt;"><rect id="_Rectangle_2" data-name="&lt;Rectangle&gt;" x="39.1" y="178.2" width="11" height="19.28" rx="5.5" ry="5.5" style="fill:#aa7135"/><circle id="_Path_17" data-name="&lt;Path&gt;" cx="44.6" cy="178.2" r="8.8" style="fill:#aa7135"/><polygon id="_Path_18" data-name="&lt;Path&gt;" points="53.5 190.8 35.7 190.8 30.4 200.4 58.8 200.4 53.5 190.8" style="fill:#aa7135"/></g></g><g id="_Group_51" data-name="&lt;Group&gt;"><ellipse id="_Path_19" data-name="&lt;Path&gt;" cx="77.4" cy="224.4" rx="17.9" ry="4" style="fill:#d8dade;mix-blend-mode:multiply"/><rect id="_Rectangle_3" data-name="&lt;Rectangle&gt;" x="72.1" y="202.3" width="11" height="19.28" rx="5.5" ry="5.5" style="fill:#f1c40f"/><circle id="_Path_20" data-name="&lt;Path&gt;" cx="77.6" cy="202.3" r="8.8" style="fill:#f1c40f"/><polygon id="_Path_21" data-name="&lt;Path&gt;" points="86.5 214.8 68.7 214.8 63.5 224.4 91.8 224.4 86.5 214.8" style="fill:#f1c40f"/></g><g id="_Group_52" data-name="&lt;Group&gt;"><ellipse id="_Path_22" data-name="&lt;Path&gt;" cx="220.1" cy="125" rx="17.9" ry="4" style="fill:#d8dade;mix-blend-mode:multiply"/><rect id="_Rectangle_4" data-name="&lt;Rectangle&gt;" x="214.6" y="102.8" width="11" height="19.28" rx="5.5" ry="5.5" style="fill:#872d91"/><circle id="_Path_23" data-name="&lt;Path&gt;" cx="220.1" cy="102.8" r="8.8" style="fill:#872d91"/><polygon id="_Path_24" data-name="&lt;Path&gt;" points="229 115.4 211.2 115.4 205.9 125 234.2 125 229 115.4" style="fill:#872d91"/></g><g id="_Group_53" data-name="&lt;Group&gt;"><path id="_Path_25" data-name="&lt;Path&gt;" d="M329.9,128.2h-2.4l-15.2,3a4.9,4.9,0,0,0-1.7.6,2.5,2.5,0,0,0-1.3.9l-3.2,3.5a2.4,2.4,0,0,0-.6,1.4,1.1,1.1,0,0,0,.8,1l19.9,8.6a7,7,0,0,0,2.5.5,7.5,7.5,0,0,0,2.6-.5l19.9-8.6a1.2,1.2,0,0,0,.7-1c.1-.4-.2-.9-.6-1.4l-3.2-3.5a2.7,2.7,0,0,0-1.2-.9l-1.7-.6Z" style="fill:#d8dade;mix-blend-mode:multiply"/><path id="_Path_26" data-name="&lt;Path&gt;" d="M330.2,106.9a4,4,0,0,0-1.5-.3,3.2,3.2,0,0,0-1.4.3l-15.2,6.5a2.3,2.3,0,0,0-1.2,1,3,3,0,0,0-.5,1.5v19.3a3,3,0,0,0,.5,1.5,2.3,2.3,0,0,0,1.2,1l15.2,6.5a3.2,3.2,0,0,0,1.4.3,4,4,0,0,0,1.5-.3l15.2-6.5a2.6,2.6,0,0,0,1.6-2.5V115.9a2.6,2.6,0,0,0-1.6-2.5Z" style="fill:#fff"/><path id="_Path_27" data-name="&lt;Path&gt;" d="M346.6,114.4a2.8,2.8,0,0,0-1.2-1h-.3a.7.7,0,0,1,.4.6.8.8,0,0,1-.4.6l-14.9,6.3a4,4,0,0,1-1.5.3,3.2,3.2,0,0,1-1.4-.3l-15-6.3a.8.8,0,0,1-.4-.6.7.7,0,0,1,.4-.6l6.5-2.7-6.7,2.8a2.3,2.3,0,0,0-1.2,1,3,3,0,0,0-.5,1.5h0a.8.8,0,0,1,.4-.7,1,1,0,0,1,.9-.1l14.4,6.1a3.6,3.6,0,0,1,1.6,1.4,3.6,3.6,0,0,1,.6,2v19a.9.9,0,0,1-.3.6h-.5l1.2.2,1.2-.2h-.5a.9.9,0,0,1-.3-.6v-19a3.6,3.6,0,0,1,.6-2,3.8,3.8,0,0,1,1.7-1.4l14.4-6.1a.8.8,0,0,1,.8.1.7.7,0,0,1,.4.7h0A2.8,2.8,0,0,0,346.6,114.4Z" style="fill:#d8dade"/><g id="_Group_54" data-name="&lt;Group&gt;"><path id="_Path_28" data-name="&lt;Path&gt;" d="M315.7,134.7c0,1.2-.7,1.8-1.6,1.4a3.2,3.2,0,0,1-1.7-2.8c0-1.1.8-1.7,1.7-1.3A3,3,0,0,1,315.7,134.7Z" style="fill:#65226d"/><path id="_Path_29" data-name="&lt;Path&gt;" d="M326.7,139.3c0,1.2-.7,1.8-1.6,1.4a3,3,0,0,1-1.7-2.7c0-1.2.7-1.8,1.7-1.4A3.1,3.1,0,0,1,326.7,139.3Z" style="fill:#65226d"/><path id="_Path_30" data-name="&lt;Path&gt;" d="M315.7,121c0,1.1-.7,1.7-1.6,1.3a3.1,3.1,0,0,1-1.7-2.7c0-1.1.8-1.8,1.7-1.4A3.2,3.2,0,0,1,315.7,121Z" style="fill:#65226d"/><path id="_Path_31" data-name="&lt;Path&gt;" d="M326.7,125.6c0,1.2-.7,1.8-1.6,1.4a3.1,3.1,0,0,1-1.7-2.8c0-1.1.7-1.7,1.7-1.3A3,3,0,0,1,326.7,125.6Z" style="fill:#65226d"/><path id="_Path_32" data-name="&lt;Path&gt;" d="M321.2,130.2c0,1.1-.7,1.7-1.6,1.3a3.2,3.2,0,0,1-1.7-2.7c0-1.2.8-1.8,1.7-1.4A3.2,3.2,0,0,1,321.2,130.2Z" style="fill:#65226d"/><path id="_Path_33" data-name="&lt;Path&gt;" d="M336.2,130.2c0,1.1.8,1.7,1.7,1.3a3.1,3.1,0,0,0,1.6-2.7c0-1.2-.7-1.8-1.6-1.4A3.2,3.2,0,0,0,336.2,130.2Z" style="fill:#65226d"/><path id="_Path_34" data-name="&lt;Path&gt;" d="M319.4,114.8a4.7,4.7,0,0,1-3.3,0c-.9-.4-.9-1,0-1.4a4.7,4.7,0,0,1,3.3,0C320.3,113.8,320.3,114.4,319.4,114.8Z" style="fill:#65226d"/><path id="_Path_35" data-name="&lt;Path&gt;" d="M341.4,114.8a4.7,4.7,0,0,1-3.3,0c-.9-.4-.9-1,0-1.4a4.7,4.7,0,0,1,3.3,0C342.3,113.8,342.3,114.4,341.4,114.8Z" style="fill:#65226d"/><path id="_Path_36" data-name="&lt;Path&gt;" d="M330.4,114.8a4.7,4.7,0,0,1-3.3,0c-.9-.4-.9-1,0-1.4a4.7,4.7,0,0,1,3.3,0C331.3,113.8,331.3,114.4,330.4,114.8Z" style="fill:#65226d"/></g></g><g id="_Group_55" data-name="&lt;Group&gt;"><path id="_Path_37" data-name="&lt;Path&gt;" d="M398.1,167.6a4.9,4.9,0,0,0-1.7.6,4.3,4.3,0,0,0-1.3.9l-3.2,3.6a1.9,1.9,0,0,0-.6,1.3,1.1,1.1,0,0,0,.8,1l19.9,8.6a7,7,0,0,0,2.5.5,7.1,7.1,0,0,0,2.6-.5L437,175a1.2,1.2,0,0,0,.8-1,2.1,2.1,0,0,0-.7-1.3l-3.1-3.6a4.3,4.3,0,0,0-1.3-.9,5.8,5.8,0,0,0-1.7-.6l-15.3-3h-2.4Z" style="fill:#d8dade;mix-blend-mode:multiply"/><path id="_Path_38" data-name="&lt;Path&gt;" d="M397.9,149.8a2.3,2.3,0,0,0-1.2,1,3,3,0,0,0-.5,1.5v19.3a3,3,0,0,0,.5,1.5,2.3,2.3,0,0,0,1.2,1l15.2,6.5a3.5,3.5,0,0,0,1.4.3,3.7,3.7,0,0,0,1.5-.3l15.2-6.5a2.3,2.3,0,0,0,1.2-1,3,3,0,0,0,.5-1.5V152.3a3,3,0,0,0-.5-1.5,2.3,2.3,0,0,0-1.2-1L416,143.3a6.6,6.6,0,0,0-1.5-.3,7,7,0,0,0-1.4.3Z" style="fill:#fff"/><path id="_Path_39" data-name="&lt;Path&gt;" d="M396.2,152.3h0a1.3,1.3,0,0,1,.4-.7,1,1,0,0,1,.9-.1l14.4,6.1a4.3,4.3,0,0,1,1.6,1.4,3.6,3.6,0,0,1,.6,2v19a.6.6,0,0,1-.3.6h-.5l1.2.2,1.2-.2h-.5a.8.8,0,0,1-.2-.6V161a3.6,3.6,0,0,1,.6-2,3.1,3.1,0,0,1,1.6-1.4l14.4-6.1a.8.8,0,0,1,.8.1c.3.2.5.4.5.7h0a3,3,0,0,0-.5-1.5,2.3,2.3,0,0,0-1.2-1l-6.7-2.8,6.4,2.7a.7.7,0,0,1,0,1.2L416,157.2a3.7,3.7,0,0,1-1.5.3,3.5,3.5,0,0,1-1.4-.3l-15-6.3a.8.8,0,0,1,0-1.2h-.2a2.3,2.3,0,0,0-1.2,1A3,3,0,0,0,396.2,152.3Z" style="fill:#d8dade"/><g id="_Group_56" data-name="&lt;Group&gt;"><path id="_Path_40" data-name="&lt;Path&gt;" d="M429.2,168.4c.9-.4,1.6.2,1.6,1.3a3.2,3.2,0,0,1-1.6,2.8c-.9.4-1.7-.2-1.7-1.4A3.2,3.2,0,0,1,429.2,168.4Z" style="fill:#65226d"/><path id="_Path_41" data-name="&lt;Path&gt;" d="M418.2,173c.9-.4,1.7.2,1.7,1.4a3.2,3.2,0,0,1-1.7,2.7c-.9.4-1.6-.2-1.6-1.3A3.2,3.2,0,0,1,418.2,173Z" style="fill:#65226d"/><path id="_Path_42" data-name="&lt;Path&gt;" d="M429.2,154.6c.9-.3,1.6.3,1.6,1.4a3.3,3.3,0,0,1-1.6,2.8c-.9.3-1.7-.3-1.7-1.4A3.4,3.4,0,0,1,429.2,154.6Z" style="fill:#65226d"/><path id="_Path_43" data-name="&lt;Path&gt;" d="M418.2,159.3c.9-.4,1.7.2,1.7,1.3a3.2,3.2,0,0,1-1.7,2.8c-.9.4-1.6-.2-1.6-1.4A3.1,3.1,0,0,1,418.2,159.3Z" style="fill:#65226d"/><path id="_Path_44" data-name="&lt;Path&gt;" d="M423.7,163.8c.9-.4,1.6.3,1.6,1.4a3,3,0,0,1-1.6,2.7c-.9.4-1.6-.2-1.6-1.3A3.2,3.2,0,0,1,423.7,163.8Z" style="fill:#65226d"/><path id="_Path_45" data-name="&lt;Path&gt;" d="M405.4,163.8c-.9-.4-1.7.3-1.7,1.4a3.1,3.1,0,0,0,1.7,2.7c.9.4,1.6-.2,1.6-1.3A3.2,3.2,0,0,0,405.4,163.8Z" style="fill:#65226d"/><path id="_Path_46" data-name="&lt;Path&gt;" d="M423.9,149.8a4.7,4.7,0,0,1,3.3,0c.9.4.9,1,0,1.4a4.7,4.7,0,0,1-3.3,0C423,150.8,423,150.2,423.9,149.8Z" style="fill:#65226d"/><path id="_Path_47" data-name="&lt;Path&gt;" d="M401.9,149.8a4.7,4.7,0,0,1,3.3,0c.9.4.9,1,0,1.4a4.7,4.7,0,0,1-3.3,0C401,150.8,401,150.2,401.9,149.8Z" style="fill:#65226d"/><path id="_Path_48" data-name="&lt;Path&gt;" d="M412.9,149.8a4.7,4.7,0,0,1,3.3,0c.9.4.9,1,0,1.4a4.7,4.7,0,0,1-3.3,0C412,150.8,412,150.2,412.9,149.8Z" style="fill:#65226d"/></g></g></g></g></g></g></svg>