<svg xmlns="http://www.w3.org/2000/svg" viewBox="0 0 234.4 231.5"><title>molinillo</title><g id="Layer_2" data-name="Layer 2"><g id="Layer_5" data-name="Layer 5"><g id="_Group_" data-name="&lt;Group&gt;"><rect id="_Path_" data-name="&lt;Path&gt;" x="138.5" y="92.1" width="14.6" height="109.06" transform="translate(-61 148.8) rotate(-45.8)" style="fill:#fff"/><rect id="_Path_2" data-name="&lt;Path&gt;" x="144.8" y="89.5" width="7.3" height="109.06" transform="translate(-58.3 149.9) rotate(-45.8)" style="fill:#222;opacity:0.300000011920929;isolation:isolate"/><polygon id="_Path_3" data-name="&lt;Path&gt;" points="101.7 113.8 128.5 139.9 145.4 135.9 111.9 103.4 101.7 113.8" style="fill:#222;opacity:0.300000011920929;isolation:isolate"/><path id="_Path_4" data-name="&lt;Path&gt;" d="M114.8,188,94,94l-43.4,9.6,12.7,57.7C67.3,179.3,96.9,187,114.8,188Z" style="fill:#c21612"/><polygon id="_Path_5" data-name="&lt;Path&gt;" points="50.6 103.6 60.2 147.4 94 94 50.6 103.6" style="fill:#9f1318"/><path id="_Path_6" data-name="&lt;Path&gt;" d="M0,114.8,94,94,84.4,50.6,26.7,63.3C8.7,67.3,1,96.9,0,114.8Z" style="fill:#c21612"/><polygon id="_Path_7" data-name="&lt;Path&gt;" points="84.4 50.6 40.7 60.2 94 94 84.4 50.6" style="fill:#9f1318"/><path id="_Path_8" data-name="&lt;Path&gt;" d="M73.2,0,94,94l43.4-9.6L124.7,26.7C120.7,8.7,91.1,1,73.2,0Z" style="fill:#c21612"/><polygon id="_Path_9" data-name="&lt;Path&gt;" points="137.4 84.4 127.8 40.7 94 94 137.4 84.4" style="fill:#9f1318"/><path id="_Path_10" data-name="&lt;Path&gt;" d="M188,73.2,94,94l9.6,43.4,57.7-12.7C179.3,120.7,187,91.1,188,73.2Z" style="fill:#c21612"/><polygon id="_Path_11" data-name="&lt;Path&gt;" points="103.6 137.4 147.4 127.8 94 94 103.6 137.4" style="fill:#9f1318"/><circle id="_Path_12" data-name="&lt;Path&gt;" cx="94" cy="94" r="18.3" style="fill:#fff"/><circle id="_Path_13" data-name="&lt;Path&gt;" cx="94" cy="94" r="5.4" style="fill:#9f1318"/><rect id="_Rectangle_" data-name="&lt;Rectangle&gt;" x="190.4" y="170.6" width="31.7" height="66.14" rx="15.8" ry="15.8" transform="translate(-83.5 209.3) rotate(-45.8)" style="fill:#9f1318"/></g></g></g></svg>