<svg xmlns="http://www.w3.org/2000/svg" viewBox="0 0 318.8 273.5"><title>oso</title><g style="isolation:isolate"><g id="Layer_2" data-name="Layer 2"><g id="TEXTO"><g id="_Group_" data-name="&lt;Group&gt;"><path id="_Path_" data-name="&lt;Path&gt;" d="M115,242.5l-65.7,29a27,27,0,0,1-13,1.9c-12.6-1.6-23.3-10.1-29.7-21-10.8-18.2-8-39.8,6.1-48.2,12.2-7.2,28.7-2.3,39.9,10.6l39.6-17.9C110.4,188.8,131.6,235.3,115,242.5Z" style="fill:#aa7135"/><path id="_Path_2" data-name="&lt;Path&gt;" d="M92.4,196.8c-1.4,14.3,1.5,29.3,6.2,44.7C86.1,244,71.2,260.2,65,250.2c-11.2-21.1-27.4-44.8-49.8-43.5l-6.2.2c-10.8,9.8-12.2,29-2.4,45.5,6.4,10.9,17.1,19.4,29.7,21a27,27,0,0,0,13-1.9l65.7-29C131.5,235.4,110.6,189.2,92.4,196.8Z" style="fill:#9b6534"/><path id="_Path_3" data-name="&lt;Path&gt;" d="M47.5,272.1c-13.7,4.8-31.2-3.2-40.9-19.7s-8.5-32.5.1-42.8c13.7-4.8,31.2,3.2,40.9,19.7S56.1,261.8,47.5,272.1Z" style="fill:#b9a086"/><path id="_Path_4" data-name="&lt;Path&gt;" d="M230,198.4l36.1,16.4c11.3-12.9,27.8-17.8,39.9-10.6,14.2,8.4,17,30,6.2,48.2-6.5,10.9-17.2,19.4-29.7,21a27.6,27.6,0,0,1-13.1-1.9l-66.1-30.4C196.8,227,218.4,199,230,198.4Z" style="fill:#9b6534"/><path id="_Path_5" data-name="&lt;Path&gt;" d="M257.8,260.2c-13.7-6.3-36-10-38.5-21.2-3-12.8,5.8-28.7,19.4-36.6l-8.7-4c-11.6.6-33.2,28.6-26.7,42.7l66.1,30.4a27.6,27.6,0,0,0,13.1,1.9c12.5-1.6,23.2-10.1,29.7-21,9.8-16.6,8.4-36.1-2.7-45.7a117.3,117.3,0,0,0-19.3,3.7C267.8,216.6,255.3,237.8,257.8,260.2Z" style="fill:#d8dade;mix-blend-mode:multiply"/><path id="_Path_6" data-name="&lt;Path&gt;" d="M271.1,229.3c9.8-16.5,27.2-24.5,41-19.7,8.5,10.3,9,27.6.1,42.8s-27.2,24.5-41,19.7C262.7,261.8,262.2,244.4,271.1,229.3Z" style="fill:#b9a086"/><path id="_Path_7" data-name="&lt;Path&gt;" d="M275.9,182.8c-33.7,15.4-73.8,23.5-116,23.5h-.2V144.4h.2c32.9,0,65-6.3,90.3-17.9a30.9,30.9,0,0,1,25.7,56.3Z" style="fill:#9b6534"/><circle id="_Path_8" data-name="&lt;Path&gt;" cx="252.9" cy="158.6" r="20.6" style="fill:#d5b99b"/><circle id="_Path_9" data-name="&lt;Path&gt;" cx="268.6" cy="133.1" r="6.3" style="fill:#d5b99b"/><circle id="_Path_10" data-name="&lt;Path&gt;" cx="281.4" cy="146.3" r="7" style="fill:#d5b99b"/><circle id="_Path_11" data-name="&lt;Path&gt;" cx="282.3" cy="164.3" r="6.6" style="fill:#d5b99b"/><path id="_Path_12" data-name="&lt;Path&gt;" d="M28.2,141.8a30.9,30.9,0,0,1,41-15.3c25.4,11.6,57.4,17.9,90.3,17.9h.2v61.9h-.2c-42.2,0-82.3-8.1-116-23.5A31,31,0,0,1,28.2,141.8Z" style="fill:#aa7135"/><circle id="_Path_13" data-name="&lt;Path&gt;" cx="159.6" cy="183.6" r="72.2" style="fill:#aa7135"/><ellipse id="_Path_14" data-name="&lt;Path&gt;" cx="159.6" cy="181" rx="48.3" ry="59.3" style="fill:#d5b99b"/><path id="_Path_15" data-name="&lt;Path&gt;" d="M159.6,111.4A71.9,71.9,0,0,0,97.9,146c5.5,10.1,12.7,18.9,23.1,23.3,29.8,13.7,65.9-1.2,94.5-17.4,10,31.1,6.3,70.9-22.4,87.1s-60.5,11-86.8-6.7a72.2,72.2,0,1,0,53.3-120.9Z" style="fill:#d8dade;mix-blend-mode:multiply"/><g id="_Group_2" data-name="&lt;Group&gt;"><circle id="_Path_16" data-name="&lt;Path&gt;" cx="221.5" cy="41.3" r="41.3" style="fill:#aa7135"/><circle id="_Path_17" data-name="&lt;Path&gt;" cx="97.6" cy="41.3" r="41.3" style="fill:#aa7135"/></g><g id="_Group_3" data-name="&lt;Group&gt;"><circle id="_Path_18" data-name="&lt;Path&gt;" cx="97.6" cy="41.3" r="20.6" style="fill:#d5b99b"/><circle id="_Path_19" data-name="&lt;Path&gt;" cx="221.5" cy="41.3" r="20.6" style="fill:#d5b99b"/></g><circle id="_Path_20" data-name="&lt;Path&gt;" cx="159.6" cy="87.7" r="77.4" style="fill:#aa7135"/><circle id="_Path_21" data-name="&lt;Path&gt;" cx="159.6" cy="113.5" r="41.3" style="fill:#d5b99b"/><circle id="_Path_22" data-name="&lt;Path&gt;" cx="159.6" cy="95.9" r="15.5" style="fill:#231f20"/><circle id="_Path_23" data-name="&lt;Path&gt;" cx="66.5" cy="158.6" r="20.6" style="fill:#d5b99b"/><circle id="_Path_24" data-name="&lt;Path&gt;" cx="50.8" cy="133.1" r="6.3" style="fill:#d5b99b"/><circle id="_Path_25" data-name="&lt;Path&gt;" cx="38" cy="146.3" r="7" style="fill:#d5b99b"/><circle id="_Path_26" data-name="&lt;Path&gt;" cx="37.2" cy="164.3" r="6.6" style="fill:#d5b99b"/><g id="_Group_4" data-name="&lt;Group&gt;"><g id="_Group_5" data-name="&lt;Group&gt;"><g id="_Group_6" data-name="&lt;Group&gt;"><path id="_Path_27" data-name="&lt;Path&gt;" d="M117,65.9a11.6,11.6,0,0,0,11.4,11.6c4.5,0,11.4-4.7,11.4-11.6s-5.1-12.2-11.4-12.2S117,59,117,65.9Z" style="fill:#9b6534"/></g></g><g id="_Group_7" data-name="&lt;Group&gt;"><g id="_Group_8" data-name="&lt;Group&gt;"><path id="_Path_28" data-name="&lt;Path&gt;" d="M200.7,65.9a11.6,11.6,0,0,1-11.4,11.6c-4.5,0-11.4-4.7-11.4-11.6s5.1-12.2,11.4-12.2S200.7,59,200.7,65.9Z" style="fill:#9b6534"/></g></g><g id="_Group_9" data-name="&lt;Group&gt;"><g id="_Group_10" data-name="&lt;Group&gt;"><path id="_Path_29" data-name="&lt;Path&gt;" d="M117.1,61.1a11.3,11.3,0,0,0,22.5,0,11.3,11.3,0,0,0-22.5,0Z" style="fill:#40200a"/></g></g><g id="_Group_11" data-name="&lt;Group&gt;"><g id="_Group_12" data-name="&lt;Group&gt;"><path id="_Path_30" data-name="&lt;Path&gt;" d="M178.1,61.1a11.3,11.3,0,1,0,11.2-11A11,11,0,0,0,178.1,61.1Z" style="fill:#40200a"/></g></g><g id="_Group_13" data-name="&lt;Group&gt;"><g id="_Group_14" data-name="&lt;Group&gt;"><path id="_Path_31" data-name="&lt;Path&gt;" d="M117.1,62.2a11.3,11.3,0,1,0,22.5,0,11.3,11.3,0,0,0-22.5,0Z" style="fill:#fff"/></g></g><g id="_Group_15" data-name="&lt;Group&gt;"><g id="_Group_16" data-name="&lt;Group&gt;"><path id="_Path_32" data-name="&lt;Path&gt;" d="M200.8,62.2a11.3,11.3,0,1,1-22.5,0,11.3,11.3,0,0,1,22.5,0Z" style="fill:#fff"/></g></g><g id="_Group_17" data-name="&lt;Group&gt;"><g id="_Group_18" data-name="&lt;Group&gt;"><path id="_Path_33" data-name="&lt;Path&gt;" d="M194.6,62.9a4.8,4.8,0,0,1-9.6,0,4.8,4.8,0,0,1,9.6,0Z" style="fill:#40200a"/></g></g><g id="_Group_19" data-name="&lt;Group&gt;"><g id="_Group_20" data-name="&lt;Group&gt;"><circle id="_Path_34" data-name="&lt;Path&gt;" cx="191.6" cy="60.7" r="1.9" style="fill:#fff"/></g></g><g id="_Group_21" data-name="&lt;Group&gt;"><g id="_Group_22" data-name="&lt;Group&gt;"><path id="_Path_35" data-name="&lt;Path&gt;" d="M133.5,62.9a4.8,4.8,0,0,1-9.6,0,4.8,4.8,0,0,1,9.6,0Z" style="fill:#40200a"/></g></g><g id="_Group_23" data-name="&lt;Group&gt;"><g id="_Group_24" data-name="&lt;Group&gt;"><circle id="_Path_36" data-name="&lt;Path&gt;" cx="130.5" cy="60.7" r="1.9" style="fill:#fff"/></g></g></g><g id="_Group_25" data-name="&lt;Group&gt;"><path d="M126.1,115a25.9,25.9,0,0,0,6.5,7.4,32.4,32.4,0,0,0,8.3,4.6,52.3,52.3,0,0,0,18.8,3.1,53.8,53.8,0,0,0,18.8-3.1,29.3,29.3,0,0,0,8.3-4.6,24.8,24.8,0,0,0,6.6-7.4,19.5,19.5,0,0,1-4.5,9.5,29.2,29.2,0,0,1-8.4,6.8,44.4,44.4,0,0,1-20.8,4.8,45,45,0,0,1-20.8-4.8,28.8,28.8,0,0,1-8.3-6.8A19.5,19.5,0,0,1,126.1,115Z" style="fill:#5e391b"/></g></g></g></g></g></svg>