<svg xmlns="http://www.w3.org/2000/svg" viewBox="0 0 401.9 280.8"><title>peonza</title><g style="isolation:isolate"><g id="Layer_2" data-name="Layer 2"><g id="TEXTO"><g id="_Group_" data-name="&lt;Group&gt;"><g id="_Group_2" data-name="&lt;Group&gt;"><path id="_Path_" data-name="&lt;Path&gt;" d="M30.5,280.8a63,63,0,0,1-7.5-.5c-9.2-1.1-16.1-4.7-20-10.3A17.1,17.1,0,0,1,.7,255.4a13.3,13.3,0,0,1,7.7-8.9,4.6,4.6,0,0,1,6,2.5,4.6,4.6,0,0,1-2.5,6.1A4.6,4.6,0,0,0,9.6,258a8.7,8.7,0,0,0,1,6.7c3,4.2,9,5.8,13.5,6.4,21.6,2.7,46.1-9.2,56-27,5.2-9.5,6.5-20.8,7.8-31.8.2-2.2.5-4.4.8-6.6,2.1-16,6.8-29.3,14.5-40.6,12.1-17.8,31.6-27.5,49.8-24.8a4.7,4.7,0,0,1-1.4,9.2c-16.7-2.5-32.5,8.6-40.7,20.8-6.9,10.1-11.1,22.1-13,36.6-.3,2.2-.5,4.3-.8,6.5-1.4,11.9-2.8,24.1-8.9,35.2C77.6,267.8,53.7,280.8,30.5,280.8Z" style="fill:#edeef0"/></g><g id="_Group_3" data-name="&lt;Group&gt;"><path id="_Path_2" data-name="&lt;Path&gt;" d="M188.4,274.6a7.1,7.1,0,0,1-7.1-7.1V223.6a7.1,7.1,0,0,1,14.2,0v43.9A7.1,7.1,0,0,1,188.4,274.6Z" style="fill:#c21612"/></g><g id="_Group_4" data-name="&lt;Group&gt;"><path id="_Path_3" data-name="&lt;Path&gt;" d="M181.3,214.3v40.6a40,40,0,0,0,7.1.6,41.7,41.7,0,0,0,7.1-.6V214.3a7.1,7.1,0,1,0-14.2,0Z" style="fill:#9f1318"/></g><g id="_Group_5" data-name="&lt;Group&gt;"><path id="_Path_4" data-name="&lt;Path&gt;" d="M188.4,0c-15.2,0-24.9,1.9-31,3.9a7.1,7.1,0,0,0-4.2,10.2,45,45,0,0,1,5.3,15.7h59.7a45,45,0,0,1,5.3-15.7,7.1,7.1,0,0,0-4.2-10.2C213.2,1.9,203.5,0,188.4,0Z" style="fill:#905e36"/></g><g id="_Group_6" data-name="&lt;Group&gt;" style="mix-blend-mode:multiply"><path id="_Path_5" data-name="&lt;Path&gt;" d="M190.4,7c9.3-4.9,20.3-5.2,20.4-5.2A119.4,119.4,0,0,0,188.4,0c-15.2,0-24.9,1.9-31,3.9a7.1,7.1,0,0,0-4.2,10.2,45,45,0,0,1,5.3,15.7h32.3a84.7,84.7,0,0,0-3.9-14.1A7,7,0,0,1,190.4,7Z" style="fill:#d8dade"/></g><g id="_Group_7" data-name="&lt;Group&gt;"><path id="_Path_6" data-name="&lt;Path&gt;" d="M188.4,22.9c-47.9,0-86.7,36.3-86.7,81.2,0,33.1,38.7,74.4,62.8,132,0,0,5.5,14.9,23.9,14.9s23.8-14.9,23.8-14.9c24.1-57.6,62.8-98.9,62.8-132C275,59.2,236.2,22.9,188.4,22.9Z" style="fill:#905e36"/></g><g id="_Group_8" data-name="&lt;Group&gt;"><path id="_Path_7" data-name="&lt;Path&gt;" d="M101.7,104.1c0,11.9,5,24.8,12.5,39.2H262.5C270,128.9,275,116,275,104.1c0-2.6-.2-5.1-.4-7.6H102.1C101.9,99,101.7,101.5,101.7,104.1Z" style="fill:#c21612"/></g><g id="_Group_9" data-name="&lt;Group&gt;"><path id="_Path_8" data-name="&lt;Path&gt;" d="M242.4,178.2H134.3c8,13.4,16.4,27.9,23.9,43.7h60.3C226,206.1,234.4,191.6,242.4,178.2Z" style="fill:#b07f48"/></g><g id="_Group_10" data-name="&lt;Group&gt;"><g id="_Group_11" data-name="&lt;Group&gt;"><path id="_Path_9" data-name="&lt;Path&gt;" d="M102.1,96.5H274.6A76.7,76.7,0,0,0,272,83H104.7A76.7,76.7,0,0,0,102.1,96.5Z" style="fill:#d62929"/></g><g id="_Group_12" data-name="&lt;Group&gt;"><path id="_Path_10" data-name="&lt;Path&gt;" d="M121.7,156.8H255c2.7-4.6,5.2-9.2,7.5-13.5H114.2C116.5,147.6,119,152.2,121.7,156.8Z" style="fill:#d62929"/></g></g><g id="_Group_13" data-name="&lt;Group&gt;" style="mix-blend-mode:multiply"><path id="_Path_11" data-name="&lt;Path&gt;" d="M246.6,161.7c-8.9,10-15.6,20-23.1,31.3a27.9,27.9,0,0,0-4,5.4l-4.1,8.3c-.8,1.7-3.1,3.4-4.4,5.5a132.8,132.8,0,0,1-12.9,18.7c-1.8,1.7-2.7,4.6-4.4,5.4-19.6,5.5-24.5-15.8-28.5-28.7a198.7,198.7,0,0,0-37.4-70.5c-21.3-25.9-9.8-58.4,8.9-83.8,10.7-14.2,27.1-20.4,44.5-24.2,19.6-4.2,38.5,1.1,56.3,8.1a90.4,90.4,0,0,0-49.1-14.3c-47.9,0-86.7,36.3-86.7,81.2,0,33.1,38.7,74.4,62.8,132,0,0,5.5,14.9,23.9,14.9s23.8-14.9,23.8-14.9c14.2-34.1,33.6-62.5,47-86.8C254.9,153.3,250.7,157.3,246.6,161.7Z" style="fill:#d8dade"/></g><g id="_Group_14" data-name="&lt;Group&gt;"><path id="_Path_12" data-name="&lt;Path&gt;" d="M191.3,210.9c-31.9,0-55.9-15.2-57.4-16.1a4.7,4.7,0,0,1-1.3-6.4A4.6,4.6,0,0,1,139,187c.5.3,49,30.9,97.6,2a4.7,4.7,0,0,1,6.4,1.7,4.6,4.6,0,0,1-1.6,6.3A96.6,96.6,0,0,1,191.3,210.9Z" style="fill:#fff"/></g><g id="_Group_15" data-name="&lt;Group&gt;"><path id="_Path_13" data-name="&lt;Path&gt;" d="M191.7,196.6c-36.8,0-64.9-18.6-65.3-18.9a4.6,4.6,0,0,1,5.2-7.7c2.4,1.6,58.8,38.9,115.2-.2a4.7,4.7,0,0,1,5.3,7.7A104.6,104.6,0,0,1,191.7,196.6Z" style="fill:#fff"/></g><g id="_Group_16" data-name="&lt;Group&gt;"><path id="_Path_14" data-name="&lt;Path&gt;" d="M257.1,162a4.7,4.7,0,0,1-3.1-1.2c-.7-.6-67.6-58.7-146-20.2a4.7,4.7,0,0,1-6.2-2.2,4.6,4.6,0,0,1,2.1-6.2c84.1-41.3,155.6,21,156.3,21.7a4.6,4.6,0,0,1,.4,6.5A4.4,4.4,0,0,1,257.1,162Z" style="fill:#fff"/></g><g id="_Group_17" data-name="&lt;Group&gt;"><path id="_Compound_Path_" data-name="&lt;Compound Path&gt;" d="M330,277.9a50,50,0,0,1-29.2-9.6c-17.5-12.8-24.9-33.5-28.1-48.7-2.2-10.3-2.6-21.8-3-34-.9-26.3-1.7-53.4-21.6-68.2-8.1-6-18.9-8.2-28.4-9.5-45-6.1-85.8,2.7-112,24.2a4.7,4.7,0,0,1-5.9-7.2C140.4,93.3,193,94.9,221,98.7c10.6,1.5,22.9,3.9,32.6,11.2,23.5,17.5,24.5,48.3,25.4,75.4.4,11.8.8,22.9,2.8,32.4,2.8,13.6,9.4,32,24.5,43,12.2,8.9,32.2,11.5,44.4.5,4.1-3.6,7.4-8.8,10.2-15.8,4.5-11.1,6-22.5,4.4-32.8a55.9,55.9,0,0,1-17.2,6.3,31.1,31.1,0,0,1-.9,6c-1.9,8.3-7.7,18.1-18.1,20.8-15,4-28.8-9.7-33.4-25.2-2.4-7.7-4.2-19.1.4-29.8,6.4-15.2,24.9-24.1,42.2-20.4,13.6,3,25.7,13.3,32,26.9,10.3-10.1,17.3-25.4,20.8-45.3,1.4-8,2.8-19.9-.7-30.4-4.6-14.1-18.4-25.1-33.6-26.9s-31.1,5.3-40.2,17.6c-5,6.7-6.8,13.9-4.8,19.3a10.7,10.7,0,0,0,7.3,6c1.4.3,3.9.6,5.7-1.1a4.7,4.7,0,0,1,6.4,6.8,15.6,15.6,0,0,1-14.2,3.4,20,20,0,0,1-13.9-11.8c-3.2-8.5-1-18.7,6-28.1,11.2-15.1,30.4-23.5,48.8-21.4s35.6,15.6,41.4,33.3c4.1,12.5,2.5,25.9.9,34.9-3.8,22-11.7,39-23.6,50.6l-3,2.7c3.1,13.1,1.7,27.8-4,42.1-3.4,8.4-7.5,14.6-12.7,19.2C349.7,274.6,340.1,277.9,330,277.9Zm.4-99.1c-11,0-21.8,6.2-25.8,15.5s-1.9,17.3,0,23.5c3.3,11,12.7,21.4,22.2,18.9,6.3-1.6,10.1-8.5,11.4-13.9.2-1.1.4-2.1.5-3.1a43.1,43.1,0,0,1-17-3.9c-3.4-1.7-7.6-5-9.1-9.5a10,10,0,0,1,.7-7.8,12.1,12.1,0,0,1,5.1-4.6c8-4.1,19-1.2,24.8,6.8a25.4,25.4,0,0,1,4.1,8.8,46.4,46.4,0,0,0,15.4-6.3c-4.7-12.1-14.9-21.3-26.4-23.8A28.8,28.8,0,0,0,330.4,178.8Zm-4.1,22.5a7.8,7.8,0,0,0-3.7.9c-.7.4-1.1.7-1.1.8s-.1.2,0,.5,2,2.8,4.2,3.9a32.5,32.5,0,0,0,12.2,2.9,14.7,14.7,0,0,0-2.2-4.1A12.2,12.2,0,0,0,326.3,201.3Z" style="fill:#fff"/></g></g></g></g></g></svg>