<svg xmlns="http://www.w3.org/2000/svg" viewBox="0 0 297.6 262.3"><title>scooter</title><g id="Layer_2" data-name="Layer 2"><g id="Layer_5" data-name="Layer 5"><g id="_Group_" data-name="&lt;Group&gt;"><g id="_Group_2" data-name="&lt;Group&gt;"><path id="_Path_" data-name="&lt;Path&gt;" d="M260,227.9a3.2,3.2,0,0,1-3.2-2.4L193.6,15.9a3.3,3.3,0,0,1,2.2-4.1,3.2,3.2,0,0,1,4.1,2.2l63.2,209.6a3.5,3.5,0,0,1-2.2,4.2Z" style="fill:#9f1318"/></g><g id="_Group_3" data-name="&lt;Group&gt;"><path id="_Path_2" data-name="&lt;Path&gt;" d="M260,227.9H37.7a3.3,3.3,0,0,1,0-6.6H260a3.3,3.3,0,1,1,0,6.6Z" style="fill:#9f1318"/></g><g id="_Group_4" data-name="&lt;Group&gt;"><g id="_Group_5" data-name="&lt;Group&gt;"><circle id="_Path_3" data-name="&lt;Path&gt;" cx="260" cy="224.6" r="37.7" style="fill:#606268"/></g><g id="_Group_6" data-name="&lt;Group&gt;"><circle id="_Path_4" data-name="&lt;Path&gt;" cx="260" cy="224.6" r="20.9" style="fill:#4c4e55"/></g><g id="_Group_7" data-name="&lt;Group&gt;"><circle id="_Path_5" data-name="&lt;Path&gt;" cx="260" cy="224.6" r="12.6" style="fill:#d7d8d9"/></g></g><g id="_Group_8" data-name="&lt;Group&gt;"><g id="_Group_9" data-name="&lt;Group&gt;"><circle id="_Path_6" data-name="&lt;Path&gt;" cx="37.7" cy="224.6" r="37.7" style="fill:#606268"/></g><g id="_Group_10" data-name="&lt;Group&gt;"><circle id="_Path_7" data-name="&lt;Path&gt;" cx="37.7" cy="224.6" r="20.9" style="fill:#4c4e55"/></g><g id="_Group_11" data-name="&lt;Group&gt;"><circle id="_Path_8" data-name="&lt;Path&gt;" cx="37.7" cy="224.6" r="12.6" style="fill:#d7d8d9"/></g></g><g id="_Group_12" data-name="&lt;Group&gt;"><path id="_Path_9" data-name="&lt;Path&gt;" d="M245.2,184.6a8.9,8.9,0,0,1-8.4-6.3L188.3,17.5a8.8,8.8,0,0,1,16.9-5.1l48.5,160.8a8.9,8.9,0,0,1-5.9,11A7.8,7.8,0,0,1,245.2,184.6Z" style="fill:#e00109"/></g><g id="_Group_13" data-name="&lt;Group&gt;"><path id="_Path_10" data-name="&lt;Path&gt;" d="M154.1,39.6a8.8,8.8,0,0,1-8.6-6.6,8.9,8.9,0,0,1,6.4-10.7L240.1.3a8.7,8.7,0,0,1,10.6,6.4,8.7,8.7,0,0,1-6.4,10.6L156.2,39.4Z" style="fill:#e00109"/></g><g id="_Group_14" data-name="&lt;Group&gt;"><path id="_Path_11" data-name="&lt;Path&gt;" d="M168.1,16c4.1,6,6.6,13.1,8.1,20.6l51.7-12.9a99.9,99.9,0,0,0-5.6-21.3Z" style="fill:#606268"/></g><g id="_Group_15" data-name="&lt;Group&gt;"><path id="_Path_12" data-name="&lt;Path&gt;" d="M218.4,233.4H79.7l1.3-9.9c.4-3.4,3-33.2-29.6-39.1a8.8,8.8,0,1,1,3.1-17.3c33.1,5.9,43.1,30.7,44.2,48.7H201.8c4.9-36.8,32.5-45.1,33.8-45.4a8.7,8.7,0,0,1,10.9,6,8.9,8.9,0,0,1-6,10.9c-1,.3-20.8,7-21.8,37.6Z" style="fill:#e00109"/></g></g></g></g></svg>