<svg xmlns="http://www.w3.org/2000/svg" viewBox="0 0 314 312.7"><title>tricicle</title><g id="Layer_2" data-name="Layer 2"><g id="Layer_5" data-name="Layer 5"><g id="_Group_" data-name="&lt;Group&gt;"><path id="_Path_" data-name="&lt;Path&gt;" d="M245.9,218s-1.7,19.2-5.6,29.2c0,0,21.6-9.3,22.4-10.3s7.2-10.2,4.9-24.3S245.9,218,245.9,218Z" style="fill:#c21612"/><circle id="_Path_2" data-name="&lt;Path&gt;" cx="79.2" cy="112.3" r="13" style="fill:#fff"/><path id="_Path_3" data-name="&lt;Path&gt;" d="M75.5,101v22.6a3.8,3.8,0,0,0,3.7,3.7H94.3a3.8,3.8,0,0,0,3.8-3.7V101a3.8,3.8,0,0,0-3.8-3.8H79.2A3.8,3.8,0,0,0,75.5,101Z" style="fill:#9f1318"/><path id="_Path_4" data-name="&lt;Path&gt;" d="M228.3,43.6a5.4,5.4,0,0,1-5.4-5.4,16.4,16.4,0,0,0-16.4-16.4,5.5,5.5,0,0,1,0-10.9,27.3,27.3,0,0,1,27.3,27.3A5.5,5.5,0,0,1,228.3,43.6Z" style="fill:#c21612"/><path id="_Path_5" data-name="&lt;Path&gt;" d="M250.1,38.2a5.5,5.5,0,0,1-5.4-5.5c0-11.8-17.5-21.8-38.2-21.8a5.4,5.4,0,0,1-5.4-5.4A5.4,5.4,0,0,1,206.5,0c27.5,0,49.1,14.4,49.1,32.7A5.5,5.5,0,0,1,250.1,38.2Z" style="fill:#c21612"/><path id="_Path_6" data-name="&lt;Path&gt;" d="M195.6,32.7H141.1a16.4,16.4,0,0,1-16.3-16.3h0A16.4,16.4,0,0,1,141.1,0h54.5A16.5,16.5,0,0,1,212,16.4h0A16.5,16.5,0,0,1,195.6,32.7Z" style="fill:#9f1318"/><path id="_Path_7" data-name="&lt;Path&gt;" d="M246.6,218a43.7,43.7,0,0,1,21-5.4c-3.7-58.1-80.9-105-157.9-108.8-.8,7.2-1.5,14.4-2.1,21.8,68.4,2.9,138.3,43.2,138.3,92.4Z" style="fill:#c21612"/><path id="_Path_8" data-name="&lt;Path&gt;" d="M245.8,110.3l-27.1,29,2,1.7a162.7,162.7,0,0,1,14.9,12l43.9-40.6Z" style="fill:#9f1318"/><path id="_Path_9" data-name="&lt;Path&gt;" d="M97.5,147.2a80.1,80.1,0,0,1,12.1,1c2.2-47.2,8.5-101,26.1-116.5a16.3,16.3,0,0,1-10.9-15.3,17.8,17.8,0,0,1,.7-4.7C100.8,28.4,91,77.6,87.9,147.8A75,75,0,0,1,97.5,147.2Z" style="fill:#c21612"/><circle id="_Path_10" data-name="&lt;Path&gt;" cx="88.7" cy="224" r="88.7" style="fill:#606268"/><circle id="_Path_11" data-name="&lt;Path&gt;" cx="88.7" cy="224" r="49.3" style="fill:#4c4e55"/><circle id="_Path_12" data-name="&lt;Path&gt;" cx="88.7" cy="224" r="29.6" style="fill:#d7d8d9"/><circle id="_Path_13" data-name="&lt;Path&gt;" cx="88.7" cy="224" r="11.6" style="fill:#4c4e55"/><g id="_Group_2" data-name="&lt;Group&gt;"><circle id="_Path_14" data-name="&lt;Path&gt;" cx="267.6" cy="265.9" r="46.5" style="fill:#606268"/><circle id="_Path_15" data-name="&lt;Path&gt;" cx="267.6" cy="265.9" r="25.8" style="fill:#4c4e55"/><circle id="_Path_16" data-name="&lt;Path&gt;" cx="267.6" cy="265.9" r="15.5" style="fill:#d7d8d9"/></g><g id="_Group_3" data-name="&lt;Group&gt;"><path id="_Path_17" data-name="&lt;Path&gt;" d="M308.4,106.3V96.2A10.2,10.2,0,0,0,298.2,86H228.3A11.3,11.3,0,0,0,217,97.4h0a11.1,11.1,0,0,0,8.7,11c12.5,3,34.9,8.1,42.1,8.1h30.4a10.2,10.2,0,0,0,10.2-10.2Z" style="fill:#4c4e55"/><path id="_Path_18" data-name="&lt;Path&gt;" d="M289.8,101.7V93.8a7.9,7.9,0,0,0-7.9-8h-55a8.9,8.9,0,0,0-8.9,8.9h0a8.9,8.9,0,0,0,6.9,8.7c9.8,2.3,27.4,6.3,33,6.3h24a7.9,7.9,0,0,0,7.9-8Z" style="fill:#606268"/></g><path id="_Path_19" data-name="&lt;Path&gt;" d="M111.4,289.1a9.2,9.2,0,0,0,5.8-11.6l-18.3-55a9.2,9.2,0,1,0-17.4,5.8l18.3,55a9.1,9.1,0,0,0,8.7,6.2A10.1,10.1,0,0,0,111.4,289.1Z" style="fill:#c21612"/><path id="_Path_20" data-name="&lt;Path&gt;" d="M146.1,289.5a10.6,10.6,0,0,0-10.6-10.6H103.7a10.6,10.6,0,1,0,0,21.2h31.8A10.5,10.5,0,0,0,146.1,289.5Z" style="fill:#9f1318"/></g></g></g></svg>